<?xml version="1.0" standalone="no"?>
<!DOCTYPE svg PUBLIC "-//W3C//DTD SVG 1.1//EN" "http://www.w3.org/Graphics/SVG/1.1/DTD/svg11.dtd" >
<svg xmlns="http://www.w3.org/2000/svg">
<metadata></metadata>
<defs>
<font id="sinkin_sans500_medium_italic" horiz-adv-x="1480" >
<font-face units-per-em="2048" ascent="1659" descent="-389" />
<missing-glyph horiz-adv-x="628" />
<glyph horiz-adv-x="2048" />
<glyph horiz-adv-x="2048" />
<glyph horiz-adv-x="682" />
<glyph unicode="&#x9;" horiz-adv-x="2027" />
<glyph unicode="&#xa;" horiz-adv-x="2027" />
<glyph unicode="&#xd;" horiz-adv-x="2027" />
<glyph horiz-adv-x="2027" />
<glyph horiz-adv-x="2027" />
<glyph horiz-adv-x="2027" />
<glyph horiz-adv-x="2027" />
<glyph horiz-adv-x="2027" />
<glyph horiz-adv-x="2027" />
<glyph horiz-adv-x="2027" />
<glyph unicode=" "  horiz-adv-x="628" />
<glyph unicode="&#x09;" horiz-adv-x="628" />
<glyph unicode="&#xa0;" horiz-adv-x="628" />
<glyph unicode="!" horiz-adv-x="612" d="M39 162q21 82 76 131t133 49q80 0 111 -49t10 -131q-21 -83 -76 -132.5t-133 -49.5q-80 0 -111 49t-10 133zM188 455l242 1204h287l-352 -1204h-177z" />
<glyph unicode="&#x22;" horiz-adv-x="878" d="M289 1087l104 633h250l-207 -633h-147zM694 1087l105 633h250l-207 -633h-148z" />
<glyph unicode="#" horiz-adv-x="1509" d="M12 0l197 397l29 23h-215l51 205h264l-2 24l184 363l25 22h-215l51 205h264l-2 23l201 397h200l-198 -397l-25 -23h402v25l198 395h201l-199 -395l-22 -25h211l-51 -205h-269l4 -22l-180 -363l-24 -24h213l-52 -205h-266l2 -23l-198 -397h-201l198 397l27 23h-405l2 -23 l-199 -397h-201zM514 625h401v24l183 363l24 22h-407l4 -22l-182 -363z" />
<glyph unicode="$" horiz-adv-x="1523" d="M31 246l225 168q77 -91 150 -139.5t159 -63.5q4 -1 13.5 -2t13.5 -2l-6 26l102 414l19 23q-5 2 -19.5 6t-15.5 4q-27 6 -47 14q-53 16 -95.5 32.5t-83.5 38t-69 45t-52 53.5t-33 64t-12 76.5t11 90.5q39 159 195.5 276t396.5 141q10 2 32 2l-8 23l45 182h209l-45 -184 l-18 -25q12 0 28 -4q260 -37 396 -245l-224 -170q-87 144 -231 184q-3 1 -13.5 3t-13.5 3l7 -29l-93 -370l-18 -21q9 -2 28.5 -7.5t22.5 -6.5q29 -8 74 -23q181 -58 248.5 -163.5t33.5 -245.5q-20 -79 -65.5 -149.5t-116.5 -130.5t-177 -100.5t-234 -51.5q-8 -2 -31 -2 l6 -25l-43 -180h-209l43 180l21 25q-4 0 -15.5 1t-15.5 1q-323 41 -475 264zM539 1100q-13 -56 32.5 -99t171.5 -83l21 -7l-4 29l80 320l18 26q-18 0 -24 -2q-126 -16 -203 -69.5t-92 -114.5zM776 207q6 2 25 2q128 19 201.5 71t91.5 123q15 60 -26.5 115.5t-152.5 89.5 q0 1 -7 3.5t-9 2.5q-1 0 -10 3.5t-10 3.5l4 -27l-88 -361z" />
<glyph unicode="%" horiz-adv-x="1875" d="M195.5 1031.5q-4.5 83.5 21.5 180.5q24 97 69 181.5t106.5 149t143 101.5t171.5 37q91 0 154.5 -37.5t92 -101t33 -149t-21.5 -181.5q-50 -203 -177.5 -330.5t-310.5 -127.5q-92 0 -155.5 35.5t-92.5 97t-33.5 145zM399 -20l1008 1699h201l-1008 -1699h-201zM422 1212 q-65 -264 102 -264q86 0 144 64.5t92 199.5q35 132 11 203.5t-112 71.5q-167 0 -237 -275zM1014.5 257q-4.5 84 21.5 181q24 97 68.5 181t105.5 148t142.5 101t171.5 37q92 0 155.5 -37t91.5 -100.5t32.5 -148.5t-21.5 -181q-50 -204 -177.5 -332.5t-310.5 -128.5 q-92 0 -155.5 35.5t-91.5 98t-32.5 146.5zM1239 438q-66 -266 102 -266q172 0 236 266q35 130 11.5 202.5t-111.5 72.5q-168 0 -238 -275z" />
<glyph unicode="&#x26;" horiz-adv-x="1601" d="M78 438q69 282 512 484l-25 10q-37 60 -61 115q-40 102 -10 223q41 168 193.5 286.5t324.5 118.5q114 0 197.5 -53.5t116.5 -147t5 -204.5q-36 -147 -143 -243.5t-287 -176.5l23 -12q28 -42 131 -204t106 -169l4 -25q21 30 38 72.5t18 71.5h249l-12 -47 q-15 -65 -65.5 -145.5t-112.5 -137.5l20 -6l158 -248h-299l-57 90l4 25q-210 -140 -512 -140q-179 0 -307.5 52.5t-186.5 159t-22 251.5zM328 438q-29 -115 56.5 -175t264.5 -62q213 0 344 88l-24 10l-279 436v25q-62 -31 -98 -51q-81 -43 -123 -74q-115 -86 -141 -197z M717 1227q0 -19 3 -33.5t10.5 -34t12.5 -29.5t16 -30.5t15 -28.5q17 -34 27 -49l-2 -16q139 59 209.5 114.5t93.5 145.5q19 76 -23.5 130t-120.5 54q-82 0 -149.5 -53t-87.5 -133q-4 -18 -4 -37z" />
<glyph unicode="'" horiz-adv-x="473" d="M289 1087l104 633h250l-207 -633h-147z" />
<glyph unicode="(" horiz-adv-x="604" d="M53 172.5q-5 272.5 68 560.5q72 293 213.5 569t363.5 556h203q-389 -529 -530 -1098q-157 -634 -25 -1151h-203q-85 291 -90 563.5z" />
<glyph unicode=")" horiz-adv-x="604" d="M-219 -391q387 515 545 1151q138 568 12 1098h201q165 -554 22 -1125q-71 -291 -209.5 -561.5t-367.5 -562.5h-203z" />
<glyph unicode="*" horiz-adv-x="1171" d="M270 1071l4 162l344 59l-223 197l133 129l195 -225l65 338h164l-102 -340l305 227l72 -131l-322 -195l318 -59l-78 -162l-297 94l86 -297l-166 -71l-51 311l-207 -313l-131 73l235 295z" />
<glyph unicode="+" horiz-adv-x="1388" d="M217 717l55 225h416l-8 25l104 422h222l-105 -422l-18 -25h413l-55 -225h-414l7 -25l-105 -420h-219l102 420l21 25h-416z" />
<glyph unicode="," horiz-adv-x="591" d="M-102 -330l188 285l35 25q-71 9 -96.5 55.5t-4.5 124.5q21 84 75 133t134 49t110 -49t9 -133q-13 -56 -59 -121l-281 -420z" />
<glyph unicode="-" horiz-adv-x="821" d="M57 563l56 225h700l-55 -225h-701z" />
<glyph unicode="." horiz-adv-x="591" d="M18 162q21 82 76 131t135 49q78 0 109 -49.5t10 -130.5q-21 -83 -76 -132.5t-133 -49.5q-80 0 -110 49t-11 133z" />
<glyph unicode="/" horiz-adv-x="514" d="M-309 -102l1048 1863h211l-1048 -1863h-211z" />
<glyph unicode="0" horiz-adv-x="1581" d="M130.5 478.5q-7.5 154.5 41.5 340.5q46 187 130 344t197.5 272t258.5 179.5t305 64.5q131 0 230.5 -41.5t161.5 -118t91.5 -183t25 -237t-41.5 -280.5q-46 -187 -126.5 -340.5t-192 -265t-256.5 -172.5t-312 -61q-165 0 -280 61.5t-170 172t-62.5 265zM384.5 574 q-3.5 -109 25.5 -192.5t101.5 -129t186.5 -45.5t209 43.5t166 125.5t122.5 192t86.5 251q27 109 36.5 200.5t-2 173t-46 138t-101 89t-161.5 32.5q-113 0 -209 -47.5t-167.5 -134.5t-123.5 -199.5t-86 -251.5q-34 -136 -37.5 -245z" />
<glyph unicode="1" horiz-adv-x="868" d="M205 1243l518 416h209l-410 -1659h-243l292 1184l58 172h-4l-131 -131l-175 -140z" />
<glyph unicode="2" horiz-adv-x="1431" d="M-27 0l68 289q43 188 190.5 343t380.5 228l240 76q186 59 270 124t107 154q9 29 7.5 58t-9 55.5t-29.5 49.5t-54 39.5t-82 26t-114 9.5q-133 0 -249 -52.5t-230 -164.5l-135 174q301 270 672 270q87 0 159.5 -13.5t125.5 -38t92.5 -58.5t63 -74.5t35 -86.5t10 -94.5 t-14.5 -99.5q-41 -168 -174.5 -288.5t-382.5 -200.5l-283 -90q-141 -44 -231 -137t-123 -222q-1 -4 -7.5 -16t-7.5 -16l-20 -17h985l-57 -227h-1203z" />
<glyph unicode="3" horiz-adv-x="1488" d="M31 250l223 174q130 -217 389 -217q106 0 192 24.5t140 65t85.5 84.5t43.5 90q29 115 -41.5 189.5t-247.5 91.5q-30 3 -98.5 5t-122.5 3h-53l53 219q213 4 268 10q96 10 171.5 36t120.5 63t70.5 74t35.5 77q5 31 4.5 61t-21 57.5t-54 48t-95 32.5t-144.5 12 q-256 0 -477 -203l-137 176q302 256 670 256q106 0 192.5 -17t144 -46.5t99 -71t58.5 -90t21 -103t-12 -110.5q-30 -119 -123.5 -211t-232.5 -153v-5q127 -43 181 -150.5t20 -250.5q-18 -74 -57.5 -143t-106 -132.5t-151.5 -111t-201.5 -76t-249.5 -28.5q-376 0 -557 270z " />
<glyph unicode="4" horiz-adv-x="1511" d="M33 377l43 176l1212 1106h197l-254 -1028l-21 -27h228l-58 -227h-225l6 -25l-86 -352h-244l87 354l20 23h-905zM410 604h583l-6 27l117 473l57 180h-4l-135 -133l-481 -440l-129 -103z" />
<glyph unicode="5" horiz-adv-x="1517" d="M43 293l213 170q65 -137 160.5 -197.5t238.5 -60.5q107 0 196 29.5t148 80t96.5 109.5t53.5 125q10 51 11 100t-19.5 93.5t-55.5 78.5t-96.5 54t-142.5 20q-137 0 -258 -50.5t-240 -160.5l-121 154l303 821h1024l-55 -227h-840l17 -25l-86 -227l-70 -152l2 -2 q171 96 381 96q105 0 191 -21.5t145.5 -60.5t100.5 -92t59.5 -117t18.5 -135t-19 -147q-28 -113 -91.5 -213.5t-161 -182t-238.5 -129t-308 -47.5q-210 0 -338.5 71.5t-218.5 244.5z" />
<glyph unicode="6" horiz-adv-x="1568" d="M127 541q6 129 45 278q70 266 212.5 462.5t325.5 297t384 100.5q188 0 308 -59t204 -190l-224 -181q-51 103 -135 153t-211 50q-199 0 -354 -142t-231 -384h2q95 89 229 142.5t270 53.5q105 0 191.5 -21.5t147 -60t102 -92t60 -117.5t18 -135t-20.5 -147 q-23 -87 -68 -169t-116 -155.5t-160 -128.5t-206.5 -87t-248.5 -32q-136 0 -239 40t-166.5 113.5t-94 177.5t-24.5 233zM383.5 467.5q2.5 -40.5 12.5 -78.5t37 -71.5t63.5 -58.5t91.5 -39.5t121 -14.5q94 0 181 30.5t150 80t106.5 110t59.5 123.5q12 39 10 80t-11 79 t-35.5 72.5t-62.5 59.5t-91 40t-123 15q-96 0 -184 -32t-151 -83t-105.5 -111.5t-59.5 -121.5q-12 -39 -9.5 -79.5z" />
<glyph unicode="7" horiz-adv-x="1388" d="M272 1432l56 227h1267l-47 -189l-594 -579q-120 -119 -196.5 -260t-122.5 -328l-76 -303h-244l78 315q56 224 146 385.5t249 317.5l281 276l162 133v5h-959z" />
<glyph unicode="8" horiz-adv-x="1574" d="M76.5 375.5q1.5 51.5 11.5 103.5q33 136 140 240t266 164v4q-100 49 -146.5 136t-17.5 206q22 90 77 168.5t142.5 142.5t218.5 101.5t289 37.5q106 0 193 -17.5t145.5 -48t101 -73t60.5 -92.5t22.5 -105.5t-12.5 -113.5q-52 -218 -336 -344l-2 -4q128 -47 187.5 -154 t23.5 -248q-17 -73 -60.5 -144t-114.5 -135.5t-161.5 -113t-210 -77.5t-252.5 -29q-96 0 -178 15t-142 42t-108 64t-76 81t-45 93t-15.5 100.5zM338 483q-11 -45 2.5 -91.5t52.5 -88.5t117.5 -69t185.5 -27t199 27t151.5 69t97 88.5t48.5 91.5q30 116 -65.5 202.5 t-292.5 86.5q-194 0 -330 -86.5t-166 -202.5zM578 1217q-10 -39 1.5 -79.5t44.5 -78t100.5 -61t160.5 -23.5t173 24t131.5 61.5t83.5 78t42 78.5q5 31 4.5 63.5t-21 63t-54 54t-95 38t-143.5 14.5q-101 0 -182 -21.5t-130 -57t-77.5 -74.5t-38.5 -80z" />
<glyph unicode="9" horiz-adv-x="1568" d="M80 231l221 181q104 -207 365 -207q197 0 349 142t230 384h-4q-95 -89 -229 -141.5t-271 -52.5q-105 0 -191 21.5t-146 60t-101.5 91.5t-60.5 117t-18.5 135.5t20.5 147.5q29 110 94.5 209.5t163.5 181t238.5 130t303.5 48.5q136 0 238.5 -39.5t166 -113t93.5 -177 t24.5 -232.5t-44.5 -279q-53 -199 -147 -362t-213.5 -272t-261.5 -168t-292 -59q-192 0 -317 60t-211 194zM479 1029q0 -40 10.5 -79t36 -73t62 -59.5t92 -40.5t123.5 -15q96 0 183.5 32t150 83.5t105 112.5t58.5 122q12 39 10 79.5t-12.5 78t-37 71t-63 58t-91.5 39 t-121 14.5q-184 0 -322.5 -105.5t-173.5 -238.5q-10 -39 -10 -79z" />
<glyph unicode=":" horiz-adv-x="612" d="M39 162q21 82 76 131t133 49q80 0 111 -49t10 -131q-21 -83 -76 -132.5t-133 -49.5q-80 0 -111 49t-10 133zM264 1067q21 84 75 133t134 49t110 -49t9 -133q-21 -83 -76 -132.5t-133 -49.5q-80 0 -110 49t-9 133z" />
<glyph unicode=";" horiz-adv-x="612" d="M-82 -330l188 285l35 25q-142 18 -102 180q21 84 76 133t135 49q78 0 109 -49.5t10 -132.5q-12 -54 -60 -121l-280 -420zM264 1067q21 84 75 133t134 49t110 -49t9 -133q-21 -83 -76 -132.5t-133 -49.5q-80 0 -110 49t-9 133z" />
<glyph unicode="&#x3c;" horiz-adv-x="1062" d="M174 829l762 615l119 -162l-447 -360l-133 -93l43 -47l78 -88l235 -317l-198 -162z" />
<glyph unicode="=" horiz-adv-x="1388" d="M160 481l55 226h1024l-55 -226h-1024zM276 952l56 226h1024l-56 -226h-1024z" />
<glyph unicode="&#x3e;" horiz-adv-x="1062" d="M133 377l449 360l133 90l-45 50l-76 88l-238 317l201 162l457 -615l-760 -614z" />
<glyph unicode="?" horiz-adv-x="1355" d="M311 162q21 82 75.5 131t133.5 49q80 0 110 -49t9 -131q-21 -83 -76 -132.5t-133 -49.5q-80 0 -110 49t-9 133zM317 1409q301 270 658 270q83 0 154 -18t121 -49t88.5 -73.5t56 -91t23.5 -101.5t-9 -105q-34 -135 -140.5 -238.5t-248.5 -152.5l-84 -31q-65 -22 -104 -44 t-67 -57.5t-44.5 -78t-34.5 -115.5l-16 -69h-244l20 88q20 78 41.5 134.5t56.5 112.5t83 97.5t118 80.5t164 72l52 17q93 33 138 76t60 108q19 77 -48 145t-193 68q-130 0 -237 -51t-220 -164z" />
<glyph unicode="@" horiz-adv-x="2007" d="M183 559.5q-8 138.5 28 298.5q36 142 115.5 275.5t189.5 240.5t240 188t274.5 125t284.5 44q167 0 305.5 -63.5t223.5 -174t117 -260.5t-13 -324q-20 -79 -61 -161t-100.5 -157.5t-130 -134.5t-156.5 -94.5t-173 -35.5q-74 0 -123.5 34t-70.5 95h-5q-77 -63 -166 -97 t-171 -34q-70 0 -122.5 23t-83.5 62t-46 92t-13.5 112t17.5 122q25 102 88.5 205t150 185t197 134t219.5 52q58 0 110.5 -29t71.5 -70h4l43 76h203l-270 -528q-40 -76 -62 -158q-10 -42 16.5 -72t71.5 -30q71 0 136.5 38t113 99.5t81 130t50.5 137.5q44 178 -5.5 332.5 t-177.5 246t-304 91.5q-144 0 -290.5 -58.5t-266.5 -156.5t-210 -231.5t-126 -278.5q-28 -125 -23 -236.5t48.5 -205t113.5 -161t172.5 -105.5t223.5 -38q202 0 417 127l91 -114q-128 -81 -269 -125.5t-268 -44.5q-153 0 -281.5 44t-218.5 124t-146 193t-64 251.5zM756 760 q-66 -256 114 -256q86 0 167.5 64.5t133.5 155t76 185.5q56 232 -110 232q-83 0 -166.5 -62.5t-139 -149t-75.5 -169.5z" />
<glyph unicode="A" horiz-adv-x="1785" d="M-111 0l1153 1659h238l334 -1659h-266l-76 385l18 23h-876l8 -23l-266 -385h-267zM582 635h653l-21 24l-112 564l-8 151h-4l-84 -149l-394 -566z" />
<glyph unicode="B" horiz-adv-x="1646" d="M41 0l410 1659h776q87 0 157.5 -17t119.5 -47.5t83.5 -73.5t49 -94t16.5 -109v-12q0 -52 -15 -106q-28 -111 -88.5 -190.5t-163.5 -137.5l-2 -4q106 -44 144 -146q20 -54 20 -119q0 -57 -16 -122q-56 -225 -237.5 -353t-458.5 -128h-795zM315 227h578q175 0 267 63.5 t122 190.5q10 40 10 74q0 71 -43 117q-63 68 -231 67h-576l19 -24l-115 -463zM498 967h538q294 0 353 235q9 38 9 69q0 65 -38 103q-58 58 -209 58h-539l19 -25l-103 -416z" />
<glyph unicode="C" horiz-adv-x="1642" d="M137 539.5q0 128.5 35 279.5q46 189 140 346.5t226 272t305.5 178t370.5 63.5q402 0 574 -262l-221 -176q-58 105 -155 158t-253 53q-149 0 -275 -49t-216 -136t-151.5 -200t-94.5 -248q-26 -105 -28 -195q0 -8 -1 -17q0 -81 23 -151q25 -78 78.5 -132.5t143.5 -85.5 t212 -31q157 0 281 52.5t233 158.5l133 -174q-302 -264 -704 -264q-161 0 -285.5 39.5t-204 112t-123 176t-43.5 232z" />
<glyph unicode="D" horiz-adv-x="1720" d="M41 0l410 1659h645q138 0 245.5 -26t176 -70t113 -108.5t63.5 -134.5q18 -71 20 -157q0 -10 1 -20q-1 -75 -11 -145q-12 -79 -33.5 -169t-49 -169t-71 -165t-96.5 -156t-128.5 -134.5t-165.5 -108.5t-208.5 -70t-255.5 -26h-655zM315 227h418q98 0 180.5 16.5t145 45 t114.5 72.5t89 93t68 113t51.5 125t39.5 137q18 75 28 136.5t10 125.5t-13.5 113t-44.5 93t-80.5 73t-125.5 45.5t-175 16.5h-408l19 -25l-285 -1155z" />
<glyph unicode="E" horiz-adv-x="1581" d="M41 0l410 1659h1257l-57 -227h-1039l19 -25l-109 -438l-30 -27h942l-58 -225h-940l19 -25l-109 -440l-31 -25h1039l-56 -227h-1257z" />
<glyph unicode="F" horiz-adv-x="1460" d="M41 0l410 1659h1216l-57 -227h-998l19 -25l-119 -479l-29 -25h899l-55 -227h-901l18 -25l-159 -651h-244z" />
<glyph unicode="G" horiz-adv-x="1845" d="M170 813q98 397 378.5 631.5t672.5 234.5q123 0 229 -23t203 -81t157 -148l-221 -176q-110 201 -424 201q-293 0 -481.5 -167t-263.5 -472q-29 -119 -29 -215q0 -140 61 -234q105 -157 394 -157q219 0 391.5 137.5t230.5 349.5l31 23h-559l55 227h758l-233 -944h-209 l53 213h-2q-109 -107 -261.5 -170t-312.5 -63q-390 0 -552 223q-101 140 -101 346q0 121 35 264z" />
<glyph unicode="H" horiz-adv-x="1763" d="M41 0l410 1659h243l-172 -692l-30 -25h962l-18 25l170 692h243l-409 -1659h-244l170 690l31 25h-961l19 -25l-170 -690h-244z" />
<glyph unicode="I" horiz-adv-x="628" d="M51 0l410 1659h241l-407 -1659h-244z" />
<glyph unicode="J" horiz-adv-x="1290" d="M-84 236l213 174q45 -94 123.5 -148.5t165.5 -54.5q72 0 139 20t131.5 63.5t116 123.5t78.5 190l260 1055h243l-258 -1045q-34 -138 -94 -247t-134 -180.5t-164.5 -119t-183 -67.5t-192.5 -20q-148 0 -262.5 67.5t-181.5 188.5z" />
<glyph unicode="K" horiz-adv-x="1607" d="M41 0l410 1659h243l-409 -1659h-244zM510 838l993 819h346l-1015 -817l-3 -4l635 -836h-354z" />
<glyph unicode="L" horiz-adv-x="1374" d="M41 0l410 1659h243l-348 -1407l-31 -25h942l-55 -227h-1161z" />
<glyph unicode="M" horiz-adv-x="2027" d="M41 0l410 1659h208l287 -1032l31 -197h4l129 197l797 1032h204l-409 -1659h-244l279 1122h-4l-144 -219l-721 -926h-6l-266 932l-31 211h-4l-276 -1120h-244z" />
<glyph unicode="N" horiz-adv-x="1763" d="M41 0l410 1659h213l561 -1075l65 -187h4l312 1262h243l-409 -1659h-215l-559 1073l-66 189h-4l-311 -1262h-244z" />
<glyph unicode="O" horiz-adv-x="1812" d="M138 477q-4 37 -3 76q0 124 37 266q46 189 136.5 345.5t217 271.5t294 179t358.5 64q155 0 273.5 -41t194 -117t114.5 -182.5t39 -237.5t-38 -282q-46 -188 -136.5 -342t-217 -265t-293 -171.5t-356.5 -60.5q-192 0 -328.5 61t-206 171t-85.5 265zM392 622v-23 q0 -77 20 -145q23 -78 72.5 -132t133 -84.5t197.5 -30.5q143 0 261 46.5t202.5 130.5t142.5 193t90 242q27 107 31 199q1 16 0 31q0 75 -18 141q-22 80 -70 138t-132.5 91t-199.5 33q-141 0 -259.5 -48.5t-204 -136t-144.5 -200t-92 -248.5q-26 -107 -30 -197z" />
<glyph unicode="P" horiz-adv-x="1615" d="M41 0l410 1659h774q266 0 381 -144q76 -96 77 -230q0 -68 -20 -146q-27 -110 -88.5 -205t-149.5 -166t-206 -111.5t-252 -40.5h-555l18 -24l-145 -592h-244zM467 844h555q160 0 259.5 80t133.5 215q12 49 12 90q0 75 -39 125q-60 78 -219 78h-557l19 -25l-133 -539z" />
<glyph unicode="Q" horiz-adv-x="1812" d="M137 544q2 130 37 281q46 188 136 344t216.5 270t293.5 177t358 63q129 0 233.5 -28.5t178.5 -82t123 -129t69 -170.5q17 -78 17 -167q0 -20 -1 -40q-4 -112 -35 -237q-90 -361 -327 -585l178 -242l-193 -154l-186 252q-212 -116 -477 -116q-154 0 -272.5 39.5 t-193.5 113t-116 177.5q-39 100 -39 223v11zM393 626v-20q0 -80 20 -149q23 -78 72 -133t132.5 -86t197.5 -31q146 0 264 53l35 -2l-176 238l190 155l187 -250l8 33q131 148 190 391q26 106 30 197q1 15 1 28q0 76 -19 144q-22 80 -70.5 136.5t-133 89t-199.5 32.5 q-141 0 -259.5 -48t-203.5 -134.5t-144 -197.5t-93 -247q-26 -107 -29 -199z" />
<glyph unicode="R" horiz-adv-x="1660" d="M41 0l410 1659h745q117 0 212 -31t161 -93q65 -62 87 -156q9 -40 10 -86q0 -62 -17 -134q-35 -146 -152.5 -259.5t-259.5 -158.5l-2 -4q48 -23 87.5 -75t55.5 -123l131 -539h-274l-102 438q-28 117 -107.5 171.5t-232.5 54.5h-369l18 -23l-157 -641h-244zM479 891h504 q167 0 277 74.5t139 193.5q12 47 12 86q1 77 -47 121q-70 66 -225 66h-527l19 -25l-121 -489z" />
<glyph unicode="S" horiz-adv-x="1617" d="M25 262l225 176q108 -125 221.5 -178t265.5 -53q215 0 344 69t156 173q5 19 5 37q0 54 -43 103q-57 65 -202 105q-17 5 -141 40t-141 40q-55 16 -100.5 32.5t-90 36t-78 41.5t-63.5 48t-48.5 56.5t-29.5 65.5q-11 33 -11 73q0 43 13 92q23 93 84.5 174.5t157.5 146 t236 102t305 37.5q200 0 350 -68t241 -198l-223 -178q-127 217 -424 217q-213 0 -332.5 -65.5t-142.5 -159.5q-4 -17 -5 -32q0 -55 56 -96q72 -52 269 -110q19 -5 126 -36t121 -35q224 -61 312 -180q62 -83 63 -186q0 -44 -12 -91q-18 -75 -58 -143t-108 -130.5t-157 -108 t-211.5 -72.5t-264.5 -27q-213 0 -389 69.5t-276 212.5z" />
<glyph unicode="T" d="M252 1432l55 227h1401l-57 -227h-590l6 -25l-348 -1407h-242l346 1407l21 25h-592z" />
<glyph unicode="U" horiz-adv-x="1787" d="M219 762l221 897h244l-221 -895q-34 -126 -33 -226v-8q2 -104 38.5 -175.5t120.5 -109.5t214 -38q252 0 400.5 142t215.5 415l221 895h244l-221 -897q-194 -782 -915 -782q-570 0 -570 485q0 131 41 297z" />
<glyph unicode="V" horiz-adv-x="1720" d="M297 1659h272l209 -1215l10 -163h5l90 163l807 1215h268l-1120 -1659h-238z" />
<glyph unicode="W" horiz-adv-x="2183" d="M317 1659h261l20 -1182l-14 -168h4l71 168l607 1182h188l27 -1182l-15 -166h4l68 166l606 1182h256l-862 -1659h-291l-18 1004l14 188h-4l-78 -188l-514 -1004h-287z" />
<glyph unicode="X" horiz-adv-x="1630" d="M-102 0l829 831l-418 828h309l244 -492l60 -155h4l133 155l491 492h303l-823 -828l418 -831h-307l-242 487l-63 168h-5l-145 -168l-483 -487h-305z" />
<glyph unicode="Y" horiz-adv-x="1701" d="M297 1659h307l264 -582l62 -178h4l147 180l555 580h303l-935 -967l-170 -692h-246l170 692z" />
<glyph unicode="Z" horiz-adv-x="1642" d="M-20 0l47 193l1194 1095l178 139v5h-1045l56 227h1368l-47 -191l-1186 -1093l-178 -144l-2 -4h1071l-58 -227h-1398z" />
<glyph unicode="[" horiz-adv-x="595" d="M-117 -389l555 2247h445l-47 -191h-246l-461 -1864h246l-47 -192h-445z" />
<glyph unicode="\" horiz-adv-x="677" d="M231 1761h211l129 -1863h-211z" />
<glyph unicode="]" horiz-adv-x="598" d="M-207 -389l47 192h246l461 1864h-248l47 191h447l-555 -2247h-445z" />
<glyph unicode="^" horiz-adv-x="1390" d="M219 850l655 809h177l256 -809h-250l-129 420l-25 133h-4l-92 -133l-336 -420h-252z" />
<glyph unicode="_" horiz-adv-x="1363" d="M-256 -379l51 209h1407l-53 -209h-1405z" />
<glyph unicode="`" horiz-adv-x="1460" d="M760 1788l196 160l256 -426l-120 -99z" />
<glyph unicode="a" horiz-adv-x="1525" d="M98 424q1 100 29 215q36 147 105 268.5t165.5 212t225 141t276.5 50.5q117 0 208.5 -42.5t137.5 -115.5h4l35 137h238l-320 -1290h-237l32 127h-4q-170 -147 -422 -147q-120 0 -211 32t-148 90t-86 140q-28 79 -28 175v7zM343 462q4 -82 32.5 -141t96.5 -92.5t171 -33.5 q102 0 186 33t144.5 93.5t102 140.5t65.5 179q19 80 23 147q1 13 0 25q0 53 -12 99q-15 58 -50 97.5t-95 62t-143 22.5q-197 0 -323 -123.5t-176 -329.5q-23 -85 -23 -159q1 -10 1 -20z" />
<glyph unicode="b" horiz-adv-x="1527" d="M41 0l424 1720h237l-139 -567h4q179 158 424 158q150 0 254.5 -50.5t155 -140t60.5 -212.5q2 -25 2 -51q0 -101 -31 -216q-36 -145 -103.5 -265t-163.5 -209t-225 -138t-278 -49q-253 0 -349 147h-4l-30 -127h-238zM398 462q4 -82 32.5 -141t96 -92.5t169.5 -33.5 q201 0 324.5 120t173.5 326q20 79 24 147q1 14 1 27q-1 52 -13 97q-16 57 -50 97t-94 62.5t-142 22.5q-202 0 -325.5 -122.5t-174.5 -330.5q-23 -85 -23 -159q1 -10 1 -20z" />
<glyph unicode="c" horiz-adv-x="1300" d="M100 424q2 98 27 211q35 143 107.5 266t174.5 214t236 143.5t283 52.5q303 0 440 -181l-199 -157q-89 123 -292 123q-98 -1 -184.5 -37.5t-150.5 -99.5t-110 -145.5t-70 -178.5q-18 -75 -20 -139q0 -7 -1 -13q0 -57 16 -107q17 -56 52.5 -96t96.5 -62.5t143 -22.5 q207 0 373 137l119 -158q-244 -194 -545 -194q-126 0 -222 32.5t-154.5 91t-90.5 140.5q-30 76 -30 166q1 7 1 14z" />
<glyph unicode="d" horiz-adv-x="1527" d="M98 424q1 100 29 215q36 147 105 268.5t165.5 212t225 141t276.5 50.5q117 0 208.5 -42.5t137.5 -115.5h4l142 567h237l-426 -1720h-237l32 127h-4q-170 -147 -422 -147q-120 0 -211 32t-148 90t-86 140q-28 79 -28 175v7zM343 462q4 -82 32.5 -141t96.5 -92.5t171 -33.5 q102 0 186 33t144.5 93.5t102 140.5t65.5 179q19 80 23 147q1 13 0 25q0 53 -12 99q-15 58 -50 97.5t-95 62t-143 22.5q-197 0 -323 -123.5t-176 -329.5q-23 -85 -23 -159q1 -10 1 -20z" />
<glyph unicode="e" d="M100 424q2 98 27 211q48 196 159 348t277.5 240t362.5 88q125 0 219.5 -33.5t152.5 -93.5t87 -144q28 -82 28 -180v-6q-1 -102 -29 -219q-3 -11 -28 -94h-1030l18 -25q-1 -16 -1 -31q-1 -132 69 -208q78 -84 247 -84q194 0 383 145l121 -164q-257 -194 -557 -194 q-129 0 -227 32.5t-157.5 91t-91.5 140.5q-30 76 -31 167q1 6 1 13zM379 750h809l-19 24q1 17 1 33q0 129 -64 205q-72 86 -232 86q-162 0 -278 -86.5t-184 -237.5z" />
<glyph unicode="f" horiz-adv-x="876" d="M-428 -397l57 227q94 -51 187 -51q105 0 166 54t90 173l260 1053l18 24h-164l52 207h163l-6 25q0 12 4 16q50 191 186.5 295.5t338.5 104.5q110 0 188 -33l-51 -213q-82 35 -170 35q-104 0 -169 -53.5t-89 -151.5l-19 -25l398 -2l-51 -205h-398l6 -24l-262 -1059 q-56 -213 -190 -326.5t-332 -113.5q-110 0 -213 43z" />
<glyph unicode="g" horiz-adv-x="1527" d="M-14 -256l202 164q64 -62 159.5 -97.5t195.5 -35.5q182 0 297 90.5t155 257.5l27 106h-4q-177 -143 -420 -143q-296 0 -412 165q-71 103 -71 249q0 89 26 194q31 127 97.5 238t162 196t225 134t275.5 49q117 0 209.5 -40.5t136.5 -111.5h4l33 131h238l-289 -1167 q-67 -271 -255.5 -417t-488.5 -146q-155 0 -277.5 44t-225.5 140zM379 694q-17 -69 -17 -128q0 -94 44 -159q73 -106 258 -106q200 0 322.5 107t166.5 286q16 67 16 125q0 97 -47 167q-74 110 -262 110q-189 0 -313.5 -111.5t-167.5 -290.5z" />
<glyph unicode="h" horiz-adv-x="1527" d="M41 0l424 1720h237l-141 -569h4q84 74 200 117t230 43q263 1 369 -135q68 -88 69 -215q0 -68 -20 -148l-201 -813h-237l192 782q18 59 18 112v10q-2 58 -24.5 100.5t-84.5 67t-161 24.5q-105 0 -196.5 -38t-159.5 -116.5t-94 -185.5l-186 -756h-238z" />
<glyph unicode="i" horiz-adv-x="602" d="M41 0l317 1290h238l-317 -1290h-238zM410 1581q15 67 64 109.5t114 42.5q65 -1 93 -43q17 -26 17 -62q0 -22 -6 -47q-18 -67 -66 -109t-112 -42q-66 0 -94 42q-17 26 -17 60q0 23 7 49z" />
<glyph unicode="j" horiz-adv-x="602" d="M-360 -399l55 223q69 -41 164 -41q59 0 103.5 40t64.5 114l333 1353h238l-340 -1376q-43 -178 -157 -266t-285 -88q-99 0 -176 41zM410 1581q15 67 64 109.5t114 42.5t93 -43q17 -26 17 -62q0 -22 -6 -47q-18 -67 -66 -109t-112 -42q-66 0 -94 42q-17 26 -17 60 q0 23 7 49z" />
<glyph unicode="k" horiz-adv-x="1386" d="M41 0l424 1720h237l-423 -1720h-238zM459 651l770 639h311l-788 -633l-2 -4l493 -653h-309z" />
<glyph unicode="l" horiz-adv-x="602" d="M41 0l424 1720h237l-423 -1720h-238z" />
<glyph unicode="m" horiz-adv-x="2086" d="M41 0l317 1290h240l-33 -129h4q70 68 165 109t186 41q118 0 197.5 -59.5t103.5 -155.5h4q82 95 199 155t231 60q221 -1 297 -141q41 -75 42 -186q0 -97 -32 -222l-188 -762h-240l176 715q16 64 24 109q8 46 11 92q1 12 1 22q0 32 -7 54q-9 30 -28.5 55.5t-55.5 37 t-88 11.5q-130 0 -223.5 -93.5t-126.5 -230.5l-191 -772h-240l189 762q16 65 22 113q3 27 3 53q0 18 -2 38q-4 44 -23.5 71t-57.5 43t-96 16q-117 0 -217 -92t-135 -234l-190 -770h-238z" />
<glyph unicode="n" horiz-adv-x="1527" d="M41 0l317 1290h238l-35 -139h4q85 74 201.5 117t230.5 43q251 0 363 -130q74 -86 75 -218q0 -68 -20 -148l-203 -815h-237l192 778q19 64 19 118v10q-2 58 -25 100.5t-84.5 66t-161.5 23.5q-161 0 -285.5 -87.5t-164.5 -246.5l-186 -762h-238z" />
<glyph unicode="o" d="M102 464q4 86 27 181q36 144 105.5 265t168 211t231.5 140t286 50q124 0 219.5 -32.5t154 -91t90.5 -141.5q30 -78 30 -172v-12q-2 -101 -28 -217q-36 -144 -106 -264.5t-169 -210t-232.5 -140t-286.5 -50.5q-103 0 -186.5 23t-141.5 65t-96 102t-54 134q-13 61 -13 129 q0 16 1 31zM346 468q5 -82 35 -143t98 -95.5t168 -34.5q197 0 324.5 123.5t177.5 326.5q22 81 22 152q0 15 -1 27q-5 82 -35 142.5t-98.5 95t-168.5 34.5q-198 0 -324.5 -123t-176.5 -328q-22 -80 -22 -151q0 -13 1 -26z" />
<glyph unicode="p" horiz-adv-x="1527" d="M-66 -430l424 1720h238l-33 -133h4q83 73 193 113.5t231 40.5q119 0 209.5 -32.5t147.5 -91.5t86 -142q29 -80 29 -177v-6q-1 -101 -29 -217q-36 -146 -104 -266.5t-163.5 -210t-225 -139t-279.5 -49.5q-248 0 -347 153h-4l-139 -563h-238zM397 462q3 -82 32 -141.5 t96.5 -92.5t170.5 -33t187 33t144 94t101.5 140t67.5 179q19 79 22 147q1 12 1 24q0 54 -13 100q-15 58 -49.5 98.5t-94.5 63t-142 22.5q-199 0 -324 -124t-176 -331q-23 -87 -23 -162v-17z" />
<glyph unicode="q" horiz-adv-x="1527" d="M100 379q-2 25 -2 51q0 100 31 215q36 145 104 266t164.5 210.5t225 139.5t276.5 50q122 0 212 -40.5t136 -113.5h4l33 133h238l-426 -1720h-236l137 563h-4q-175 -153 -422 -153q-150 0 -255.5 50t-155.5 138.5t-60 210.5zM342 462q4 -81 33.5 -140.5t97.5 -93 t170 -33.5q201 0 323 119t175 327q23 85 23 160v20q-4 83 -33 144t-97 96t-170 35q-103 0 -187.5 -34.5t-144.5 -97t-101.5 -143t-65.5 -180.5q-23 -85 -23 -159v-20z" />
<glyph unicode="r" horiz-adv-x="911" d="M41 0l317 1290h238l-51 -207h4q81 105 200 163.5t246 58.5h56l-60 -244h-73h-7q-78 -1 -148 -23q-73 -24 -137.5 -73t-114 -132.5t-77.5 -195.5l-155 -637h-238z" />
<glyph unicode="s" horiz-adv-x="1339" d="M20 207l205 166q87 -100 171.5 -140t195.5 -40q154 0 240.5 48.5t103.5 114.5q3 14 3 27q-1 36 -25 63q-34 37 -146 68q-44 11 -211 64q-41 12 -76 24.5t-69.5 28t-61 33t-50.5 39t-39 46.5t-24 54q-9 27 -9 60q0 36 10 77q40 159 204.5 265t415.5 106q314 0 469 -219 l-205 -164q-104 168 -317 168q-147 0 -230 -47.5t-96 -102.5q-2 -10 -3 -19q0 -39 42 -66q50 -34 187 -73q174 -56 190 -59q179 -51 247 -141q45 -60 45 -139q0 -40 -11 -84q-19 -77 -67 -145t-124 -123.5t-189.5 -87.5t-250.5 -32q-164 0 -300.5 55t-224.5 175z" />
<glyph unicode="t" horiz-adv-x="1001" d="M164 399l162 660l20 24h-160l52 207h159l-8 25l47 190l269 129l-78 -319l-19 -25h402l-52 -207h-401l6 -24l-164 -662q-11 -44 -11 -79q0 -44 17 -72q30 -52 105 -51q61 0 115.5 21.5t126.5 76.5l120 -160q-124 -80 -224 -116.5t-202 -36.5q-184 0 -258 111 q-45 66 -44 164q0 65 20 144z" />
<glyph unicode="u" horiz-adv-x="1511" d="M152 494l198 796h236l-193 -788q-15 -56 -19 -99q-1 -11 0 -21q0 -32 8 -62q10 -40 38.5 -67t83.5 -42.5t135 -15.5q160 0 280.5 87t159.5 246l189 762h237l-319 -1290h-238l35 139h-4q-89 -77 -198.5 -118t-223.5 -41q-271 0 -369 134q-60 83 -59 208q0 78 23 172z" />
<glyph unicode="v" horiz-adv-x="1370" d="M197 1290h264l133 -852l12 -168h4l97 168l555 852h264l-864 -1290h-238z" />
<glyph unicode="w" horiz-adv-x="1855" d="M207 1290h250l30 -839l-14 -162h4l66 162l463 839h198l49 -839l-12 -162h4l66 162l444 839h248l-698 -1290h-258l-52 717l15 172h-4l-76 -172l-408 -717h-258z" />
<glyph unicode="x" horiz-adv-x="1331" d="M-102 0l641 647l-318 643h295l168 -346l41 -121h4l102 121l340 346h291l-633 -643l320 -647h-295l-174 358l-37 115h-4l-94 -115l-352 -358h-295z" />
<glyph unicode="y" horiz-adv-x="1419" d="M-96 -381l55 229q109 -67 225 -67q139 0 289 231l-266 1278h264l166 -854l14 -174h4l99 174l546 854h265l-942 -1423q-96 -143 -218.5 -225t-250.5 -82q-151 0 -250 59z" />
<glyph unicode="z" horiz-adv-x="1374" d="M-20 0l43 178l862 770l162 119l2 2h-791l55 219h1106l-41 -168l-868 -772l-172 -127l2 -2h823l-53 -219h-1130z" />
<glyph unicode="{" horiz-adv-x="706" d="M56.5 -234.5q-4.5 44.5 1 89t18.5 98.5l114 465q12 57 13.5 102t-25 76t-82.5 41l49 197q82 14 129 64.5t68 135.5l119 484q18 69 41 123t60 104t92 81t126 40q20 3 77 4.5t104 1.5h47l-45 -182q-52 0 -62 -2q-125 -3 -172 -41.5t-74 -145.5l-114 -465q-29 -119 -76 -184 t-152 -117q28 -18 47 -35.5t32 -32.5t18.5 -36t8 -38t-2 -46.5t-9 -52t-14.5 -64.5l-114 -461q-30 -103 -0.5 -143t153.5 -43q8 -2 60 -2l-46 -182q-184 0 -223 6q-54 7 -90.5 30t-54 54.5t-22 76z" />
<glyph unicode="|" horiz-adv-x="677" d="M66 -102l460 1863h211l-461 -1863h-210z" />
<glyph unicode="}" horiz-adv-x="706" d="M-221 -401l45 182q51 0 61 2q125 3 172 41t74 145l113 461q15 59 24 88t25 64.5t38 57t56.5 46t85.5 49.5q-79 52 -95 120.5t15 180.5l115 465q31 103 1 143.5t-155 43.5q-8 2 -59 2l45 182q184 0 223 -6q67 -9 107 -40.5t52 -81t9 -103.5t-20 -123l-119 -484 q-23 -81 0 -133.5t98 -66.5l-49 -197q-88 -14 -133 -69.5t-70 -149.5l-112 -465q-18 -69 -41.5 -123t-60 -103.5t-92 -81t-126.5 -40.5q-19 -3 -76 -4.5t-104 -1.5h-47z" />
<glyph unicode="~" horiz-adv-x="1204" d="M68 606q57 105 165 177.5t228 72.5q53 0 110.5 -26.5t99 -58.5t92 -58.5t91.5 -26.5q70 0 129 50t98 126l101 -135q-62 -112 -169.5 -180t-226.5 -68q-53 0 -109.5 26.5t-97 57.5t-92 57.5t-96.5 26.5q-67 0 -125 -49t-98 -125z" />
<glyph horiz-adv-x="2027" />
<glyph unicode="&#xa1;" horiz-adv-x="616" d="M23 0l352 1204h176l-242 -1204h-286zM371 1497q19 81 75.5 131.5t135.5 50.5t109.5 -50.5t10.5 -131.5q-21 -80 -76 -130t-134 -50q-81 0 -111.5 49.5t-9.5 130.5z" />
<glyph unicode="&#xa2;" horiz-adv-x="1300" d="M172 819q71 289 281.5 478t480.5 198h53l-4 23l72 161h198l-79 -180l-23 -20q88 -24 150.5 -62t111.5 -102l-205 -164q-56 75 -153 106l4 -24l-363 -825l-22 -23h22q196 -3 367 137l123 -164q-245 -194 -545 -194q-53 0 -66 2l5 -21l-72 -165h-199l86 198l27 19 q-183 59 -245.5 224t-4.5 398zM391 658.5q0 -74.5 32.5 -137.5t96.5 -97l-2 33l348 794l25 21q-6 -2 -19 -2q-178 -18 -298 -143t-164 -308q-19 -86 -19 -160.5z" />
<glyph unicode="&#xa3;" horiz-adv-x="1497" d="M-31 0l51 209q84 37 138 71t101 88.5t71.5 133t31.5 188.5l17 27h-199l58 225h139l-12 25q0 152 22 239q30 123 98.5 216.5t161 148t197.5 81.5t221 27q172 0 298 -74t198 -196l-211 -170q-113 213 -349 213q-303 0 -362 -238q-24 -96 -27 -247l-16 -25h487l-55 -225 h-430l10 -27q-20 -323 -235 -459v-4h868l-57 -227h-1215z" />
<glyph unicode="&#xa4;" horiz-adv-x="1263" d="M82 444l176 146q-39 106 -8 235q30 122 125 234l-107 149l178 142l109 -142q120 66 250 66q128 0 215 -66l180 142l109 -142l-179 -149q38 -117 9 -234q-30 -128 -125 -237l102 -146l-176 -141l-109 141q-120 -63 -245 -63q-136 0 -221 65l-177 -141zM455 825 q-24 -103 26 -170q53 -71 154 -71q103 0 190 69q88 72 111 172q24 102 -27 174q-54 72 -153 72q-105 0 -189 -72q-88 -73 -112 -174z" />
<glyph unicode="&#xa5;" horiz-adv-x="1722" d="M199 332l51 207h493l-4 16l9 53l26 88l10 13h-491l51 206h338l-20 23l-345 721h308l264 -582l55 -162h4l133 164l555 580h303l-698 -723l-37 -29l348 8l-51 -206h-497l6 -27l-29 -117l-18 -26h495l-51 -207h-496l7 -23l-76 -309h-23h-201h-20l76 307l18 25h-493z" />
<glyph unicode="&#xa6;" horiz-adv-x="679" d="M66 -102l206 839h213l-206 -839h-213zM319 922l207 839h213l-207 -839h-213z" />
<glyph unicode="&#xa7;" horiz-adv-x="1331" d="M-35 -186l203 161q57 -80 146 -121.5t190 -41.5q190 0 227 151q11 44 -18 94q-38 66 -148 144q-30 20 -101.5 66t-109.5 71q-33 22 -60 42.5t-55 46.5t-48 51t-37 56t-25 62.5t-8 69t10 77.5q15 61 48 116.5t81 102.5t94.5 82t106.5 74q-70 103 -43 215q27 110 113.5 190 t198 117t235.5 37q137 0 257 -62.5t205 -172.5l-204 -162q-58 83 -140 130.5t-174 47.5q-94 0 -157 -34t-78 -93q-14 -68 55 -137q34 -34 96 -76q20 -14 121 -78q34 -21 56.5 -36t54.5 -37.5t53.5 -41t47.5 -43.5t41.5 -48t31 -52t21.5 -57.5t6 -62t-9 -68.5 q-52 -209 -307 -379q27 -41 40 -74t17 -80.5t-12 -99.5q-23 -94 -78.5 -167.5t-130 -117t-158 -66t-171.5 -22.5q-141 0 -271 59t-213 167zM377 764q-28 -111 123 -211l305 -207q49 35 81.5 62t67 70t43.5 83q4 17 4 34t-2 30.5t-10 28.5t-14.5 25.5t-20 24t-21.5 21 t-24.5 20.5t-24 18t-24.5 17l-282 199q-54 -39 -85 -63.5t-69 -68.5t-47 -83z" />
<glyph unicode="&#xa8;" horiz-adv-x="1460" d="M580 1593q15 66 58.5 106t106.5 40q65 0 90 -39.5t7 -106.5q-15 -66 -60 -105.5t-108 -39.5t-87.5 39.5t-6.5 105.5zM1073 1593q18 67 61.5 106.5t106.5 39.5t87 -39t9 -107q-18 -66 -61.5 -105.5t-106.5 -39.5t-87 39.5t-9 105.5z" />
<glyph unicode="&#xa9;" horiz-adv-x="1945" d="M156 592q-5 110 26 229q43 174 150 333t249.5 274t316.5 183t347 68q138 0 257.5 -44t203.5 -122t138.5 -185.5t63 -235.5t-23.5 -271q-43 -175 -150 -334.5t-249.5 -275t-316.5 -184t-347 -68.5q-116 0 -219 31t-182 87t-139 135t-90 174.5t-35 205.5zM330.5 637 q3.5 -89 27 -168t71 -144.5t110 -112.5t144.5 -73t175 -26q185 0 366.5 97.5t313 260.5t176.5 350q25 114 19.5 218t-49 193.5t-109.5 155t-161.5 103t-205.5 37.5q-138 0 -279 -58t-255.5 -154t-201 -226t-120.5 -269q-25 -95 -21.5 -184zM494 634.5q1 82.5 24 176.5 q30 120 90 223t142.5 180t191 120.5t227.5 43.5q250 0 353 -151l-158 -127q-72 104 -236 104q-82 -1 -154 -32t-126 -85t-92 -124t-58 -152q-22 -78 -17.5 -146t29 -119t82 -80.5t142.5 -29.5q169 0 307 121l96 -127q-196 -170 -446 -170q-102 0 -179 27.5t-124 77 t-71 118.5t-23 151.5z" />
<glyph unicode="&#xaa;" horiz-adv-x="987" d="M223 1229q47 198 181 320t327 122q72 0 129.5 -23.5t89.5 -66.5l19 78h174l-211 -852h-172l16 70q-110 -84 -262 -84q-193 0 -266.5 120t-24.5 316zM395 1229q-33 -129 7 -203t163 -74t199.5 74t109.5 203q70 282 -169 282q-122 0 -200.5 -76.5t-109.5 -205.5z" />
<glyph unicode="&#xab;" horiz-adv-x="1363" d="M98 522l537 430l117 -159l-226 -183l-135 -88v-4q6 -4 29 -25t43 -40l20 -19l133 -182l-194 -160zM653 522l537 430l117 -159l-226 -183l-135 -88v-4q6 -4 29 -25t43 -40l20 -19l136 -182l-197 -160z" />
<glyph unicode="&#xac;" horiz-adv-x="1181" d="M53 541l53 217h1061l-161 -656h-226l103 416l14 23h-844z" />
<glyph unicode="&#xad;" horiz-adv-x="821" d="M57 563l56 225h700l-55 -225h-701z" />
<glyph unicode="&#xae;" horiz-adv-x="1945" d="M156 592q-5 110 26 229q43 174 150 333t249.5 274t316.5 183t347 68q138 0 257.5 -44t203.5 -122t138.5 -185.5t63 -235.5t-23.5 -271q-43 -175 -150 -334.5t-249.5 -275t-316.5 -184t-347 -68.5q-116 0 -219 31t-182 87t-139 135t-90 174.5t-35 205.5zM332.5 601 q5.5 -104 48.5 -193.5t109 -155t161.5 -102.5t206.5 -37q184 0 366 97.5t313.5 260t176.5 348.5q25 115 19.5 219.5t-49 194t-109.5 155t-161.5 103t-205.5 37.5q-138 0 -279 -58t-255.5 -154t-201 -226.5t-120.5 -270.5q-25 -114 -19.5 -218zM526 332l242 975h422 q139 0 215.5 -77.5t40.5 -223.5q-20 -81 -77.5 -146.5t-129.5 -95.5q37 -32 53 -100l74 -332h-192l-58 258q-12 61 -48 88t-112 27h-186l14 -23l-86 -350h-172zM813 874h258q82 0 134.5 37.5t66.5 94.5q33 131 -125 131h-270l14 -23l-53 -217z" />
<glyph unicode="&#xaf;" horiz-adv-x="1437" d="M578 1520l40 163h801l-41 -163h-800z" />
<glyph unicode="&#xb0;" horiz-adv-x="886" d="M236 1284q43 176 161.5 285.5t292.5 109.5q116 0 185.5 -52t84.5 -139.5t-10 -203.5q-43 -174 -163 -283.5t-291 -109.5q-173 0 -238 109t-22 284zM401 1284q-26 -103 7 -165t129 -62q97 0 159 61.5t88 165.5q26 105 -6.5 167t-128.5 62q-97 0 -159.5 -61.5t-88.5 -167.5 z" />
<glyph unicode="&#xb1;" horiz-adv-x="1388" d="M66 102l55 226h1024l-55 -226h-1024zM256 870l55 226h414l-6 24l104 422h219l-104 -422l-18 -24h415l-55 -226h-416l6 -24l-102 -420h-221l104 420l21 24h-416z" />
<glyph unicode="&#xb2;" horiz-adv-x="880" d="M156 739l43 174q27 108 106.5 199t204.5 133l121 39q88 28 122.5 56t43.5 63q9 40 -15 68t-104 28q-61 0 -117 -28t-125 -99l-94 129q179 168 377 168q156 0 219.5 -78t34.5 -188q-47 -194 -303 -279l-144 -45q-14 -5 -27.5 -12t-23 -13.5t-21 -18l-17.5 -17.5t-17 -21.5 t-14 -20.5t-15 -23.5t-14 -22.5l-4 -4l-17 -17h494l-41 -170h-653z" />
<glyph unicode="&#xb3;" horiz-adv-x="950" d="M190 895l158 125q39 -68 85.5 -97.5t119.5 -29.5q98 0 153.5 38.5t65.5 80.5q13 50 -19 86t-118 43l-154 6l39 156q121 2 150 6q90 8 133 41t53 71q6 13 0 29t-18 29.5t-46 22.5t-85 9q-71 0 -129.5 -27t-128.5 -91l-97 127q181 159 398 159q168 0 238 -73.5t42 -184.5 q-13 -56 -59.5 -106.5t-106.5 -81.5l-2 -4q57 -28 81 -83t5 -130q-29 -116 -145.5 -202.5t-290.5 -86.5q-110 0 -187.5 40t-134.5 128z" />
<glyph unicode="&#xb4;" horiz-adv-x="1470" d="M741 1522l465 426l119 -160l-512 -365z" />
<glyph unicode="&#xb5;" d="M-66 -430l424 1720h238l-188 -764q-38 -154 22 -243.5t193 -89.5q156 0 273.5 90.5t156.5 248.5l186 758h236l-320 -1292h-235l28 111h-4q-158 -132 -371 -132q-95 0 -158.5 28t-109.5 97l-2 -2l-131 -530h-238z" />
<glyph unicode="&#xb6;" horiz-adv-x="1347" d="M137 1135q35 142 136.5 263t242 191t285.5 70h674l-54 -215h-129l6 -21l-442 -1794h-223l442 1794l17 21h-158l8 -21l-442 -1794h-226l236 963l20 20h-18q-138 8 -236 79t-135.5 188.5t-3.5 255.5z" />
<glyph unicode="&#xb7;" horiz-adv-x="591" d="M184 831q21 82 76 131.5t133 49.5q80 0 111 -49.5t10 -131.5q-21 -83 -76 -132.5t-133 -49.5q-80 0 -111 49t-10 133z" />
<glyph unicode="&#xb8;" horiz-adv-x="1300" d="M317 -313l166 135q34 27 48 48.5t13 36t-12 30.5l-53 71h156l45 -53q35 -40 22.5 -94t-71.5 -103l-230 -184z" />
<glyph unicode="&#xb9;" horiz-adv-x="602" d="M270 1421l297 238h150l-230 -932h-172l152 614l37 97l-41 -43l-49 -45l-56 -47z" />
<glyph unicode="&#xba;" horiz-adv-x="1001" d="M206 1060.5q-8 81.5 17 176.5q49 197 187 319.5t338 122.5t277 -122t28 -320q-48 -196 -187 -320t-338 -124q-101 0 -172.5 33.5t-106.5 93t-43 141zM391 1237q-32 -131 10 -209t166 -78q126 0 207 77.5t113 209.5q32 131 -10.5 208t-167.5 77t-205.5 -77t-112.5 -208z " />
<glyph unicode="&#xbb;" horiz-adv-x="1363" d="M31 252l225 182q117 76 135 86l-43 41l-72 82l-110 150l194 159l324 -430l-537 -430zM588 252l225 182q117 76 133 86l-43 41l-72 82l-110 150l194 159l324 -430l-534 -430z" />
<glyph unicode="&#xbc;" horiz-adv-x="1611" d="M162 -20l1009 1699h187l-1010 -1699h-186zM270 1421l297 238h150l-230 -932h-172l152 614l37 97l-41 -43l-49 -45l-56 -47zM662 201l32 129l641 600h154l-135 -543l-15 -18h111l-43 -168h-111l7 -17l-46 -186h-176l45 184l17 19h-481zM924 367l260 2l-6 16l55 225l18 68 l-26 -29l-49 -55l-181 -168l-69 -55z" />
<glyph unicode="&#xbd;" horiz-adv-x="1660" d="M166 -20l1010 1699h184l-1010 -1699h-184zM270 1421l297 238h150l-230 -932h-172l152 614l37 97l-41 -43l-49 -45l-56 -47zM752 -2l43 176q27 108 107 199t206 131l121 39q87 29 122 57t42 62q11 40 -14 69t-105 29q-59 0 -114.5 -28.5t-125.5 -98.5l-96 129 q185 168 379 168q105 0 169.5 -39t83 -98.5t1.5 -130.5q-51 -196 -305 -277l-142 -47q-19 -6 -36.5 -16.5t-28.5 -19t-25.5 -27t-20 -26t-20 -31.5t-18.5 -30l-4 -4l-19 -16h496l-43 -170h-653z" />
<glyph unicode="&#xbe;" horiz-adv-x="1921" d="M190 895l158 125q39 -68 85.5 -97.5t119.5 -29.5q98 0 153.5 38.5t65.5 80.5q13 50 -19 86t-118 43l-154 6l39 156q121 2 150 6q90 8 133 41t53 71q6 13 0 29t-18 29.5t-46 22.5t-85 9q-71 0 -129.5 -27t-128.5 -91l-97 127q181 159 398 159q168 0 238 -73.5t42 -184.5 q-13 -56 -59.5 -106.5t-106.5 -81.5l-2 -4q57 -28 81 -83t5 -130q-29 -116 -145.5 -202.5t-290.5 -86.5q-110 0 -187.5 40t-134.5 128zM471 -20l1010 1699h186l-1010 -1699h-186zM971 201l33 129l641 600h153l-135 -543l-14 -18h110l-43 -168h-110l6 -17l-45 -186h-176 l45 184l16 19h-481zM1233 367l260 2l-6 16l55 225l19 68l-27 -29l-49 -55l-180 -168l-70 -55z" />
<glyph unicode="&#xbf;" horiz-adv-x="1355" d="M63 311.5q-6 52.5 9 104.5q34 136 141 240t248 153l84 29q65 23 104 45t67 58t44.5 78.5t34.5 115.5l18 69h242l-21 -88q-19 -78 -40.5 -135t-56.5 -112.5t-83 -97.5t-117.5 -81t-163.5 -72l-51 -16q-94 -33 -139.5 -76.5t-60.5 -109.5q-19 -76 48.5 -144.5t192.5 -68.5 q128 0 235 51.5t222 163.5l143 -168q-152 -137 -312 -203.5t-343 -66.5q-83 0 -154.5 18t-122 49t-89 73.5t-56 90.5t-23.5 100.5zM842 1497q21 83 76 132.5t133 49.5q80 0 110.5 -49t9.5 -133q-21 -82 -75.5 -131t-134.5 -49q-78 0 -109 48.5t-10 131.5z" />
<glyph unicode="&#xc0;" horiz-adv-x="1785" d="M-111 0l1153 1659h238l334 -1659h-266l-76 385l18 23h-876l8 -23l-266 -385h-267zM582 635h653l-21 24l-112 564l-8 151h-4l-84 -149l-394 -566zM1012 2154l196 158l256 -424l-121 -98z" />
<glyph unicode="&#xc1;" horiz-adv-x="1785" d="M-111 0l1153 1659h238l334 -1659h-266l-76 385l18 23h-876l8 -23l-266 -385h-267zM582 635h653l-21 24l-112 564l-8 151h-4l-84 -149l-394 -566zM979 1888l467 424l117 -158l-510 -364z" />
<glyph unicode="&#xc2;" horiz-adv-x="1785" d="M-111 0l1153 1659h238l334 -1659h-266l-76 385l18 23h-876l8 -23l-266 -385h-267zM582 635h653l-21 24l-112 564l-8 151h-4l-84 -149l-394 -566zM834 1884l475 381h4l286 -381l-118 -96l-230 233h-4l-342 -233z" />
<glyph unicode="&#xc3;" horiz-adv-x="1785" d="M-111 0l1153 1659h238l334 -1659h-266l-76 385l18 23h-876l8 -23l-266 -385h-267zM582 635h653l-21 24l-112 564l-8 151h-4l-84 -149l-394 -566zM743 1896q47 90 148.5 161t202.5 71q35 0 71 -13.5t59 -28t60 -40.5q64 -43 80 -51q44 -21 76 -21q59 0 114 41.5t95 116.5 l82 -109q-56 -102 -155 -166.5t-200 -64.5q-34 0 -70 13.5t-58 27t-58 39.5q-52 39 -80 51q-41 23 -80 23q-54 0 -108 -40t-99 -116z" />
<glyph unicode="&#xc4;" horiz-adv-x="1785" d="M-111 0l1153 1659h238l334 -1659h-266l-76 385l18 23h-876l8 -23l-266 -385h-267zM582 635h653l-21 24l-112 564l-8 151h-4l-84 -149l-394 -566zM864 1989q18 66 61.5 105.5t106.5 39.5t87 -39.5t9 -105.5t-59.5 -106t-107.5 -40t-87.5 40t-9.5 106zM1360 1989 q15 66 60 105.5t108 39.5t87 -39.5t9 -105.5q-18 -66 -62 -106t-106 -40q-63 0 -87 40t-9 106z" />
<glyph unicode="&#xc5;" horiz-adv-x="1785" d="M-111 0l1153 1659h238l334 -1659h-266l-76 385l18 23h-876l8 -23l-266 -385h-267zM582 635h653l-21 24l-112 564l-8 151h-4l-84 -149l-394 -566zM1024 2032q26 105 101.5 171t185.5 66q113 0 156 -65t16 -172q-26 -107 -102.5 -173.5t-186.5 -66.5q-112 0 -154.5 66.5 t-15.5 173.5zM1149 2032q-13 -54 5.5 -85.5t70.5 -31.5t86 32t47 85q13 52 -5.5 83t-70.5 31q-106 0 -133 -114z" />
<glyph unicode="&#xc6;" horiz-adv-x="2181" d="M-111 0l1153 1659h1266l-57 -227h-762l8 -25l-108 -438l-31 -27h684l-55 -225h-684l18 -25l-109 -440l-30 -25h772l-56 -227h-991l94 383l23 25h-610l8 -25l-266 -383h-267zM582 635h503l-14 24l184 748l19 25h-148l2 -25l-520 -752z" />
<glyph unicode="&#xc7;" horiz-adv-x="1642" d="M136 554.5q1 122.5 36 264.5q46 189 140 346.5t226 272t305.5 178t370.5 63.5q402 0 574 -262l-221 -176q-58 105 -155 158t-253 53q-149 0 -275 -49t-216 -136t-151.5 -200t-94.5 -248q-26 -105 -28.5 -195.5t22.5 -168t78.5 -132t143.5 -85.5t212 -31q157 0 281 52.5 t233 158.5l133 -174q-278 -244 -639 -262l23 -27q35 -40 22 -94t-72 -103l-229 -184l-84 113l166 135q34 27 48 48.5t13 36t-12 30.5l-35 47q-140 11 -247.5 56t-176 118.5t-104 173.5t-34.5 222.5z" />
<glyph unicode="&#xc8;" horiz-adv-x="1581" d="M41 0l410 1659h1257l-57 -227h-1039l19 -25l-109 -438l-30 -27h942l-58 -225h-940l19 -25l-109 -440l-31 -25h1039l-56 -227h-1257zM924 2157l196 157l256 -424l-121 -98z" />
<glyph unicode="&#xc9;" horiz-adv-x="1581" d="M41 0l410 1659h1257l-57 -227h-1039l19 -25l-109 -438l-30 -27h942l-58 -225h-940l19 -25l-109 -440l-31 -25h1039l-56 -227h-1257zM946 1888l465 424l119 -158l-512 -364z" />
<glyph unicode="&#xca;" horiz-adv-x="1581" d="M41 0l410 1659h1257l-57 -227h-1039l19 -25l-109 -438l-30 -27h942l-58 -225h-940l19 -25l-109 -440l-31 -25h1039l-56 -227h-1257zM766 1884l475 381h4l285 -381l-119 -96l-229 233h-4l-342 -233z" />
<glyph unicode="&#xcb;" horiz-adv-x="1581" d="M41 0l410 1659h1257l-57 -227h-1039l19 -25l-109 -438l-30 -27h942l-58 -225h-940l19 -25l-109 -440l-31 -25h1039l-56 -227h-1257zM793 1989q18 67 61.5 106t106.5 39t87 -38.5t9 -106.5q-15 -66 -60 -105t-108 -39t-87 39t-9 105zM1288 1989q15 67 59.5 106t108.5 39 q63 0 87 -38.5t9 -106.5q-18 -66 -62 -105t-106 -39q-63 0 -87 39t-9 105z" />
<glyph unicode="&#xcc;" horiz-adv-x="628" d="M51 0l410 1659h241l-407 -1659h-244zM416 2157l196 157l256 -424l-120 -98z" />
<glyph unicode="&#xcd;" horiz-adv-x="628" d="M51 0l410 1659h241l-407 -1659h-244zM395 1888l465 424l119 -158l-512 -364z" />
<glyph unicode="&#xce;" horiz-adv-x="628" d="M51 0l410 1659h241l-407 -1659h-244zM260 1884l475 381h4l285 -381l-119 -96l-229 233h-4l-342 -233z" />
<glyph unicode="&#xcf;" horiz-adv-x="628" d="M51 0l410 1659h241l-407 -1659h-244zM287 1987q18 67 61.5 106t106.5 39t87 -38.5t9 -106.5q-18 -66 -62 -105t-106 -39q-63 0 -87 39t-9 105zM782 1987q15 67 59.5 106t106.5 39q65 0 89.5 -39t6.5 -106q-15 -66 -59.5 -105t-107.5 -39t-88 39t-7 105z" />
<glyph unicode="&#xd0;" horiz-adv-x="1720" d="M41 0l170 692l20 25h-145l55 225h146l-8 27l172 690h178h145h322q138 0 245.5 -26t176 -70t113 -108.5t63.5 -135t20.5 -156.5t-10 -165t-33.5 -169t-49.5 -169t-71 -165t-96.5 -156t-128.5 -134.5t-165.5 -108.5t-208.5 -70t-255.5 -26h-655zM315 227h418 q98 0 180.5 16.5t145 45t114.5 72.5t89 93t68 113t51.5 125t39.5 137q18 75 28 136.5t10 125.5t-13.5 113t-44.5 93t-80.5 73t-125.5 45.5t-175 16.5h-408l19 -25l-109 -440l-20 -25h409l-55 -225h-412l11 -27l-109 -438z" />
<glyph unicode="&#xd1;" horiz-adv-x="1763" d="M41 0l410 1659h213l561 -1075l65 -187h4l312 1262h243l-409 -1659h-215l-559 1073l-66 189h-4l-311 -1262h-244zM727 1896q45 90 146 161t202 71q81 0 191 -82q10 -6 26.5 -17t30 -19.5t25.5 -14.5q44 -21 73 -21q60 0 115 41.5t96 116.5l82 -109q-57 -102 -156 -166.5 t-198 -64.5q-34 0 -70.5 13.5t-57 26.5t-58.5 40q-52 39 -80 51q-44 23 -80 23q-55 0 -109.5 -40t-97.5 -116z" />
<glyph unicode="&#xd2;" horiz-adv-x="1812" d="M138.5 477q-15.5 155 33.5 342q46 189 136.5 345.5t217 271.5t294 179t358.5 64q155 0 273.5 -41t194 -117t114.5 -182.5t39 -237.5t-38 -282q-46 -188 -136.5 -342t-217 -265t-293 -171.5t-356.5 -60.5q-192 0 -328.5 61t-206 171t-85 265zM392.5 622.5 q-3.5 -90.5 19.5 -168t72.5 -132t133 -85t197.5 -30.5q143 0 261 46.5t202.5 130.5t142.5 193t90 242q26 106 30.5 198.5t-17.5 173t-70 138t-132.5 90.5t-199.5 33q-141 0 -259.5 -48.5t-204 -136t-144.5 -200t-92 -248.5q-26 -106 -29.5 -196.5zM1006 2157l196 157 l256 -424l-121 -98z" />
<glyph unicode="&#xd3;" horiz-adv-x="1812" d="M138.5 477q-15.5 155 33.5 342q46 189 136.5 345.5t217 271.5t294 179t358.5 64q155 0 273.5 -41t194 -117t114.5 -182.5t39 -237.5t-38 -282q-46 -188 -136.5 -342t-217 -265t-293 -171.5t-356.5 -60.5q-192 0 -328.5 61t-206 171t-85 265zM392.5 622.5 q-3.5 -90.5 19.5 -168t72.5 -132t133 -85t197.5 -30.5q143 0 261 46.5t202.5 130.5t142.5 193t90 242q26 106 30.5 198.5t-17.5 173t-70 138t-132.5 90.5t-199.5 33q-141 0 -259.5 -48.5t-204 -136t-144.5 -200t-92 -248.5q-26 -106 -29.5 -196.5zM1001 1888l465 424 l119 -158l-510 -364z" />
<glyph unicode="&#xd4;" horiz-adv-x="1812" d="M138.5 477q-15.5 155 33.5 342q46 189 136.5 345.5t217 271.5t294 179t358.5 64q155 0 273.5 -41t194 -117t114.5 -182.5t39 -237.5t-38 -282q-46 -188 -136.5 -342t-217 -265t-293 -171.5t-356.5 -60.5q-192 0 -328.5 61t-206 171t-85 265zM392.5 622.5 q-3.5 -90.5 19.5 -168t72.5 -132t133 -85t197.5 -30.5q143 0 261 46.5t202.5 130.5t142.5 193t90 242q26 106 30.5 198.5t-17.5 173t-70 138t-132.5 90.5t-199.5 33q-141 0 -259.5 -48.5t-204 -136t-144.5 -200t-92 -248.5q-26 -106 -29.5 -196.5zM850 1884l475 381h4 l287 -381l-121 -96l-227 233h-4l-342 -233z" />
<glyph unicode="&#xd5;" horiz-adv-x="1812" d="M138.5 477q-15.5 155 33.5 342q46 189 136.5 345.5t217 271.5t294 179t358.5 64q155 0 273.5 -41t194 -117t114.5 -182.5t39 -237.5t-38 -282q-46 -188 -136.5 -342t-217 -265t-293 -171.5t-356.5 -60.5q-192 0 -328.5 61t-206 171t-85 265zM392.5 622.5 q-3.5 -90.5 19.5 -168t72.5 -132t133 -85t197.5 -30.5q143 0 261 46.5t202.5 130.5t142.5 193t90 242q26 106 30.5 198.5t-17.5 173t-70 138t-132.5 90.5t-199.5 33q-141 0 -259.5 -48.5t-204 -136t-144.5 -200t-92 -248.5q-26 -106 -29.5 -196.5zM743 1896q47 90 148.5 161 t202.5 71q35 0 71 -13.5t59 -28t60 -40.5q64 -43 80 -51q44 -21 76 -21q59 0 114 41.5t95 116.5l82 -109q-56 -102 -155 -166.5t-200 -64.5q-34 0 -70 13.5t-58 27t-58 39.5q-52 39 -80 51q-41 23 -80 23q-54 0 -108 -40t-99 -116z" />
<glyph unicode="&#xd6;" horiz-adv-x="1812" d="M138.5 477q-15.5 155 33.5 342q46 189 136.5 345.5t217 271.5t294 179t358.5 64q155 0 273.5 -41t194 -117t114.5 -182.5t39 -237.5t-38 -282q-46 -188 -136.5 -342t-217 -265t-293 -171.5t-356.5 -60.5q-192 0 -328.5 61t-206 171t-85 265zM392.5 622.5 q-3.5 -90.5 19.5 -168t72.5 -132t133 -85t197.5 -30.5q143 0 261 46.5t202.5 130.5t142.5 193t90 242q26 106 30.5 198.5t-17.5 173t-70 138t-132.5 90.5t-199.5 33q-141 0 -259.5 -48.5t-204 -136t-144.5 -200t-92 -248.5q-26 -106 -29.5 -196.5zM874 1989q15 66 60 105.5 t108 39.5t88 -39.5t7 -105.5q-15 -66 -59.5 -106t-106.5 -40q-64 0 -88.5 39.5t-8.5 106.5zM1370 1989q15 66 59 105.5t107 39.5q64 0 88 -39t8 -106q-15 -66 -60 -106t-108 -40t-87.5 40t-6.5 106z" />
<glyph unicode="&#xd7;" horiz-adv-x="1267" d="M133 500l420 334l-14 8l-242 317l192 158l234 -324l6 -18l416 342l117 -158l-420 -334l12 -8l244 -317l-195 -158l-233 326l-6 16l-414 -342z" />
<glyph unicode="&#xd8;" horiz-adv-x="1812" d="M143 -74l146 178l20 11q-127 109 -161.5 292t24.5 412q46 188 137 345.5t218.5 272t295.5 178.5t359 64q197 0 340 -73l6 22l100 123l107 -74l-99 -118l-20 -13q134 -112 170 -302.5t-25 -424.5q-46 -188 -136.5 -342t-217 -265t-293 -171.5t-356.5 -60.5q-218 0 -363 77 v-22l-147 -182zM422 819q-84 -330 61 -493l9 28l843 1037l23 10q-88 51 -236 51q-141 0 -259.5 -48.5t-204 -136t-144.5 -200t-92 -248.5zM567 260q95 -53 248 -53q143 0 261 46.5t202.5 130.5t142.5 193t90 242q90 354 -65 520l-6 -24l-848 -1041z" />
<glyph unicode="&#xd9;" horiz-adv-x="1787" d="M219 762l221 897h244l-221 -895q-35 -131 -33.5 -234.5t38.5 -175t121 -109.5t214 -38q252 0 400.5 142t215.5 415l221 895h244l-221 -897q-194 -782 -915 -782q-724 0 -529 782zM993 2157l197 157l256 -424l-121 -98z" />
<glyph unicode="&#xda;" horiz-adv-x="1787" d="M219 762l221 897h244l-221 -895q-35 -131 -33.5 -234.5t38.5 -175t121 -109.5t214 -38q252 0 400.5 142t215.5 415l221 895h244l-221 -897q-194 -782 -915 -782q-724 0 -529 782zM969 1888l465 424l118 -158l-512 -364z" />
<glyph unicode="&#xdb;" horiz-adv-x="1787" d="M219 762l221 897h244l-221 -895q-35 -131 -33.5 -234.5t38.5 -175t121 -109.5t214 -38q252 0 400.5 142t215.5 415l221 895h244l-221 -897q-194 -782 -915 -782q-724 0 -529 782zM838 1884l475 381h4l285 -381l-119 -96l-230 233h-4l-340 -233z" />
<glyph unicode="&#xdc;" horiz-adv-x="1787" d="M219 762l221 897h244l-221 -895q-35 -131 -33.5 -234.5t38.5 -175t121 -109.5t214 -38q252 0 400.5 142t215.5 415l221 895h244l-221 -897q-194 -782 -915 -782q-724 0 -529 782zM864 1989q15 66 60 105.5t108 39.5t87 -39.5t9 -105.5q-18 -66 -62 -106t-105 -40 q-63 0 -87.5 40t-9.5 106zM1360 1989q15 66 59 105.5t107 39.5q64 0 88 -39t8 -106q-15 -66 -60 -106t-108 -40t-87.5 40t-6.5 106z" />
<glyph unicode="&#xdd;" horiz-adv-x="1722" d="M297 1659h307l279 -590l57 -172h4l139 174l574 588h303l-946 -967l-170 -692h-246l170 692zM950 1888l465 424l119 -158l-512 -364z" />
<glyph unicode="&#xde;" horiz-adv-x="1615" d="M41 0l410 1659h241l-71 -285l-31 -24h559q266 0 381 -144.5t57 -378.5q-27 -110 -88.5 -204.5t-150 -164.5t-207 -110.5t-252.5 -40.5h-553l18 -24l-69 -283h-244zM391 532h555q159 0 259 80.5t132 214.5q35 138 -24.5 216.5t-218.5 78.5h-557l18 -24l-133 -539z" />
<glyph unicode="&#xdf;" horiz-adv-x="1431" d="M41 0l324 1309q104 422 581 422q116 0 207.5 -33t147.5 -93t76.5 -144.5t-5.5 -188.5q-28 -107 -95 -189.5t-163 -130.5v-4q120 -41 174.5 -163t14.5 -283q-56 -226 -241 -375.5t-411 -149.5q-168 0 -286 48l57 233q75 -36 127 -47.5t137 -11.5q137 0 241.5 81t137.5 220 q35 139 -31.5 224t-206.5 85h-264l55 219l187 -2q126 -1 211 60.5t114 175.5q28 116 -40 182.5t-199 66.5q-133 0 -200.5 -58t-100.5 -191l-311 -1262h-238z" />
<glyph unicode="&#xe0;" horiz-adv-x="1525" d="M98 424q1 100 29 215q36 147 105 268.5t165.5 212t225 141t276.5 50.5q117 0 208.5 -42.5t137.5 -115.5h4l35 137h238l-320 -1290h-237l32 127h-4q-170 -147 -422 -147q-120 0 -211 32t-148 90.5t-86 140t-28 181.5zM342.5 462.5q3.5 -81.5 32.5 -141t97 -93t171 -33.5 q102 0 186 33t144.5 93.5t102 140.5t65.5 179q19 80 22.5 147t-11.5 124.5t-50 97t-95 62t-143 22.5q-197 0 -323 -123.5t-176 -329.5q-26 -97 -22.5 -178.5zM788 1788l197 160l254 -426l-121 -99z" />
<glyph unicode="&#xe1;" horiz-adv-x="1525" d="M98 424q1 100 29 215q36 147 105 268.5t165.5 212t225 141t276.5 50.5q117 0 208.5 -42.5t137.5 -115.5h4l35 137h238l-320 -1290h-237l32 127h-4q-170 -147 -422 -147q-120 0 -211 32t-148 90.5t-86 140t-28 181.5zM342.5 462.5q3.5 -81.5 32.5 -141t97 -93t171 -33.5 q102 0 186 33t144.5 93.5t102 140.5t65.5 179q19 80 22.5 147t-11.5 124.5t-50 97t-95 62t-143 22.5q-197 0 -323 -123.5t-176 -329.5q-26 -97 -22.5 -178.5zM766 1522l465 426l119 -160l-510 -365z" />
<glyph unicode="&#xe2;" horiz-adv-x="1525" d="M98 424q1 100 29 215q36 147 105 268.5t165.5 212t225 141t276.5 50.5q117 0 208.5 -42.5t137.5 -115.5h4l35 137h238l-320 -1290h-237l32 127h-4q-170 -147 -422 -147q-120 0 -211 32t-148 90.5t-86 140t-28 181.5zM342.5 462.5q3.5 -81.5 32.5 -141t97 -93t171 -33.5 q102 0 186 33t144.5 93.5t102 140.5t65.5 179q19 80 22.5 147t-11.5 124.5t-50 97t-95 62t-143 22.5q-197 0 -323 -123.5t-176 -329.5q-26 -97 -22.5 -178.5zM588 1522l475 383h4l285 -383l-119 -97l-229 236l-5 -2l-342 -234z" />
<glyph unicode="&#xe3;" horiz-adv-x="1525" d="M98 424q1 100 29 215q36 147 105 268.5t165.5 212t225 141t276.5 50.5q117 0 208.5 -42.5t137.5 -115.5h4l35 137h238l-320 -1290h-237l32 127h-4q-170 -147 -422 -147q-120 0 -211 32t-148 90.5t-86 140t-28 181.5zM342.5 462.5q3.5 -81.5 32.5 -141t97 -93t171 -33.5 q102 0 186 33t144.5 93.5t102 140.5t65.5 179q19 80 22.5 147t-11.5 124.5t-50 97t-95 62t-143 22.5q-197 0 -323 -123.5t-176 -329.5q-26 -97 -22.5 -178.5zM500 1565q45 90 146 160.5t202 70.5q34 0 71.5 -14t59.5 -28t59 -40q10 -6 26 -17.5t29.5 -20t26.5 -13.5 q41 -23 74 -23q59 0 114 42t97 116l82 -108q-58 -101 -156.5 -166.5t-197.5 -65.5q-34 0 -71.5 14.5t-57 27t-58.5 40.5q-64 43 -80 51q-47 21 -80 21q-56 0 -109.5 -39.5t-96.5 -116.5z" />
<glyph unicode="&#xe4;" horiz-adv-x="1525" d="M98 424q1 100 29 215q36 147 105 268.5t165.5 212t225 141t276.5 50.5q117 0 208.5 -42.5t137.5 -115.5h4l35 137h238l-320 -1290h-237l32 127h-4q-170 -147 -422 -147q-120 0 -211 32t-148 90.5t-86 140t-28 181.5zM342.5 462.5q3.5 -81.5 32.5 -141t97 -93t171 -33.5 q102 0 186 33t144.5 93.5t102 140.5t65.5 179q19 80 22.5 147t-11.5 124.5t-50 97t-95 62t-143 22.5q-197 0 -323 -123.5t-176 -329.5q-26 -97 -22.5 -178.5zM608 1593q15 66 59 106t107 40q65 0 89.5 -39.5t6.5 -106.5q-15 -66 -60 -105.5t-108 -39.5t-87.5 39.5 t-6.5 105.5zM1102 1593q18 67 61.5 106.5t106.5 39.5t87 -39t9 -107q-18 -66 -62 -105.5t-106 -39.5q-63 0 -87 39.5t-9 105.5z" />
<glyph unicode="&#xe5;" horiz-adv-x="1525" d="M98 424q1 100 29 215q36 147 105 268.5t165.5 212t225 141t276.5 50.5q117 0 208.5 -42.5t137.5 -115.5h4l35 137h238l-320 -1290h-237l32 127h-4q-170 -147 -422 -147q-120 0 -211 32t-148 90.5t-86 140t-28 181.5zM342.5 462.5q3.5 -81.5 32.5 -141t97 -93t171 -33.5 q102 0 186 33t144.5 93.5t102 140.5t65.5 179q19 80 22.5 147t-11.5 124.5t-50 97t-95 62t-143 22.5q-197 0 -323 -123.5t-176 -329.5q-26 -97 -22.5 -178.5zM786 1663q27 108 102.5 174t186.5 66q112 0 155 -66.5t17 -173.5q-26 -106 -102.5 -173t-186.5 -67 q-111 0 -154.5 67t-17.5 173zM911 1663q-13 -52 6.5 -83.5t71.5 -31.5t86.5 31t46.5 84q13 54 -6 84.5t-72 30.5q-52 0 -85.5 -31t-47.5 -84z" />
<glyph unicode="&#xe6;" horiz-adv-x="2428" d="M98 424q1 100 29 215q36 147 105 268.5t165.5 212t225 141t276.5 50.5q117 0 208.5 -42.5t137.5 -115.5h4l35 137h238l-29 -112h4q86 62 188.5 97.5t204.5 35.5q121 0 213 -33.5t148.5 -93.5t84.5 -144.5t26.5 -186t-29.5 -218.5q-4 -17 -13.5 -45.5t-15.5 -48.5h-1006 l19 -27q-8 -154 67.5 -236.5t239.5 -82.5q197 0 381 147l121 -158q-258 -204 -555 -204q-221 0 -342 110h-4l-23 -90h-237l32 127h-4q-170 -147 -422 -147q-120 0 -211 32t-148 90.5t-86 140t-28 181.5zM342.5 462.5q3.5 -81.5 32.5 -141t97 -93t171 -33.5q102 0 186 33 t144.5 93.5t102 140.5t65.5 179q19 80 22.5 147t-11.5 124.5t-50 97t-95 62t-143 22.5q-197 0 -323 -123.5t-176 -329.5q-26 -97 -22.5 -178.5zM1356 750h792l-22 26q8 149 -62.5 234.5t-224.5 85.5q-158 0 -273 -86.5t-182 -233.5z" />
<glyph unicode="&#xe7;" horiz-adv-x="1300" d="M100.5 396q-7.5 112 26.5 239q35 143 107.5 266t174.5 214t236 143.5t283 52.5q303 0 440 -181l-199 -157q-89 123 -292 123q-98 -1 -184.5 -37.5t-150.5 -99.5t-110 -145.5t-70 -178.5q-18 -74 -20 -138.5t15 -120.5t52.5 -96t96.5 -62.5t143 -22.5q207 0 373 137 l119 -158q-225 -177 -482 -192l3 -5l18 -22q35 -40 22.5 -93t-71.5 -102l-230 -186l-84 113l166 135q47 38 57.5 65.5t-8.5 49.5l-34 49q-128 15 -217.5 71t-131 141.5t-49 197.5z" />
<glyph unicode="&#xe8;" d="M99.5 424.5q2.5 98.5 27.5 210.5q48 196 159 348t277.5 240t362.5 88q125 0 219.5 -33.5t152.5 -93.5t87 -144.5t28 -186t-29 -218.5q-3 -11 -28 -94h-1030l18 -25q-9 -155 68.5 -239t246.5 -84q194 0 383 145l121 -164q-257 -194 -557 -194q-129 0 -227 32.5t-157.5 91 t-92 140.5t-30 180.5zM379 750h809l-19 24q9 153 -63.5 238.5t-231.5 85.5q-162 0 -278 -86.5t-184 -237.5zM752 1788l194 160l256 -426l-121 -99z" />
<glyph unicode="&#xe9;" d="M99.5 424.5q2.5 98.5 27.5 210.5q48 196 159 348t277.5 240t362.5 88q125 0 219.5 -33.5t152.5 -93.5t87 -144.5t28 -186t-29 -218.5q-3 -11 -28 -94h-1030l18 -25q-9 -155 68.5 -239t246.5 -84q194 0 383 145l121 -164q-257 -194 -557 -194q-129 0 -227 32.5t-157.5 91 t-92 140.5t-30 180.5zM379 750h809l-19 24q9 153 -63.5 238.5t-231.5 85.5q-162 0 -278 -86.5t-184 -237.5zM745 1522l465 426l119 -160l-510 -365z" />
<glyph unicode="&#xea;" d="M99.5 424.5q2.5 98.5 27.5 210.5q48 196 159 348t277.5 240t362.5 88q125 0 219.5 -33.5t152.5 -93.5t87 -144.5t28 -186t-29 -218.5q-3 -11 -28 -94h-1030l18 -25q-9 -155 68.5 -239t246.5 -84q194 0 383 145l121 -164q-257 -194 -557 -194q-129 0 -227 32.5t-157.5 91 t-92 140.5t-30 180.5zM379 750h809l-19 24q9 153 -63.5 238.5t-231.5 85.5q-162 0 -278 -86.5t-184 -237.5zM596 1522l475 383h4l285 -383l-119 -97l-229 236l-2 -2l-342 -234z" />
<glyph unicode="&#xeb;" d="M99.5 424.5q2.5 98.5 27.5 210.5q48 196 159 348t277.5 240t362.5 88q125 0 219.5 -33.5t152.5 -93.5t87 -144.5t28 -186t-29 -218.5q-3 -11 -28 -94h-1030l18 -25q-9 -155 68.5 -239t246.5 -84q194 0 383 145l121 -164q-257 -194 -557 -194q-129 0 -227 32.5t-157.5 91 t-92 140.5t-30 180.5zM379 750h809l-19 24q9 153 -63.5 238.5t-231.5 85.5q-162 0 -278 -86.5t-184 -237.5zM614 1593q15 66 59 106t107 40q64 0 88 -39t9 -107q-15 -66 -60 -105.5t-108 -39.5t-88 39.5t-7 105.5zM1108 1593q15 66 60 106t108 40t87 -39t9 -107 q-18 -66 -62 -105.5t-106 -39.5q-63 0 -87 39.5t-9 105.5z" />
<glyph unicode="&#xec;" horiz-adv-x="602" d="M41 0l317 1290h238l-317 -1290h-238zM319 1788l195 160l256 -426l-121 -99z" />
<glyph unicode="&#xed;" horiz-adv-x="602" d="M41 0l317 1290h238l-317 -1290h-238zM287 1522l467 426l116 -160l-510 -365z" />
<glyph unicode="&#xee;" horiz-adv-x="602" d="M41 0l317 1290h238l-317 -1290h-238zM154 1522l475 383h4l287 -383l-119 -97l-230 236l-4 -2l-342 -234z" />
<glyph unicode="&#xef;" horiz-adv-x="602" d="M41 0l317 1290h238l-317 -1290h-238zM174 1593q18 67 61.5 106.5t106.5 39.5t87 -39t9 -107q-18 -66 -62 -105.5t-106 -39.5q-63 0 -87 39.5t-9 105.5zM670 1593q15 66 59.5 106t106.5 40q65 0 89.5 -39.5t6.5 -106.5q-15 -66 -60 -105.5t-108 -39.5t-87.5 39.5 t-6.5 105.5z" />
<glyph unicode="&#xf0;" horiz-adv-x="1370" d="M82 403.5q0 94.5 27 202.5q60 244 217.5 411t384.5 206q68 10 125 10q53 0 92 -8l-60 149l4 25l-194 -105l-60 156l193 102l-16 11l-68 170h256l23 -56l-2 -22l167 90l62 -156l-172 -90l18 -10l181 -457q69 -175 6 -426q-33 -134 -99 -248t-158.5 -198.5t-215 -132 t-261.5 -47.5q-113 0 -199.5 30.5t-140.5 86.5t-82 134t-28 172.5zM328 600q-46 -187 16.5 -297t241.5 -110t295.5 109.5t162.5 297.5q24 89 19.5 166t-32.5 133.5t-90 88.5t-153 32q-178 0 -295.5 -115t-164.5 -305z" />
<glyph unicode="&#xf1;" horiz-adv-x="1527" d="M41 0l317 1290h238l-35 -139h4q85 74 201.5 117t230.5 43q251 0 363.5 -130t54.5 -366l-203 -815h-237l192 778q21 70 19 128.5t-25 100.5t-84.5 65.5t-161.5 23.5q-161 0 -285.5 -87.5t-164.5 -246.5l-186 -762h-238zM543 1565q47 90 148 160.5t202 70.5q34 0 71.5 -14 t59.5 -28t59 -40q7 -4 25 -17t30.5 -21t24.5 -13q44 -23 76 -23q59 0 114 42t97 116l82 -108q-58 -101 -156.5 -166.5t-197.5 -65.5q-34 0 -71.5 14.5t-57 27t-58.5 40.5q-64 43 -80 51q-47 21 -80 21q-118 0 -208 -156z" />
<glyph unicode="&#xf2;" d="M101.5 463.5q3.5 85.5 27.5 181.5q36 144 105.5 265t168 211t231.5 140t286 50q124 0 219.5 -32.5t154 -91t90.5 -141.5t30 -184t-28 -217q-36 -144 -106 -264.5t-169 -210t-232.5 -140t-286.5 -50.5q-103 0 -186.5 23t-141.5 65t-96 101.5t-54 134t-12.5 160zM346 467.5 q5 -82.5 35 -143t98 -95t168 -34.5q197 0 324.5 123.5t177.5 326.5q26 96 21 178.5t-35 143t-98.5 95t-168.5 34.5q-198 0 -324.5 -123t-176.5 -328q-26 -95 -21 -177.5zM735 1788l197 160l256 -426l-121 -99z" />
<glyph unicode="&#xf3;" d="M101.5 463.5q3.5 85.5 27.5 181.5q36 144 105.5 265t168 211t231.5 140t286 50q124 0 219.5 -32.5t154 -91t90.5 -141.5t30 -184t-28 -217q-36 -144 -106 -264.5t-169 -210t-232.5 -140t-286.5 -50.5q-103 0 -186.5 23t-141.5 65t-96 101.5t-54 134t-12.5 160zM346 467.5 q5 -82.5 35 -143t98 -95t168 -34.5q197 0 324.5 123.5t177.5 326.5q26 96 21 178.5t-35 143t-98.5 95t-168.5 34.5q-198 0 -324.5 -123t-176.5 -328q-26 -95 -21 -177.5zM745 1522l465 426l119 -160l-510 -365z" />
<glyph unicode="&#xf4;" d="M101.5 463.5q3.5 85.5 27.5 181.5q36 144 105.5 265t168 211t231.5 140t286 50q124 0 219.5 -32.5t154 -91t90.5 -141.5t30 -184t-28 -217q-36 -144 -106 -264.5t-169 -210t-232.5 -140t-286.5 -50.5q-103 0 -186.5 23t-141.5 65t-96 101.5t-54 134t-12.5 160zM346 467.5 q5 -82.5 35 -143t98 -95t168 -34.5q197 0 324.5 123.5t177.5 326.5q26 96 21 178.5t-35 143t-98.5 95t-168.5 34.5q-198 0 -324.5 -123t-176.5 -328q-26 -95 -21 -177.5zM592 1522l475 383h4l287 -383l-121 -97l-229 236l-2 -2l-342 -234z" />
<glyph unicode="&#xf5;" d="M101.5 463.5q3.5 85.5 27.5 181.5q36 144 105.5 265t168 211t231.5 140t286 50q124 0 219.5 -32.5t154 -91t90.5 -141.5t30 -184t-28 -217q-36 -144 -106 -264.5t-169 -210t-232.5 -140t-286.5 -50.5q-103 0 -186.5 23t-141.5 65t-96 101.5t-54 134t-12.5 160zM346 467.5 q5 -82.5 35 -143t98 -95t168 -34.5q197 0 324.5 123.5t177.5 326.5q26 96 21 178.5t-35 143t-98.5 95t-168.5 34.5q-198 0 -324.5 -123t-176.5 -328q-26 -95 -21 -177.5zM496 1565q45 90 146 160.5t202 70.5q34 0 71.5 -14t59.5 -28t59 -40q10 -6 26.5 -17.5t30 -20 t25.5 -13.5q41 -23 74 -23q59 0 114 42t97 116l82 -108q-58 -101 -157 -166.5t-198 -65.5q-34 0 -71.5 14.5t-56 26.5t-58.5 41q-64 43 -80 51q-47 21 -80 21q-56 0 -110 -39.5t-97 -116.5z" />
<glyph unicode="&#xf6;" d="M101.5 463.5q3.5 85.5 27.5 181.5q36 144 105.5 265t168 211t231.5 140t286 50q124 0 219.5 -32.5t154 -91t90.5 -141.5t30 -184t-28 -217q-36 -144 -106 -264.5t-169 -210t-232.5 -140t-286.5 -50.5q-103 0 -186.5 23t-141.5 65t-96 101.5t-54 134t-12.5 160zM346 467.5 q5 -82.5 35 -143t98 -95t168 -34.5q197 0 324.5 123.5t177.5 326.5q26 96 21 178.5t-35 143t-98.5 95t-168.5 34.5q-198 0 -324.5 -123t-176.5 -328q-26 -95 -21 -177.5zM612 1593q15 66 60 106t108 40t87.5 -39t9.5 -107q-18 -66 -62 -105.5t-106 -39.5q-63 0 -87.5 39.5 t-9.5 105.5zM1108 1593q15 66 59 106t107 40q65 0 89.5 -39.5t6.5 -106.5q-15 -66 -60 -105.5t-108 -39.5t-87.5 39.5t-6.5 105.5z" />
<glyph unicode="&#xf7;" horiz-adv-x="1368" d="M207 717l55 225h1024l-55 -225h-1024zM469 360q21 84 76 133.5t133 49.5q80 0 111 -49.5t10 -133.5q-21 -81 -77 -130.5t-134 -49.5t-109 49.5t-10 130.5zM700 1298q21 82 76 131.5t133 49.5q80 0 111 -48.5t10 -132.5q-21 -83 -77 -132.5t-134 -49.5t-109 49.5 t-10 132.5z" />
<glyph unicode="&#xf8;" horiz-adv-x="1429" d="M80 -57l117 141l22 12q-91 89 -113 234t23 315q36 145 104 266t163.5 210.5t223.5 139.5t275 50q159 0 266 -58l8 21l113 141l104 -74l-116 -141l-19 -8q175 -186 84 -547q-36 -144 -104 -265t-164 -210.5t-224 -139.5t-274 -50q-161 0 -264 53l-4 -23l-115 -141z M354 645q-56 -231 31 -346l12 31l584 714l23 15q-64 33 -162 33q-191 0 -314.5 -121.5t-173.5 -325.5zM467 229q55 -30 156 -30q190 0 313.5 121t173.5 325q53 218 -25 342l-10 -26l-581 -713z" />
<glyph unicode="&#xf9;" horiz-adv-x="1511" d="M152 494l198 796h236l-193 -788q-15 -56 -18.5 -99t7 -83.5t39 -67t83.5 -42t135 -15.5q160 0 280.5 87t159.5 246l189 762h237l-319 -1290h-238l35 139h-4q-89 -77 -198.5 -118t-223.5 -41q-271 0 -368.5 134.5t-36.5 379.5zM752 1788l194 160l256 -426l-121 -99z" />
<glyph unicode="&#xfa;" horiz-adv-x="1511" d="M152 494l198 796h236l-193 -788q-15 -56 -18.5 -99t7 -83.5t39 -67t83.5 -42t135 -15.5q160 0 280.5 87t159.5 246l189 762h237l-319 -1290h-238l35 139h-4q-89 -77 -198.5 -118t-223.5 -41q-271 0 -368.5 134.5t-36.5 379.5zM762 1522l465 426l119 -160l-510 -365z" />
<glyph unicode="&#xfb;" horiz-adv-x="1511" d="M152 494l198 796h236l-193 -788q-15 -56 -18.5 -99t7 -83.5t39 -67t83.5 -42t135 -15.5q160 0 280.5 87t159.5 246l189 762h237l-319 -1290h-238l35 139h-4q-89 -77 -198.5 -118t-223.5 -41q-271 0 -368.5 134.5t-36.5 379.5zM596 1522l475 383h4l285 -383l-119 -97 l-229 236l-2 -2l-342 -234z" />
<glyph unicode="&#xfc;" horiz-adv-x="1511" d="M152 494l198 796h236l-193 -788q-15 -56 -18.5 -99t7 -83.5t39 -67t83.5 -42t135 -15.5q160 0 280.5 87t159.5 246l189 762h237l-319 -1290h-238l35 139h-4q-89 -77 -198.5 -118t-223.5 -41q-271 0 -368.5 134.5t-36.5 379.5zM623 1593q15 66 60 106t108 40t87 -39 t9 -107q-18 -66 -62 -105.5t-106 -39.5q-63 0 -87 39.5t-9 105.5zM1118 1593q15 66 59 106t107 40q65 0 89.5 -39.5t6.5 -106.5q-15 -66 -60 -105.5t-108 -39.5t-87.5 39.5t-6.5 105.5z" />
<glyph unicode="&#xfd;" horiz-adv-x="1419" d="M-96 -381l55 229q109 -67 225 -67q145 0 287 219l-264 1290h264l166 -876l14 -156h4l90 158l555 874h265l-940 -1423q-96 -143 -218.5 -225t-250.5 -82q-153 0 -252 59zM717 1522l467 426l116 -160l-509 -365z" />
<glyph unicode="&#xfe;" horiz-adv-x="1527" d="M-66 -430l531 2150h237l-139 -563h4q181 154 412 154q123 0 216.5 -32.5t151.5 -91.5t87.5 -142.5t28.5 -184t-29 -217.5q-36 -147 -104 -267t-164.5 -209t-228 -138t-286.5 -49q-120 0 -201 34t-137 111h-4l-137 -555h-238zM397 463q3 -83 32 -143t96.5 -93.5 t170.5 -33.5q201 0 325.5 122t174.5 328q26 97 23 180t-32 144t-96.5 95t-170.5 34q-200 0 -325 -123t-175 -330q-26 -97 -23 -180z" />
<glyph unicode="&#xff;" horiz-adv-x="1419" d="M-96 -381l55 229q109 -67 225 -67q139 0 289 231l-266 1278h264l166 -854l14 -174h4l99 174l546 854h265l-942 -1423q-96 -143 -218.5 -225t-250.5 -82q-151 0 -250 59zM565 1593q18 67 61.5 106.5t106.5 39.5t87 -39t9 -107q-18 -67 -61 -106t-106 -39t-87.5 39.5 t-9.5 105.5zM1061 1593q15 66 60 106t108 40t87.5 -39.5t6.5 -106.5q-15 -66 -59.5 -105.5t-106.5 -39.5q-65 0 -89.5 39.5t-6.5 105.5z" />
<glyph unicode="&#x152;" horiz-adv-x="2265" d="M128.5 478.5q-5.5 154.5 43.5 340.5q46 187 126 343t188 272t248.5 180.5t297.5 64.5q237 0 342 -143h4l31 123h983l-57 -227h-756l10 -25l-108 -440l-23 -23h678l-57 -229h-676l8 -27l-106 -434l-23 -27h756l-56 -227h-985l31 121q-2 -2 -4 -2q-83 -68 -191 -103.5 t-221 -35.5q-158 0 -267.5 61.5t-160 172t-56 265zM386 573.5q-3 -110.5 25 -193t93.5 -128t165.5 -45.5t188.5 45.5t157 128t119.5 193t84 245.5q34 134 37.5 247.5t-22.5 200.5t-91.5 136t-165.5 49q-132 0 -244.5 -84.5t-189 -224.5t-121.5 -324q-33 -135 -36 -245.5z " />
<glyph unicode="&#x153;" horiz-adv-x="2437" d="M100 428.5q1 100.5 29 216.5q36 145 104 265.5t165 210.5t227 140t280 50q345 0 443 -248q2 2 4 2q100 119 240.5 182.5t305.5 63.5q121 0 213 -33.5t148.5 -93.5t84.5 -144.5t26.5 -186t-29.5 -218.5q-4 -17 -13.5 -45.5t-15.5 -48.5h-1007l20 -25q-16 -321 307 -321 q200 0 379 143l119 -162q-244 -196 -551 -196q-351 0 -453 241l-4 -2q-92 -114 -232.5 -176.5t-311.5 -62.5q-121 0 -213 32.5t-149.5 91.5t-87 141.5t-28.5 183zM335 466.5q5 -82.5 34.5 -142.5t96.5 -94.5t165 -34.5q195 0 321 122.5t176 327.5q26 97 21.5 179.5t-34 143 t-97 94.5t-166.5 34q-195 0 -320.5 -123t-175.5 -328q-26 -96 -21 -178.5zM1360 750h794l-20 26q8 148 -63 234t-226 86q-157 0 -271 -86.5t-181 -233.5z" />
<glyph unicode="&#x178;" horiz-adv-x="1701" d="M297 1659h307l264 -582l62 -178h4l147 180l555 580h303l-935 -967l-170 -692h-246l170 692zM817 1989q18 66 61.5 105.5t106.5 39.5t87 -39.5t9 -105.5q-18 -66 -62 -106t-106 -40q-63 0 -87 40t-9 106zM1313 1989q15 66 59.5 105.5t106.5 39.5q65 0 89.5 -39.5 t6.5 -105.5q-15 -66 -60 -106t-108 -40t-87.5 40t-6.5 106z" />
<glyph unicode="&#x2c6;" horiz-adv-x="1470" d="M573 1522l476 383h4l286 -383l-120 -97l-228 236l-4 -2l-342 -234z" />
<glyph unicode="&#x2dc;" horiz-adv-x="1460" d="M471 1565q47 90 147.5 160.5t202.5 70.5q34 0 70.5 -14t59.5 -28t59 -40q10 -6 26.5 -17.5t30 -20t25.5 -13.5q41 -23 73 -23q59 0 114 42t97 116l82 -108q-56 -100 -155.5 -166t-198.5 -66q-33 0 -70 14.5t-57 27.5t-59 40q-64 43 -80 51q-47 21 -80 21 q-117 0 -207 -156z" />
<glyph unicode="&#x2000;" horiz-adv-x="1157" />
<glyph unicode="&#x2001;" horiz-adv-x="2314" />
<glyph unicode="&#x2002;" horiz-adv-x="1157" />
<glyph unicode="&#x2003;" horiz-adv-x="2314" />
<glyph unicode="&#x2004;" horiz-adv-x="771" />
<glyph unicode="&#x2005;" horiz-adv-x="578" />
<glyph unicode="&#x2006;" horiz-adv-x="385" />
<glyph unicode="&#x2007;" horiz-adv-x="385" />
<glyph unicode="&#x2008;" horiz-adv-x="289" />
<glyph unicode="&#x2009;" horiz-adv-x="462" />
<glyph unicode="&#x200a;" horiz-adv-x="128" />
<glyph unicode="&#x2010;" horiz-adv-x="821" d="M57 563l56 225h700l-55 -225h-701z" />
<glyph unicode="&#x2011;" horiz-adv-x="821" d="M57 563l56 225h700l-55 -225h-701z" />
<glyph unicode="&#x2012;" horiz-adv-x="821" d="M57 563l56 225h700l-55 -225h-701z" />
<glyph unicode="&#x2013;" horiz-adv-x="1245" d="M57 563l56 225h1124l-55 -225h-1125z" />
<glyph unicode="&#x2014;" horiz-adv-x="1802" d="M57 563l56 225h1681l-55 -225h-1682z" />
<glyph unicode="&#x2018;" horiz-adv-x="495" d="M240 1176q13 54 55 114l268 400l105 -50l-181 -270l-32 -22q68 -9 91.5 -53.5t4.5 -118.5q-19 -79 -71.5 -127t-127.5 -48t-104 47.5t-8 127.5z" />
<glyph unicode="&#x2019;" horiz-adv-x="495" d="M207 1040l178 271l33 24q-68 7 -91.5 52t-4.5 120q19 78 71 125t127 47t104.5 -47t10.5 -125q-15 -52 -57 -116l-269 -400z" />
<glyph unicode="&#x201a;" horiz-adv-x="495" d="M-129 -319l178 270l33 24q-68 7 -91.5 52t-4.5 120q19 78 71 125t127 47t104.5 -47t10.5 -125q-10 -45 -57 -116l-267 -400z" />
<glyph unicode="&#x201c;" horiz-adv-x="888" d="M240 1176q13 54 55 114l268 400l105 -50l-181 -270l-32 -22q68 -9 91.5 -53.5t4.5 -118.5q-19 -79 -71.5 -127t-127.5 -48t-104 47.5t-8 127.5zM633 1176q12 49 57 114l266 400l105 -50l-178 -270l-35 -22q135 -18 98 -172q-21 -79 -73 -127t-125 -48q-76 0 -105 47.5 t-10 127.5z" />
<glyph unicode="&#x201d;" horiz-adv-x="888" d="M207 1040l178 271l33 24q-68 7 -91.5 52t-4.5 120q19 78 71 125t127 47t104.5 -47t10.5 -125q-15 -52 -57 -116l-269 -400zM600 1040l178 271l33 24q-68 7 -91.5 52t-4.5 120q19 78 71 125t127 47t104.5 -47t10.5 -125q-10 -45 -57 -116l-266 -400z" />
<glyph unicode="&#x201e;" horiz-adv-x="888" d="M-129 -317l178 270l33 24q-133 14 -96 173q21 79 72.5 125.5t125.5 46.5q75 0 104.5 -47t10.5 -125q-11 -46 -57 -117l-267 -400zM264 -317l180 270l33 24q-135 15 -98 173q21 78 73.5 125t125.5 47q76 0 104.5 -46.5t9.5 -125.5q-12 -51 -55 -117l-268 -400z" />
<glyph unicode="&#x2022;" horiz-adv-x="784" d="M63 829q31 126 140.5 215t234.5 89q126 0 192.5 -89t35.5 -215q-31 -127 -141.5 -216t-235.5 -89t-191.5 89t-34.5 216z" />
<glyph unicode="&#x2026;" horiz-adv-x="1732" d="M16 152q21 79 73.5 126.5t125.5 47.5q76 0 105 -47t10 -127q-19 -78 -72 -125t-127 -47q-75 0 -104.5 47t-10.5 125zM596 152q19 79 71.5 126.5t127.5 47.5t104 -47t8 -127q-19 -78 -71.5 -125t-126.5 -47q-75 0 -104.5 47t-8.5 125zM1174 152q19 79 71 126.5t127 47.5 t104.5 -47t8.5 -127q-19 -78 -71.5 -125t-127.5 -47t-104 47t-8 125z" />
<glyph unicode="&#x202f;" horiz-adv-x="462" />
<glyph unicode="&#x2039;" horiz-adv-x="808" d="M98 522l537 430l117 -159l-226 -183l-135 -88v-4q6 -4 29 -25t43 -40l20 -19l133 -182l-194 -160z" />
<glyph unicode="&#x203a;" horiz-adv-x="808" d="M31 252l225 182q117 76 135 86l-43 41l-72 82l-110 150l194 159l324 -430l-537 -430z" />
<glyph unicode="&#x205f;" horiz-adv-x="578" />
<glyph unicode="&#x20ac;" horiz-adv-x="1511" d="M74 543l49 202h147l-8 23q3 22 10 51q3 14 10.5 38t10.5 34l20 22h-149l51 203h178l-4 23q124 252 321 396t435 144q341 0 452 -260l-206 -172q-30 101 -105.5 155t-195.5 54q-136 0 -255 -86t-202 -231l-25 -23h572l-50 -203h-610l8 -22q-9 -25 -20 -72q-2 -8 -6 -25.5 t-6 -25.5l-19 -23h610l-49 -202h-575l12 -23q8 -147 83.5 -232t219.5 -85q233 0 406 207l121 -168q-241 -262 -582 -262q-245 0 -371.5 144t-120.5 396l15 23h-172z" />
<glyph unicode="&#x2122;" horiz-adv-x="1732" d="M301 1548l27 109h704l-26 -109h-295l-176 -721h-117l174 711l6 10h-297zM909 827l205 830h105v-6l141 -539l12 -76l21 27l63 88l381 506h102l-204 -830h-117l139 559l-16 -20l-82 -115l-334 -434h-14l-133 490l-15 79v-2l-137 -557h-117z" />
<glyph unicode="&#x25fc;" horiz-adv-x="1290" d="M0 0v1290h1290v-1290h-1290z" />
<glyph unicode="&#xfb01;" horiz-adv-x="1476" d="M-428 -397l57 227q94 -51 187 -51q105 0 166 54t90 173l260 1053l18 24h-164l52 207h163l-6 25q0 12 4 16q50 190 187.5 295t339.5 105q108 0 186 -33l-51 -213q-82 35 -170 35q-104 0 -169 -53.5t-89 -151.5l-19 -25h856v-2l-63 -252l-256 -1036h-238l269 1083h-619 l6 -24l-262 -1059q-56 -213 -190 -326.5t-332 -113.5q-110 0 -213 43zM1282 1581q18 67 66 109.5t114 42.5q65 0 92.5 -42.5t12.5 -109.5q-18 -66 -67 -108.5t-114 -42.5t-92 42t-12 109z" />
<glyph unicode="&#xfb02;" horiz-adv-x="1466" d="M-428 -397l57 227q94 -51 187 -51q105 0 166 54t90 173l260 1053l18 24h-164l52 207h163l-6 25q0 12 4 16q45 176 186 281.5t343 105.5l639 2l-426 -1720h-236l371 1507l-387 2q-50 0 -99 -16t-95 -59.5t-62 -108.5l-2 -12l-17 -23h398l-51 -207h-398l6 -24l-262 -1059 q-56 -213 -190 -326.5t-332 -113.5q-110 0 -213 43z" />
</font>
</defs>
</svg>
