<?xml version="1.0" standalone="no"?>
<!DOCTYPE svg PUBLIC "-//W3C//DTD SVG 1.1//EN" "http://www.w3.org/Graphics/SVG/1.1/DTD/svg11.dtd" >
<svg xmlns="http://www.w3.org/2000/svg">
<metadata></metadata>
<defs>
<font id="sinkin_sans900_x_black_italic" horiz-adv-x="1681" >
<font-face units-per-em="2048" ascent="1659" descent="-389" />
<missing-glyph horiz-adv-x="628" />
<glyph horiz-adv-x="2048" />
<glyph horiz-adv-x="2048" />
<glyph horiz-adv-x="682" />
<glyph unicode="&#x9;" horiz-adv-x="2027" />
<glyph unicode="&#xa;" horiz-adv-x="2027" />
<glyph unicode="&#xd;" horiz-adv-x="2027" />
<glyph horiz-adv-x="2027" />
<glyph horiz-adv-x="2027" />
<glyph horiz-adv-x="2027" />
<glyph horiz-adv-x="2027" />
<glyph horiz-adv-x="2027" />
<glyph horiz-adv-x="2027" />
<glyph horiz-adv-x="2027" />
<glyph unicode=" "  horiz-adv-x="628" />
<glyph unicode="&#x09;" horiz-adv-x="628" />
<glyph unicode="&#xa0;" horiz-adv-x="628" />
<glyph unicode="!" horiz-adv-x="788" d="M76 201q25 104 100.5 167.5t183.5 63.5q107 0 151 -64t17 -167q-25 -103 -101 -167.5t-181 -64.5q-108 0 -151.5 64t-18.5 168zM199 510l211 1149h503l-358 -1149h-356z" />
<glyph unicode="&#x22;" horiz-adv-x="1097" d="M279 1047l114 673h381l-217 -673h-278zM774 1047l115 673h379l-217 -673h-277z" />
<glyph unicode="#" horiz-adv-x="1724" d="M-10 0l174 332l45 43l-199 -2l88 352h291v41l70 129l43 39h-197l88 350l293 2l-2 41l176 332h391l-176 -332l-41 -43l260 2l2 45l174 328h390l-177 -332l-38 -41l192 -2l-86 -350h-291l-4 -41l-67 -129l-39 -39h194l-88 -352l-289 2l-4 -41l-174 -334h-389l174 334l43 41 h-258l-4 -41l-174 -334h-391zM707 705h311v40l90 170l41 41h-313l-2 -41l-89 -170z" />
<glyph unicode="$" horiz-adv-x="1728" d="M33 256l356 289q89 -144 248 -193l-8 47l43 174l30 35q-47 13 -84.5 25t-79.5 28.5t-74 33t-64.5 38t-55 45.5t-40.5 54.5t-26 64t-7 75t12 87.5q44 175 217.5 303.5t425.5 161.5l-11 41l39 153h410l-39 -157l-33 -45q296 -45 437 -267l-363 -291q-54 108 -180 154 l16 -51l-26 -105l-33 -32q26 -9 28 -9q228 -57 327 -177.5t58 -291.5q-44 -174 -219.5 -308.5t-427.5 -168.5l13 -41l-37 -153h-410l37 155l35 39q-151 22 -274.5 90.5t-239.5 196.5zM733 1079q-6 -22 13 -36.5t55 -22.5l-8 41l8 39l33 43q-89 -9 -101 -64zM1001 342 q94 29 109 78q6 26 -9 44.5t-57 43.5v-47l-18 -74z" />
<glyph unicode="%" horiz-adv-x="2215" d="M195.5 1055q0.5 69 19.5 145q23 95 71 179.5t116.5 153t164 108.5t203.5 40q88 0 154 -26.5t105.5 -72t59 -107t18.5 -131t-20 -144.5q-23 -96 -70 -179.5t-114.5 -150t-162.5 -105t-205 -38.5q-88 0 -155 25.5t-106.5 69t-59 104t-19 129.5zM489 -20l1029 1699h335 l-1028 -1699h-336zM531.5 1109q-0.5 -37 10 -55.5t26 -26t38.5 -7.5q51 0 87.5 37.5t62.5 142.5q14 56 16 94t-8.5 57.5t-26 27t-39.5 7.5q-51 0 -88.5 -39t-64.5 -147q-13 -54 -13.5 -91zM1233.5 308q0.5 69 19.5 145q23 94 71 179t117 153.5t164 108.5t203 40 q88 0 154.5 -26.5t105.5 -71.5t58.5 -106.5t19 -131t-19.5 -145.5q-23 -96 -70 -179.5t-115 -150t-163 -105t-205 -38.5q-88 0 -154.5 25.5t-106 69t-59.5 104t-19.5 129.5zM1569.5 362q-0.5 -37 10.5 -55.5t26.5 -25.5t38.5 -7q51 0 87 37t62 142q14 56 16 94t-8 57.5 t-25.5 27t-39.5 7.5q-51 0 -89 -39t-65 -147q-13 -54 -13.5 -91z" />
<glyph unicode="&#x26;" horiz-adv-x="1839" d="M81.5 292q-20.5 81 6.5 185q63 263 473 465l-37 19q-39 66 -49 127t8 137q31 125 126 229t226 162.5t267 58.5q102 0 188 -34t140 -94t76 -142.5t-3 -179.5q-34 -140 -133 -236.5t-252 -169.5l35 -24l92 -131l12 -46l19 78h405l-22 -90q-51 -207 -186 -315l36 -17 l189 -276h-512l-35 49l10 41q-92 -50 -220.5 -81.5t-256.5 -31.5q-112 0 -211 19t-182 58t-136 99t-73.5 141zM520 477q-6 -24 2 -45t33.5 -41.5t82 -32.5t138.5 -12q98 0 180 19l-41 22l-163 246l10 41q-32 -14 -55 -29l-48 -24q-18 -9 -51 -31q-73 -50 -88 -113z M891.5 1204.5q0.5 -4.5 2 -10.5t2.5 -9.5t4 -10.5t4 -9.5t5.5 -9.5t5.5 -9t5.5 -9.5t5.5 -8.5l-11 -41q162 69 177 138q8 31 -13 53t-65 22t-78.5 -22.5t-42.5 -52.5q-1 -5 -1.5 -10.5t0 -10z" />
<glyph unicode="'" horiz-adv-x="602" d="M279 1047l114 673h381l-217 -673h-278z" />
<glyph unicode="(" horiz-adv-x="835" d="M58.5 181q-9.5 271 62.5 552q70 288 215 560.5t383 564.5h409q-227 -303 -359.5 -566t-199.5 -534q-48 -193 -65.5 -371.5t-1 -377t72.5 -400.5h-411q-96 301 -105.5 572z" />
<glyph unicode=")" horiz-adv-x="835" d="M-219 -391q231 297 366.5 575.5t208.5 573.5q68 259 65 528t-83 572h412q93 -291 103.5 -564t-60.5 -561q-72 -289 -213.5 -556.5t-386.5 -567.5h-412z" />
<glyph unicode="*" horiz-adv-x="1222" d="M283 1028l2 250l245 41l-161 133l213 201l139 -154l45 232h262l-70 -234l213 156l115 -201l-227 -135l225 -39l-119 -250l-213 64l64 -203l-264 -111l-37 213l-146 -215l-209 111l166 205z" />
<glyph unicode="+" horiz-adv-x="1521" d="M199 641l92 377h403l-2 26l101 412h370l-100 -412l-16 -26h403l-94 -377h-402l2 -27l-100 -409h-373l103 409l16 27h-403z" />
<glyph unicode="," horiz-adv-x="694" d="M-96 -305l170 244l71 43q-83 13 -109 79.5t-3 151.5q26 103 98 168t174 65q104 0 144 -65.5t14 -167.5q-17 -71 -70 -147l-319 -457z" />
<glyph unicode="-" horiz-adv-x="921" d="M43 500l92 372h801l-92 -372h-801z" />
<glyph unicode="." horiz-adv-x="694" d="M33 213q26 103 98 168t174 65q104 0 144 -65.5t14 -167.5q-26 -103 -99 -169.5t-174 -66.5q-104 0 -143.5 66t-13.5 170z" />
<glyph unicode="/" horiz-adv-x="745" d="M-309 -102l1081 1863h408l-1080 -1863h-409z" />
<glyph unicode="0" horiz-adv-x="1785" d="M136 552q1 126 36 269q35 142 98 269.5t154 235t202 186.5t249.5 123t289.5 44q153 0 270.5 -44t190 -122.5t109.5 -186t36 -235t-36 -270.5q-44 -180 -130 -331.5t-209 -266t-290.5 -179t-360.5 -64.5q-154 0 -271.5 42t-190.5 117.5t-110.5 181t-36.5 231.5zM621 821 q-110 -448 221 -448q167 0 277.5 109t168.5 339q58 227 5 346t-224 119q-163 0 -277 -117.5t-171 -347.5z" />
<glyph unicode="1" horiz-adv-x="1085" d="M193 1190l600 469h358l-410 -1659h-448l239 965l46 118h-5l-84 -96l-90 -74z" />
<glyph unicode="2" horiz-adv-x="1636" d="M-25 0q48 201 93 377q107 434 641 584l237 67q158 44 214.5 76.5t64.5 71.5q11 43 -35 77.5t-154 34.5q-125 0 -260.5 -59t-251.5 -166l-219 297q182 157 386.5 238t416.5 81q112 0 205.5 -19t159.5 -53t114.5 -81t70.5 -103.5t28 -120.5t-13 -131q-45 -186 -201 -310.5 t-434 -203.5l-280 -77q-206 -60 -226 -150l-45 -41h992l-97 -389h-1407z" />
<glyph unicode="3" horiz-adv-x="1708" d="M41 291l356 284q126 -204 418 -204q118 0 209.5 45t108.5 110q15 64 -38 105t-192 41l-321 8l90 362q258 7 311 9q97 4 158 22t84 40.5t32 55.5q12 51 -40 86t-175 35q-262 0 -497 -188l-219 297q198 146 387.5 213t423.5 67q118 0 214 -16.5t164 -46.5t117 -73 t71.5 -95.5t28 -113.5t-13.5 -128q-25 -100 -100.5 -187t-187.5 -142l-3 -5q100 -45 142 -139t12 -221q-21 -83 -68 -160t-123 -145t-173 -118.5t-225.5 -79.5t-272.5 -29q-166 0 -284 31t-210 97.5t-184 182.5z" />
<glyph unicode="4" horiz-adv-x="1716" d="M23 334l69 289l1254 1036h344l-222 -891l-28 -43h231l-96 -391l-232 2l11 -41l-74 -295h-449l72 293l33 41h-913zM752 725h278l-10 41l65 260h-4l-65 -84l-180 -162l-84 -51v-4z" />
<glyph unicode="5" horiz-adv-x="1683" d="M29 242l370 299q58 -79 153 -125.5t206 -46.5q156 0 246.5 61.5t113.5 149.5q5 29 3.5 58.5t-19.5 57t-46.5 49.5t-77 35t-110.5 13q-126 0 -225.5 -33.5t-220.5 -118.5l-205 274l287 744h1202l-96 -389h-846l18 -37l-24 -66l-45 -43l2 -2q54 24 140 42t153 18 q353 0 494 -156.5t73 -431.5q-32 -131 -104.5 -242t-181 -195.5t-261 -132t-332.5 -47.5q-234 0 -390.5 65.5t-276.5 199.5z" />
<glyph unicode="6" horiz-adv-x="1765" d="M139.5 595q3.5 109 32.5 228q47 191 153 352.5t247 271t310.5 171t344.5 61.5q199 0 333 -48t230 -148l-360 -289q-69 58 -134 79t-168 21q-119 0 -220.5 -49t-168.5 -139l2 -2q68 30 164 51t166 21q118 0 216.5 -21.5t168.5 -60.5t120.5 -93.5t73 -121t26 -143 t-20.5 -158.5q-25 -94 -76.5 -180.5t-132 -163.5t-182 -134t-233.5 -90t-279 -33q-125 0 -227.5 29.5t-175 84t-121.5 131t-70.5 170.5t-18 203zM592.5 532q2.5 -23 9.5 -46t27 -44t47 -37.5t70.5 -26t97.5 -9.5q76 0 142.5 21t110 54t71.5 68.5t38 69.5q4 25 4 53.5 t-17 56.5t-43 50.5t-75 36.5t-114 14q-76 0 -143 -22t-111 -56t-72 -70t-37 -70q-8 -20 -5.5 -43z" />
<glyph unicode="7" horiz-adv-x="1593" d="M231 1268l97 391h1472l-74 -297l-606 -539q-92 -80 -162 -199t-104 -262l-90 -362h-449l93 373q57 229 144 374t267 308l117 106l135 103l2 4h-842z" />
<glyph unicode="8" horiz-adv-x="1779" d="M98 518q29 120 119.5 218t218.5 149v4q-75 45 -107.5 123.5t-9.5 171.5q53 216 275.5 355.5t564.5 139.5q115 0 212 -17.5t168 -49t123 -76.5t78 -100t33 -118.5t-12 -133.5q-23 -91 -95 -169.5t-169 -123.5l-2 -4q99 -52 145 -148.5t15 -220.5q-26 -107 -103.5 -203.5 t-193.5 -171.5t-276 -119t-339 -44q-180 0 -318 44t-216.5 119t-107.5 171.5t-3 203.5zM553 503q4 -17 10.5 -35t28 -36t51 -32t80.5 -22.5t115 -8.5q94 0 168 19t113.5 47t59.5 52.5t25 44.5q6 12 1.5 29t-11.5 35t-29.5 35.5t-52.5 31.5t-80.5 22.5t-113.5 8.5 q-77 0 -140 -12t-101.5 -30t-66 -41t-39.5 -42t-16 -37q-6 -12 -2 -29zM770 1141.5q2 -12.5 15 -30.5t36.5 -33t71 -25.5t111.5 -10.5q65 0 118.5 10.5t84.5 25t53 32.5t30.5 31t9.5 22q2 7 3 15.5t-2 21.5t-10.5 24.5t-24.5 24t-42 21.5t-65.5 14.5t-91.5 5.5 q-71 0 -126.5 -11t-85.5 -25.5t-50 -34.5t-26 -32t-9 -24q-2 -9 0 -21.5z" />
<glyph unicode="9" horiz-adv-x="1765" d="M102 174l359 289q70 -59 134 -81t165 -22q119 0 222.5 52t168.5 139l-2 2q-68 -30 -164 -51t-166 -21q-117 0 -215 21.5t-168 60.5t-120.5 94t-73 121.5t-26.5 142.5t20 158q31 118 106 224t186.5 191t270 135t340.5 50q125 0 227.5 -29.5t175 -83.5t121.5 -130.5 t70 -170t17.5 -202t-32.5 -227.5q-47 -192 -152.5 -354t-246 -272t-310 -171.5t-345.5 -61.5q-199 0 -333.5 48.5t-228.5 148.5zM680.5 1031q2.5 -24 8.5 -47.5t26 -45t47 -38t70.5 -26.5t97.5 -10q77 0 144 21.5t110.5 55.5t71 70t36.5 70q8 20 5.5 43.5t-9 46.5 t-26.5 44.5t-47 38t-70 26.5t-96 10q-76 0 -143 -21t-111 -54.5t-72 -69.5t-37 -70q-8 -20 -5.5 -44z" />
<glyph unicode=":" horiz-adv-x="714" d="M49 203q26 102 99.5 167.5t175.5 65.5t142.5 -65.5t14.5 -167.5q-26 -104 -99 -170t-175 -66t-143 66t-15 170zM260 1059q26 102 99.5 167.5t175.5 65.5t142.5 -65.5t14.5 -167.5q-26 -104 -99 -170t-175 -66t-142 66t-16 170z" />
<glyph unicode=";" horiz-adv-x="714" d="M-76 -307l170 244l72 43q-83 13 -109.5 79t-5.5 152q26 102 99.5 167.5t175.5 65.5t142.5 -65.5t14.5 -167.5q-19 -78 -71 -148l-318 -456zM260 1059q26 102 99.5 167.5t175.5 65.5t142.5 -65.5t14.5 -167.5q-26 -104 -99 -170t-175 -66t-142 66t-16 170z" />
<glyph unicode="&#x3c;" horiz-adv-x="1247" d="M172 817l862 739l205 -274l-428 -369l-127 -86l86 -84l250 -348l-336 -272z" />
<glyph unicode="=" horiz-adv-x="1521" d="M133 379l94 379h1157l-92 -379h-1159zM262 901l94 379h1157l-92 -379h-1159z" />
<glyph unicode="&#x3e;" horiz-adv-x="1247" d="M137 395l424 348l127 84l-86 86l-244 369l338 274l500 -739l-856 -694z" />
<glyph unicode="?" horiz-adv-x="1546" d="M315 1403q191 148 366.5 212t379.5 64q62 0 122 -7.5t121 -24t111 -42t92 -62.5t65.5 -85.5t31 -109.5t-12.5 -136q-14 -55 -38.5 -102.5t-51.5 -83.5t-69.5 -70t-77.5 -56.5t-90.5 -48.5t-93.5 -41.5t-101 -39.5q-93 -35 -133.5 -74t-61.5 -121l-16 -65h-426l23 92 q25 100 68 179t98.5 132.5t109.5 87.5t119 62q41 18 110.5 42.5t90.5 33.5q76 35 88 75q8 39 -29.5 61.5t-124.5 22.5q-231 0 -448 -192zM344 201q25 104 100.5 167.5t182.5 63.5q108 0 151.5 -63.5t18.5 -167.5t-101.5 -168t-183.5 -64t-151 64t-17 168z" />
<glyph unicode="@" horiz-adv-x="2041" d="M182 553.5q-8 141.5 29 304.5q45 181 160.5 347t268 284.5t335.5 189t360 70.5q136 0 255 -42t205 -117.5t142 -181t66.5 -231.5t-21.5 -270q-25 -102 -84 -206t-141.5 -193.5t-195 -146t-230.5 -56.5q-70 0 -122 30.5t-79 84.5q-78 -59 -167.5 -90t-171.5 -31 q-77 0 -135.5 25t-92.5 67.5t-51 99t-15.5 119t17.5 127.5q26 106 90 210t150 187.5t196.5 135t220.5 51.5q60 0 109 -21t72 -53h4l28 51h287l-260 -546q-42 -92 -51 -136q-9 -35 6 -56t55 -21q60 0 114 32.5t93 86.5t67 116.5t44 130.5q41 166 -5 310t-165.5 229.5 t-284.5 85.5q-134 0 -271 -55t-249 -146.5t-196.5 -217t-118.5 -261.5q-47 -192 0 -352.5t178.5 -254t320.5 -93.5q186 0 418 135l125 -160q-315 -197 -586 -197q-155 0 -286 45t-223 127t-149 197t-65 256.5zM834.5 648q16.5 -44 76.5 -44q87 0 160.5 84.5t99.5 196.5 q20 67 5 108t-72 41q-82 0 -161.5 -83t-102.5 -177q-22 -82 -5.5 -126z" />
<glyph unicode="A" horiz-adv-x="2109" d="M-111 0l1252 1659h366l430 -1659h-489l-88 342l35 41h-772l14 -41l-254 -342h-494zM915 735h365l-31 43l-47 187l-12 135h-4l-82 -135l-137 -187z" />
<glyph unicode="B" horiz-adv-x="1851" d="M41 0l410 1659h878q100 0 183.5 -18t143 -51t103.5 -79t64 -101q21 -56 25 -120q1 -12 0 -24q0 -52 -15 -107q-22 -87 -74 -162.5t-125 -126.5v-4q80 -46 112 -134q16 -45 16 -100q0 -52 -15 -112q-61 -246 -279 -383t-530 -137h-897zM545 391h491q70 0 119.5 11.5 t77 32.5t41 43t20.5 52q10 27 5.5 53t-20.5 46t-60.5 32.5t-114.5 12.5h-490l31 -41l-49 -201zM702 1026h451q191 0 223 123q5 15 5 29q0 6 -1 14q-4 22 -17 38.5t-51.5 27t-99.5 10.5h-450l29 -41l-39 -160z" />
<glyph unicode="C" horiz-adv-x="1839" d="M141 586q0 111 31 235q46 186 147 342.5t245.5 271t337 178.5t411.5 64q237 0 394 -74.5t265 -236.5l-373 -301q-101 219 -368 219q-242 0 -396.5 -125.5t-207.5 -337.5q-19 -76 -19 -140q0 -113 58 -189q91 -120 338 -121q268 0 485 211l217 -291q-372 -314 -811 -314 q-149 0 -271.5 28t-212 80.5t-150.5 127.5t-90.5 168.5t-29.5 204.5z" />
<glyph unicode="D" horiz-adv-x="1925" d="M41 0l410 1659h747q156 0 277.5 -27t200 -72.5t131 -112t76.5 -137.5q25 -70 29 -156q1 -27 1 -55q-1 -56 -7 -108q-10 -77 -30.5 -162t-48.5 -162t-74.5 -162.5t-104.5 -156.5t-142.5 -137t-184.5 -111.5t-234 -72.5t-288 -27h-758zM545 391h329q113 0 198 21t141 55.5 t97.5 93t65 119.5t45.5 149q22 86 28 147q2 19 2 38q0 42 -9 82q-13 58 -53 93.5t-116.5 57t-191.5 21.5h-319l29 -41l-195 -795z" />
<glyph unicode="E" horiz-adv-x="1785" d="M41 0l410 1659h1462l-98 -391h-1053l29 -41l-39 -160l-52 -41h959l-98 -393h-957l31 -41l-39 -160l-51 -41h1054l-96 -391h-1462z" />
<glyph unicode="F" horiz-adv-x="1665" d="M41 0l410 1659h1421l-96 -391h-1014l29 -41l-48 -195l-51 -43h912l-99 -391h-909l31 -41l-138 -557h-448z" />
<glyph unicode="G" horiz-adv-x="2050" d="M170 815q48 193 152.5 352.5t251.5 273t339.5 176t409.5 62.5q219 0 385.5 -70.5t253.5 -191.5l-371 -299q-113 170 -364 170q-485 0 -602 -473q-21 -86 -21 -155q0 -109 52 -178q87 -111 333 -111q162 0 279.5 62t169.5 161l47 41h-565l96 391h962l-254 -1028h-387 l31 119h-4q-69 -53 -208.5 -95t-264.5 -42q-287 0 -472 103t-248 291q-32 96 -32 207q0 109 31 234z" />
<glyph unicode="H" horiz-adv-x="1968" d="M41 0l410 1659h448l-147 -592l-52 -41h791l-31 41l146 592h448l-409 -1659h-449l145 592l52 41h-789l31 -41l-146 -592h-448z" />
<glyph unicode="I" horiz-adv-x="833" d="M51 0l410 1659h446l-407 -1659h-449z" />
<glyph unicode="J" horiz-adv-x="1499" d="M-74 276l361 291q46 -94 116.5 -144.5t159.5 -51.5q51 0 98.5 12.5t94 40t82 80t53.5 125.5l256 1030h446l-252 -1022q-35 -141 -100.5 -254t-149 -187.5t-187.5 -123.5t-211.5 -70.5t-225.5 -21.5q-188 0 -318 72t-223 224z" />
<glyph unicode="K" horiz-adv-x="1978" d="M41 0l410 1659h448l-410 -1659h-448zM717 836l913 821h592l-950 -821l565 -836h-598z" />
<glyph unicode="L" horiz-adv-x="1579" d="M41 0l410 1659h448l-303 -1227l-51 -41h958l-96 -391h-1366z" />
<glyph unicode="M" horiz-adv-x="2232" d="M39 -4l412 1663h366l289 -811l31 -178h4l112 178l695 811h368l-409 -1663h-449l197 797h-4l-113 -164l-567 -652h-4l-248 652l-31 166h-4l-197 -799h-448z" />
<glyph unicode="N" horiz-adv-x="1968" d="M41 0l410 1659h364l463 -737l92 -205h4l232 942h448l-409 -1659h-367l-455 737l-94 217h-4l-236 -954h-448z" />
<glyph unicode="O" horiz-adv-x="2017" d="M141 545v21q0 119 31 255q46 184 143 340t236 271.5t326.5 181t402.5 65.5q145 0 264 -29.5t203.5 -84t142.5 -131.5q58 -78 84 -174q25 -89 24 -190v-16q-2 -110 -32 -233q-45 -185 -143 -339.5t-238 -266t-326 -173.5t-399 -62q-172 0 -307 40t-222 114t-137 178.5 t-53 232.5zM627 821q-21 -86 -21 -156q0 -105 46 -175q78 -118 306 -117q443 0 555 448q23 84 23 156q0 17 -2 33q-6 86 -42 147t-114 95t-194 34q-225 0 -363.5 -122.5t-193.5 -342.5z" />
<glyph unicode="P" horiz-adv-x="1820" d="M41 0l410 1659h876q313 0 454 -153q98 -106 98 -260q0 -68 -19 -144q-60 -244 -278.5 -400.5t-530.5 -156.5h-467l28 -41l-123 -504h-448zM680 938h467q120 0 179.5 43.5t78.5 120.5q7 28 7 52q0 44 -24 72q-38 42 -157 42h-469l29 -41l-60 -248z" />
<glyph unicode="Q" horiz-adv-x="2017" d="M139 536v21q0 119 31 256q46 186 143 343t236.5 274t327.5 183t403 66q145 0 264 -30t203.5 -85t142 -133t84.5 -174q24 -89 24 -192v-16q-2 -112 -32 -236q-42 -162 -124.5 -307t-199.5 -246l158 -209l-340 -278l-198 266q-185 -66 -402 -66q-172 0 -307.5 40 t-222.5 113.5t-137.5 177.5t-53.5 232zM605 628q8 -82 46.5 -141t117.5 -90.5t194 -31.5h59l-107 139l345 272l157 -215l13 47q53 94 81 205q22 90 22 164q0 106 -45 181q-78 126 -304 126q-227 0 -365.5 -124t-193.5 -347q-22 -79 -22 -147q0 -19 2 -38z" />
<glyph unicode="R" horiz-adv-x="1931" d="M41 0l410 1659h847q326 -1 470 -135q100 -94 100 -242q0 -64 -19 -139q-30 -123 -134 -233.5t-238 -166.5v-4q89 -41 125 -155l176 -584h-502l-133 440q-23 78 -82 113t-187 35h-280l29 -41l-134 -547h-448zM682 950h418q134 0 200.5 41.5t85.5 116.5q6 22 6 42 q0 44 -30 74q-44 44 -162 44h-438l29 -41l-58 -236z" />
<glyph unicode="S" horiz-adv-x="1812" d="M29 281l379 307q82 -101 221.5 -159t281.5 -58q294 0 324 114q0 9 1.5 19.5t-9.5 24t-29 27.5t-58 29.5t-96 28.5q-17 4 -143 36t-143 36q-49 13 -89.5 25.5t-86.5 29.5t-82.5 35t-73 42t-63 50.5t-47.5 59.5t-31 70t-10 82.5t12 95.5q55 222 297.5 362.5t593.5 140.5 q464 0 708 -295l-377 -303q-68 96 -187.5 153.5t-254.5 57.5q-150 0 -232 -31t-92 -73q-5 -23 13 -39.5t77 -37t181 -52.5q120 -36 248 -64q248 -61 360 -195q80 -96 80 -215q0 -47 -12 -98q-27 -105 -99 -196t-184.5 -161t-274 -110t-352.5 -40q-492 0 -751 301z" />
<glyph unicode="T" horiz-adv-x="1665" d="M211 1268l96 391h1585l-98 -391h-590l13 -41l-304 -1227h-446l303 1227l33 41h-592z" />
<glyph unicode="U" horiz-adv-x="1992" d="M219 768l221 891h449l-221 -889q-24 -96 -24 -168q0 -86 34 -137q62 -94 268 -94q204 0 313.5 95t161.5 304l219 889h449l-221 -891q-92 -377 -350.5 -582.5t-667.5 -205.5t-566 204q-99 129 -99 328q0 116 34 256z" />
<glyph unicode="V" horiz-adv-x="2015" d="M297 1659h498l196 -920l10 -184h5l102 184l651 920h494l-1202 -1659h-371z" />
<glyph unicode="W" horiz-adv-x="2447" d="M317 1659h474l32 -766l-10 -209h4l92 209l414 766h338l35 -766l-13 -209h5l92 209l415 766h469l-919 -1659h-445l-32 616l12 205h-4l-90 -205l-332 -616h-436z" />
<glyph unicode="X" horiz-adv-x="2029" d="M-102 0l899 829l-490 830h567l224 -381l53 -150h4l127 150l410 381h563l-895 -828l487 -831h-567l-221 389l-51 150h-4l-123 -150l-418 -389h-565z" />
<glyph unicode="Y" horiz-adv-x="2091" d="M297 1659h563l242 -463l53 -162h4l133 162l475 463h562l-1033 -983l-166 -676h-450l166 676z" />
<glyph unicode="Z" horiz-adv-x="1847" d="M-20 0l73 301l967 805l237 158l3 4h-947l97 391h1572l-73 -299l-971 -809l-225 -156l-2 -4h968l-96 -391h-1603z" />
<glyph unicode="[" horiz-adv-x="768" d="M-117 -389l555 2247h606l-88 -361h-225l-377 -1524h226l-91 -362h-606z" />
<glyph unicode="\" horiz-adv-x="907" d="M231 1761h410l160 -1863h-408z" />
<glyph unicode="]" horiz-adv-x="770" d="M-197 -389l88 362h228l377 1524h-228l88 361h611l-555 -2247h-609z" />
<glyph unicode="^" horiz-adv-x="1732" d="M219 850l768 809h293l369 -809h-490l-110 278l-19 105h-4l-70 -105l-245 -278h-492z" />
<glyph unicode="_" horiz-adv-x="1394" d="M-268 -430l78 317h1435l-78 -317h-1435z" />
<glyph unicode="`" horiz-adv-x="1613" d="M721 1802l313 252l289 -477l-227 -182z" />
<glyph unicode="a" d="M109 641q75 310 282.5 489t538.5 179q81 0 171 -23t142 -61h4l17 65h442l-320 -1290h-442l19 72h-5q-75 -40 -176.5 -66t-181.5 -26q-134 0 -234.5 31.5t-162.5 88.5q-61 58 -93 140q-31 81 -32 179q0 101 31 222zM549 641q-15 -63 -16 -112q0 -66 29 -106 q49 -69 202 -69q151 0 235.5 70t120.5 217q16 66 16 116q0 67 -28 107q-48 70 -201 70q-151 0 -236 -71.5t-122 -221.5z" />
<glyph unicode="b" d="M10 0l424 1720h443l-123 -495h4q71 38 172.5 61t183.5 23q135 0 236 -31.5t164 -89.5q62 -56 92 -140q30 -82 30 -182q0 -102 -30 -225q-37 -149 -106 -268.5t-169.5 -208t-239.5 -136.5t-305 -48q-79 0 -167.5 26t-145.5 66h-4l-16 -72h-443zM594 641q-15 -62 -15 -111 q1 -66 29 -106q50 -70 201 -70q153 0 236 69t120 218q15 63 15 112q0 67 -29 109q-50 72 -201 72t-235 -70.5t-121 -222.5z" />
<glyph unicode="c" horiz-adv-x="1439" d="M83 461.5q0 83.5 23 175.5q35 140 115.5 262t195.5 214t270 145t327 53q169 0 293 -60t198 -170l-325 -264q-69 123 -258 123q-143 0 -241.5 -83t-131.5 -220q-13 -53 -13 -97q0 -68 32 -114q53 -76 204 -76q89 0 165.5 31.5t158.5 101.5l202 -274q-134 -109 -295 -169 t-323 -60q-121 0 -219.5 23.5t-168 66t-117.5 102t-70 133t-22 157z" />
<glyph unicode="d" d="M109 641q75 310 282.5 489t538.5 179q81 0 171 -23t142 -61h4l123 495h442l-426 -1722h-442l19 74h-5q-75 -40 -176.5 -66t-181.5 -26q-134 0 -234.5 31.5t-162.5 88.5q-61 58 -93 140q-31 81 -32 179q0 101 31 222zM549 641q-15 -63 -16 -112q0 -66 29 -106 q49 -69 202 -69q151 0 235.5 70t120.5 217q16 66 16 116q0 67 -28 107q-48 70 -201 70q-151 0 -236 -71.5t-122 -221.5z" />
<glyph unicode="e" horiz-adv-x="1644" d="M84 461v21q0 75 22 155q35 144 116 267t196.5 213.5t268 142t323.5 51.5q118 0 214.5 -24t165 -68t114.5 -105q47 -60 68 -136q21 -74 21 -158q0 -87 -24 -183q-16 -64 -47 -133h-998l33 -41q20 -64 83.5 -99.5t160.5 -35.5q100 0 171.5 22.5t149.5 75.5l191 -256 q-139 -99 -283.5 -144.5t-324.5 -45.5q-123 0 -224.5 23t-173 65.5t-123 102.5t-74 133t-26.5 157zM602 815h572l-37 39q-14 53 -71.5 86t-135.5 33q-82 0 -157 -29.5t-120 -89.5z" />
<glyph unicode="f" horiz-adv-x="1093" d="M-391 -381l82 332q108 -64 258 -64q64 0 102 32t55 101l224 902l32 41h-217l82 327l215 -2l-12 41q101 410 635 410q166 0 272 -41l-80 -322q-70 37 -196 37q-167 0 -187 -84l-36 -39h399l-82 -327l-397 -2l14 -39l-223 -902q-60 -243 -216 -351.5t-442 -108.5 q-170 0 -282 59z" />
<glyph unicode="g" d="M-55 -252l327 270q70 -51 157 -73.5t212 -22.5q133 0 221 54t109 137l4 20h-4q-63 -31 -148.5 -51.5t-163.5 -20.5q-344 0 -479 165q-86 105 -86 267q0 91 27 199q33 132 105 244t177.5 196t251 131.5t314.5 47.5q81 0 164 -23.5t112 -54.5h4l15 59h442l-281 -1136 q-71 -284 -292.5 -440t-561.5 -156q-373 0 -626 188zM559 684q-11 -43 -11 -80q0 -66 36 -110q54 -68 198 -68q153 0 235 67t113 191q11 45 11 83q0 171 -234 171q-285 0 -348 -254z" />
<glyph unicode="h" horiz-adv-x="1671" d="M10 0l424 1720h443l-123 -495h4q177 86 356 86q293 1 410 -143q76 -94 77 -232q0 -73 -22 -158l-193 -778h-442l180 731q10 39 13.5 66t-3 54t-27 43t-60.5 26t-101 10q-126 0 -208 -53t-105 -148l-180 -729h-443z" />
<glyph unicode="i" horiz-adv-x="747" d="M10 0l320 1290h440l-317 -1290h-443zM389 1565q23 98 104 163.5t181 65.5q102 0 150 -66q32 -44 32 -102q0 -29 -8 -61q-25 -97 -106 -162.5t-181 -65.5q-101 -1 -149 65q-32 43 -32 100q0 30 9 63z" />
<glyph unicode="j" horiz-adv-x="745" d="M-367 -410l86 353q75 -37 166 -37q47 0 80 24.5t43 69.5l318 1290h442l-317 -1290q-53 -216 -201 -331t-383 -115q-52 0 -122 10.5t-112 25.5zM385 1565q25 97 106 163t181 66q101 0 150 -66q32 -43 32 -102q0 -29 -8 -61q-25 -98 -106.5 -165t-180.5 -67q-101 0 -149 67 q-33 45 -33 104q0 29 8 61z" />
<glyph unicode="k" horiz-adv-x="1785" d="M10 0l424 1720h443l-424 -1720h-443zM635 659l737 629h555l-749 -626v-5l464 -657h-573z" />
<glyph unicode="l" horiz-adv-x="745" d="M10 0l424 1720h443l-424 -1720h-443z" />
<glyph unicode="m" horiz-adv-x="2232" d="M10 0l320 1294h442l-18 -80h4q60 39 149.5 68t159.5 29q183 0 260 -140h4q78 60 200 100t226 40q269 -1 358 -135q49 -74 49 -197q0 -100 -32 -231l-184 -748h-445l185 748q17 72 17 114q-1 26 -7 40q-18 38 -96 38q-80 0 -137 -49t-79 -135l-184 -756h-446l184 748 q18 75 18 117q0 23 -6 37q-16 38 -98 38q-73 0 -133.5 -50.5t-81.5 -135.5l-186 -754h-443z" />
<glyph unicode="n" horiz-adv-x="1671" d="M10 0l320 1294h442l-20 -82h4q183 97 389 97q116 0 204 -24t142 -69t84 -109q30 -63 30 -141q0 -80 -22 -175l-197 -791h-442l186 754q9 36 9 65q1 49 -25 77q-40 44 -166 44t-207.5 -51t-103.5 -141l-184 -748h-443z" />
<glyph unicode="o" horiz-adv-x="1644" d="M86 432v15q0 93 23 198q35 141 111.5 261.5t188 211t265 142t330.5 51.5q119 0 216 -23.5t166 -66t116.5 -102.5t69.5 -134.5t22 -160t-23 -179.5q-35 -140 -112 -260.5t-189.5 -211t-266 -142t-329.5 -51.5q-142 0 -253 33.5t-181 93.5t-111 142.5t-43 182.5zM549 645 q-14 -57 -14 -104q-1 -70 31 -118q52 -79 199.5 -79t238.5 79t126 222q14 57 14 104q0 70 -32 118q-52 79 -199 79q-148 0 -238.5 -78.5t-125.5 -222.5z" />
<glyph unicode="p" d="M-96 -432l424 1722h442l-18 -76h4q75 41 176.5 68t181.5 27q134 0 235 -31.5t163.5 -89t93.5 -140.5q32 -81 32 -180q0 -102 -30 -223q-37 -150 -106.5 -270.5t-170 -209.5t-239.5 -137t-306 -48q-83 0 -173 22.5t-142 60.5h-4l-121 -495h-442zM596 645q-16 -65 -16 -116 q0 -66 28 -106q48 -71 199 -71q152 0 237 71.5t121 221.5q16 64 16 114q0 65 -27 105q-49 70 -202 70t-236.5 -70t-119.5 -219z" />
<glyph unicode="q" d="M109 645q37 150 105.5 270t169.5 209t240 137t306 48q78 0 167 -27t144 -68h4l19 76h442l-426 -1722h-442l123 495h-5q-70 -38 -171.5 -60.5t-182.5 -22.5q-135 0 -236 31.5t-163.5 89t-93.5 139.5t-31 181q0 102 31 224zM551 645q-16 -64 -16 -114q0 -67 29 -107 q49 -72 200 -72q152 0 235 71t121 222q16 64 16 113q0 66 -28 106q-50 70 -201 70q-153 0 -236.5 -70t-119.5 -219z" />
<glyph unicode="r" horiz-adv-x="1077" d="M10 0l320 1290h440l-35 -141h4q136 158 389 158h97l-90 -363h-138q-167 0 -256.5 -69t-126.5 -220l-161 -655h-443z" />
<glyph unicode="s" horiz-adv-x="1507" d="M2 215l334 268q67 -81 165 -122.5t210 -41.5q98 0 152.5 17.5t62.5 46.5q5 22 -17.5 35.5t-95.5 30.5q-9 2 -104.5 27t-110.5 28q-34 9 -61.5 17t-61.5 19t-61 23t-56.5 27.5t-51.5 34t-43 39.5t-33.5 47t-20.5 55q-7 26 -7 56v8q1 35 11 73q46 185 243 295.5t478 110.5 q187 0 333 -55t236 -158l-319 -256q-54 60 -142 93.5t-190 33.5q-86 0 -137.5 -16.5t-57.5 -43.5q-4 -21 32.5 -36t135.5 -40l195 -47q80 -19 141 -42t110.5 -55.5t75 -73t35.5 -93.5q4 -19 4 -39q0 -37 -12 -78q-46 -187 -245 -306.5t-498 -119.5q-400 0 -629 238z" />
<glyph unicode="t" horiz-adv-x="1159" d="M145 961l82 327h183l-13 43l29 111l498 231l-84 -344l-33 -39l375 -2l-80 -327h-377l12 -41l-112 -463q-5 -21 -5 -38q0 -23 10 -41q16 -30 60 -30q49 0 89.5 19.5t88.5 62.5l181 -244q-251 -206 -517 -206q-221 0 -315 120q-58 74 -58 192q0 74 23 165l113 463l33 41 h-183z" />
<glyph unicode="u" horiz-adv-x="1654" d="M100 328q2 80 23 172l196 790h443l-187 -753q-9 -34 -9 -62q0 -125 182 -125q126 0 204.5 51t100.5 142l184 747h442l-319 -1294h-442l20 82h-4q-181 -96 -389 -96q-116 0 -202 24t-138 69q-51 45 -79 109q-26 60 -26 133v11z" />
<glyph unicode="v" horiz-adv-x="1634" d="M193 1290h489l104 -551l15 -209h4l119 209l381 551h489l-934 -1290h-373z" />
<glyph unicode="w" horiz-adv-x="2093" d="M201 1290h467l8 -510l-19 -235h5l96 235l284 510h361l31 -510l-17 -237h4l97 237l264 510h463l-744 -1290h-405l-31 494l16 219h-4l-92 -219l-274 -494h-406z" />
<glyph unicode="x" d="M-109 0l695 647l-373 643h555l115 -215l41 -155h4l116 155l226 215h549l-689 -643l377 -647h-555l-121 219l-40 158h-5l-116 -158l-228 -219h-551z" />
<glyph unicode="y" horiz-adv-x="1693" d="M-33 -383l94 383q145 -88 267 -88q58 0 105 24.5t89 92.5l-321 1261h485l133 -579l19 -224h4l129 224l391 579h483l-985 -1399q-231 -331 -567 -331q-193 0 -326 57z" />
<glyph unicode="z" horiz-adv-x="1527" d="M-41 0l70 281l651 520l186 110v4h-665l92 373h1300l-67 -272l-652 -512l-200 -127v-4h702l-92 -373h-1325z" />
<glyph unicode="{" horiz-adv-x="894" d="M84 -12l109 442q24 74 2 114.5t-109 53.5l68 272q90 14 129 48t57 102l113 463q86 348 372 383q20 3 112.5 4.5t174.5 1.5h82l-86 -350h-111q-34 0 -54.5 -1.5t-39 -3.5t-29.5 -9.5t-19.5 -14.5t-15 -24.5t-11 -32.5t-11.5 -45l-92 -367q-25 -103 -64.5 -169.5 t-117.5 -119.5q32 -28 48.5 -56.5t17.5 -67.5t-4.5 -72t-20.5 -95l-90 -364q-9 -34 -12.5 -51.5t-3 -35t6.5 -24t23 -12.5t39 -7t61 -1h113l-88 -350q-324 0 -367 6q-268 35 -182 383z" />
<glyph unicode="|" horiz-adv-x="870" d="M66 -102l460 1863h404l-461 -1863h-403z" />
<glyph unicode="}" horiz-adv-x="894" d="M-221 -401l86 350h112q39 0 61 1t42 7t29.5 12.5t19.5 24.5t15 34.5t14 51.5l90 364q30 121 63.5 180t120.5 111q-53 53 -60.5 124t19.5 165l90 367q6 27 9.5 40.5t5 30t0 23.5t-7.5 16t-14.5 11.5t-25 5.5t-35.5 3.5t-48 0.5h-111l86 350q326 0 367 -6q66 -8 110 -35.5 t64.5 -63.5t26.5 -86t1 -96.5t-18 -101.5l-115 -463q-18 -67 5 -101.5t106 -48.5l-68 -272q-92 -13 -130 -50t-58 -118l-111 -442q-86 -349 -370 -383q-20 -3 -112.5 -4.5t-175.5 -1.5h-83z" />
<glyph unicode="~" horiz-adv-x="1392" d="M74 629q83 138 211 209t278 71q45 0 93.5 -14t78 -29t70.5 -39q80 -47 90 -51q41 -20 74 -20q109 0 217 194l180 -243q-83 -137 -213 -209t-279 -72q-46 0 -93 14.5t-76.5 29.5t-69.5 40q-73 42 -90 49q-43 21 -74 21q-108 0 -217 -195z" />
<glyph horiz-adv-x="2027" />
<glyph unicode="&#xa1;" horiz-adv-x="788" d="M0 0l356 1149h359l-211 -1149h-504zM383 1458q27 103 103 167.5t182 64.5t150.5 -64t19.5 -168t-102 -168.5t-183 -64.5t-150.5 64.5t-19.5 168.5z" />
<glyph unicode="&#xa2;" horiz-adv-x="1468" d="M152 821q35 141 115 264.5t189.5 213.5t247 145.5t283.5 64.5l-6 39l63 131h371l-78 -166l-37 -34q162 -50 283 -205l-358 -279q-45 74 -97 101l-2 -47l-213 -463l-45 -45q69 7 131.5 36.5t161.5 98.5l213 -277q-173 -122 -331.5 -181.5t-321.5 -59.5h-25l4 -41l-63 -137 h-371l88 190l43 37q-169 72 -233 239t-12 375zM569 825q-25 -108 15 -184l12 59l162 355l47 53q-87 -32 -151.5 -117.5t-84.5 -165.5z" />
<glyph unicode="&#xa3;" horiz-adv-x="1669" d="M-31 0l80 322q66 21 113.5 42t92 53t69 76.5t26.5 100.5l29 41h-219l98 389h119l-15 41q3 50 15 100q126 514 788 514q377 0 570 -262l-369 -297q-84 187 -285 187q-108 0 -172.5 -39t-77.5 -97q-13 -54 -16 -106l-31 -41h498l-94 -389h-414l19 -41q-13 -118 -129 -199 v-4h800l-96 -391h-1399z" />
<glyph unicode="&#xa4;" horiz-adv-x="1388" d="M84 457l184 149q-27 105 2 219q27 113 105 217l-109 156l269 215l112 -147q111 51 232 51q116 0 202 -51l185 145l166 -213l-187 -154q24 -109 -2 -219q-26 -114 -106 -221l106 -149l-266 -217l-113 147q-113 -49 -227 -49q-124 0 -207 51l-184 -147zM594 825 q-17 -68 16 -116q36 -47 107 -47q73 0 129 47q62 50 76 116q18 70 -19 121q-36 47 -104 47q-72 0 -129 -49q-61 -49 -76 -119z" />
<glyph unicode="&#xa5;" horiz-adv-x="2131" d="M317 1659h564l241 -463l49 -180h5l137 180l475 463h561l-680 -647l-63 -43l217 4l-78 -318l-434 -2l-35 -143h432l-72 -295h-434l-51 -215h-29h-78h-243h-76h-25l54 215h-435l74 295h432l37 145h-434l78 316h215l-41 41z" />
<glyph unicode="&#xa6;" horiz-adv-x="770" d="M18 -102l207 837h396l-207 -837h-396zM272 922l207 839h395l-206 -839h-396z" />
<glyph unicode="&#xa7;" horiz-adv-x="1558" d="M-35 -125l357 285q131 -197 342 -197q90 0 100 47q2 9 -5 27.5t-16 28.5q-37 42 -127 96q-35 21 -107.5 63.5t-107.5 63.5q-29 18 -52.5 34t-52 38t-50.5 45t-43.5 50.5t-34.5 58t-21.5 64.5t-7.5 73t11 81q47 196 284 359q-34 84 -12 178q21 85 73.5 154.5t120 115.5 t149.5 77.5t162 45.5t158 14q185 0 323.5 -74t236.5 -239l-318 -246q-42 96 -132 151.5t-179 55.5q-119 0 -133 -53q-6 -28 45 -68q5 -4 12.5 -9t17 -10.5t15.5 -8.5q22 -14 53 -31q2 -1 121 -68q33 -19 52.5 -30.5t55 -34.5t57 -40t52 -45t48.5 -52.5t36.5 -57.5t26 -66 t8 -73t-9.5 -82q-48 -197 -261 -354q45 -99 15 -219q-23 -92 -75.5 -167t-119 -123.5t-147.5 -82t-159 -48t-155 -14.5q-200 0 -348 71.5t-258 215.5zM598 752q-5 -18 16 -47.5t78 -65.5l256 -154q60 40 72 82q6 29 -21 56q-17 17 -41 32q-9 7 -26 18t-23 15l-235 146 q-66 -33 -76 -82z" />
<glyph unicode="&#xa8;" horiz-adv-x="1644" d="M618 1628q21 80 87.5 142.5t154.5 62.5q90 0 124.5 -61.5t14.5 -143.5q-21 -80 -86.5 -142.5t-152.5 -62.5q-90 0 -126 62.5t-16 142.5zM1174 1628q21 81 86 143t153 62q90 0 125.5 -61.5t15.5 -143.5q-21 -81 -87 -143t-154 -62q-89 0 -124.5 62t-14.5 143z" />
<glyph unicode="&#xa9;" horiz-adv-x="2056" d="M123.5 569q-5.5 121 28.5 252q48 192 165 367t274 301.5t348.5 201t381.5 74.5q128 0 241 -33.5t200 -95t153.5 -147.5t99.5 -191t38.5 -226t-28.5 -251q-63 -258 -242.5 -476t-426.5 -345t-502 -127q-127 0 -240 34t-200 95.5t-153 148t-99 192t-38.5 226.5zM382.5 636 q4.5 -90 28 -168.5t71.5 -144t110.5 -113t145 -73.5t175.5 -26q138 0 279.5 58t257 154t202 227t120.5 271q25 95 21 184t-27.5 168t-71.5 144.5t-110.5 113t-145 73.5t-174.5 26q-138 0 -279.5 -58t-257 -154t-202.5 -226.5t-122 -270.5q-25 -95 -20.5 -185zM523.5 628.5 q1.5 86.5 25.5 184.5q30 123 92 230.5t148 188.5t199.5 128t238.5 47q131 0 223.5 -47t163.5 -154l-242 -200q-46 70 -95.5 98t-117.5 26q-123 0 -212 -87.5t-124 -231.5q-35 -141 7 -222t171 -81q72 0 136.5 29t156.5 110l146 -198q-137 -118 -257.5 -168t-248.5 -50 q-106 0 -186 29.5t-128.5 82.5t-73 126t-23 159.5z" />
<glyph unicode="&#xaa;" horiz-adv-x="1024" d="M125 1229q49 203 190.5 321.5t360.5 118.5q56 0 120 -15t99 -40h2l10 43h273l-211 -852h-273l13 49h-2q-50 -27 -121 -44t-127 -17q-218 0 -301.5 118t-32.5 318zM416 1229q-25 -97 12 -144t139 -47q196 0 246 191q23 99 -13 145.5t-138 46.5q-197 0 -246 -192z" />
<glyph unicode="&#xab;" horiz-adv-x="1796" d="M98 522l678 543l191 -262l-275 -223l-94 -60l68 -55l161 -223l-319 -262zM872 522l678 543l191 -262l-275 -223l-94 -60l66 -55l164 -223l-320 -262z" />
<glyph unicode="&#xac;" horiz-adv-x="1181" d="M20 412l86 346h1061l-161 -656h-375l78 312z" />
<glyph unicode="&#xad;" horiz-adv-x="921" d="M43 500l92 372h801l-92 -372h-801z" />
<glyph unicode="&#xae;" horiz-adv-x="2056" d="M123.5 569q-5.5 121 28.5 252q48 192 165 367t274 301.5t348.5 201t381.5 74.5q128 0 241 -33.5t200 -95t153.5 -147.5t99.5 -191t38.5 -226t-28.5 -251q-63 -258 -242.5 -476t-426.5 -345t-502 -127q-127 0 -240 34t-200 95.5t-153 148t-99 192t-38.5 226.5zM382.5 636 q4.5 -90 28 -168.5t71.5 -144t110.5 -113t145 -73.5t175.5 -26q138 0 279.5 58t257 154t202 227t120.5 271q25 95 21 184t-27.5 168t-71.5 144.5t-110.5 113t-145 73.5t-174.5 26q-138 0 -279.5 -58t-257 -154t-202.5 -226.5t-122 -270.5q-25 -95 -20.5 -185zM549 307 l254 1024h442q69 0 126.5 -20.5t100 -62t56.5 -105t-6 -150.5q-16 -64 -80 -131.5t-133 -101.5q43 -32 55 -103l55 -350h-295l-41 275q-6 47 -20.5 61t-65.5 14h-96l-86 -350h-266zM969 926h166q100 0 118 67q8 37 -6.5 53.5t-66.5 16.5h-179z" />
<glyph unicode="&#xaf;" horiz-adv-x="1611" d="M668 1499l69 281h850l-69 -281h-850z" />
<glyph unicode="&#xb0;" horiz-adv-x="956" d="M218.5 1118.5q-8.5 73.5 14.5 155.5q44 175 173 289t319 114q96 0 164.5 -31.5t101.5 -86.5t41.5 -128t-14.5 -157q-44 -174 -174 -289t-318 -115q-96 0 -165 32.5t-101.5 87.5t-41 128.5zM512 1274q-33 -133 80 -133q57 0 92.5 32t54.5 101q33 135 -82 135 q-57 0 -92.5 -32.5t-52.5 -102.5z" />
<glyph unicode="&#xb1;" horiz-adv-x="1521" d="M41 2l94 379h1157l-94 -379h-1157zM270 928l92 377h404l-4 26l102 412h371l-100 -412l-17 -26h402l-93 -377h-403l4 -27l-102 -409h-371l100 409l17 27h-402z" />
<glyph unicode="&#xb2;" horiz-adv-x="1032" d="M172 739l51 209q27 111 118.5 205.5t236.5 136.5l118 35q106 32 111 55q0 3 1 6.5t-3.5 8.5t-12 9t-24 6.5t-39.5 2.5q-131 0 -260 -123l-135 183q117 103 226 149.5t235 46.5q191 0 273.5 -80t51.5 -209q-51 -209 -348 -297l-141 -41q-59 -17 -76 -45h469l-63 -258h-789 z" />
<glyph unicode="&#xb3;" horiz-adv-x="1095" d="M195 907l208 170q48 -56 99.5 -76t138.5 -20q127 0 147 59q-1 5 0.5 10.5t-4.5 13t-15.5 14t-31.5 12t-53 8.5l-178 4l59 239q147 3 174 7q111 9 117 45q0 4 1 9t-5 10.5t-15 10.5t-29 8t-48 3q-87 0 -151 -19.5t-136 -73.5l-125 172q150 98 244 132t223 34 q190 0 287.5 -78.5t66.5 -203.5q-10 -40 -44 -84.5t-78 -79.5q79 -76 51 -195q-18 -75 -75 -136.5t-132.5 -98t-156.5 -56.5t-156 -20q-139 0 -224 41t-159 139z" />
<glyph unicode="&#xb4;" horiz-adv-x="1613" d="M774 1577l522 477l189 -252l-576 -407z" />
<glyph unicode="&#xb5;" horiz-adv-x="1560" d="M-96 -428l424 1718h417l-192 -784q-24 -95 16.5 -145t128.5 -50q112 0 184 52t95 149l192 778h416l-321 -1304h-416l20 82h-4q-48 -39 -118 -65t-130 -26q-50 0 -97 22t-75 58h-4l-118 -485h-418z" />
<glyph unicode="&#xb6;" horiz-adv-x="1746" d="M127 1090q40 162 161 294t283 203.5t328 71.5h975l-90 -365h-185l17 -41l-402 -1624h-395l402 1624l34 41h-176l17 -41l-400 -1624h-397l221 899q-142 23 -243 98t-143.5 197t-6.5 267z" />
<glyph unicode="&#xb7;" horiz-adv-x="694" d="M184 831q26 103 99 168.5t176 65.5q102 0 142.5 -66t14.5 -168q-26 -104 -99 -169.5t-175 -65.5q-103 0 -143.5 66t-14.5 169z" />
<glyph unicode="&#xb8;" horiz-adv-x="1839" d="M496 -365l217 172q35 28 42 58.5t-10 50.5l-83 113h264l55 -76q44 -59 28 -130t-94 -134l-288 -230z" />
<glyph unicode="&#xb9;" horiz-adv-x="763" d="M262 1391l356 268h263l-230 -932h-309l125 506l27 59h-5l-40 -45l-46 -35z" />
<glyph unicode="&#xba;" horiz-adv-x="1077" d="M207 1095.5q0 66.5 16 141.5q48 194 196 318t365 124q89 0 158 -22t111.5 -62t67 -95.5t24.5 -121.5t-17 -141q-46 -194 -195 -319t-366 -125q-89 0 -158 22.5t-111 62.5t-66.5 95.5t-24.5 122zM481 1237q-25 -102 10 -157.5t134 -55.5q194 0 247 213q25 101 -9.5 156 t-133.5 55q-196 0 -248 -211z" />
<glyph unicode="&#xbb;" horiz-adv-x="1796" d="M29 242l274 223q51 30 94 55l-65 60l-164 223l319 262l410 -543l-678 -542zM803 242l274 223q51 30 94 55l-65 60l-164 223l320 262l409 -543l-678 -542z" />
<glyph unicode="&#xbc;" horiz-adv-x="2013" d="M262 1391l356 268h263l-230 -932h-309l125 506l27 59h-5l-40 -45l-46 -35zM301 -20l1032 1699h326l-1032 -1699h-326zM922 176l47 191l661 563h260l-123 -496h99l-64 -258h-100l-41 -178h-313l43 178h-469zM1374 432h78l23 86h-5l-22 -33l-39 -34l-33 -15z" />
<glyph unicode="&#xbd;" horiz-adv-x="2060" d="M262 1391l356 268h263l-230 -932h-309l125 506l27 59h-5l-40 -45l-46 -35zM299 -20l1034 1699h326l-1034 -1699h-326zM1016 -2l53 209q27 112 117.5 207t236.5 137l119 35q102 29 111 53q0 3 1 6.5t-3.5 8.5t-12 9t-24 6.5t-39.5 2.5q-134 0 -260 -123l-137 184 q118 102 227.5 149.5t232.5 47.5q192 0 275 -81t51 -210q-52 -211 -348 -295l-139 -41q-57 -15 -76 -47h469l-64 -258h-790z" />
<glyph unicode="&#xbe;" horiz-adv-x="2283" d="M195 907l208 170q48 -56 99.5 -76t138.5 -20q127 0 147 59q-1 5 0.5 10.5t-4.5 13t-15.5 14t-31.5 12t-53 8.5l-178 4l59 239q147 3 174 7q111 9 117 45q0 4 1 9t-5 10.5t-15 10.5t-29 8t-48 3q-87 0 -151 -19.5t-136 -73.5l-125 172q150 98 244 132t223 34 q190 0 287.5 -78.5t66.5 -203.5q-10 -40 -44 -84.5t-78 -79.5q79 -76 51 -195q-18 -75 -75 -136.5t-132.5 -98t-156.5 -56.5t-156 -20q-139 0 -224 41t-159 139zM571 -20l1033 1699h325l-1032 -1699h-326zM1192 176l47 191l662 563h260l-123 -496h98l-63 -258h-101l-41 -178 h-313l43 178h-469zM1645 432h77l23 86h-4l-23 -33l-41 -34l-30 -15z" />
<glyph unicode="&#xbf;" horiz-adv-x="1546" d="M65.5 304q-7.5 61 12.5 136q14 55 38.5 102.5t52 83.5t69.5 70t78 57t90.5 49t94 41.5t101.5 39.5q94 36 134 73.5t59 120.5l16 66h426l-23 -92q-20 -81 -53.5 -149.5t-70.5 -115.5t-85 -86.5t-91 -64t-95 -47.5q-36 -15 -104.5 -39t-96.5 -37q-77 -32 -86 -74 q-10 -39 27.5 -62.5t124.5 -23.5q232 0 449 195l221 -297q-191 -149 -366.5 -213t-379.5 -64q-62 0 -122 7.5t-121 24t-111 42t-92 62.5t-65.5 85.5t-31 109.5zM872 1452q25 102 102 166.5t183 64.5q107 0 151 -64t17 -167q-25 -104 -101 -168.5t-182 -64.5 q-108 0 -151.5 64t-18.5 169z" />
<glyph unicode="&#xc0;" horiz-adv-x="2109" d="M-111 0l1252 1659h366l430 -1659h-489l-88 342l35 41h-772l14 -41l-254 -342h-494zM915 735h365l-31 43l-47 187l-12 135h-4l-82 -135l-137 -187zM1092 2187l311 252l289 -475l-226 -182z" />
<glyph unicode="&#xc1;" horiz-adv-x="2109" d="M-111 0l1252 1659h366l430 -1659h-489l-88 342l35 41h-772l14 -41l-254 -342h-494zM915 735h365l-31 43l-47 187l-12 135h-4l-82 -135l-137 -187zM1106 1954l524 475l189 -252l-576 -405z" />
<glyph unicode="&#xc2;" horiz-adv-x="2109" d="M-111 0l1252 1659h366l430 -1659h-489l-88 342l35 41h-772l14 -41l-254 -342h-494zM915 735h365l-31 43l-47 187l-12 135h-4l-82 -135l-137 -187zM942 1962l559 438h4l344 -438l-215 -174l-225 229l-338 -229z" />
<glyph unicode="&#xc3;" horiz-adv-x="2109" d="M-111 0l1252 1659h366l430 -1659h-489l-88 342l35 41h-772l14 -41l-254 -342h-494zM831 1960q58 111 178.5 193.5t235.5 82.5q106 0 211 -77q48 -34 76 -48q49 -18 74 -18q68 0 116.5 34.5t92.5 113.5l133 -177q-69 -124 -185 -199t-229 -75q-93 0 -203 82q-60 38 -76 45 q-43 16 -79 16q-54 0 -108 -40t-99 -117zM915 735h365l-31 43l-47 187l-12 135h-4l-82 -135l-137 -187z" />
<glyph unicode="&#xc4;" horiz-adv-x="2109" d="M-111 0l1252 1659h366l430 -1659h-489l-88 342l35 41h-772l14 -41l-254 -342h-494zM915 735h365l-31 43l-47 187l-12 135h-4l-82 -135l-137 -187zM950 2036q21 80 87.5 142.5t154.5 62.5t123.5 -62.5t15.5 -142.5q-20 -81 -86 -143t-153 -62q-90 0 -126 62.5t-16 142.5z M1505 2036q19 80 85.5 142.5t154.5 62.5q90 0 125.5 -62.5t15.5 -142.5q-20 -82 -86.5 -143.5t-154.5 -61.5q-89 0 -125 62.5t-15 142.5z" />
<glyph unicode="&#xc5;" horiz-adv-x="2109" d="M-111 0l1252 1659h366l430 -1659h-489l-88 342l35 41h-772l14 -41l-254 -342h-494zM915 735h365l-31 43l-47 187l-12 135h-4l-82 -135l-137 -187zM1151 2081q32 127 124.5 209t225.5 82q134 0 187 -81t22 -210q-32 -126 -125 -207.5t-227 -81.5q-133 0 -185.5 81 t-21.5 208zM1360 2081q-19 -78 51 -78q68 0 90 78q19 80 -51 80q-68 0 -90 -80z" />
<glyph unicode="&#xc6;" horiz-adv-x="2484" d="M-111 0l1248 1659h1472l-96 -389h-793l13 -43l-41 -160l-33 -43h696l-96 -389h-696l12 -43l-39 -160l-33 -43h793l-96 -389h-1217l78 319l33 41h-498l18 -47l-235 -313h-490zM918 752h274l-12 41l94 387l26 39h-53l10 -37l-290 -394z" />
<glyph unicode="&#xc7;" horiz-adv-x="1839" d="M144.5 518q-14.5 140 27.5 303q46 186 147 342.5t245.5 271t337 178.5t411.5 64q237 0 394 -74.5t265 -236.5l-373 -301q-101 219 -368 219q-242 0 -396.5 -125.5t-207.5 -337.5q-52 -209 39 -329.5t338 -120.5q268 0 485 211l217 -291q-345 -290 -745 -311l20 -27 q44 -59 28 -130t-94 -134l-288 -230l-131 176l217 172q35 28 42 58.5t-10 50.5l-57 78q-167 27 -286 98.5t-181 178.5t-76.5 247z" />
<glyph unicode="&#xc8;" horiz-adv-x="1785" d="M41 0l410 1659h1462l-98 -391h-1053l29 -41l-39 -160l-52 -41h959l-98 -393h-957l31 -41l-39 -160l-51 -41h1054l-96 -391h-1462zM967 2177l313 252l287 -475l-226 -182z" />
<glyph unicode="&#xc9;" horiz-adv-x="1785" d="M41 0l410 1659h1462l-98 -391h-1053l29 -41l-39 -160l-52 -41h959l-98 -393h-957l31 -41l-39 -160l-51 -41h1054l-96 -391h-1462zM965 1954l522 475l188 -252l-575 -405z" />
<glyph unicode="&#xca;" horiz-adv-x="1785" d="M41 0l410 1659h1462l-98 -391h-1053l29 -41l-39 -160l-52 -41h959l-98 -393h-957l31 -41l-39 -160l-51 -41h1054l-96 -391h-1462zM844 1962l559 438h4l346 -438l-217 -174l-225 229l-336 -229z" />
<glyph unicode="&#xcb;" horiz-adv-x="1785" d="M41 0l410 1659h1462l-98 -391h-1053l29 -41l-39 -160l-52 -41h959l-98 -393h-957l31 -41l-39 -160l-51 -41h1054l-96 -391h-1462zM817 2036q21 81 86.5 143t153.5 62q90 0 125.5 -62.5t15.5 -142.5q-20 -81 -87 -143t-155 -62t-123.5 62.5t-15.5 142.5zM1370 2036 q21 81 87 143t155 62q88 0 123.5 -62.5t15.5 -142.5q-20 -81 -87 -143t-155 -62t-123.5 62.5t-15.5 142.5z" />
<glyph unicode="&#xcc;" horiz-adv-x="833" d="M51 0l410 1659h446l-407 -1659h-449zM473 2177l313 252l289 -475l-227 -182z" />
<glyph unicode="&#xcd;" horiz-adv-x="833" d="M51 0l410 1659h446l-407 -1659h-449zM479 1954l522 475l189 -252l-576 -405z" />
<glyph unicode="&#xce;" horiz-adv-x="833" d="M51 0l410 1659h446l-407 -1659h-449zM309 1962l559 438h4l347 -438l-218 -174l-225 229l-338 -229z" />
<glyph unicode="&#xcf;" horiz-adv-x="833" d="M51 0l410 1659h446l-407 -1659h-449zM317 2036q21 80 87.5 142.5t154.5 62.5q89 0 124.5 -62t14.5 -143q-20 -81 -86 -143t-153 -62q-90 0 -126 62.5t-16 142.5zM872 2036q21 81 86.5 143t153.5 62q90 0 125.5 -62.5t15.5 -142.5q-20 -82 -86.5 -143.5t-154.5 -61.5 q-89 0 -125 62.5t-15 142.5z" />
<glyph unicode="&#xd0;" horiz-adv-x="1923" d="M39 0l147 602l33 41h-151l92 373h151l-12 41l150 602h747q156 0 277.5 -27t200 -72.5t131 -112t76.5 -137.5t28.5 -156.5t-5 -162.5t-30.5 -162t-49 -162t-74.5 -162.5t-104.5 -156.5t-142.5 -137t-184.5 -111.5t-234 -72.5t-288 -27h-758zM543 391h329q113 0 198 21 t141 55.5t97.5 93t65 119.5t45.5 149q22 86 28 147t-7 119.5t-53 94t-116.5 57t-191.5 21.5h-319l28 -41l-40 -170l-33 -41h405l-92 -373h-405l12 -41l-41 -170z" />
<glyph unicode="&#xd1;" horiz-adv-x="1968" d="M41 0l410 1659h364l463 -737l92 -205h4l232 942h448l-409 -1659h-367l-455 737l-94 217h-4l-236 -954h-448zM780 1960q58 112 179 194t237 82q108 0 209 -77q59 -40 78 -48q45 -18 71 -18q68 0 116.5 34.5t92.5 113.5l133 -177q-68 -123 -184 -198.5t-227 -75.5 q-95 0 -205 82q-5 3 -21.5 14.5t-28.5 18.5t-26 12q-43 16 -78 16q-55 0 -109 -39.5t-99 -117.5z" />
<glyph unicode="&#xd2;" horiz-adv-x="2017" d="M141 545q-3 128 31 276q46 184 143 340t236 271.5t326.5 181t402.5 65.5q145 0 264 -29.5t203.5 -84t142 -132t84 -173t24.5 -206t-32 -233.5q-45 -185 -143 -339.5t-238 -266t-326 -173.5t-399 -62q-172 0 -307 40t-222 114t-137 178.5t-53 232.5zM627 821 q-53 -213 25.5 -330.5t305.5 -117.5q443 0 555 448q28 103 21.5 188.5t-42.5 147t-114 95.5t-194 34q-225 0 -363.5 -122.5t-193.5 -342.5zM1067 2177l313 252l289 -475l-225 -182z" />
<glyph unicode="&#xd3;" horiz-adv-x="2017" d="M141 545q-3 128 31 276q46 184 143 340t236 271.5t326.5 181t402.5 65.5q145 0 264 -29.5t203.5 -84t142 -132t84 -173t24.5 -206t-32 -233.5q-45 -185 -143 -339.5t-238 -266t-326 -173.5t-399 -62q-172 0 -307 40t-222 114t-137 178.5t-53 232.5zM627 821 q-53 -213 25.5 -330.5t305.5 -117.5q443 0 555 448q28 103 21.5 188.5t-42.5 147t-114 95.5t-194 34q-225 0 -363.5 -122.5t-193.5 -342.5zM1026 1954l522 475l189 -252l-576 -405z" />
<glyph unicode="&#xd4;" horiz-adv-x="2017" d="M141 545q-3 128 31 276q46 184 143 340t236 271.5t326.5 181t402.5 65.5q145 0 264 -29.5t203.5 -84t142 -132t84 -173t24.5 -206t-32 -233.5q-45 -185 -143 -339.5t-238 -266t-326 -173.5t-399 -62q-172 0 -307 40t-222 114t-137 178.5t-53 232.5zM627 821 q-53 -213 25.5 -330.5t305.5 -117.5q443 0 555 448q28 103 21.5 188.5t-42.5 147t-114 95.5t-194 34q-225 0 -363.5 -122.5t-193.5 -342.5zM897 1962l559 438h4l346 -438l-217 -174l-225 229l-336 -229z" />
<glyph unicode="&#xd5;" horiz-adv-x="2017" d="M141 545q-3 128 31 276q46 184 143 340t236 271.5t326.5 181t402.5 65.5q145 0 264 -29.5t203.5 -84t142 -132t84 -173t24.5 -206t-32 -233.5q-45 -185 -143 -339.5t-238 -266t-326 -173.5t-399 -62q-172 0 -307 40t-222 114t-137 178.5t-53 232.5zM627 821 q-53 -213 25.5 -330.5t305.5 -117.5q443 0 555 448q28 103 21.5 188.5t-42.5 147t-114 95.5t-194 34q-225 0 -363.5 -122.5t-193.5 -342.5zM780 1960q58 112 179 194t237 82q108 0 209 -77q59 -40 78 -48q45 -18 71 -18q68 0 116.5 34.5t92.5 113.5l133 -177 q-68 -123 -184 -198.5t-227 -75.5q-95 0 -205 82q-5 3 -21.5 14.5t-28.5 18.5t-26 12q-43 16 -78 16q-55 0 -109 -39.5t-99 -117.5z" />
<glyph unicode="&#xd6;" horiz-adv-x="2017" d="M141 545q-3 128 31 276q46 184 143 340t236 271.5t326.5 181t402.5 65.5q145 0 264 -29.5t203.5 -84t142 -132t84 -173t24.5 -206t-32 -233.5q-45 -185 -143 -339.5t-238 -266t-326 -173.5t-399 -62q-172 0 -307 40t-222 114t-137 178.5t-53 232.5zM627 821 q-53 -213 25.5 -330.5t305.5 -117.5q443 0 555 448q28 103 21.5 188.5t-42.5 147t-114 95.5t-194 34q-225 0 -363.5 -122.5t-193.5 -342.5zM903 2036q19 80 85.5 142.5t154.5 62.5q89 0 124.5 -62t14.5 -143q-19 -81 -85 -143t-155 -62t-124.5 62t-14.5 143zM1456 2036 q21 81 86.5 143t153.5 62q90 0 125.5 -62.5t15.5 -142.5q-20 -81 -87 -143t-155 -62t-123.5 62.5t-15.5 142.5z" />
<glyph unicode="&#xd7;" horiz-adv-x="1464" d="M133 502l414 327l-252 328l319 258l242 -336l408 336l190 -258l-412 -328l252 -327l-319 -258l-242 336l-407 -336z" />
<glyph unicode="&#xd8;" horiz-adv-x="2015" d="M119 -18l129 159l45 19q-109 124 -139.5 295.5t18.5 363.5q46 186 143 343.5t236.5 274.5t327.5 183t403 66q135 0 283 -37l10 41l94 102l242 -168l-66 -78l-43 -20q278 -239 162 -707q-46 -187 -144.5 -343t-238.5 -269t-325.5 -175.5t-397.5 -62.5q-210 0 -356 56 l2 -41l-139 -166zM623 543l26 61l557 649l56 35q-20 4 -78 4q-222 0 -363.5 -125.5t-195.5 -347.5q-41 -153 -2 -276zM825 385q65 -14 138 -14q438 0 548 448q56 217 -24 348l-19 -57l-591 -692z" />
<glyph unicode="&#xd9;" horiz-adv-x="1992" d="M219 768l221 891h449l-221 -889q-52 -211 10 -305t268 -94q204 0 313.5 95t161.5 304l219 889h449l-221 -891q-92 -377 -350.5 -582.5t-667.5 -205.5t-566 204.5t-65 583.5zM1038 2177l312 252l288 -475l-225 -182z" />
<glyph unicode="&#xda;" horiz-adv-x="1992" d="M219 768l221 891h449l-221 -889q-52 -211 10 -305t268 -94q204 0 313.5 95t161.5 304l219 889h449l-221 -891q-92 -377 -350.5 -582.5t-667.5 -205.5t-566 204.5t-65 583.5zM1026 1954l522 475l189 -252l-576 -405z" />
<glyph unicode="&#xdb;" horiz-adv-x="1992" d="M219 768l221 891h449l-221 -889q-52 -211 10 -305t268 -94q204 0 313.5 95t161.5 304l219 889h449l-221 -891q-92 -377 -350.5 -582.5t-667.5 -205.5t-566 204.5t-65 583.5zM885 1962l559 438h4l346 -438l-217 -174l-225 229l-336 -229z" />
<glyph unicode="&#xdc;" horiz-adv-x="1992" d="M219 768l221 891h449l-221 -889q-52 -211 10 -305t268 -94q204 0 313.5 95t161.5 304l219 889h449l-221 -891q-92 -377 -350.5 -582.5t-667.5 -205.5t-566 204.5t-65 583.5zM881 2036q21 81 86 143t153 62q90 0 126 -62.5t16 -142.5q-20 -81 -87 -143t-155 -62 q-89 0 -124.5 62t-14.5 143zM1434 2036q21 81 86 143t153 62q90 0 126 -62.5t16 -142.5q-20 -81 -87 -143t-155 -62t-123.5 62.5t-15.5 142.5z" />
<glyph unicode="&#xdd;" horiz-adv-x="2091" d="M297 1659h563l242 -463l53 -162h4l133 162l475 463h562l-1033 -983l-166 -676h-450l166 676zM1100 1970l524 475l188 -252l-575 -405z" />
<glyph unicode="&#xde;" horiz-adv-x="1820" d="M41 0l410 1659h446l-59 -234l-50 -41h472q306 0 450 -153.5t82 -403.5q-60 -242 -282 -399.5t-527 -157.5h-469l31 -41l-56 -229h-448zM612 664h467q217 -3 258 163q20 81 -17.5 123.5t-156.5 42.5h-471l31 -41l-59 -247z" />
<glyph unicode="&#xdf;" horiz-adv-x="1533" d="M-31 0l312 1253q26 104 79 187t121.5 136.5t154 89t172 50.5t179.5 15q289 0 436 -135.5t90 -368.5q-17 -69 -78 -149.5t-128 -123.5l-2 -4q106 -51 150.5 -158.5t10.5 -250.5q-41 -164 -154.5 -293.5t-273 -200t-336.5 -70.5q-74 0 -144.5 12t-84.5 13l100 410 q94 -47 207 -47q98 0 162 46t84 128q21 81 -24 131.5t-146 50.5h-205l94 385l132 -4q165 -3 192 117q13 53 -32 90t-146 37q-86 0 -127 -37t-62 -121l-292 -1188h-441z" />
<glyph unicode="&#xe0;" d="M78.5 422q0.5 100 30.5 219q75 310 282.5 489t538.5 179q81 0 171 -23t142 -61h4l17 65h442l-320 -1290h-442l19 72h-5q-75 -40 -176.5 -66t-181.5 -26q-134 0 -234.5 31.5t-162.5 88.5t-93.5 139.5t-31 182.5zM549 641q-36 -149 13 -218t202 -69q151 0 235.5 70 t120.5 217q37 152 -11.5 222.5t-201.5 70.5q-151 0 -236 -71.5t-122 -221.5zM750 1802l313 252l287 -477l-226 -182z" />
<glyph unicode="&#xe1;" d="M78.5 422q0.5 100 30.5 219q75 310 282.5 489t538.5 179q81 0 171 -23t142 -61h4l17 65h442l-320 -1290h-442l19 72h-5q-75 -40 -176.5 -66t-181.5 -26q-134 0 -234.5 31.5t-162.5 88.5t-93.5 139.5t-31 182.5zM549 641q-36 -149 13 -218t202 -69q151 0 235.5 70 t120.5 217q37 152 -11.5 222.5t-201.5 70.5q-151 0 -236 -71.5t-122 -221.5zM803 1577l522 477l188 -252l-575 -407z" />
<glyph unicode="&#xe2;" d="M78.5 422q0.5 100 30.5 219q75 310 282.5 489t538.5 179q81 0 171 -23t142 -61h4l17 65h442l-320 -1290h-442l19 72h-5q-75 -40 -176.5 -66t-181.5 -26q-134 0 -234.5 31.5t-162.5 88.5t-93.5 139.5t-31 182.5zM549 641q-36 -149 13 -218t202 -69q151 0 235.5 70 t120.5 217q37 152 -11.5 222.5t-201.5 70.5q-151 0 -236 -71.5t-122 -221.5zM633 1593l559 439h4l344 -439l-215 -174l-225 230l-338 -230z" />
<glyph unicode="&#xe3;" d="M78.5 422q0.5 100 30.5 219q75 310 282.5 489t538.5 179q81 0 171 -23t142 -61h4l17 65h442l-320 -1290h-442l19 72h-5q-75 -40 -176.5 -66t-181.5 -26q-134 0 -234.5 31.5t-162.5 88.5t-93.5 139.5t-31 182.5zM532 1628q59 112 179.5 194.5t236.5 82.5q101 0 209 -78 q55 -37 78 -47q47 -19 74 -19q66 0 114.5 34.5t92.5 113.5l133 -176q-68 -123 -184.5 -199t-227.5 -76q-97 0 -203 82q-8 5 -23.5 15t-28 17.5t-26.5 12.5q-42 17 -77 17q-55 0 -109.5 -40t-99.5 -118zM549 641q-36 -149 13 -218t202 -69q151 0 235.5 70t120.5 217 q37 152 -11.5 222.5t-201.5 70.5q-151 0 -236 -71.5t-122 -221.5z" />
<glyph unicode="&#xe4;" d="M78.5 422q0.5 100 30.5 219q75 310 282.5 489t538.5 179q81 0 171 -23t142 -61h4l17 65h442l-320 -1290h-442l19 72h-5q-75 -40 -176.5 -66t-181.5 -26q-134 0 -234.5 31.5t-162.5 88.5t-93.5 139.5t-31 182.5zM549 641q-36 -149 13 -218t202 -69q151 0 235.5 70 t120.5 217q37 152 -11.5 222.5t-201.5 70.5q-151 0 -236 -71.5t-122 -221.5zM612 1628q21 80 87.5 142.5t154.5 62.5q90 0 124.5 -61.5t14.5 -143.5q-21 -80 -86.5 -142.5t-152.5 -62.5q-90 0 -126 62.5t-16 142.5zM1167 1628q21 81 86.5 143t153.5 62q90 0 125.5 -61.5 t15.5 -143.5q-21 -81 -87 -143t-154 -62q-89 0 -125 62.5t-15 142.5z" />
<glyph unicode="&#xe5;" d="M78.5 422q0.5 100 30.5 219q75 310 282.5 489t538.5 179q81 0 171 -23t142 -61h4l17 65h442l-320 -1290h-442l19 72h-5q-75 -40 -176.5 -66t-181.5 -26q-134 0 -234.5 31.5t-162.5 88.5t-93.5 139.5t-31 182.5zM549 641q-36 -149 13 -218t202 -69q151 0 235.5 70 t120.5 217q37 152 -11.5 222.5t-201.5 70.5q-151 0 -236 -71.5t-122 -221.5zM854 1714q31 126 123.5 207.5t226.5 81.5t186.5 -81t20.5 -208q-31 -127 -124 -209t-226 -82q-135 0 -187 81t-20 210zM1063 1712q-19 -78 51 -78q69 0 88 78q19 80 -49 80q-71 0 -90 -80z" />
<glyph unicode="&#xe6;" horiz-adv-x="2578" d="M78.5 422q0.5 100 30.5 219q75 310 282.5 489t538.5 179q81 0 171 -23t142 -61h4l17 65h442l-10 -45q135 66 289 66q111 0 201.5 -24t154 -68t107 -105t62.5 -136.5t17.5 -161t-24.5 -179.5q-12 -60 -47 -133h-996l31 -41q22 -64 84.5 -99.5t159.5 -35.5q101 0 173 22.5 t148 75.5l193 -256q-138 -98 -280 -144t-308 -46q-154 0 -260 71l-15 -51h-442l19 72h-5q-75 -40 -176.5 -66t-181.5 -26q-134 0 -234.5 31.5t-162.5 88.5t-93.5 139.5t-31 182.5zM549 641q-36 -149 13 -218t202 -69q151 0 235.5 70t120.5 217q37 152 -11.5 222.5 t-201.5 70.5q-151 0 -236 -71.5t-122 -221.5zM1237 598h10q-5 2 -10 0zM1536 815h573l-36 39q-15 53 -73 86t-134 33q-84 0 -159 -29.5t-120 -89.5z" />
<glyph unicode="&#xe7;" horiz-adv-x="1439" d="M85 417q-10 105 21 220q35 140 115.5 262t195.5 214t270 145t327 53q357 0 491 -230l-325 -264q-69 123 -258 123q-143 0 -241.5 -83t-131.5 -220q-34 -135 19 -211t204 -76q89 0 165.5 31.5t158.5 101.5l202 -274q-248 -202 -544 -227l22 -29q44 -60 28.5 -130.5 t-93.5 -133.5l-289 -230l-131 176l217 172q35 28 42.5 58.5t-9.5 50.5l-62 82q-124 26 -211.5 86.5t-130 144t-52.5 188.5z" />
<glyph unicode="&#xe8;" horiz-adv-x="1644" d="M84.5 461q-3.5 84 21.5 176q35 144 116 267t196.5 213.5t268 142t323.5 51.5q118 0 214.5 -24t165 -68t115 -105t67.5 -136.5t20.5 -161t-23.5 -179.5q-16 -64 -47 -133h-998l33 -41q20 -64 83.5 -99.5t160.5 -35.5q100 0 171.5 22.5t149.5 75.5l191 -256 q-139 -99 -283.5 -144.5t-324.5 -45.5q-123 0 -224.5 23t-173 65.5t-123 102.5t-74 133t-26 157zM602 815h572l-37 39q-14 53 -71.5 86t-135.5 33q-82 0 -157 -29.5t-120 -89.5zM748 1802l313 252l287 -477l-226 -182z" />
<glyph unicode="&#xe9;" horiz-adv-x="1644" d="M84.5 461q-3.5 84 21.5 176q35 144 116 267t196.5 213.5t268 142t323.5 51.5q118 0 214.5 -24t165 -68t115 -105t67.5 -136.5t20.5 -161t-23.5 -179.5q-16 -64 -47 -133h-998l33 -41q20 -64 83.5 -99.5t160.5 -35.5q100 0 171.5 22.5t149.5 75.5l191 -256 q-139 -99 -283.5 -144.5t-324.5 -45.5q-123 0 -224.5 23t-173 65.5t-123 102.5t-74 133t-26 157zM602 815h572l-37 39q-14 53 -71.5 86t-135.5 33q-82 0 -157 -29.5t-120 -89.5zM774 1577l522 477l189 -252l-576 -407z" />
<glyph unicode="&#xea;" horiz-adv-x="1644" d="M84.5 461q-3.5 84 21.5 176q35 144 116 267t196.5 213.5t268 142t323.5 51.5q118 0 214.5 -24t165 -68t115 -105t67.5 -136.5t20.5 -161t-23.5 -179.5q-16 -64 -47 -133h-998l33 -41q20 -64 83.5 -99.5t160.5 -35.5q100 0 171.5 22.5t149.5 75.5l191 -256 q-139 -99 -283.5 -144.5t-324.5 -45.5q-123 0 -224.5 23t-173 65.5t-123 102.5t-74 133t-26 157zM602 815h572l-37 39q-14 53 -71.5 86t-135.5 33q-82 0 -157 -29.5t-120 -89.5zM616 1593l560 439h4l344 -439l-215 -174l-226 230l-338 -230z" />
<glyph unicode="&#xeb;" horiz-adv-x="1644" d="M84.5 461q-3.5 84 21.5 176q35 144 116 267t196.5 213.5t268 142t323.5 51.5q118 0 214.5 -24t165 -68t115 -105t67.5 -136.5t20.5 -161t-23.5 -179.5q-16 -64 -47 -133h-998l33 -41q20 -64 83.5 -99.5t160.5 -35.5q100 0 171.5 22.5t149.5 75.5l191 -256 q-139 -99 -283.5 -144.5t-324.5 -45.5q-123 0 -224.5 23t-173 65.5t-123 102.5t-74 133t-26 157zM602 815h572l-37 39q-14 53 -71.5 86t-135.5 33q-82 0 -157 -29.5t-120 -89.5zM618 1628q21 80 87.5 142.5t154.5 62.5q90 0 124.5 -61.5t14.5 -143.5q-21 -80 -86.5 -142.5 t-152.5 -62.5q-90 0 -126 62.5t-16 142.5zM1174 1628q21 81 86 143t153 62q90 0 125.5 -61.5t15.5 -143.5q-21 -81 -87 -143t-154 -62q-89 0 -124.5 62t-14.5 143z" />
<glyph unicode="&#xec;" horiz-adv-x="745" d="M10 0l318 1290h442l-317 -1290h-443zM315 1802l314 252l289 -477l-228 -182z" />
<glyph unicode="&#xed;" horiz-adv-x="745" d="M10 0l318 1290h442l-317 -1290h-443zM319 1577l523 477l188 -252l-575 -407z" />
<glyph unicode="&#xee;" horiz-adv-x="745" d="M10 0l318 1290h442l-317 -1290h-443zM166 1593l559 439h4l346 -439l-217 -174l-225 230l-336 -230z" />
<glyph unicode="&#xef;" horiz-adv-x="745" d="M10 0l318 1290h442l-317 -1290h-443zM164 1628q21 81 86 143t153 62q90 0 126 -62t16 -143q-21 -80 -87.5 -142.5t-154.5 -62.5q-89 0 -124.5 62t-14.5 143zM717 1628q21 81 86 143t153 62q90 0 126 -62t16 -143q-21 -80 -87.5 -142.5t-154.5 -62.5t-123.5 62.5 t-15.5 142.5z" />
<glyph unicode="&#xf0;" horiz-adv-x="1492" d="M68.5 450.5q1.5 81.5 23.5 170.5q61 241 250 413.5t442 192.5h62l-33 78l-197 -70l-94 248l183 63l-84 189h481l24 -52l172 58l103 -244l-166 -61l158 -353q85 -194 20 -462q-33 -134 -105 -250t-175.5 -203.5t-242.5 -137.5t-296 -50q-106 0 -193.5 23t-149 64.5 t-104 100t-61.5 130t-17.5 153zM502 610q-62 -256 186 -256q247 0 309 256q33 132 -12.5 204.5t-167.5 72.5q-120 0 -200.5 -72t-114.5 -205z" />
<glyph unicode="&#xf1;" horiz-adv-x="1671" d="M10 0l320 1294h442l-20 -82h4q183 97 389 97q116 0 204 -24t142 -69t84 -109t29.5 -143.5t-21.5 -172.5l-197 -791h-442l186 754q24 98 -16.5 142t-165.5 44q-126 0 -207.5 -51t-103.5 -141l-184 -748h-443zM547 1628q59 112 179.5 194.5t236.5 82.5q100 0 208 -78 q55 -37 78 -47q47 -19 74 -19q66 0 114.5 34.5t92.5 113.5l133 -176q-68 -123 -184.5 -199t-227.5 -76q-94 0 -204 82q-5 3 -21.5 14.5t-28.5 18.5t-26 12q-46 17 -78 17q-55 0 -109.5 -40t-99.5 -118z" />
<glyph unicode="&#xf2;" horiz-adv-x="1644" d="M86 432.5q-2 99.5 23 212.5q35 141 111.5 261.5t188 211t265 142t330.5 51.5q119 0 216 -23.5t166 -66t116.5 -102.5t69.5 -134.5t22 -160t-23 -179.5q-35 -140 -112 -260.5t-189.5 -211t-266 -142t-329.5 -51.5q-142 0 -253 33.5t-181 93.5t-111 143t-43 182.5zM549 645 q-35 -143 17.5 -222t199.5 -79t238 79t126 222t-17.5 222t-199.5 79q-148 0 -238.5 -78.5t-125.5 -222.5zM741 1802l314 252l288 -477l-227 -182z" />
<glyph unicode="&#xf3;" horiz-adv-x="1644" d="M86 432.5q-2 99.5 23 212.5q35 141 111.5 261.5t188 211t265 142t330.5 51.5q119 0 216 -23.5t166 -66t116.5 -102.5t69.5 -134.5t22 -160t-23 -179.5q-35 -140 -112 -260.5t-189.5 -211t-266 -142t-329.5 -51.5q-142 0 -253 33.5t-181 93.5t-111 143t-43 182.5zM549 645 q-35 -143 17.5 -222t199.5 -79t238 79t126 222t-17.5 222t-199.5 79q-148 0 -238.5 -78.5t-125.5 -222.5zM774 1577l522 477l189 -252l-576 -407z" />
<glyph unicode="&#xf4;" horiz-adv-x="1644" d="M86 432.5q-2 99.5 23 212.5q35 141 111.5 261.5t188 211t265 142t330.5 51.5q119 0 216 -23.5t166 -66t116.5 -102.5t69.5 -134.5t22 -160t-23 -179.5q-35 -140 -112 -260.5t-189.5 -211t-266 -142t-329.5 -51.5q-142 0 -253 33.5t-181 93.5t-111 143t-43 182.5zM549 645 q-35 -143 17.5 -222t199.5 -79t238 79t126 222t-17.5 222t-199.5 79q-148 0 -238.5 -78.5t-125.5 -222.5zM618 1593l560 439h4l344 -439l-215 -174l-226 230l-337 -230z" />
<glyph unicode="&#xf5;" horiz-adv-x="1644" d="M86 432.5q-2 99.5 23 212.5q35 141 111.5 261.5t188 211t265 142t330.5 51.5q119 0 216 -23.5t166 -66t116.5 -102.5t69.5 -134.5t22 -160t-23 -179.5q-35 -140 -112 -260.5t-189.5 -211t-266 -142t-329.5 -51.5q-142 0 -253 33.5t-181 93.5t-111 143t-43 182.5z M524 1628q59 112 179.5 194.5t236.5 82.5q101 0 209 -78q51 -34 78 -47q48 -19 73 -19q66 0 114.5 34.5t92.5 113.5l133 -176q-68 -123 -184 -199t-227 -76q-97 0 -203 82q-8 5 -23.5 15t-28 17.5t-26.5 12.5q-42 17 -78 17q-55 0 -109 -40t-97 -118zM549 645 q-35 -143 17.5 -222t199.5 -79t238 79t126 222t-17.5 222t-199.5 79q-148 0 -238.5 -78.5t-125.5 -222.5z" />
<glyph unicode="&#xf6;" horiz-adv-x="1644" d="M86 432.5q-2 99.5 23 212.5q35 141 111.5 261.5t188 211t265 142t330.5 51.5q119 0 216 -23.5t166 -66t116.5 -102.5t69.5 -134.5t22 -160t-23 -179.5q-35 -140 -112 -260.5t-189.5 -211t-266 -142t-329.5 -51.5q-142 0 -253 33.5t-181 93.5t-111 143t-43 182.5zM549 645 q-35 -143 17.5 -222t199.5 -79t238 79t126 222t-17.5 222t-199.5 79q-148 0 -238.5 -78.5t-125.5 -222.5zM614 1628q21 80 87.5 142.5t154.5 62.5q90 0 124.5 -61.5t14.5 -143.5q-21 -80 -86.5 -142.5t-152.5 -62.5q-90 0 -126 62.5t-16 142.5zM1169 1628q21 81 86.5 143 t153.5 62q90 0 125.5 -61.5t15.5 -143.5q-21 -81 -87 -143t-154 -62q-89 0 -125 62.5t-15 142.5z" />
<glyph unicode="&#xf7;" horiz-adv-x="1521" d="M199 641l94 379h1157l-94 -379h-1157zM469 266q26 104 99 170t175 66t143 -66t15 -170q-26 -102 -99 -167.5t-175 -65.5t-143 65.5t-15 167.5zM748 1391q26 104 98 169.5t174 65.5q104 0 144 -65.5t14 -169.5q-26 -102 -99 -168t-174 -66q-103 0 -143 65.5t-14 168.5z " />
<glyph unicode="&#xf8;" horiz-adv-x="1644" d="M85.5 452.5q1.5 93.5 23.5 190.5q76 303 313 484.5t573 181.5q177 0 254 -31l11 57l100 111l227 -141l-90 -99l-53 -26q212 -191 125 -539q-73 -297 -316.5 -479t-580.5 -182q-156 0 -256 32l4 -43l-117 -133l-217 148l96 116l43 17q-70 60 -105.5 151t-34 184.5z M534 559.5q0 -50.5 11 -82.5l30 72l304 352q1 1 3 2t8 4.5l12 7t13 8t13 8t11 6.5t7.5 5t1.5 2q-162 13 -266 -70t-141 -233q-7 -31 -7 -81.5zM717 346q2 0 21.5 -1t21.5 -1q304 3 377 303q20 81 -2 180l-29 -71l-315 -365z" />
<glyph unicode="&#xf9;" horiz-adv-x="1654" d="M100 327.5q2 79.5 23 172.5l196 790h443l-187 -753q-49 -187 173 -187q126 0 204.5 51t100.5 142l184 747h442l-319 -1294h-442l20 82h-4q-181 -96 -389 -96q-116 0 -202 24t-138 69t-79.5 109t-25.5 143.5zM741 1802l314 252l288 -477l-227 -182z" />
<glyph unicode="&#xfa;" horiz-adv-x="1654" d="M100 327.5q2 79.5 23 172.5l196 790h443l-187 -753q-49 -187 173 -187q126 0 204.5 51t100.5 142l184 747h442l-319 -1294h-442l20 82h-4q-181 -96 -389 -96q-116 0 -202 24t-138 69t-79.5 109t-25.5 143.5zM784 1577l523 477l188 -252l-575 -407z" />
<glyph unicode="&#xfb;" horiz-adv-x="1654" d="M100 327.5q2 79.5 23 172.5l196 790h443l-187 -753q-49 -187 173 -187q126 0 204.5 51t100.5 142l184 747h442l-319 -1294h-442l20 82h-4q-181 -96 -389 -96q-116 0 -202 24t-138 69t-79.5 109t-25.5 143.5zM612 1593l559 439h5l346 -439l-217 -174l-226 230l-338 -230z " />
<glyph unicode="&#xfc;" horiz-adv-x="1654" d="M100 327.5q2 79.5 23 172.5l196 790h443l-187 -753q-49 -187 173 -187q126 0 204.5 51t100.5 142l184 747h442l-319 -1294h-442l20 82h-4q-181 -96 -389 -96q-116 0 -202 24t-138 69t-79.5 109t-25.5 143.5zM618 1628q21 80 87.5 142.5t154.5 62.5q90 0 124.5 -61.5 t14.5 -143.5q-21 -80 -86.5 -142.5t-152.5 -62.5q-90 0 -126 62.5t-16 142.5zM1174 1628q21 81 86 143t153 62q90 0 125.5 -61.5t15.5 -143.5q-21 -81 -87 -143t-154 -62q-89 0 -124.5 62t-14.5 143z" />
<glyph unicode="&#xfd;" horiz-adv-x="1693" d="M-33 -383l94 383q145 -88 267 -88q58 0 105 24.5t89 92.5l-321 1261h485l133 -579l19 -224h4l129 224l391 579h483l-985 -1399q-231 -331 -567 -331q-193 0 -326 57zM768 1556l524 478l189 -252l-576 -408z" />
<glyph unicode="&#xfe;" d="M-96 -430l530 2150h443l-125 -510h4q71 45 169.5 72t184.5 27q136 0 238 -32t164.5 -90t93.5 -141t30.5 -183.5t-30.5 -219.5q-75 -310 -283 -486.5t-539 -176.5q-81 0 -167.5 22.5t-145.5 60.5h-4l-121 -493h-442zM592 637q-36 -151 12.5 -213t206.5 -62q156 0 237.5 64 t116.5 211q36 145 -13.5 213t-203.5 68q-155 0 -237 -66.5t-119 -214.5z" />
<glyph unicode="&#xff;" horiz-adv-x="1693" d="M-33 -383l94 383q145 -88 267 -88q58 0 105 24.5t89 92.5l-321 1261h485l133 -579l19 -224h4l129 224l391 579h483l-985 -1399q-231 -331 -567 -331q-193 0 -326 57zM637 1628q21 80 87.5 142.5t154.5 62.5q90 0 124.5 -61.5t14.5 -143.5q-20 -80 -86.5 -142.5 t-153.5 -62.5q-90 0 -125.5 62.5t-15.5 142.5zM1192 1628q19 80 85.5 142.5t154.5 62.5q90 0 125.5 -61.5t15.5 -143.5q-21 -80 -87.5 -142.5t-154.5 -62.5q-89 0 -124.5 62t-14.5 143z" />
<glyph unicode="&#x152;" horiz-adv-x="2467" d="M134.5 554q2.5 125 37.5 267q44 177 127 329.5t201 272t279.5 188t346.5 68.5q74 0 149.5 -26t115.5 -68l18 76h1186l-96 -391h-752l4 -39l-43 -164l-22 -43h673l-96 -389h-674l2 -41l-41 -164l-22 -41h751l-96 -391h-1186l21 82q-152 -100 -309 -100q-150 0 -262.5 42.5 t-180.5 118.5t-101 182t-30.5 231zM600 569q13 -100 66.5 -149t144.5 -49q141 0 247.5 113t162.5 337q54 230 4 348.5t-187 118.5q-138 0 -247 -118.5t-166 -348.5q-38 -152 -25 -252z" />
<glyph unicode="&#x153;" horiz-adv-x="2488" d="M84.5 433.5q-0.5 99.5 24.5 211.5q35 141 109 261t181 211t253.5 142.5t314.5 51.5q137 0 243 -49.5t174 -131.5q237 181 498 181q113 0 205 -24t157 -68t109.5 -105.5t64.5 -137t19 -161t-24 -178.5q-22 -87 -52 -154h-962l41 -41q69 -112 225 -112q90 0 169.5 26 t168.5 84l182 -252q-146 -106 -293 -157t-315 -51q-291 0 -436 176q-104 -82 -234.5 -129t-267.5 -47q-136 0 -242 33.5t-171.5 93.5t-103 143.5t-38 183zM532 645q-72 -299 197 -299q272 0 344 299q75 297 -196 297t-345 -297zM1491 825h537l-29 41q-23 53 -72 78t-131 25 q-152 0 -252 -103z" />
<glyph unicode="&#x178;" horiz-adv-x="2091" d="M297 1659h563l242 -463l53 -162h4l133 162l475 463h562l-1033 -983l-166 -676h-450l166 676zM930 2036q21 81 87 143t154 62q89 0 125 -62.5t15 -142.5q-20 -81 -86.5 -143t-153.5 -62q-90 0 -125.5 62.5t-15.5 142.5zM1485 2036q21 81 86 143t153 62q90 0 126 -62.5 t16 -142.5q-20 -81 -87 -143t-155 -62q-89 0 -124.5 62t-14.5 143z" />
<glyph unicode="&#x2c6;" horiz-adv-x="1507" d="M551 1593l559 439h4l346 -439l-217 -174l-225 230l-336 -230z" />
<glyph unicode="&#x2dc;" horiz-adv-x="1613" d="M504 1628q58 111 179.5 194t236.5 83q100 0 208 -78q51 -34 78 -47q48 -19 74 -19q67 0 115 34t92 114l133 -176q-68 -124 -183.5 -199.5t-228.5 -75.5q-92 0 -202 82q-8 5 -23.5 15t-28 17.5t-26.5 12.5q-42 17 -78 17q-55 0 -109.5 -40t-97.5 -118z" />
<glyph unicode="&#x2000;" horiz-adv-x="1222" />
<glyph unicode="&#x2001;" horiz-adv-x="2445" />
<glyph unicode="&#x2002;" horiz-adv-x="1222" />
<glyph unicode="&#x2003;" horiz-adv-x="2445" />
<glyph unicode="&#x2004;" horiz-adv-x="815" />
<glyph unicode="&#x2005;" horiz-adv-x="611" />
<glyph unicode="&#x2006;" horiz-adv-x="407" />
<glyph unicode="&#x2007;" horiz-adv-x="407" />
<glyph unicode="&#x2008;" horiz-adv-x="305" />
<glyph unicode="&#x2009;" horiz-adv-x="489" />
<glyph unicode="&#x200a;" horiz-adv-x="135" />
<glyph unicode="&#x2010;" horiz-adv-x="921" d="M43 500l92 372h801l-92 -372h-801z" />
<glyph unicode="&#x2011;" horiz-adv-x="921" d="M43 500l92 372h801l-92 -372h-801z" />
<glyph unicode="&#x2012;" horiz-adv-x="921" d="M43 500l92 372h801l-92 -372h-801z" />
<glyph unicode="&#x2013;" horiz-adv-x="1486" d="M43 500l92 372h1364l-92 -372h-1364z" />
<glyph unicode="&#x2014;" horiz-adv-x="2045" d="M43 500l92 372h1923l-92 -372h-1923z" />
<glyph unicode="&#x2018;" horiz-adv-x="569" d="M240 1180q14 62 61 127l281 391l147 -74l-145 -209l-62 -37q72 -11 98 -69.5t7 -128.5q-21 -88 -87 -144.5t-155 -56.5q-90 0 -128 56t-17 145z" />
<glyph unicode="&#x2019;" horiz-adv-x="569" d="M213 1034l145 209l62 37q-49 8 -77.5 39.5t-33 72.5t3.5 87q22 87 88.5 143.5t155.5 56.5q90 0 127.5 -56.5t15.5 -143.5q-15 -64 -59 -127l-283 -391z" />
<glyph unicode="&#x201a;" horiz-adv-x="569" d="M-109 -266l146 209l61 37q-72 11 -97.5 68.5t-6.5 129.5q21 87 87 144t155 57q90 0 128 -56.5t17 -144.5q-20 -71 -62 -127l-280 -391z" />
<glyph unicode="&#x201c;" horiz-adv-x="1038" d="M240 1180q14 62 61 127l281 391l147 -74l-145 -209l-62 -37q72 -11 98 -69.5t7 -128.5q-21 -88 -87 -144.5t-155 -56.5q-90 0 -128 56t-17 145zM709 1180q14 62 61 127l281 391l145 -74l-145 -209l-62 -37q49 -8 78 -39.5t33 -72.5t-4 -86q-22 -89 -88 -145t-156 -56 t-127.5 56t-15.5 145z" />
<glyph unicode="&#x201d;" horiz-adv-x="1038" d="M213 1034l145 209l62 37q-49 8 -77.5 39.5t-33 72.5t3.5 87q22 87 88.5 143.5t155.5 56.5q90 0 127.5 -56.5t15.5 -143.5q-15 -64 -59 -127l-283 -391zM680 1034l145 209l62 37q-72 11 -98 69t-7 130q22 87 88 143.5t156 56.5q89 0 127 -56.5t16 -143.5q-16 -67 -61 -127 l-281 -391z" />
<glyph unicode="&#x201e;" horiz-adv-x="1038" d="M-109 -266l146 209l61 37q-72 11 -97.5 68.5t-6.5 129.5q21 87 87 144t155 57q90 0 128 -56.5t17 -144.5q-20 -71 -62 -127l-280 -391zM360 -266l146 209l61 37q-49 8 -77.5 39t-32.5 72t4 87q22 88 88 144.5t156 56.5t127.5 -57t15.5 -144q-15 -65 -62 -127l-280 -391z " />
<glyph unicode="&#x2022;" horiz-adv-x="1019" d="M63 829q43 174 196.5 298t326.5 124q113 0 195.5 -57t114 -154t3.5 -211q-43 -175 -196 -299t-326 -124t-265.5 124t-48.5 299z" />
<glyph unicode="&#x2026;" horiz-adv-x="1910" d="M29 203q26 102 99 167.5t175 65.5t143 -65.5t15 -167.5q-26 -104 -99.5 -170t-175.5 -66t-141.5 66t-15.5 170zM637 203q26 102 99 167.5t175 65.5t143 -65.5t15 -167.5q-26 -104 -99 -170t-175 -66t-142 66t-16 170zM1245 203q26 102 99.5 167.5t175.5 65.5t142.5 -65.5 t14.5 -167.5q-26 -104 -99 -170t-175 -66t-142 66t-16 170z" />
<glyph unicode="&#x202f;" horiz-adv-x="489" />
<glyph unicode="&#x2039;" horiz-adv-x="1021" d="M98 522l678 543l191 -262l-275 -223l-94 -60l68 -55l161 -223l-319 -262z" />
<glyph unicode="&#x203a;" horiz-adv-x="1021" d="M29 242l274 223q51 30 94 55l-65 60l-164 223l319 262l410 -543l-678 -542z" />
<glyph unicode="&#x205f;" horiz-adv-x="611" />
<glyph unicode="&#x20ac;" horiz-adv-x="1576" d="M63 506l72 285h135l-26 22l8 33l37 22h-135l69 285h168l-14 41q136 223 346 354t455 131q199 0 313 -67.5t178 -214.5l-332 -269q-29 92 -82.5 132t-146.5 40q-174 0 -250 -106l-53 -41h403l-69 -285h-488l27 -20l-8 -33l-39 -24h489l-71 -285h-418l35 -39 q19 -50 70 -78.5t126 -28.5q163 0 324 175l209 -283q-155 -148 -302.5 -210t-336.5 -62q-250 0 -398.5 134t-167.5 351l39 41h-166z" />
<glyph unicode="&#x2122;" horiz-adv-x="1779" d="M248 1458l49 199h786l-49 -199h-299l6 -41l-145 -590h-221l147 590l25 41h-299zM944 825l205 832h184l131 -369l15 -131l80 131l323 369h174l-205 -832h-221l92 377l-57 -84l-260 -301h-19l-112 299l-17 82l-92 -373h-221z" />
<glyph unicode="&#x25fc;" horiz-adv-x="1290" d="M0 0v1290h1290v-1290h-1290z" />
<glyph unicode="&#xfb01;" horiz-adv-x="1822" d="M-391 -381l82 332q108 -64 258 -64q124 0 153 115l228 920l32 41h-217l82 327l215 -2l-12 41q101 410 635 410q166 0 272 -41l-80 -322q-70 37 -196 37q-167 0 -187 -84l-36 -39h1007l-317 -1290h-443l238 963l-565 -2l14 -39l-223 -902q-60 -243 -216 -351.5 t-442 -108.5q-170 0 -282 59zM1462 1565q25 98 106 163.5t181 65.5q101 0 149.5 -65.5t24.5 -163.5q-25 -97 -106 -162.5t-181 -65.5q-101 0 -149.5 65.5t-24.5 162.5z" />
<glyph unicode="&#xfb02;" horiz-adv-x="1800" d="M-391 -381l82 332q108 -64 258 -64q124 0 153 115l228 920l32 41h-217l82 327l215 -2l-12 41q27 110 84 187.5t141 121.5t182.5 63t223.5 19h870l-424 -1720h-442l348 1415q-276 -2 -352 -2q-167 0 -187 -84l-36 -39h399l-82 -327l-397 -2l14 -39l-223 -902 q-60 -243 -216 -351.5t-442 -108.5q-170 0 -282 59z" />
</font>
</defs>
</svg>
