<?xml version="1.0" standalone="no"?>
<!DOCTYPE svg PUBLIC "-//W3C//DTD SVG 1.1//EN" "http://www.w3.org/Graphics/SVG/1.1/DTD/svg11.dtd" >
<svg xmlns="http://www.w3.org/2000/svg">
<metadata></metadata>
<defs>
<font id="sinkin_sans700_bold_italic" horiz-adv-x="1560" >
<font-face units-per-em="2048" ascent="1659" descent="-389" />
<missing-glyph horiz-adv-x="628" />
<glyph horiz-adv-x="2048" />
<glyph horiz-adv-x="2048" />
<glyph horiz-adv-x="682" />
<glyph unicode="&#x9;" horiz-adv-x="2027" />
<glyph unicode="&#xa;" horiz-adv-x="2027" />
<glyph unicode="&#xd;" horiz-adv-x="2027" />
<glyph horiz-adv-x="2027" />
<glyph horiz-adv-x="2027" />
<glyph horiz-adv-x="2027" />
<glyph horiz-adv-x="2027" />
<glyph horiz-adv-x="2027" />
<glyph horiz-adv-x="2027" />
<glyph horiz-adv-x="2027" />
<glyph unicode=" "  horiz-adv-x="628" />
<glyph unicode="&#x09;" horiz-adv-x="628" />
<glyph unicode="&#xa0;" horiz-adv-x="628" />
<glyph unicode="!" horiz-adv-x="684" d="M57 182q24 93 86.5 148t151.5 55q90 0 125.5 -55t13.5 -148q-24 -93 -87 -147.5t-152 -54.5q-91 0 -126.5 54.5t-11.5 147.5zM184 473l228 1186h395l-358 -1186h-265z" />
<glyph unicode="&#x22;" horiz-adv-x="987" d="M281 1057l112 663h316l-215 -663h-213zM731 1057l113 663h315l-215 -663h-213z" />
<glyph unicode="#" horiz-adv-x="1619" d="M4 0l186 367l35 32l-209 -2l68 269h276l-2 30l138 267l32 32l-209 -2l68 269h277l-2 30l188 367h283l-189 -369l-31 -28h359v32l186 365h283l-187 -367l-32 -30h207l-66 -269l-279 2l2 -32l-135 -265l-32 -32h206l-65 -269l-279 2v-32l-184 -367h-285l187 369l35 30h-361 v-32l-184 -367h-285zM608 666h361v30l133 267l35 32h-363l2 -32l-135 -267z" />
<glyph unicode="$" horiz-adv-x="1624" d="M31 252l293 225q135 -160 290 -190l-6 37l72 286l27 31q-5 1 -23.5 5.5t-24.5 6.5q-49 14 -88.5 27.5t-80.5 31t-72 37.5t-59 44.5t-46 53.5t-28.5 63.5t-10 76t12.5 88.5q41 170 211 295t424 152l-11 30l43 166h306l-41 -168l-27 -34q141 -22 242.5 -85t191.5 -188 l-295 -231q-50 76 -101 119.5t-118 66.5l8 -41l-57 -239l-27 -27q18 -6 62 -17q214 -56 301.5 -171t48.5 -273q-44 -175 -212 -305t-425 -154l10 -30l-41 -166h-307l41 168l27 30q-325 43 -510 279zM637 1087q-8 -37 26 -69t121 -55l-8 34l43 181l29 36q-87 -8 -144.5 -48.5 t-66.5 -78.5zM889 279q97 17 149.5 54.5t61.5 78.5q11 43 -20.5 85t-121.5 72l9 -39l-54 -217z" />
<glyph unicode="%" horiz-adv-x="2029" d="M196 1060.5q2 68.5 21 145.5q23 96 69 180t111.5 150.5t154 105.5t187.5 39q100 0 170 -39t101 -104.5t37.5 -151.5t-19.5 -180q-23 -97 -68 -180t-109.5 -148t-153.5 -102t-191 -37q-81 0 -142 24.5t-97.5 67.5t-54.5 102t-16 127.5zM438 -20l1018 1699h262l-1018 -1699 h-262zM480 1035.5q21 -48.5 87 -48.5q67 0 114.5 50t76.5 169q29 124 9 176t-89 52q-66 0 -114 -53.5t-79 -174.5q-26 -122 -5 -170.5zM1105 299q2 68 21 145q23 96 69.5 181t111.5 151.5t153.5 105t188.5 38.5q101 0 171 -39t100.5 -104.5t36.5 -152t-20 -180.5 q-49 -201 -185 -332.5t-335 -131.5q-82 0 -143.5 24t-98 66.5t-54.5 101.5t-16 127zM1397 444q-56 -217 80 -217q67 0 114 49.5t76 167.5q29 124 9 177t-89 53q-66 0 -113 -53.5t-77 -176.5z" />
<glyph unicode="&#x26;" horiz-adv-x="1738" d="M84 461q36 148 162 263t327 210q-16 6 -18 8q-30 34 -41 62q-6 13 -20 51q-28 98 -7 188q44 180 213 306t361 126q195 0 302.5 -125t63.5 -305q-36 -144 -137 -240.5t-270 -175.5l31 -14l155 -231l8 -47l3 2q5 12 15.5 53.5t12.5 54.5h342l-20 -84q-18 -69 -66 -149.5 t-110 -139.5l28 -8l178 -268h-421l-41 63l6 35q0 -2 -4 -2q-209 -119 -492 -119q-139 0 -253.5 30.5t-194.5 89.5t-111.5 153t-1.5 213zM434 461q-20 -80 50 -128.5t237 -49.5q168 0 262 51l-39 14l-221 328l2 35l-74 -41q-60 -31 -102 -62q-97 -67 -115 -147zM815 1239 q-8 -41 19 -96q1 -2 15 -24.5t21 -33.5l-4 -34q110 45 162.5 88t67.5 102q12 52 -19 88.5t-90 36.5t-108.5 -37t-63.5 -90z" />
<glyph unicode="'" horiz-adv-x="536" d="M281 1057l112 663h316l-215 -663h-213z" />
<glyph unicode="(" horiz-adv-x="716" d="M55.5 177q-7.5 271 65.5 556q70 290 214 564.5t374 560.5h303q-213 -287 -344 -553t-201 -545q-49 -199 -67.5 -383.5t-5 -380.5t64.5 -387h-305q-91 297 -98.5 568z" />
<glyph unicode=")" horiz-adv-x="716" d="M-219 -391q216 283 350.5 566t208.5 585q68 279 68.5 541.5t-70.5 556.5h303q89 -285 97.5 -560t-62.5 -565q-71 -289 -211.5 -557.5t-378.5 -566.5h-305z" />
<glyph unicode="*" horiz-adv-x="1181" d="M276 1051l5 206l288 50l-188 163l172 166l164 -188l53 283h211l-86 -285l256 190l90 -166l-270 -165l268 -50l-98 -204l-252 77l74 -249l-213 -93l-43 263l-172 -263l-168 93l198 247z" />
<glyph unicode="+" horiz-adv-x="1439" d="M209 682l72 295h411l-10 33l100 403h289l-100 -403l-27 -33h412l-72 -295h-412l11 -33l-101 -403h-288l100 403l27 33h-412z" />
<glyph unicode="," horiz-adv-x="641" d="M-98 -319l174 262l59 41q-74 6 -101.5 61.5t-6.5 138.5q22 94 84.5 150.5t152.5 56.5q91 0 126 -56.5t11 -150.5q-13 -58 -61 -129l-295 -444z" />
<glyph unicode="-" horiz-adv-x="862" d="M51 541l74 293h739l-71 -293h-742z" />
<glyph unicode="." horiz-adv-x="638" d="M27 186q22 94 84.5 150.5t152.5 56.5q91 0 126 -56.5t11 -150.5q-22 -93 -85.5 -149.5t-153.5 -56.5t-124.5 56.5t-10.5 149.5z" />
<glyph unicode="/" horiz-adv-x="624" d="M-309 -102l1065 1863h303l-1063 -1863h-305z" />
<glyph unicode="0" horiz-adv-x="1683" d="M133.5 547q2.5 127 38.5 272q45 182 131 337.5t205 272.5t275 183.5t331 66.5q142 0 250.5 -43t175 -120.5t100 -185t31 -236.5t-38.5 -275q-45 -182 -128.5 -334t-201 -265.5t-273.5 -176.5t-335 -63q-143 0 -252 41t-176.5 115.5t-101 179t-31 231.5zM489 536.5 q9 -117.5 79.5 -181.5t201.5 -64q383 0 514 528q136 549 -246 549q-192 0 -323.5 -145t-194.5 -404q-40 -165 -31 -282.5z" />
<glyph unicode="1" horiz-adv-x="972" d="M199 1217l553 442h284l-409 -1659h-344l258 1049l59 168h-4l-127 -134l-111 -90z" />
<glyph unicode="2" horiz-adv-x="1531" d="M-27 0l78 334q46 197 198 346.5t406 224.5l240 72q169 50 241.5 101t88.5 116q17 74 -38 125t-198 51q-125 0 -241 -51.5t-250 -173.5l-183 237q185 156 363.5 226.5t376.5 70.5q106 0 194 -18.5t148 -51.5t103.5 -79t62 -100t23.5 -114.5t-13 -123.5 q-45 -177 -190 -302.5t-406 -203.5l-283 -84q-127 -37 -197.5 -101.5t-97.5 -158.5l-41 -33h994l-76 -309h-1303z" />
<glyph unicode="3" horiz-adv-x="1597" d="M37 270l293 234q78 -112 173 -163.5t226 -51.5q156 0 261.5 63t127.5 148q22 90 -41 147t-221 64l-295 8l72 293q236 4 289 8q292 23 338 186q17 71 -45 117.5t-220 46.5q-255 0 -487 -199l-180 236q175 139 356 205.5t387 66.5q110 0 200.5 -17t153 -47.5t108 -72.5 t66 -93.5t26 -109.5t-12.5 -120q-27 -109 -120 -205t-212 -142l-2 -4q111 -30 166 -135.5t22 -240.5q-19 -79 -62 -152t-114 -139t-161.5 -114.5t-213.5 -77.5t-262 -29q-212 0 -356 68t-260 222z" />
<glyph unicode="4" horiz-adv-x="1611" d="M27 356l57 232l1233 1071h268l-235 -959l-27 -34h229l-75 -310h-230l8 -34l-79 -322h-345l80 324l25 32h-909zM571 666h443l-10 34l75 308l43 143h-4l-123 -129l-272 -242l-152 -110v-4z" />
<glyph unicode="5" horiz-adv-x="1605" d="M41 291l295 233q75 -131 161.5 -184t215.5 -53q97 0 175.5 24.5t128.5 65.5t80.5 87.5t43.5 98.5q8 41 8 80.5t-18.5 76t-49.5 64t-85.5 44t-125.5 16.5q-134 0 -248 -46t-239 -153l-160 209l301 805h1121l-78 -309h-852l20 -33l-57 -146l-53 -90l4 -2q136 74 319 74 q96 0 178.5 -16.5t144 -46t108.5 -71.5t76 -93t43 -110t12 -122.5t-19 -130.5q-23 -92 -70 -177t-122 -160t-170.5 -130t-221.5 -87t-268 -32q-221 0 -359 71.5t-239 242.5z" />
<glyph unicode="6" horiz-adv-x="1667" d="M129 547q4 128 43 274q69 260 217.5 456t345 299t414.5 103q196 0 328 -57t219 -178l-295 -240q-58 87 -138 126.5t-190 39.5q-156 0 -282.5 -89.5t-204.5 -256.5h4q89 59 200 94t216 35q112 0 205 -22t158 -61.5t112 -94t67.5 -120t23.5 -140t-20 -152.5 q-24 -90 -73 -174t-125.5 -159.5t-172 -131.5t-221 -88.5t-264.5 -32.5q-147 0 -258 41t-179 116t-101 180t-29 233zM488 499.5q2 -31.5 10.5 -62t32 -58t55.5 -48t81 -32.5t109 -12q85 0 161.5 25.5t130 66.5t89.5 89.5t49 96.5q7 37 7 75t-19.5 74.5t-51 65.5t-87.5 46.5 t-129 17.5q-86 0 -163.5 -26.5t-130.5 -69t-88.5 -91t-47.5 -96.5q-10 -30 -8 -61.5z" />
<glyph unicode="7" horiz-adv-x="1490" d="M252 1348l76 311h1370l-62 -244l-600 -559q-214 -198 -293 -522l-81 -334h-347l86 344q54 217 147.5 378t254.5 314l194 185l160 122v5h-905z" />
<glyph unicode="8" horiz-adv-x="1677" d="M92 500q31 125 139.5 228.5t243.5 156.5v4q-84 39 -130 123t-19 194q23 97 84.5 181t157 150t234.5 104t304 38q111 0 203.5 -17.5t157 -49t112 -75t69 -96t27.5 -112t-12 -123.5q-26 -106 -115.5 -190.5t-197.5 -126.5l-2 -4q109 -38 170 -144.5t28 -240.5 q-19 -79 -67 -154t-124.5 -141.5t-174 -116.5t-224 -79t-264.5 -29q-173 0 -303 44.5t-200.5 118.5t-95.5 166t-1 191zM444 453.5q5 -26.5 25.5 -56.5t56 -53.5t98.5 -39t144 -15.5q100 0 183 23.5t132.5 58.5t77.5 69.5t35 63.5q10 38 -3.5 76t-49 71.5t-105.5 54.5 t-164 21q-93 0 -172.5 -21t-131.5 -54t-84 -71.5t-42 -76.5q-5 -24 0 -50.5zM672 1166.5q-1 -15.5 7 -32.5t19 -34t33.5 -32.5t50.5 -27.5t70.5 -19t93.5 -7q86 0 157.5 20t113 50t64.5 58.5t28 51.5q7 15 4 34t-8.5 38.5t-26 37.5t-49.5 32.5t-79 23t-114 8.5 q-76 0 -138.5 -12.5t-101 -31.5t-66 -43.5t-39.5 -45.5t-17 -41q-1 -12 -2 -27.5z" />
<glyph unicode="9" horiz-adv-x="1667" d="M90 215l297 240q57 -89 139 -128.5t195 -39.5q155 0 281.5 89.5t205.5 256.5h-4q-90 -57 -202.5 -92t-215.5 -35q-112 0 -205 22t-158.5 61t-112.5 93.5t-67.5 120t-23 139.5t20.5 152q24 90 72.5 174t125 159t172 131t220.5 88.5t264 32.5q147 0 258.5 -41t179.5 -116 t101 -180t29 -232t-42 -274q-69 -260 -216.5 -456t-343.5 -299.5t-413 -103.5q-197 0 -332.5 57.5t-224.5 180.5zM579 1017.5q0 -38.5 19.5 -74.5t51 -64.5t87.5 -46t129 -17.5q86 0 163 26.5t130.5 69t88.5 90.5t48 95q10 30 8 61.5t-10.5 62t-32 58t-55.5 48t-81 32.5 t-109 12q-166 0 -284 -86.5t-146 -191.5q-7 -36 -7 -74.5z" />
<glyph unicode=":" horiz-adv-x="659" d="M45 186q24 94 87 150.5t153 56.5q91 0 126 -56.5t11 -150.5q-22 -93 -86 -149.5t-154 -56.5t-124.5 56t-12.5 150zM260 1057q24 94 87 150.5t153 56.5q91 0 126 -56.5t11 -150.5q-22 -93 -86 -150t-154 -57t-124.5 56.5t-12.5 150.5z" />
<glyph unicode=";" horiz-adv-x="661" d="M-78 -319l174 262l60 41q-74 6 -102 62t-7 138q22 93 85 150t153 57q91 0 126 -56.5t11 -150.5q-12 -55 -62 -129l-294 -444zM262 1057q22 93 85 150t153 57q91 0 126 -56.5t11 -150.5q-22 -93 -86 -150t-154 -57t-124.5 57t-10.5 150z" />
<glyph unicode="&#x3c;" horiz-adv-x="1136" d="M172 823l797 662l157 -213l-413 -344l-144 -99l52 -53l71 -84l217 -297l-262 -213z" />
<glyph unicode="=" horiz-adv-x="1429" d="M147 436l72 291h1065l-72 -291h-1065zM270 932l72 293h1065l-72 -293h-1065z" />
<glyph unicode="&#x3e;" horiz-adv-x="1136" d="M137 395l412 336l145 96l-51 56l-72 84l-217 305l264 213l469 -662l-792 -641z" />
<glyph unicode="?" horiz-adv-x="1458" d="M315 1399q171 143 344.5 211.5t366.5 68.5q159 0 279.5 -54t177.5 -158t24 -238q-20 -81 -64 -147.5t-107.5 -116t-131.5 -85t-153 -67.5q-4 -4 -35.5 -13.5t-34.5 -13.5q-90 -33 -128.5 -79t-64.5 -150l-20 -84h-334l27 107q50 202 159.5 312t305.5 179q3 3 25 8.5 t24 7.5q85 29 127.5 61t54.5 81q15 62 -49.5 105.5t-157.5 43.5q-121 0 -227 -49.5t-215 -157.5zM342 182q24 93 86.5 148t151.5 55q91 0 127 -55t12 -148t-87 -147.5t-153 -54.5q-89 0 -124 54.5t-13 147.5z" />
<glyph unicode="@" horiz-adv-x="2007" d="M183 559q-8 138 28 297q44 178 157 340.5t262.5 279.5t329 186t353.5 69q133 0 250 -41t201.5 -115t139.5 -177t65.5 -226.5t-21.5 -264.5q-20 -79 -60 -161t-100.5 -159t-131.5 -137t-160 -96.5t-181 -36.5q-70 0 -120.5 32.5t-74.5 86.5h-4q-76 -58 -166 -89.5 t-172 -31.5q-75 0 -131.5 24t-88.5 65t-48 95.5t-15 114t17 123.5q26 103 89.5 205.5t150.5 184.5t201 133t229 51q58 0 109.5 -23t70.5 -57h2l31 59h247l-272 -534q-34 -67 -55 -142q-8 -36 11 -60t58 -24q63 0 121.5 34t101 89.5t73 119.5t46.5 130q41 168 -5 313 t-166.5 231.5t-286.5 86.5q-181 0 -359 -92.5t-307.5 -250.5t-173.5 -341q-48 -194 -0.5 -355.5t180 -255.5t322.5 -94q188 0 411 131l113 -143q-296 -186 -563 -186q-152 0 -280.5 44t-218 124t-145.5 193t-64 251zM772 764q-54 -225 98 -225q112 0 207.5 110t130.5 252 q14 58 13.5 102t-27.5 69.5t-80 25.5q-72 0 -146.5 -53.5t-125.5 -129.5t-70 -151z" />
<glyph unicode="A" horiz-adv-x="1945" d="M-111 0l1201 1659h303l379 -1659h-375l-84 365l26 30h-823l12 -30l-262 -365h-377zM743 686h514l-26 33l-80 360l-14 152l-4 -2l-89 -150l-258 -360z" />
<glyph unicode="B" horiz-adv-x="1746" d="M41 0l410 1659h827q93 0 170.5 -17.5t131.5 -49.5t93 -76.5t56 -97.5q17 -54 21 -114q1 -10 0 -19q0 -51 -15 -105q-54 -213 -234 -316l2 -2q94 -36 131 -132q20 -50 20 -111q0 -54 -16 -117q-59 -235 -258.5 -368.5t-492.5 -133.5h-846zM428 311h537q106 0 175 26 t100.5 66.5t47.5 102.5q8 30 8 56q0 55 -35 91q-51 54 -202 54h-533l25 -33l-82 -330zM598 997h496q72 0 125.5 14t85 40.5t49.5 56t28 68.5q6 26 6 49q0 49 -30 79q-44 44 -176 44h-496l25 -33l-72 -287z" />
<glyph unicode="C" horiz-adv-x="1742" d="M139 584q2 110 33 235q46 186 143.5 343t236 272t322.5 179t392 64q220 0 371 -71.5t243 -219.5l-295 -239q-107 221 -395 221q-137 0 -251 -41t-195 -116t-136.5 -173t-85.5 -219q-22 -95 -24 -173v-9q0 -73 22 -136q24 -67 73.5 -113.5t132.5 -72.5t196 -26 q291 0 510 219l176 -234q-342 -297 -764 -297q-142 0 -258 28t-199.5 80t-140.5 127q-56 74 -82 168q-25 87 -25 189v15z" />
<glyph unicode="D" horiz-adv-x="1820" d="M41 0l410 1659h696q666 0 666 -532q0 -132 -41 -298q-202 -829 -1024 -829h-707zM430 311h373q124 0 220 26t159.5 69t111 112.5t75.5 141t52 169.5q17 68 25.5 122t8.5 109.5t-13 97t-42 78.5t-75 61t-115.5 37.5t-160.5 13.5h-363l25 -33l-242 -971z" />
<glyph unicode="E" horiz-adv-x="1683" d="M41 0l410 1659h1357l-75 -311h-1047l25 -33l-74 -297l-41 -33h948l-76 -311h-950l25 -33l-74 -297l-39 -33h1047l-78 -311h-1358z" />
<glyph unicode="F" d="M41 0l410 1659h1316l-75 -311h-1006l25 -31l-84 -336l-41 -33l905 -2l-76 -309h-905l25 -33l-150 -604h-344z" />
<glyph unicode="G" horiz-adv-x="1945" d="M144 470q-7 49 -7 102q0 113 33 243q98 393 393 628.5t709 235.5q205 0 365.5 -64t250.5 -192l-297 -241q-114 188 -395 188q-271 0 -439.5 -143t-234.5 -412q-26 -102 -26 -185q0 -126 58 -206q97 -135 364 -135q187 0 335 99t203 255l41 33h-567l76 309h860l-244 -987 h-299l39 158q-93 -78 -237 -127t-285 -49q-206 0 -356.5 59t-233.5 168t-106 263z" />
<glyph unicode="H" horiz-adv-x="1865" d="M41 0l410 1659h344l-158 -641l-41 -33h877l-25 33l158 641h344l-410 -1659h-344l158 641l41 33h-875l23 -33l-158 -641h-344z" />
<glyph unicode="I" horiz-adv-x="729" d="M51 0l410 1659h344l-410 -1659h-344z" />
<glyph unicode="J" horiz-adv-x="1394" d="M-80 254l293 235q41 -92 117 -145t162 -53q64 0 121 15.5t112.5 51t98 101.5t65.5 157l256 1043h344l-254 -1032q-35 -139 -98.5 -250.5t-143 -184.5t-177 -121.5t-197 -69.5t-205.5 -21q-339 0 -494 274z" />
<glyph unicode="K" horiz-adv-x="1812" d="M41 0l410 1659h344l-410 -1659h-344zM610 838l963 819h481l-999 -821q2 0 2 -5q21 -22 174 -229.5t295 -404.5l143 -197h-481z" />
<glyph unicode="L" horiz-adv-x="1476" d="M41 0l410 1659h344l-326 -1317l-39 -31h950l-75 -311h-1264z" />
<glyph unicode="M" horiz-adv-x="2127" d="M41 -2l410 1661h284l297 -920l29 -174h4l111 174l755 920h283l-410 -1661h-346l236 954h-4l-117 -176l-653 -799h-7l-260 799l-28 174h-4l-236 -952h-344z" />
<glyph unicode="N" horiz-adv-x="1865" d="M41 0l410 1659h288l523 -914l67 -188h4l273 1102h344l-410 -1659h-289l-516 913l-73 195h-3l-274 -1108h-344z" />
<glyph unicode="O" horiz-adv-x="1914" d="M138 585q3 110 34 234q46 186 139.5 343t226.5 272.5t310.5 180t380.5 64.5q137 0 248.5 -29.5t190.5 -84t132 -131.5q54 -76 78 -172q20 -83 20 -179v-29q-4 -112 -34 -235q-46 -186 -140.5 -339.5t-227.5 -265t-309 -173t-378 -61.5q-136 0 -247.5 28t-191 80 t-133 126.5t-77.5 167.5q-22 83 -22 179v24zM498 606q7 -97 47 -167t127 -109t215 -39q254 0 409 141.5t217 386.5q23 95 25 177q0 9 1 17q0 71 -19 133q-21 70 -66 118.5t-121.5 76t-179.5 27.5q-128 0 -234.5 -40.5t-183 -115t-129.5 -173t-84 -220.5q-25 -95 -25 -177 q0 -18 1 -36z" />
<glyph unicode="P" horiz-adv-x="1718" d="M41 0l410 1659h825q190 0 314 -69q124 -68 167 -190q23 -64 22 -138q0 -67 -18 -142q-29 -114 -95.5 -212.5t-162.5 -171.5t-224 -114.5t-271 -41.5h-512l24 -31l-135 -549h-344zM573 891h512q138 0 218 61.5t106 167.5q10 40 10 73q0 155 -219 155h-514l25 -31l-99 -393 z" />
<glyph unicode="Q" horiz-adv-x="1914" d="M138 584q3 109 34 233q46 186 139.5 343t226.5 273t310.5 181t380.5 65q137 0 248.5 -29.5t190.5 -84t132.5 -131.5t77.5 -173q20 -84 20 -179v-29q-4 -112 -34 -236q-90 -360 -340 -579l164 -224l-258 -211l-191 258q-199 -81 -430 -81q-136 0 -247.5 27.5t-191 79.5 t-133 126t-77.5 167q-22 84 -22 180v24zM497 643v-13q0 -72 20 -133q22 -66 68 -112.5t122.5 -72t179.5 -25.5q101 0 145 12l31 -2l-141 190l260 209l174 -231l10 43q98 121 145 309q24 95 27 177v20q0 71 -18 132q-21 69 -66 118t-121.5 76.5t-179.5 27.5q-251 0 -410 -149 t-221 -402q-23 -94 -25 -174z" />
<glyph unicode="R" horiz-adv-x="1794" d="M41 0l410 1659h794q125 0 228 -31t177 -95q75 -63 100 -161q11 -44 11 -96q0 -62 -16 -135q-31 -127 -140 -238.5t-239 -165.5v-4q39 -20 73 -65t50 -107l151 -561h-385l-116 438q-27 99 -96 143t-209 44h-326l24 -31l-147 -594h-344zM580 922h460q150 0 240.5 60.5 t112.5 150.5q8 33 8 61q1 62 -39 99q-58 55 -193 55h-483l25 -31l-90 -363z" />
<glyph unicode="S" horiz-adv-x="1714" d="M27 272l299 242q191 -225 497 -225q189 0 291 50.5t121 127.5q5 22 -1 44.5t-26 48.5t-68.5 51t-119.5 44q-95 22 -285 76q-49 14 -90 27t-84 30t-77.5 35t-67 41.5t-56 48.5t-42 56t-26.5 65q-8 33 -9 72q0 44 12 92q34 134 141 241.5t289 173.5t408 66q442 0 647 -284 l-301 -242q-61 100 -172.5 158.5t-251.5 58.5q-186 0 -288.5 -48.5t-117.5 -115.5q-3 -10 -3 -19q0 -41 52 -72q62 -38 248 -89q166 -50 248 -68q238 -62 336 -188q70 -89 69 -201q0 -46 -12 -96q-19 -78 -63.5 -149.5t-118 -134.5t-169 -109t-225 -73t-278.5 -27 q-225 0 -408 72.5t-298 219.5z" />
<glyph unicode="T" d="M231 1348l76 311h1481l-76 -311h-586l11 -33l-326 -1315h-344l324 1315l26 33h-586z" />
<glyph unicode="U" horiz-adv-x="1890" d="M219 764l221 895h344l-219 -893q-28 -112 -28 -197q-1 -99 37 -161q70 -116 300 -117q228 0 357.5 117t187.5 358l221 893h345l-222 -895q-92 -379 -334.5 -581.5t-629.5 -202.5t-531 202q-87 122 -86 309q0 122 37 273z" />
<glyph unicode="V" horiz-adv-x="1855" d="M297 1659h383l201 -1065l10 -166h4l92 166l727 1065h379l-1155 -1659h-305z" />
<glyph unicode="W" horiz-adv-x="2310" d="M317 1659h367l27 -971l-9 -176h5l75 176l512 971h258l33 -971l-8 -172h4l74 172l512 971h360l-889 -1659h-368l-27 807l12 184h-4l-80 -184l-426 -807h-358z" />
<glyph unicode="X" horiz-adv-x="1816" d="M-100 0l856 829l-449 830h436l236 -440l51 -144h4l121 144l455 440h430l-852 -828l446 -831h-436l-233 442l-52 148h-4l-125 -148l-452 -442h-432z" />
<glyph unicode="Y" horiz-adv-x="1882" d="M297 1659h432l252 -522l55 -164h4l138 164l512 522h430l-977 -975l-170 -684h-346l168 684z" />
<glyph unicode="Z" horiz-adv-x="1742" d="M-20 0l61 246l1092 958l194 139l2 5h-995l76 311h1470l-61 -244l-1092 -962l-184 -138v-4h1013l-75 -311h-1501z" />
<glyph unicode="[" horiz-adv-x="677" d="M-117 -389l555 2247h516l-69 -277h-226l-417 -1694h225l-68 -276h-516z" />
<glyph unicode="\" horiz-adv-x="786" d="M231 1761h306l143 -1863h-303z" />
<glyph unicode="]" horiz-adv-x="679" d="M-197 -389l68 276h227l418 1694h-227l67 277h518l-555 -2247h-516z" />
<glyph unicode="^" horiz-adv-x="1544" d="M219 850l705 809h233l303 -809h-366l-121 342l-19 106h-4l-73 -106l-289 -342h-369z" />
<glyph unicode="_" horiz-adv-x="1394" d="M-260 -399l65 266h1436l-65 -266h-1436z" />
<glyph unicode="`" horiz-adv-x="1511" d="M752 1804l245 197l267 -442l-166 -136z" />
<glyph unicode="a" horiz-adv-x="1603" d="M91 427q2 100 28 216q36 146 105 266.5t168 211t234.5 140.5t293.5 50q107 0 194.5 -32.5t130.5 -88.5h4l25 100h338l-318 -1292h-340l25 94h-4q-71 -53 -172 -82.5t-213 -29.5q-125 0 -221.5 32t-155.5 91t-91 141q-31 78 -31 171v12zM457 643q-20 -79 -20 -141 q0 -228 265 -228q339 0 428 369q20 81 20 144q0 229 -263 229q-340 0 -430 -373z" />
<glyph unicode="b" horiz-adv-x="1603" d="M25 -2l426 1722h337l-131 -530h5q69 56 173 88.5t212 32.5q127 0 223.5 -32.5t156.5 -92.5q61 -58 91 -142q30 -82 29 -181q0 -102 -29 -220q-36 -145 -105.5 -265.5t-169 -209.5t-234 -138.5t-290.5 -49.5q-112 0 -197.5 29.5t-130.5 82.5h-4l-25 -94h-337zM506 643 q-19 -77 -19 -139q0 -230 265 -230q339 0 428 369q20 80 20 143q0 230 -266 230q-335 0 -428 -373z" />
<glyph unicode="c" horiz-adv-x="1376" d="M92 461q2 84 25 176q35 141 111 263t184.5 213.5t253 144.5t305.5 53q324 0 477 -203l-279 -225q-48 69 -112 101t-158 32q-168 0 -285.5 -106t-158.5 -275q-17 -62 -17 -116q0 -14 2 -28q6 -66 33 -115t88 -76.5t150 -27.5q93 0 176 34t174 106l166 -224 q-272 -208 -588 -208q-114 0 -205.5 23t-155.5 65.5t-107 102t-61 133.5q-17 68 -18 144v13z" />
<glyph unicode="d" horiz-adv-x="1603" d="M91 427q2 100 28 216q36 146 105 266.5t168 211t234.5 140.5t293.5 50q107 0 194.5 -32.5t130.5 -88.5h4l131 530h338l-424 -1722h-340l25 94h-4q-71 -53 -172 -82.5t-213 -29.5q-125 0 -221.5 32t-155.5 91t-91 141q-31 78 -31 171v12zM457 643q-20 -79 -20 -141 q0 -228 265 -228q339 0 428 369q20 81 20 144q0 229 -263 229q-340 0 -430 -373z" />
<glyph unicode="e" d="M93 459q1 84 24 176q35 145 112 269t185 214.5t251 141.5t302 51q112 0 202 -24t153 -67.5t105 -105.5q41 -60 59 -136q15 -66 16 -141v-21q-2 -86 -27 -181q-15 -61 -39 -123h-1020l24 -33q11 -100 84.5 -158.5t200.5 -58.5q185 0 365 123l153 -209q-274 -196 -588 -196 q-116 0 -210 23t-160 65.5t-110 101.5q-43 59 -63 132q-19 69 -19 149v8zM487 786h695l-25 33q-22 211 -260 211q-237 0 -369 -211z" />
<glyph unicode="f" horiz-adv-x="989" d="M-397 -385l69 287q120 -60 236 -60q80 0 124.5 40.5t69.5 137.5l238 965l22 31h-198l67 272h201l-8 33q47 189 203 300.5t370 111.5q148 0 232 -35l-68 -275q-81 35 -184 35q-181 0 -213 -137l-27 -33h391l-67 -272h-391l8 -33l-244 -983q-54 -221 -195 -330.5 t-376 -109.5q-85 0 -141.5 12t-118.5 43z" />
<glyph unicode="g" horiz-adv-x="1603" d="M-33 -254l283 229q149 -122 352 -122q153 0 252.5 72.5t130.5 201.5l10 37h-4q-72 -45 -166.5 -71.5t-189.5 -26.5q-129 0 -229 29.5t-163.5 84t-100 131t-37.5 171.5v7q0 92 24 199q32 129 102.5 241t172.5 197.5t240.5 135t295.5 49.5q92 0 180 -31t129 -78h4l21 88 h340l-285 -1151q-70 -278 -274.5 -428.5t-524.5 -150.5q-175 0 -309.5 44.5t-253.5 141.5zM467 684q-14 -55 -14 -102q0 -81 42 -136q66 -86 230 -86q175 0 276.5 86.5t139.5 237.5q14 57 14 106q0 81 -39 138q-64 90 -229 90q-167 0 -275 -91.5t-145 -242.5z" />
<glyph unicode="h" horiz-adv-x="1597" d="M25 0l426 1720h337l-131 -526h5q74 53 180 84t205 31q276 0 391 -141q76 -94 76 -229q0 -68 -19 -148l-197 -791h-337l184 754q11 47 15 82q1 10 1 20q0 25 -6 50q-9 35 -33.5 57t-72.5 35.5t-119 13.5q-142 0 -246.5 -72.5t-136.5 -200.5l-182 -739h-340z" />
<glyph unicode="i" horiz-adv-x="673" d="M25 0l319 1290h338l-317 -1290h-340zM399 1565q21 81 85 134.5t145 53.5q81 1 119 -53q24 -34 24 -80q0 -26 -8 -55q-21 -81 -84.5 -135t-142.5 -54q-81 0 -119 54q-25 36 -26 83q0 25 7 52z" />
<glyph unicode="j" horiz-adv-x="681" d="M-354 -389l71 291q85 -52 179 -52q47 0 82 28t47 79l329 1333h338l-332 -1343q-49 -195 -175.5 -291t-319.5 -96q-103 0 -219 51zM410 1565q21 81 84 134.5t143 53.5q81 0 119 -54q25 -35 25 -82q0 -24 -7 -52q-20 -80 -85 -134.5t-144 -54.5q-81 0 -119 54 q-24 35 -24 80q0 26 8 55z" />
<glyph unicode="k" horiz-adv-x="1568" d="M25 0l426 1720h337l-423 -1720h-340zM547 655l756 635h419l-770 -631l-2 -4l475 -655h-432z" />
<glyph unicode="l" horiz-adv-x="673" d="M25 0l426 1720h337l-423 -1720h-340z" />
<glyph unicode="m" horiz-adv-x="2158" d="M25 0l319 1292h340l-22 -92h4q67 51 154 81t165 30q107 0 183.5 -51t105.5 -132h4q82 81 193.5 132t218.5 51q246 1 334 -145q50 -83 49 -207q0 -91 -27 -205l-186 -754h-340l174 711q30 110 30 178q0 33 -7 57q-22 70 -134 70q-105 0 -180.5 -70t-102.5 -182l-188 -764 h-340l186 756q22 82 22 137q0 37 -10 62q-25 61 -132 61q-98 0 -177 -69.5t-108 -184.5l-188 -762h-340z" />
<glyph unicode="n" horiz-adv-x="1597" d="M25 0l319 1292h338l-27 -112h4q82 60 189.5 95.5t212.5 35.5q259 1 377 -135q79 -90 79 -228q0 -68 -20 -147l-199 -801h-337l188 768q16 65 16 114q0 10 -1 20q-4 55 -59.5 84.5t-172.5 29.5q-144 0 -247.5 -68.5t-133.5 -193.5l-186 -754h-340z" />
<glyph unicode="o" d="M94 466q2 86 25 179q35 142 107.5 262.5t177.5 211t248 141.5t309 51q112 0 202.5 -23t154.5 -66t107 -102.5t61 -133.5q17 -67 17 -144v-16q-2 -86 -26 -181q-35 -141 -108 -261.5t-178.5 -211t-249 -141.5t-308.5 -51q-111 0 -201.5 23t-154 66t-105.5 103 q-44 60 -62 134q-17 67 -16 143v17zM457 645q-17 -71 -17 -130q0 -84 36 -143q60 -100 231 -100q172 0 280.5 99.5t151.5 273.5q18 72 18 131q1 83 -35 141q-60 99 -233 99t-281 -98.5t-151 -272.5z" />
<glyph unicode="p" horiz-adv-x="1603" d="M-82 -432l426 1722h338l-23 -94h5q71 53 172 83t213 30q125 0 221 -32.5t155 -91t92 -141.5q31 -77 31 -171v-11q-2 -101 -28 -217q-36 -145 -105 -266t-168.5 -211.5t-234.5 -140.5t-293 -50q-109 0 -197 32.5t-129 88.5h-4l-131 -530h-340zM506 643q-19 -78 -19 -141 q0 -80 32 -134q57 -94 233 -94q339 0 428 369q20 81 20 145q0 228 -264 228q-336 0 -430 -373z" />
<glyph unicode="q" horiz-adv-x="1603" d="M90 430q3 101 29 217q36 144 105.5 264t169 209.5t234 139t290.5 49.5q111 0 197 -30t132 -83h4l23 94h338l-424 -1722h-340l131 530h-4q-70 -55 -174 -88t-211 -33q-127 0 -223.5 32.5t-155.5 92t-91 142.5q-30 78 -30 171v15zM457 643q-20 -79 -20 -141 q0 -228 265 -228q337 0 428 369q19 79 19 141q0 232 -264 232q-338 0 -428 -373z" />
<glyph unicode="r" horiz-adv-x="993" d="M25 0l319 1290h338l-43 -172h4q163 187 420 187h74l-78 -312h-98q-181 0 -288 -86t-151 -268l-157 -639h-340z" />
<glyph unicode="s" horiz-adv-x="1421" d="M14 221l271 221q61 -85 157.5 -132.5t206.5 -47.5q134 0 202 33t79 76q2 9 2 17q0 24 -20 42q-26 24 -124 51q-11 3 -104.5 30t-108.5 30q-37 10 -68 20t-65.5 23t-62 27.5t-54 33.5t-46.5 39.5t-35 45.5q-14 26 -22 55q-7 27 -8 59q0 37 11 78q42 171 222 279t448 108 q353 0 520 -215l-264 -211q-51 68 -136.5 106.5t-187.5 38.5q-127 0 -189.5 -32.5t-70.5 -69.5q-2 -7 -2 -14q1 -28 35 -44q42 -22 164 -55q25 -6 192 -55q194 -52 273 -141q55 -62 55 -151q0 -38 -10 -81q-21 -84 -75.5 -156.5t-139.5 -129.5t-207 -89.5t-266 -32.5 q-353 0 -572 244z" />
<glyph unicode="t" horiz-adv-x="1099" d="M164 1016l67 274h189l-10 31l39 154l382 182l-81 -336l-27 -31h395l-65 -274h-398l11 -31l-136 -551q-9 -35 -9 -63q-1 -34 13 -57q24 -42 84 -42q96 0 216 103l147 -201q-125 -100 -236.5 -147t-230.5 -47q-347 0 -347 287q0 74 23 167l138 551l24 31h-188z" />
<glyph unicode="u" horiz-adv-x="1581" d="M139 504l195 786h340l-191 -768q-12 -50 -12 -90q0 -59 27 -96q46 -62 196 -62q141 0 241 69t132 194l186 753h338l-319 -1292h-338l27 113h-5q-76 -62 -178 -96.5t-207 -34.5q-281 0 -387 139q-67 88 -67 219q0 76 22 166z" />
<glyph unicode="v" horiz-adv-x="1478" d="M195 1290h374l111 -692l14 -195h4l111 195l453 692h376l-888 -1290h-306z" />
<glyph unicode="w" horiz-adv-x="1959" d="M203 1290h356l19 -639l-17 -217h4l94 217l357 639h280l43 -639l-12 -219h4l90 219l336 639h352l-714 -1290h-346l-25 584l12 213h-4l-92 -213l-315 -584h-346z" />
<glyph unicode="x" horiz-adv-x="1497" d="M-104 0l663 647l-342 643h422l141 -274l43 -135h4l107 135l278 274h418l-657 -643l344 -647h-422l-152 295l-34 115h-4l-91 -115l-299 -295h-419z" />
<glyph unicode="y" horiz-adv-x="1562" d="M-70 -365l76 310q151 -92 258 -92q59 0 114.5 38t121.5 138l-295 1261h373l157 -719l17 -192h4l104 192l479 719h373l-967 -1411q-101 -145 -236.5 -232t-281.5 -87q-163 0 -297 75z" />
<glyph unicode="z" horiz-adv-x="1443" d="M-31 0l58 229l755 643l181 115v4h-734l74 297h1198l-55 -221l-762 -641l-186 -125l-2 -4h768l-74 -297h-1221z" />
<glyph unicode="{" horiz-adv-x="794" d="M59 -192.5q0 40.5 5 79.5t16 84l113 453q12 53 11.5 92t-28 65.5t-84.5 36.5l58 234q86 14 129 56t61 118l117 473q14 55 31.5 100.5t46 93t64.5 81.5t88.5 59t115.5 33q20 3 93.5 4.5t136.5 1.5h63l-66 -264h-86q-116 0 -152 -28t-61 -132l-102 -418 q-28 -111 -71.5 -177t-133.5 -118q74 -56 82.5 -122t-25.5 -175l-102 -415q-26 -103 -3 -131.5t138 -28.5h86l-65 -264q-248 0 -291 6q-50 7 -86 24.5t-56.5 45t-31.5 60t-11 73z" />
<glyph unicode="|" horiz-adv-x="768" d="M66 -102l460 1863h301l-458 -1863h-303z" />
<glyph unicode="}" horiz-adv-x="794" d="M-221 -401l65 264h86q61 0 94.5 5t57.5 24.5t35.5 47t25.5 83.5l103 415q21 86 38 129t57 86t112 82q-65 52 -78 121.5t16 173.5l105 418q27 101 3.5 130.5t-139.5 29.5h-86l66 264q250 0 291 -6q50 -7 86 -25t56.5 -45.5t31.5 -60t11 -73t-5 -79.5t-16 -84l-117 -473 q-20 -75 2.5 -117.5t101.5 -56.5l-57 -234q-90 -14 -132.5 -60.5t-64.5 -133.5l-110 -453q-17 -69 -41.5 -125t-64 -109.5t-100.5 -87.5t-140 -44q-19 -3 -92.5 -4.5t-137.5 -1.5h-63z" />
<glyph unicode="~" horiz-adv-x="1288" d="M70 610q70 128 186.5 204.5t249.5 76.5q59 0 111 -24t114 -66q89 -58 90 -58q46 -22 84 -22q130 0 225 184l134 -182q-71 -128 -189 -202.5t-250 -74.5q-59 0 -110 23.5t-113 65.5q-74 48 -92 57q-46 22 -84 22q-126 0 -223 -184z" />
<glyph horiz-adv-x="2027" />
<glyph unicode="&#xa1;" horiz-adv-x="688" d="M4 0l358 1186h265l-230 -1186h-393zM375 1477q22 90 86.5 146t154.5 56t126 -56t14 -146q-22 -91 -86 -148t-154 -57q-91 0 -127 56.5t-14 148.5z" />
<glyph unicode="&#xa2;" horiz-adv-x="1376" d="M162 819q48 194 170 348.5t290 241.5t351 92l-4 33l67 145h281l-76 -166l-29 -32q180 -54 281 -185l-279 -223q-53 77 -141 107l4 -35l-289 -649l-30 -31h22q83 1 159 32.5t167 100.5l166 -223q-284 -211 -590 -211q-36 0 -59 2l6 -29l-70 -157h-278l88 200l34 27 q-173 70 -234.5 231t-6.5 381zM496 819q-47 -191 49 -284l2 40l256 580l33 33q-133 -34 -219.5 -133.5t-120.5 -235.5z" />
<glyph unicode="&#xa3;" horiz-adv-x="1587" d="M-31 0l68 274q66 27 108.5 49t83 52.5t64.5 66t41.5 85t25.5 114.5l21 35h-211l78 307h129l-15 33q3 97 19 168q62 251 255.5 373t477.5 122q182 0 319 -72.5t216 -205.5l-291 -236q-60 110 -139 158.5t-187 48.5q-254 0 -297 -178q-17 -72 -20 -178l-21 -33h502 l-76 -307h-432l14 -35q-17 -113 -57.5 -191t-112.5 -135v-4h822l-78 -311h-1307z" />
<glyph unicode="&#xa4;" horiz-adv-x="1318" d="M86 461l176 145q-29 100 -2 219q26 111 111 219l-107 150l232 182l106 -141q116 55 234 55q117 0 202 -55l179 141l143 -182l-180 -150q29 -103 2 -219q-30 -119 -111 -223l103 -143l-228 -185l-110 142q-114 -54 -228 -54q-120 0 -209 56l-176 -142zM530 825 q-21 -78 21 -135t123 -57t151 55q70 58 88 137q21 82 -22 140q-39 57 -121 57q-83 0 -149 -57q-74 -62 -91 -140z" />
<glyph unicode="&#xa5;" horiz-adv-x="1921" d="M260 285l66 264h469l-7 22l23 95l18 20h-471l66 264h270l-28 31l-349 678h433l254 -529l51 -167h4l131 167l518 529h430l-682 -680l-47 -33l281 4l-66 -264l-473 -2l6 -22l-22 -93l-17 -20h471l-63 -264h-477l8 -33l-64 -252h-51h-244h-51l62 252l24 33h-473z" />
<glyph unicode="&#xa6;" horiz-adv-x="720" d="M43 -102l207 837h301l-207 -837h-301zM295 922l207 839h301l-207 -839h-301z" />
<glyph unicode="&#xa7;" horiz-adv-x="1445" d="M-35 -156l289 230q125 -185 330 -185q141 0 164 99q8 27 -15 65q-41 64 -147 131q-32 21 -105.5 65t-109.5 68q-28 19 -51.5 35.5t-49.5 38.5t-46 44t-39.5 48t-31 54.5t-19 60t-6 67.5t10.5 74q49 197 307 365q-51 92 -26 196q24 94 87 168.5t148 119t179.5 67 t189.5 22.5q312 0 512 -274l-276 -219q-117 196 -310 196q-78 0 -121.5 -24.5t-50.5 -57.5q-13 -49 58 -106q34 -27 100 -68q8 -5 52.5 -30.5t68.5 -40.5q33 -20 53.5 -33t53 -35.5t54 -40.5t48.5 -44t43.5 -49.5t32.5 -54.5t22.5 -61t6.5 -66.5t-9 -74.5 q-50 -201 -285 -365q63 -102 31 -237q-26 -104 -89.5 -184.5t-147.5 -127t-175.5 -69.5t-185.5 -23q-172 0 -302.5 60t-242.5 196zM487 758q-19 -77 111 -162l281 -178q112 80 129 147q12 47 -23 88q-17 20 -45 41q-10 8 -29 21t-26 18l-260 172q-36 -26 -59.5 -45 t-47.5 -47.5t-31 -54.5z" />
<glyph unicode="&#xa8;" horiz-adv-x="1511" d="M573 1616q18 75 69.5 121.5t123.5 46.5q75 0 103.5 -46t9.5 -122q-19 -74 -71.5 -121t-123.5 -47q-73 0 -101.5 47t-9.5 121zM1085 1616q19 76 70.5 122t124.5 46t101.5 -46t9.5 -122q-18 -74 -70 -121t-125 -47t-101.5 47t-9.5 121z" />
<glyph unicode="&#xa9;" horiz-adv-x="1966" d="M141 585.5q-5 113.5 27 235.5q59 239 226.5 443t398.5 323t469 119q143 0 266.5 -45.5t210 -126t142.5 -191.5t64.5 -243t-24.5 -279q-60 -241 -228 -445.5t-399.5 -324t-468.5 -119.5q-119 0 -225.5 32t-187.5 90t-143 139t-92.5 180t-35.5 212.5zM357 641 q4 -87 27 -164t69.5 -141t107 -110t141 -71.5t170.5 -25.5q135 0 273.5 56.5t250.5 150t196.5 221t117.5 264.5q25 112 19 213.5t-48.5 188.5t-107.5 151t-158.5 100.5t-200.5 36.5q-134 0 -271.5 -56.5t-250 -150t-197 -220.5t-118.5 -263q-24 -93 -20 -180zM505 636 q1 82 25 175q61 246 236 406.5t412 160.5q127 0 213.5 -40.5t146.5 -127.5l-192 -159q-74 112 -222 112q-140 -1 -239 -99t-137 -253q-38 -152 10 -243t194 -91q77 0 144.5 28t148.5 97l117 -156q-218 -186 -463 -186q-101 0 -177.5 28t-123.5 77.5t-70.5 119t-22.5 151.5z " />
<glyph unicode="&#xaa;" horiz-adv-x="1052" d="M205.5 1056q-8.5 80 17.5 175q48 198 185 319t344 121q71 0 132.5 -22t88.5 -58h2l16 68h217l-209 -854h-219l17 63h-2q-47 -35 -116.5 -55t-143.5 -20q-103 0 -176 33t-109 91.5t-44.5 138.5zM446 1231q-29 -119 8.5 -181.5t153.5 -62.5q223 0 283 244q60 246 -162 246 q-223 0 -283 -246z" />
<glyph unicode="&#xab;" horiz-adv-x="1566" d="M98 522l588 469l156 -213l-234 -192l-106 -66l73 -61l142 -193l-262 -213zM762 522l588 469l155 -213l-233 -192l-109 -66l76 -61l139 -193l-260 -213z" />
<glyph unicode="&#xac;" horiz-adv-x="1181" d="M37 481l69 277h1061l-161 -656h-299l94 379h-764z" />
<glyph unicode="&#xad;" horiz-adv-x="862" d="M51 541l74 293h739l-71 -293h-742z" />
<glyph unicode="&#xae;" horiz-adv-x="1966" d="M141 585.5q-5 113.5 27 235.5q59 239 226.5 443t398.5 323t469 119q143 0 266.5 -45.5t210 -126t142.5 -191.5t64.5 -243t-24.5 -279q-60 -241 -228 -445.5t-399.5 -324t-468.5 -119.5q-119 0 -225.5 32t-187.5 90t-143 139t-92.5 180t-35.5 212.5zM377 819 q-44 -182 5.5 -341t179.5 -254t310 -95q135 0 273.5 56.5t250.5 150t196.5 220.5t117.5 263q25 112 19 214t-48.5 189.5t-107.5 151.5t-158.5 100.5t-200.5 36.5q-134 0 -271.5 -56.5t-250 -150t-197 -221t-118.5 -264.5zM532 332l240 975h422q140 0 218.5 -80.5 t41.5 -231.5q-18 -71 -83 -139t-132 -94q48 -28 64 -98l61 -332h-234l-47 260q-9 53 -34.5 73.5t-90.5 20.5h-143l6 -29l-80 -325h-209zM868 897h234q115 0 139 98q13 54 -10 78.5t-88 24.5h-225l6 -29l-35 -143z" />
<glyph unicode="&#xaf;" horiz-adv-x="1525" d="M623 1509l53 215h825l-53 -215h-825z" />
<glyph unicode="&#xb0;" horiz-adv-x="903" d="M233 1274q43 178 165 290.5t300 112.5t245 -112t22 -291q-43 -177 -166.5 -290.5t-298.5 -113.5q-177 0 -243.5 112.5t-23.5 291.5zM438 1274q-23 -90 4.5 -141.5t108.5 -51.5q82 0 134 51.5t75 141.5q23 91 -4.5 142.5t-108.5 51.5q-162 0 -209 -194z" />
<glyph unicode="&#xb1;" horiz-adv-x="1439" d="M49 33l72 295h1075l-74 -295h-1073zM258 879l72 295h411l-10 32l100 404h289l-100 -404l-27 -32h412l-72 -295h-413l10 -33l-99 -404h-288l100 404l27 33h-412z" />
<glyph unicode="&#xb2;" horiz-adv-x="944" d="M164 739l47 191q27 110 112 203t220 135l121 37q77 23 105.5 43t33.5 43q6 29 -14.5 47t-86.5 18q-127 0 -249 -125l-117 154q204 184 420 184q112 0 182.5 -40t92 -101.5t3.5 -136.5q-51 -204 -325 -285l-142 -45q-81 -24 -112 -90q-1 -2 -8.5 -10.5t-8.5 -10.5h486 l-52 -211h-708z" />
<glyph unicode="&#xb3;" horiz-adv-x="1015" d="M195 907l194 152q42 -68 88.5 -94.5t122.5 -26.5q48 0 86 10t57.5 25t29.5 27t13 22q7 38 -17.5 65.5t-102.5 34.5l-172 4l49 193q139 4 166 6q131 13 155 86v13.5t-8 15t-21 14t-39.5 10.5t-62.5 4q-78 0 -137 -22.5t-129 -85.5l-117 145q119 96 218.5 135t217.5 39 q179 0 258 -74.5t50 -193.5q-10 -45 -53 -96.5t-93 -81.5v-2q103 -75 68 -205q-31 -128 -165 -213.5t-302 -85.5q-241 0 -354 180z" />
<glyph unicode="&#xb4;" horiz-adv-x="1531" d="M745 1559l488 442l147 -197l-534 -381z" />
<glyph unicode="&#xb5;" horiz-adv-x="1517" d="M-80 -430l424 1720h340l-188 -760q-30 -124 18 -190t156 -66q130 0 213.5 67.5t115.5 195.5l187 753h340l-322 -1302h-340l19 73l-4 -2q-68 -43 -148 -67.5t-153 -24.5q-137 0 -222 82l-4 -2l-116 -477h-316z" />
<glyph unicode="&#xb6;" d="M133 1112q36 148 145.5 274t262 199.5t309.5 73.5h838l-76 -301h-154l8 -33l-417 -1696h-326l420 1694l24 35h-159l12 -33l-420 -1696h-326l228 926q-2 1 -1.5 5t1 7t-1.5 4q-209 28 -314 180.5t-53 360.5z" />
<glyph unicode="&#xb7;" horiz-adv-x="638" d="M184 831q24 92 87 148.5t153 56.5t125.5 -56t11.5 -149q-24 -94 -86.5 -150t-152.5 -56t-125 56.5t-13 149.5z" />
<glyph unicode="&#xb8;" horiz-adv-x="1550" d="M377 -336l186 150q68 55 33 104l-68 90h213l47 -63q40 -48 26.5 -109t-81.5 -115l-250 -200z" />
<glyph unicode="&#xb9;" horiz-adv-x="669" d="M268 1415l320 244h198l-231 -932h-227l139 561l43 101l-43 -41l-51 -54l-33 -26z" />
<glyph unicode="&#xba;" horiz-adv-x="1052" d="M205.5 1094.5q0.5 66.5 17.5 142.5q48 195 192.5 318.5t356.5 123.5q87 0 154 -22t108 -61.5t64.5 -95t23 -121.5t-17.5 -142q-48 -196 -193.5 -320t-357.5 -124q-86 0 -152.5 22t-107.5 62t-64.5 95.5t-23 122zM440 1237q-29 -117 10.5 -182.5t151.5 -65.5 q113 0 184.5 65.5t100.5 182.5q29 114 -10.5 180t-151.5 66q-114 0 -185 -64.5t-100 -181.5z" />
<glyph unicode="&#xbb;" horiz-adv-x="1566" d="M35 266l235 193q68 41 105 61l-74 66l-139 192l262 213l354 -469l-588 -469zM698 266l234 193q69 41 106 61l-73 66l-140 192l260 213l357 -469l-588 -469z" />
<glyph unicode="&#xbc;" horiz-adv-x="1767" d="M209 -20l1022 1699h242l-1022 -1699h-242zM268 1415l320 244h198l-231 -932h-227l139 561l43 101l-43 -41l-51 -54l-33 -26zM762 188l39 160l649 582h195l-125 -508l-13 -21h107l-53 -213h-107v-22l-39 -168h-231l41 166l12 24h-475zM1112 399h176l-2 19l45 182l-45 -51 l-117 -107z" />
<glyph unicode="&#xbd;" horiz-adv-x="1820" d="M213 -20l1022 1699h242l-1022 -1699h-242zM268 1415l320 244h198l-231 -932h-227l139 561l43 101l-43 -41l-51 -54l-33 -26zM856 -2l49 192q27 109 111.5 201.5t220.5 134.5l119 37q78 24 106 43.5t33 44.5q8 28 -12.5 47t-87.5 19q-126 0 -250 -127l-117 153 q108 96 209.5 141.5t210.5 45.5q166 0 237 -81.5t41 -197.5q-49 -201 -323 -286l-141 -43q-86 -27 -115 -93q0 -1 -17 -18h488l-53 -213h-709z" />
<glyph unicode="&#xbe;" horiz-adv-x="2078" d="M195 907l194 152q42 -68 88.5 -94.5t122.5 -26.5q48 0 86 10t57.5 25t29.5 27t13 22q7 38 -17.5 65.5t-102.5 34.5l-172 4l49 193q139 4 166 6q131 13 155 86v13.5t-8 15t-21 14t-39.5 10.5t-62.5 4q-77 0 -136.5 -22.5t-129.5 -85.5l-117 145q119 96 218.5 135t217.5 39 q179 0 258 -74.5t50 -193.5q-10 -45 -53 -96.5t-93 -81.5v-2q103 -75 68 -205q-31 -128 -165 -213.5t-302 -85.5q-241 0 -354 180zM518 -20l1022 1699h242l-1022 -1699h-242zM1071 188l39 160l651 582h193l-125 -508l-12 -21h106l-53 -213h-107l2 -22l-41 -168h-231l41 166 l12 24h-475zM1421 399h176l-2 19l47 182l-45 -51l-118 -107z" />
<glyph unicode="&#xbf;" horiz-adv-x="1458" d="M76 428q16 65 49 122t74.5 99t97.5 79.5t111 64t122 51.5q5 4 37 13.5t35 12.5q90 33 128 80t65 152l20 84h334l-27 -107q-34 -138 -98 -233.5t-151 -154t-218 -103.5q-3 -3 -25 -9.5t-24 -7.5q-84 -31 -126.5 -62.5t-53.5 -78.5q-15 -63 49 -106t158 -43q121 0 227 49 t215 155l193 -227q-170 -142 -343.5 -210t-367.5 -68q-159 0 -279.5 54t-177.5 157.5t-24 236.5zM864 1477q24 93 87 147.5t153 54.5q89 0 124 -54.5t13 -147.5q-24 -93 -87 -149t-153 -56q-91 0 -126 55.5t-11 149.5z" />
<glyph unicode="&#xc0;" horiz-adv-x="1945" d="M-111 0l1201 1659h303l379 -1659h-375l-84 365l26 30h-823l12 -30l-262 -365h-377zM743 686h514l-26 33l-80 360l-14 152l-4 -2l-89 -150l-258 -360zM1098 2169l243 196l269 -444l-166 -133z" />
<glyph unicode="&#xc1;" horiz-adv-x="1945" d="M-111 0l1201 1659h303l379 -1659h-375l-84 365l26 30h-823l12 -30l-262 -365h-377zM743 686h514l-26 33l-80 360l-14 152l-4 -2l-89 -150l-258 -360zM1014 1923l485 444l148 -198l-535 -381z" />
<glyph unicode="&#xc2;" horiz-adv-x="1945" d="M-111 0l1201 1659h303l379 -1659h-375l-84 365l26 30h-823l12 -30l-262 -365h-377zM743 686h514l-26 33l-80 360l-14 152l-4 -2l-89 -150l-258 -360zM893 1915l512 409h4l305 -409l-160 -129l-225 233l-340 -233z" />
<glyph unicode="&#xc3;" horiz-adv-x="1945" d="M-111 0l1201 1659h303l379 -1659h-375l-84 365l26 30h-823l12 -30l-262 -365h-377zM743 686h514l-26 33l-80 360l-14 152l-4 -2l-89 -150l-258 -360zM811 1919q55 105 159 179.5t212 74.5q90 0 202 -78q8 -6 24 -17t28.5 -19.5t25.5 -14.5q44 -21 74 -21q122 0 205 160 l102 -139q-66 -116 -168 -184t-209 -68q-92 0 -198 78q-7 4 -24 16.5t-29 20t-25 12.5q-45 20 -78 20q-115 0 -201 -157z" />
<glyph unicode="&#xc4;" horiz-adv-x="1945" d="M-111 0l1201 1659h303l379 -1659h-375l-84 365l26 30h-823l12 -30l-262 -365h-377zM743 686h514l-26 33l-80 360l-14 152l-4 -2l-89 -150l-258 -360zM918 2011q20 75 70.5 121.5t123.5 46.5t101.5 -46t9.5 -122q-18 -75 -70 -121.5t-125 -46.5t-101 46t-9 122zM1430 2011 q20 75 70.5 121.5t123.5 46.5t102.5 -46.5t10.5 -121.5t-71 -121.5t-124 -46.5q-73 0 -101.5 46t-10.5 122z" />
<glyph unicode="&#xc5;" horiz-adv-x="1945" d="M-111 0l1201 1659h303l379 -1659h-375l-84 365l26 30h-823l12 -30l-262 -365h-377zM743 686h514l-26 33l-80 360l-14 152l-4 -2l-89 -150l-258 -360zM1090 2048q29 114 110 186t201 72q119 0 165 -71.5t17 -186.5q-28 -112 -109.5 -184t-199.5 -72q-120 0 -166 71.5 t-18 184.5zM1253 2048q-11 -42 4.5 -67t57.5 -25q83 0 106 92q11 44 -4 69t-57 25q-84 0 -107 -94z" />
<glyph unicode="&#xc6;" horiz-adv-x="2353" d="M-111 0l1198 1659h1391l-78 -311h-786l8 -33l-74 -297l-30 -33h696l-76 -311h-696l14 -33l-74 -297l-30 -33h792l-76 -311h-1116l86 350l29 33h-553l2 -35l-250 -348h-377zM743 694h402l-12 33l143 588l27 33h-103l4 -33l-420 -592z" />
<glyph unicode="&#xc7;" horiz-adv-x="1742" d="M138.5 566q1.5 118 33.5 253q46 186 143.5 343t236 272t322.5 179t392 64q220 0 371 -71.5t243 -219.5l-295 -239q-107 221 -395 221q-137 0 -251 -41t-195 -116t-136.5 -173t-85.5 -219q-23 -94 -24.5 -172.5t22.5 -145.5t73.5 -113.5t132.5 -72.5t196 -26 q291 0 510 219l176 -234q-309 -271 -697 -292l29 -33q39 -49 24.5 -111t-81.5 -117l-250 -202l-109 145l187 150q62 50 34 96l-59 78q-136 17 -240.5 65.5t-171 123t-102 173t-34 216.5z" />
<glyph unicode="&#xc8;" horiz-adv-x="1683" d="M41 0l410 1659h1357l-75 -311h-1047l25 -33l-74 -297l-41 -33h948l-76 -311h-950l25 -33l-74 -297l-39 -33h1047l-78 -311h-1358zM946 2173l244 197l266 -445l-166 -133z" />
<glyph unicode="&#xc9;" horiz-adv-x="1683" d="M41 0l410 1659h1357l-75 -311h-1047l25 -33l-74 -297l-41 -33h948l-76 -311h-950l25 -33l-74 -297l-39 -33h1047l-78 -311h-1358zM971 1923l487 444l146 -196l-533 -381z" />
<glyph unicode="&#xca;" horiz-adv-x="1683" d="M41 0l410 1659h1357l-75 -311h-1047l25 -33l-74 -297l-41 -33h948l-76 -311h-950l25 -33l-74 -297l-39 -33h1047l-78 -311h-1358zM799 1915l510 409h4l305 -409l-158 -129l-227 233l-338 -233z" />
<glyph unicode="&#xcb;" horiz-adv-x="1683" d="M41 0l410 1659h1357l-75 -311h-1047l25 -33l-74 -297l-41 -33h948l-76 -311h-950l25 -33l-74 -297l-39 -33h1047l-78 -311h-1358zM821 2011q18 76 69 122t124 46q74 0 102.5 -46t9.5 -122q-19 -74 -70.5 -120t-123.5 -46q-73 0 -101.5 46t-9.5 120zM1333 2011 q19 76 70.5 122t124.5 46t101 -46t9 -122q-18 -74 -69.5 -120t-124.5 -46t-101.5 46t-9.5 120z" />
<glyph unicode="&#xcc;" horiz-adv-x="729" d="M51 0l410 1659h344l-410 -1659h-344zM432 2173l244 197l268 -445l-166 -133z" />
<glyph unicode="&#xcd;" horiz-adv-x="729" d="M51 0l410 1659h344l-410 -1659h-344zM434 1923l488 444l145 -198l-532 -381z" />
<glyph unicode="&#xce;" horiz-adv-x="729" d="M51 0l410 1659h344l-410 -1659h-344zM285 1915l510 409h4l305 -409l-158 -129l-227 233l-338 -233z" />
<glyph unicode="&#xcf;" horiz-adv-x="729" d="M51 0l410 1659h344l-410 -1659h-344zM311 2009q19 76 70.5 122t124.5 46t101.5 -46t10.5 -122q-19 -74 -70.5 -120t-123.5 -46q-73 0 -102 46t-11 120zM825 2009q19 76 70.5 122t124.5 46t101 -46t9 -122q-19 -75 -70 -120.5t-124 -45.5t-101.5 46t-9.5 120z" />
<glyph unicode="&#xd0;" horiz-adv-x="1820" d="M41 0l158 641l26 33h-149l76 311h149l-10 33l160 641h696q832 0 625 -830q-202 -829 -1024 -829h-707zM444 311h359q124 0 220 26t159.5 69t111 112.5t75.5 141t52 169.5q17 68 25.5 122t8.5 109.5t-13 97.5t-42 79.5t-74.5 61.5t-115 37.5t-159.5 13.5h-351l5 -56 l-68 -276l-27 -33h414l-78 -311h-411l8 -33l-68 -274z" />
<glyph unicode="&#xd1;" horiz-adv-x="1865" d="M41 0l410 1659h288l523 -914l67 -188h4l273 1102h344l-410 -1659h-289l-516 913l-73 195h-3l-274 -1108h-344zM760 1921q55 105 158.5 179.5t211.5 74.5q94 0 203 -80q62 -41 78 -49q44 -21 74 -21q123 0 203 158l102 -139q-64 -116 -166 -183t-209 -67q-91 0 -201 78 q-50 36 -75 49q-47 21 -78 21q-113 0 -201 -158z" />
<glyph unicode="&#xd2;" horiz-adv-x="1914" d="M138 585q3 110 34 234q46 186 139.5 343t226.5 272.5t310.5 180t380.5 64.5q137 0 248.5 -29.5t190.5 -84t132.5 -131.5t77 -172.5t20 -207t-33.5 -235.5q-46 -186 -140.5 -339.5t-227.5 -265t-309 -173t-378 -61.5q-136 0 -247.5 28t-191 80t-133 126.5t-78 167.5 t-21.5 203zM498 606q7 -97 47 -167t127 -109t215 -39q254 0 409 141.5t217 386.5q23 95 25.5 176.5t-18.5 151t-66 118t-121.5 76t-179.5 27.5q-128 0 -234.5 -40.5t-183 -115t-129.5 -173t-84 -220.5q-31 -116 -24 -213zM1032 2173l244 197l266 -445l-166 -133z" />
<glyph unicode="&#xd3;" horiz-adv-x="1914" d="M138 585q3 110 34 234q46 186 139.5 343t226.5 272.5t310.5 180t380.5 64.5q137 0 248.5 -29.5t190.5 -84t132.5 -131.5t77 -172.5t20 -207t-33.5 -235.5q-46 -186 -140.5 -339.5t-227.5 -265t-309 -173t-378 -61.5q-136 0 -247.5 28t-191 80t-133 126.5t-78 167.5 t-21.5 203zM498 606q7 -97 47 -167t127 -109t215 -39q254 0 409 141.5t217 386.5q23 95 25.5 176.5t-18.5 151t-66 118t-121.5 76t-179.5 27.5q-128 0 -234.5 -40.5t-183 -115t-129.5 -173t-84 -220.5q-31 -116 -24 -213zM1036 1923l486 444l147 -196l-532 -381z" />
<glyph unicode="&#xd4;" horiz-adv-x="1914" d="M138 585q3 110 34 234q46 186 139.5 343t226.5 272.5t310.5 180t380.5 64.5q137 0 248.5 -29.5t190.5 -84t132.5 -131.5t77 -172.5t20 -207t-33.5 -235.5q-46 -186 -140.5 -339.5t-227.5 -265t-309 -173t-378 -61.5q-136 0 -247.5 28t-191 80t-133 126.5t-78 167.5 t-21.5 203zM498 606q7 -97 47 -167t127 -109t215 -39q254 0 409 141.5t217 386.5q23 95 25.5 176.5t-18.5 151t-66 118t-121.5 76t-179.5 27.5q-128 0 -234.5 -40.5t-183 -115t-129.5 -173t-84 -220.5q-31 -116 -24 -213zM879 1915l510 409h4l305 -409l-158 -129l-227 233 l-338 -233z" />
<glyph unicode="&#xd5;" horiz-adv-x="1914" d="M138 585q3 110 34 234q46 186 139.5 343t226.5 272.5t310.5 180t380.5 64.5q137 0 248.5 -29.5t190.5 -84t132.5 -131.5t77 -172.5t20 -207t-33.5 -235.5q-46 -186 -140.5 -339.5t-227.5 -265t-309 -173t-378 -61.5q-136 0 -247.5 28t-191 80t-133 126.5t-78 167.5 t-21.5 203zM498 606q7 -97 47 -167t127 -109t215 -39q254 0 409 141.5t217 386.5q23 95 25.5 176.5t-18.5 151t-66 118t-121.5 76t-179.5 27.5q-128 0 -234.5 -40.5t-183 -115t-129.5 -173t-84 -220.5q-31 -116 -24 -213zM774 1919q57 105 161 179.5t212 74.5q91 0 203 -78 q58 -42 77 -51q44 -21 72 -21q122 0 205 160l102 -139q-64 -116 -166.5 -184t-207.5 -68q-95 0 -201 78q-55 40 -76 49q-45 20 -78 20q-114 0 -200 -157z" />
<glyph unicode="&#xd6;" horiz-adv-x="1914" d="M138 585q3 110 34 234q46 186 139.5 343t226.5 272.5t310.5 180t380.5 64.5q137 0 248.5 -29.5t190.5 -84t132.5 -131.5t77 -172.5t20 -207t-33.5 -235.5q-46 -186 -140.5 -339.5t-227.5 -265t-309 -173t-378 -61.5q-136 0 -247.5 28t-191 80t-133 126.5t-78 167.5 t-21.5 203zM498 606q7 -97 47 -167t127 -109t215 -39q254 0 409 141.5t217 386.5q23 95 25.5 176.5t-18.5 151t-66 118t-121.5 76t-179.5 27.5q-128 0 -234.5 -40.5t-183 -115t-129.5 -173t-84 -220.5q-31 -116 -24 -213zM901 2011q19 75 70.5 121.5t124.5 46.5t101 -46 t9 -122q-18 -75 -69.5 -121.5t-124.5 -46.5t-101.5 46t-9.5 122zM1413 2011q19 75 70.5 121.5t124.5 46.5q74 0 102.5 -46t9.5 -122t-70.5 -122t-123.5 -46q-73 0 -102 46t-11 122z" />
<glyph unicode="&#xd7;" horiz-adv-x="1347" d="M135 504l410 325l-250 326l250 201l239 -332l406 332l149 -201l-409 -326l250 -325l-250 -201l-242 332l-403 -332z" />
<glyph unicode="&#xd8;" horiz-adv-x="1914" d="M127 -47l137 168l37 14q-118 114 -150.5 293.5t21.5 390.5q46 186 139.5 343t226.5 273t310.5 181t380.5 65q170 0 303 -47l10 35l88 105l170 -121l-74 -90l-30 -17q289 -236 168 -727q-46 -186 -140.5 -341t-227.5 -267t-309.5 -174t-377.5 -62q-224 0 -363 68l-4 -37 l-143 -174zM522 819q-59 -236 25 -383l12 43l705 852l34 19q-53 20 -145 20q-251 0 -409 -149t-222 -402zM686 326q70 -37 201 -37q253 0 408.5 142t215.5 388q77 311 -55 443l-8 -35l-725 -881z" />
<glyph unicode="&#xd9;" horiz-adv-x="1890" d="M219 764l221 895h344l-219 -893q-60 -242 9.5 -358.5t299.5 -116.5q228 0 357.5 117t187.5 358l221 893h345l-222 -895q-92 -379 -334.5 -581.5t-629.5 -202.5t-530.5 201.5t-49.5 582.5zM1020 2173l244 197l266 -445l-166 -133z" />
<glyph unicode="&#xda;" horiz-adv-x="1890" d="M219 764l221 895h344l-219 -893q-60 -242 9.5 -358.5t299.5 -116.5q228 0 357.5 117t187.5 358l221 893h345l-222 -895q-92 -379 -334.5 -581.5t-629.5 -202.5t-530.5 201.5t-49.5 582.5zM1004 1923l485 444l147 -198l-532 -381z" />
<glyph unicode="&#xdb;" horiz-adv-x="1890" d="M219 764l221 895h344l-219 -893q-60 -242 9.5 -358.5t299.5 -116.5q228 0 357.5 117t187.5 358l221 893h345l-222 -895q-92 -379 -334.5 -581.5t-629.5 -202.5t-530.5 201.5t-49.5 582.5zM862 1915l508 409h4l307 -409l-159 -129l-226 233l-340 -233z" />
<glyph unicode="&#xdc;" horiz-adv-x="1890" d="M219 764l221 895h344l-219 -893q-60 -242 9.5 -358.5t299.5 -116.5q228 0 357.5 117t187.5 358l221 893h345l-222 -895q-92 -379 -334.5 -581.5t-629.5 -202.5t-530.5 201.5t-49.5 582.5zM891 2011q18 74 69 121t123 47q75 0 103.5 -46t9.5 -122q-19 -75 -71 -121.5 t-124 -46.5q-73 0 -101 46t-9 122zM1403 2011q20 75 70.5 121.5t123.5 46.5t101.5 -46t9.5 -122q-18 -75 -70 -121.5t-125 -46.5t-101 46t-9 122z" />
<glyph unicode="&#xdd;" horiz-adv-x="1902" d="M297 1659h432l266 -531l52 -157h4l129 157l530 531h430l-987 -975l-170 -684h-346l168 684zM1032 1921l486 444l147 -196l-532 -381z" />
<glyph unicode="&#xde;" horiz-adv-x="1718" d="M41 0l410 1659h342l-64 -260l-41 -33h516q114 0 206 -26t154 -73t99 -114t42 -149t-17 -177q-57 -234 -261.5 -386t-490.5 -152h-512l25 -33l-64 -256h-344zM502 598h510q139 0 219 61.5t106 167.5q27 109 -22.5 169.5t-186.5 60.5h-514l23 -35l-96 -389z" />
<glyph unicode="&#xdf;" horiz-adv-x="1484" d="M4 -2l318 1280q24 98 71.5 176t108.5 129t138 85t158 48.5t171 14.5q270 0 399.5 -130t75.5 -352q-23 -90 -90 -173t-154 -128l-2 -4q115 -37 170 -153t16 -271q-59 -236 -258 -389.5t-448 -153.5q-95 0 -150.5 9.5t-119.5 36.5l79 323q72 -37 121.5 -49t126.5 -12 q117 0 200.5 62t111.5 171q26 111 -29.5 178.5t-175.5 67.5h-248l74 303l172 -2q108 -1 173.5 44t86.5 130q22 84 -35.5 135t-173.5 51q-111 0 -164 -44t-80 -152l-303 -1231h-340z" />
<glyph unicode="&#xe0;" horiz-adv-x="1603" d="M91 427q2 100 28 216q36 146 105 266.5t168 211t234.5 140.5t293.5 50q107 0 194.5 -32.5t130.5 -88.5h4l25 100h338l-318 -1292h-340l25 94h-4q-71 -53 -172 -82.5t-213 -29.5q-125 0 -221.5 32t-155.5 91t-91.5 141.5t-30.5 182.5zM457 643q-92 -369 245 -369 q339 0 428 369q93 373 -243 373q-340 0 -430 -373zM795 1804l243 197l269 -442l-166 -136z" />
<glyph unicode="&#xe1;" horiz-adv-x="1603" d="M91 427q2 100 28 216q36 146 105 266.5t168 211t234.5 140.5t293.5 50q107 0 194.5 -32.5t130.5 -88.5h4l25 100h338l-318 -1292h-340l25 94h-4q-71 -53 -172 -82.5t-213 -29.5q-125 0 -221.5 32t-155.5 91t-91.5 141.5t-30.5 182.5zM457 643q-92 -369 245 -369 q339 0 428 369q93 373 -243 373q-340 0 -430 -373zM793 1559l485 442l147 -197l-534 -381z" />
<glyph unicode="&#xe2;" horiz-adv-x="1603" d="M91 427q2 100 28 216q36 146 105 266.5t168 211t234.5 140.5t293.5 50q107 0 194.5 -32.5t130.5 -88.5h4l25 100h338l-318 -1292h-340l25 94h-4q-71 -53 -172 -82.5t-213 -29.5q-125 0 -221.5 32t-155.5 91t-91.5 141.5t-30.5 182.5zM457 643q-92 -369 245 -369 q339 0 428 369q93 373 -243 373q-340 0 -430 -373zM612 1554l512 410h4l306 -410l-160 -129l-225 234l-340 -234z" />
<glyph unicode="&#xe3;" horiz-adv-x="1603" d="M91 427q2 100 28 216q36 146 105 266.5t168 211t234.5 140.5t293.5 50q107 0 194.5 -32.5t130.5 -88.5h4l25 100h338l-318 -1292h-340l25 94h-4q-71 -53 -172 -82.5t-213 -29.5q-125 0 -221.5 32t-155.5 91t-91.5 141.5t-30.5 182.5zM457 643q-92 -369 245 -369 q339 0 428 369q93 373 -243 373q-340 0 -430 -373zM522 1585q57 105 160 179.5t211 74.5q93 0 205 -78q42 -34 78 -51q42 -20 71 -20q122 0 205 159l102 -139q-64 -116 -166.5 -184t-207.5 -68q-95 0 -201 78q-55 39 -78 49q-44 21 -76 21q-113 0 -200 -158z" />
<glyph unicode="&#xe4;" horiz-adv-x="1603" d="M91 427q2 100 28 216q36 146 105 266.5t168 211t234.5 140.5t293.5 50q107 0 194.5 -32.5t130.5 -88.5h4l25 100h338l-318 -1292h-340l25 94h-4q-71 -53 -172 -82.5t-213 -29.5q-125 0 -221.5 32t-155.5 91t-91.5 141.5t-30.5 182.5zM457 643q-92 -369 245 -369 q339 0 428 369q93 373 -243 373q-340 0 -430 -373zM616 1616q19 76 70.5 122t124.5 46t102.5 -46.5t10.5 -121.5q-19 -74 -71.5 -121t-123.5 -47q-73 0 -102 46.5t-11 121.5zM1130 1616q19 76 70.5 122t124.5 46t101.5 -46t9.5 -122q-19 -75 -70.5 -121.5t-124.5 -46.5 t-101.5 47t-9.5 121z" />
<glyph unicode="&#xe5;" horiz-adv-x="1603" d="M91 427q2 100 28 216q36 146 105 266.5t168 211t234.5 140.5t293.5 50q107 0 194.5 -32.5t130.5 -88.5h4l25 100h338l-318 -1292h-340l25 94h-4q-71 -53 -172 -82.5t-213 -29.5q-125 0 -221.5 32t-155.5 91t-91.5 141.5t-30.5 182.5zM457 643q-92 -369 245 -369 q339 0 428 369q93 373 -243 373q-340 0 -430 -373zM829 1679q29 114 110.5 185t201.5 71q119 0 165 -71.5t17 -184.5q-28 -112 -109.5 -184t-199.5 -72q-120 0 -166 71t-19 185zM993 1679q-11 -42 4.5 -67t57.5 -25q83 0 106 92q11 44 -4 69.5t-57 25.5t-69 -25.5t-38 -69.5 z" />
<glyph unicode="&#xe6;" horiz-adv-x="2471" d="M91 427q2 100 28 216q36 146 105 266.5t168 211t234.5 140.5t293.5 50q107 0 194.5 -32.5t130.5 -88.5h4l25 100h338l-19 -78h4q62 43 148.5 71t163.5 28q102 0 186 -25t142.5 -70t98.5 -107.5t58 -137.5t16 -160t-24 -176q-3 -13 -7 -25.5t-13.5 -42.5t-20.5 -65h-967 l23 -33q12 -98 77 -151.5t181 -53.5q173 0 362 135l156 -202q-284 -215 -588 -215q-76 0 -153.5 25.5t-118.5 66.5h-4l-19 -76h-340l25 94h-4q-71 -53 -172 -82.5t-213 -29.5q-125 0 -221.5 32t-155.5 91t-91.5 141.5t-30.5 182.5zM457 643q-92 -369 245 -369q339 0 428 369 q93 373 -243 373q-340 0 -430 -373zM1450 788h655l-22 33q-12 100 -73.5 153.5t-170.5 53.5q-218 0 -350 -207z" />
<glyph unicode="&#xe7;" horiz-adv-x="1376" d="M92.5 407.5q-8.5 108.5 24.5 229.5q35 141 111 263t184.5 213.5t253 144.5t305.5 53q324 0 477 -203l-279 -225q-48 69 -112 101t-158 32q-168 0 -285.5 -106t-158.5 -275q-21 -78 -15.5 -144t33 -115t88.5 -76.5t150 -27.5q93 0 176 34t174 106l166 -224 q-239 -185 -518 -206l28 -33q39 -49 24.5 -111t-81.5 -117l-250 -202l-108 145l186 150q70 57 37 98l-60 80q-125 21 -213 79.5t-129.5 143t-50 193z" />
<glyph unicode="&#xe8;" d="M93 459q1 84 24 176q35 145 112 269t185 214.5t251 141.5t302 51q112 0 202 -24t153 -67.5t105 -105t59.5 -137t15 -161.5t-26.5 -181q-15 -61 -39 -123h-1020l24 -33q11 -100 84.5 -158.5t200.5 -58.5q185 0 365 123l153 -209q-274 -196 -588 -196q-116 0 -210 23 t-160 65.5t-110 101.5t-63.5 132t-18.5 157zM487 786h695l-25 33q-22 211 -260 211q-237 0 -369 -211zM758 1804l246 197l266 -442l-166 -136z" />
<glyph unicode="&#xe9;" d="M93 459q1 84 24 176q35 145 112 269t185 214.5t251 141.5t302 51q112 0 202 -24t153 -67.5t105 -105t59.5 -137t15 -161.5t-26.5 -181q-15 -61 -39 -123h-1020l24 -33q11 -100 84.5 -158.5t200.5 -58.5q185 0 365 123l153 -209q-274 -196 -588 -196q-116 0 -210 23 t-160 65.5t-110 101.5t-63.5 132t-18.5 157zM487 786h695l-25 33q-22 211 -260 211q-237 0 -369 -211zM762 1559l485 442l148 -197l-533 -381z" />
<glyph unicode="&#xea;" d="M93 459q1 84 24 176q35 145 112 269t185 214.5t251 141.5t302 51q112 0 202 -24t153 -67.5t105 -105t59.5 -137t15 -161.5t-26.5 -181q-15 -61 -39 -123h-1020l24 -33q11 -100 84.5 -158.5t200.5 -58.5q185 0 365 123l153 -209q-274 -196 -588 -196q-116 0 -210 23 t-160 65.5t-110 101.5t-63.5 132t-18.5 157zM487 786h695l-25 33q-22 211 -260 211q-237 0 -369 -211zM612 1554l512 410h4l306 -410l-160 -129l-225 234l-340 -234z" />
<glyph unicode="&#xeb;" d="M93 459q1 84 24 176q35 145 112 269t185 214.5t251 141.5t302 51q112 0 202 -24t153 -67.5t105 -105t59.5 -137t15 -161.5t-26.5 -181q-15 -61 -39 -123h-1020l24 -33q11 -100 84.5 -158.5t200.5 -58.5q185 0 365 123l153 -209q-274 -196 -588 -196q-116 0 -210 23 t-160 65.5t-110 101.5t-63.5 132t-18.5 157zM487 786h695l-25 33q-22 211 -260 211q-237 0 -369 -211zM623 1616q19 76 70 122t124 46t101.5 -46t9.5 -122q-19 -75 -70.5 -121.5t-124.5 -46.5t-101 47t-9 121zM1135 1616q19 76 70 122t124 46t102 -46t11 -122 q-19 -74 -71.5 -121t-123.5 -47q-73 0 -101.5 46.5t-10.5 121.5z" />
<glyph unicode="&#xec;" horiz-adv-x="673" d="M25 0l319 1290h338l-317 -1290h-340zM324 1804l243 197l267 -442l-166 -136z" />
<glyph unicode="&#xed;" horiz-adv-x="673" d="M25 0l319 1290h338l-317 -1290h-340zM301 1559l487 442l146 -197l-533 -381z" />
<glyph unicode="&#xee;" horiz-adv-x="673" d="M25 0l319 1290h338l-317 -1290h-340zM170 1554l510 410h4l305 -410l-160 -129l-225 234l-340 -234z" />
<glyph unicode="&#xef;" horiz-adv-x="673" d="M25 0l319 1290h338l-317 -1290h-340zM184 1616q18 76 69 122t124 46q74 0 102.5 -46t9.5 -122q-19 -75 -71 -121.5t-123 -46.5q-73 0 -101.5 47t-9.5 121zM696 1616q19 76 70.5 122t124.5 46t101 -46t9 -122q-18 -74 -69.5 -121t-124.5 -47t-101.5 47t-9.5 121z" />
<glyph unicode="&#xf0;" horiz-adv-x="1404" d="M69 406q1 94 25 200q55 224 208 386.5t368 207.5q74 14 121 17q49 0 88 -7l-50 123l-4 21l-190 -82l-70 194l180 82l-12 17l-65 168h360l19 -41l2 -21l168 74l75 -193l-168 -77l15 -15l159 -393q79 -199 13 -461q-32 -132 -100 -245.5t-164.5 -198.5t-225.5 -133.5 t-274 -48.5q-117 0 -208.5 31.5t-148.5 87.5t-89.5 134.5t-31.5 172.5zM401 594q-39 -153 16.5 -237.5t203.5 -84.5t243.5 83.5t134.5 238.5q38 159 -15.5 253.5t-199.5 94.5t-244.5 -93.5t-138.5 -254.5z" />
<glyph unicode="&#xf1;" horiz-adv-x="1597" d="M25 0l319 1292h338l-27 -112h4q82 60 189.5 95.5t212.5 35.5q258 0 376.5 -135.5t59.5 -374.5l-199 -801h-337l188 768q19 79 15 134t-59.5 84.5t-172.5 29.5q-144 0 -247.5 -68.5t-133.5 -193.5l-186 -754h-340zM549 1585q55 105 159 179.5t212 74.5q90 0 202 -78 q52 -38 78 -51q42 -20 74 -20q123 0 203 159l102 -139q-64 -116 -166 -184t-209 -68q-90 0 -200 78q-55 40 -76 49q-47 21 -78 21q-114 0 -201 -158z" />
<glyph unicode="&#xf2;" d="M94 465.5q2 85.5 25 179.5q35 142 107.5 262.5t177.5 211t248 141.5t309 51q112 0 202.5 -23t154.5 -66t107 -102.5t61.5 -134t16.5 -160t-26 -180.5q-35 -141 -108 -261.5t-178.5 -211t-249 -141.5t-308.5 -51q-111 0 -201.5 23t-154 66t-106 103t-61 134t-16.5 159.5z M457 645q-42 -173 18.5 -273t231.5 -100q172 0 280.5 99.5t151.5 273.5q43 173 -17.5 272t-232.5 99q-173 0 -281 -98.5t-151 -272.5zM743 1804l244 197l268 -442l-165 -136z" />
<glyph unicode="&#xf3;" d="M94 465.5q2 85.5 25 179.5q35 142 107.5 262.5t177.5 211t248 141.5t309 51q112 0 202.5 -23t154.5 -66t107 -102.5t61.5 -134t16.5 -160t-26 -180.5q-35 -141 -108 -261.5t-178.5 -211t-249 -141.5t-308.5 -51q-111 0 -201.5 23t-154 66t-106 103t-61 134t-16.5 159.5z M457 645q-42 -173 18.5 -273t231.5 -100q172 0 280.5 99.5t151.5 273.5q43 173 -17.5 272t-232.5 99q-173 0 -281 -98.5t-151 -272.5zM764 1559l487 442l148 -197l-535 -381z" />
<glyph unicode="&#xf4;" d="M94 465.5q2 85.5 25 179.5q35 142 107.5 262.5t177.5 211t248 141.5t309 51q112 0 202.5 -23t154.5 -66t107 -102.5t61.5 -134t16.5 -160t-26 -180.5q-35 -141 -108 -261.5t-178.5 -211t-249 -141.5t-308.5 -51q-111 0 -201.5 23t-154 66t-106 103t-61 134t-16.5 159.5z M457 645q-42 -173 18.5 -273t231.5 -100q172 0 280.5 99.5t151.5 273.5q43 173 -17.5 272t-232.5 99q-173 0 -281 -98.5t-151 -272.5zM608 1554l512 410h4l303 -410l-157 -129l-228 234l-337 -234z" />
<glyph unicode="&#xf5;" d="M94 465.5q2 85.5 25 179.5q35 142 107.5 262.5t177.5 211t248 141.5t309 51q112 0 202.5 -23t154.5 -66t107 -102.5t61.5 -134t16.5 -160t-26 -180.5q-35 -141 -108 -261.5t-178.5 -211t-249 -141.5t-308.5 -51q-111 0 -201.5 23t-154 66t-106 103t-61 134t-16.5 159.5z M457 645q-42 -173 18.5 -273t231.5 -100q172 0 280.5 99.5t151.5 273.5q43 173 -17.5 272t-232.5 99q-173 0 -281 -98.5t-151 -272.5zM514 1585q55 105 159 179.5t212 74.5q94 0 202 -78q48 -35 78 -51q42 -20 74 -20q122 0 205 159l102 -139q-66 -116 -168 -184t-209 -68 q-92 0 -198 78q-7 4 -24 16.5t-29 20t-25 12.5q-47 21 -78 21q-112 0 -201 -158z" />
<glyph unicode="&#xf6;" d="M94 465.5q2 85.5 25 179.5q35 142 107.5 262.5t177.5 211t248 141.5t309 51q112 0 202.5 -23t154.5 -66t107 -102.5t61.5 -134t16.5 -160t-26 -180.5q-35 -141 -108 -261.5t-178.5 -211t-249 -141.5t-308.5 -51q-111 0 -201.5 23t-154 66t-106 103t-61 134t-16.5 159.5z M457 645q-42 -173 18.5 -273t231.5 -100q172 0 280.5 99.5t151.5 273.5q43 173 -17.5 272t-232.5 99q-173 0 -281 -98.5t-151 -272.5zM627 1616q20 75 70.5 121.5t123.5 46.5t102 -46.5t11 -121.5q-19 -75 -71 -121.5t-124 -46.5q-73 0 -102 46.5t-10 121.5zM1141 1616 q18 74 69 121t123 47q74 0 103 -47t10 -121q-19 -76 -70.5 -122t-124.5 -46t-101 46t-9 122z" />
<glyph unicode="&#xf7;" horiz-adv-x="1419" d="M199 682l73 297h1074l-72 -297h-1075zM471 334q22 88 80.5 140t142.5 52q86 0 118.5 -52t10.5 -140q-22 -90 -81 -142.5t-144 -52.5q-84 0 -116.5 52.5t-10.5 142.5zM717 1325q21 89 79.5 142t143.5 53q84 0 116.5 -52.5t10.5 -142.5q-21 -88 -79.5 -140t-143.5 -52 q-84 0 -116.5 52t-10.5 140z" />
<glyph unicode="&#xf8;" horiz-adv-x="1460" d="M55 -37l107 127l39 23q-82 87 -102.5 232.5t20.5 299.5q35 143 104 263.5t167.5 210.5t231.5 141t287 51t252 -49l15 41l104 129l164 -109l-111 -129l-33 -18q159 -193 76 -531q-36 -143 -105 -263.5t-167 -211.5t-231 -142t-287 -51q-151 0 -252 46l-12 -43l-107 -130z M434 645q-38 -167 6 -246l21 50l436 526l43 24q-42 17 -102 17q-158 0 -259 -97.5t-145 -273.5zM561 291q28 -17 94 -17q158 0 260 97.5t146 273.5q36 151 -2 246l-21 -53l-430 -514z" />
<glyph unicode="&#xf9;" horiz-adv-x="1581" d="M139 504l195 786h340l-191 -768q-31 -124 15 -186t196 -62q141 0 241 69t132 194l186 753h338l-319 -1292h-338l27 113h-5q-76 -62 -178 -96.5t-207 -34.5q-282 0 -387.5 139t-44.5 385zM754 1804l243 197l269 -442l-166 -136z" />
<glyph unicode="&#xfa;" horiz-adv-x="1581" d="M139 504l195 786h340l-191 -768q-31 -124 15 -186t196 -62q141 0 241 69t132 194l186 753h338l-319 -1292h-338l27 113h-5q-76 -62 -178 -96.5t-207 -34.5q-282 0 -387.5 139t-44.5 385zM778 1559l486 442l147 -197l-534 -381z" />
<glyph unicode="&#xfb;" horiz-adv-x="1581" d="M139 504l195 786h340l-191 -768q-31 -124 15 -186t196 -62q141 0 241 69t132 194l186 753h338l-319 -1292h-338l27 113h-5q-76 -62 -178 -96.5t-207 -34.5q-282 0 -387.5 139t-44.5 385zM612 1554l510 410h4l306 -410l-160 -129l-225 234l-340 -234z" />
<glyph unicode="&#xfc;" horiz-adv-x="1581" d="M139 504l195 786h340l-191 -768q-31 -124 15 -186t196 -62q141 0 241 69t132 194l186 753h338l-319 -1292h-338l27 113h-5q-76 -62 -178 -96.5t-207 -34.5q-282 0 -387.5 139t-44.5 385zM633 1616q19 76 70 122t124 46t101.5 -46t9.5 -122q-19 -75 -70.5 -121.5 t-124.5 -46.5t-101 47t-9 121zM1145 1616q19 76 70 122t124 46t102 -46t11 -122q-19 -74 -71.5 -121t-123.5 -47q-73 0 -101.5 46.5t-10.5 121.5z" />
<glyph unicode="&#xfd;" horiz-adv-x="1562" d="M-70 -365l76 310q151 -92 258 -92q62 0 115.5 33t118.5 130l-293 1274h373l157 -741l17 -174h4l96 174l487 741h373l-964 -1411q-101 -145 -237 -232t-282 -87q-165 0 -299 75zM760 1559l487 442l148 -197l-535 -381z" />
<glyph unicode="&#xfe;" horiz-adv-x="1603" d="M-82 -430l533 2150h337l-124 -503h4q135 92 348 92q133 0 235 -32t165 -91t97.5 -141.5t33.5 -183.5t-27 -218q-37 -149 -108 -269t-174 -208.5t-243.5 -137t-308.5 -48.5q-111 0 -184.5 19.5t-128.5 74.5q-2 0 -2 -2q-2 -25 -30 -150.5t-55 -238.5l-28 -113h-340z M506 643q-44 -179 13 -269.5t235 -90.5q177 0 280.5 91t145.5 269q44 179 -13 271t-233 92t-280 -92.5t-148 -270.5z" />
<glyph unicode="&#xff;" horiz-adv-x="1562" d="M-70 -365l76 310q151 -92 258 -92q59 0 114.5 38t121.5 138l-295 1261h373l157 -719l17 -192h4l104 192l479 719h373l-967 -1411q-101 -145 -236.5 -232t-281.5 -87q-163 0 -297 75zM618 1616q19 76 70.5 122t124.5 46t101.5 -46t9.5 -122q-19 -75 -70.5 -121.5 t-124.5 -46.5t-101.5 47t-9.5 121zM1130 1616q19 76 70.5 122t124.5 46t102 -46t11 -122q-19 -74 -71.5 -121t-123.5 -47q-73 0 -102 46.5t-11 121.5z" />
<glyph unicode="&#x152;" horiz-adv-x="2367" d="M132 548.5q4 126.5 40 270.5q45 181 126.5 336t195.5 272.5t265.5 184.5t323.5 67q95 0 176.5 -29t124.5 -83l25 94h1083l-75 -311h-756l8 -35l-76 -299l-24 -31h678l-76 -311h-678l8 -35l-74 -293l-24 -37h756l-76 -311h-1086l25 96q-73 -54 -168.5 -84t-189.5 -30 q-139 0 -243.5 41.5t-168 116.5t-94 179.5t-26.5 231zM517.5 431.5q56.5 -140.5 223.5 -140.5t292.5 139.5t187.5 388.5q63 249 8 399t-221 150q-167 0 -294.5 -146t-191.5 -403q-61 -247 -4.5 -387.5z" />
<glyph unicode="&#x153;" horiz-adv-x="2461" d="M92.5 465.5q3.5 84.5 26.5 179.5q35 143 104 262.5t170 210.5t241.5 142t305.5 51q289 0 420 -178q109 82 240.5 130t265.5 48t237 -34t166 -95t98.5 -145t34.5 -185t-26 -215q-21 -74 -41 -125h-1020l24 -33q12 -101 85.5 -159t201.5 -58q184 0 363 125l153 -209 q-270 -198 -588 -198q-147 0 -261.5 47.5t-178.5 126.5q-100 -83 -229.5 -128.5t-272.5 -45.5q-111 0 -200 23t-150 66t-101 102.5t-56 134.5t-12.5 159.5zM451 645q-89 -373 235 -373q323 0 412 373q92 371 -230 371q-325 0 -417 -371zM1384 786h693l-23 33 q-22 211 -262 211q-234 0 -369 -211z" />
<glyph unicode="&#x178;" horiz-adv-x="1882" d="M297 1659h432l252 -522l55 -164h4l138 164l512 522h430l-977 -975l-170 -684h-346l168 684zM879 2011q18 74 69 121t123 47q75 0 103.5 -46t9.5 -122q-19 -75 -71 -121.5t-124 -46.5q-73 0 -101 46t-9 122zM1391 2011q20 75 70.5 121.5t123.5 46.5t101.5 -46t9.5 -122 q-18 -75 -70 -121.5t-125 -46.5t-101 46t-9 122z" />
<glyph unicode="&#x2c6;" horiz-adv-x="1548" d="M604 1554l510 410h4l305 -410l-159 -129l-226 234l-340 -234z" />
<glyph unicode="&#x2dc;" horiz-adv-x="1548" d="M498 1585q55 105 158.5 179.5t211.5 74.5q95 0 203 -78q47 -35 78 -51q45 -20 74 -20q121 0 204 159l103 -139q-66 -116 -168 -184t-209 -68q-93 0 -199 78q-8 5 -24 17t-28 19.5t-25 12.5q-47 21 -78 21q-112 0 -199 -158z" />
<glyph unicode="&#x2000;" horiz-adv-x="1185" />
<glyph unicode="&#x2001;" horiz-adv-x="2370" />
<glyph unicode="&#x2002;" horiz-adv-x="1185" />
<glyph unicode="&#x2003;" horiz-adv-x="2370" />
<glyph unicode="&#x2004;" horiz-adv-x="790" />
<glyph unicode="&#x2005;" horiz-adv-x="592" />
<glyph unicode="&#x2006;" horiz-adv-x="395" />
<glyph unicode="&#x2007;" horiz-adv-x="395" />
<glyph unicode="&#x2008;" horiz-adv-x="296" />
<glyph unicode="&#x2009;" horiz-adv-x="474" />
<glyph unicode="&#x200a;" horiz-adv-x="131" />
<glyph unicode="&#x2010;" horiz-adv-x="862" d="M51 541l74 293h739l-71 -293h-742z" />
<glyph unicode="&#x2011;" horiz-adv-x="862" d="M51 541l74 293h739l-71 -293h-742z" />
<glyph unicode="&#x2012;" horiz-adv-x="862" d="M51 541l74 293h739l-71 -293h-742z" />
<glyph unicode="&#x2013;" horiz-adv-x="1345" d="M51 541l74 293h1223l-72 -293h-1225z" />
<glyph unicode="&#x2014;" horiz-adv-x="1904" d="M51 541l74 293h1782l-72 -293h-1784z" />
<glyph unicode="&#x2018;" horiz-adv-x="522" d="M240 1176q10 44 55 118l266 400l129 -64l-155 -235l-56 -37q67 -6 92.5 -57t6.5 -125q-21 -84 -78 -135.5t-138 -51.5t-112 51.5t-10 135.5z" />
<glyph unicode="&#x2019;" horiz-adv-x="522" d="M207 1038l155 238l56 37q-68 4 -93.5 54.5t-7.5 125.5q21 84 77.5 135t137.5 51q82 0 114 -51t11 -135q-12 -53 -57 -117l-264 -401z" />
<glyph unicode="&#x201a;" horiz-adv-x="522" d="M-123 -295l156 236l55 36q-68 6 -92.5 56.5t-5.5 126.5q21 84 76.5 134t138.5 50q81 0 112.5 -50t10.5 -134q-10 -43 -56 -119l-266 -399z" />
<glyph unicode="&#x201c;" horiz-adv-x="942" d="M240 1176q10 44 55 118l266 400l129 -64l-155 -235l-56 -37q67 -6 92.5 -57t6.5 -125q-21 -84 -78 -135.5t-138 -51.5t-112 51.5t-10 135.5zM659 1176q10 42 56 118l266 400l129 -64l-156 -235l-55 -37q67 -6 92 -56.5t6 -125.5q-21 -84 -77.5 -135.5t-137.5 -51.5 t-112.5 51.5t-10.5 135.5z" />
<glyph unicode="&#x201d;" horiz-adv-x="942" d="M207 1038l155 238l56 37q-68 4 -93.5 54.5t-7.5 125.5q21 84 77.5 135t137.5 51q82 0 114 -51t11 -135q-12 -53 -57 -117l-264 -401zM625 1038l157 238l56 37q-68 4 -93.5 54.5t-7.5 125.5q21 84 77.5 135t137.5 51q82 0 114 -51t11 -135q-12 -53 -57 -117l-264 -401z " />
<glyph unicode="&#x201e;" horiz-adv-x="942" d="M-123 -295l156 236l55 36q-68 6 -92.5 56.5t-5.5 126.5q21 84 76.5 134t138.5 50q81 0 112.5 -50t10.5 -134q-10 -43 -56 -119l-266 -399zM297 -295l156 236l55 36q-68 6 -92.5 56.5t-5.5 126.5q21 84 76.5 134t138.5 50q81 0 112.5 -50t10.5 -134q-10 -43 -56 -119 l-266 -399z" />
<glyph unicode="&#x2022;" horiz-adv-x="890" d="M63 829q35 148 165 252.5t278 104.5q146 0 223.5 -104.5t40.5 -252.5q-35 -149 -164.5 -253.5t-277.5 -104.5q-146 0 -224 104.5t-41 253.5z" />
<glyph unicode="&#x2026;" horiz-adv-x="1777" d="M23 174q22 89 82 143t145 54q87 0 120 -53.5t11 -143.5q-22 -87 -82.5 -140.5t-144.5 -53.5q-87 0 -120 53.5t-11 140.5zM600 174q22 89 82 143t145 54q87 0 120 -53.5t11 -143.5q-22 -87 -82.5 -140.5t-144.5 -53.5q-85 0 -118.5 53t-12.5 141zM1180 174q21 89 80 143 t145 54q87 0 120 -53.5t11 -143.5q-22 -88 -82 -141t-145 -53t-118 53.5t-11 140.5z" />
<glyph unicode="&#x202f;" horiz-adv-x="474" />
<glyph unicode="&#x2039;" horiz-adv-x="903" d="M98 522l588 469l156 -213l-234 -192l-106 -66l73 -61l142 -193l-262 -213z" />
<glyph unicode="&#x203a;" horiz-adv-x="903" d="M35 266l235 193q68 41 105 61l-74 66l-139 192l262 213l354 -469l-588 -469z" />
<glyph unicode="&#x205f;" horiz-adv-x="592" />
<glyph unicode="&#x20ac;" horiz-adv-x="1529" d="M70 526l59 244h139l-18 21q1 3 4 14t4 14q4 14 12 51l27 19h-139l61 244h182l-10 28q135 241 335.5 379.5t434.5 138.5q181 0 296 -67t177 -207l-272 -223q-57 192 -268 192q-100 0 -191 -56t-164 -155l-47 -30h504l-59 -244h-559l14 -19l-6 -24t-6 -27q-1 -3 -4.5 -14 t-4.5 -14l-24 -21h561l-61 -244h-515l35 -30q23 -99 85.5 -155t162.5 -56q208 0 369 196l162 -223q-136 -144 -284.5 -211t-322.5 -67q-240 0 -373.5 139.5t-142.5 376.5l25 30h-178z" />
<glyph unicode="&#x2122;" horiz-adv-x="1779" d="M274 1505l39 152h754l-37 -152h-305l6 -24l-162 -654h-168l162 652l21 26h-310zM940 827l205 830h149v-10l138 -476l10 -86l53 86l383 486h143l-204 -830h-168l114 467l-37 -55l-344 -422h-14l-141 424l-4 53l-117 -467h-166z" />
<glyph unicode="&#x25fc;" horiz-adv-x="1290" d="M0 0v1290h1290v-1290h-1290z" />
<glyph unicode="&#xfb01;" horiz-adv-x="1652" d="M-397 -385l69 287q120 -60 236 -60q80 0 124.5 40.5t69.5 137.5l238 965l22 31h-198l67 272h201l-8 33q47 191 204 301.5t369 110.5q144 0 232 -35l-68 -275q-84 35 -184 35q-81 0 -138 -33t-75 -104l-27 -33l924 2v-2l-64 -254l-256 -1034h-337l251 1016h-585l8 -33 l-244 -983q-54 -221 -195 -330.5t-376 -109.5q-85 0 -141.5 12t-118.5 43zM1378 1565q20 80 84.5 134t143.5 54q81 0 119 -53t18 -135q-20 -80 -85.5 -134.5t-144.5 -54.5t-117 53.5t-18 135.5z" />
<glyph unicode="&#xfb02;" horiz-adv-x="1630" d="M-397 -385l69 287q120 -60 236 -60q80 0 124.5 40.5t69.5 137.5l238 965l22 31h-198l67 272h201l-8 33q47 188 200 292.5t369 104.5l754 2l-426 -1720h-338l358 1452q-27 0 -129 2.5t-153.5 3t-81.5 -3.5q-182 0 -213 -133l-27 -33h381l-67 -272h-381l8 -33l-244 -983 q-54 -221 -195 -330.5t-376 -109.5q-85 0 -141.5 12t-118.5 43z" />
</font>
</defs>
</svg>
