<?xml version="1.0" standalone="no"?>
<!DOCTYPE svg PUBLIC "-//W3C//DTD SVG 1.1//EN" "http://www.w3.org/Graphics/SVG/1.1/DTD/svg11.dtd" >
<svg xmlns="http://www.w3.org/2000/svg">
<metadata></metadata>
<defs>
<font id="sinkin_sans400_italic" horiz-adv-x="1476" >
<font-face units-per-em="2048" ascent="1659" descent="-389" />
<missing-glyph horiz-adv-x="628" />
<glyph horiz-adv-x="2048" />
<glyph horiz-adv-x="2048" />
<glyph horiz-adv-x="682" />
<glyph unicode="&#x9;" horiz-adv-x="2027" />
<glyph unicode="&#xa;" horiz-adv-x="2027" />
<glyph unicode="&#xd;" horiz-adv-x="2027" />
<glyph horiz-adv-x="2027" />
<glyph horiz-adv-x="2027" />
<glyph horiz-adv-x="2027" />
<glyph horiz-adv-x="2027" />
<glyph horiz-adv-x="2027" />
<glyph horiz-adv-x="2027" />
<glyph horiz-adv-x="2027" />
<glyph unicode=" "  horiz-adv-x="628" />
<glyph unicode="&#x09;" horiz-adv-x="628" />
<glyph unicode="&#xa0;" horiz-adv-x="628" />
<glyph unicode="!" horiz-adv-x="589" d="M37 150q19 76 70 121.5t124 45.5t101.5 -45t9.5 -122t-70.5 -123.5t-124.5 -46.5t-101 46.5t-9 123.5zM195 436l251 1223h234l-354 -1223h-131z" />
<glyph unicode="&#x22;" horiz-adv-x="796" d="M293 1108l100 612h209l-201 -612h-108zM659 1108l101 612h209l-203 -612h-107z" />
<glyph unicode="#" horiz-adv-x="1447" d="M12 0l205 410l23 20h-215l45 184h260v21l196 389l21 20h-213l45 185h260v20l205 410h170l-205 -410l-18 -20h395v20l205 410h170l-205 -410l-19 -20h211l-45 -185h-262l2 -20l-194 -389l-19 -21h211l-47 -184h-258v-20l-207 -410h-170l205 410l22 20h-399v-20l-205 -410 h-170zM481 614h398v21l196 389l21 20h-402l2 -20l-196 -389z" />
<glyph unicode="$" horiz-adv-x="1464" d="M27 231l182 142q77 -93 155 -141.5t177 -61.5q3 0 13 -1t13 -1l-4 20l117 480l16 18q-2 1 -11 3t-11 3q-13 3 -29.5 8.5l-19.5 6.5q-49 15 -88.5 30t-77 32.5t-66 37t-53 42.5t-39 50t-23 58t-7 67.5t11.5 77.5q39 157 192 271.5t393 133.5q23 0 31 2l-6 19l47 190h162 l-47 -192l-15 -21q3 0 14.5 -1t14.5 -1q262 -34 385 -229l-178 -139q-85 148 -254 182q-3 0 -14.5 1t-14.5 1l6 -19l-108 -438l-14 -16q3 -1 13 -4t13 -4q55 -17 74 -23q195 -56 266 -162.5t37 -246.5q-19 -77 -62 -145t-112.5 -127.5t-175 -99t-236.5 -50.5h-30l6 -19 l-47 -190h-162l45 188l16 21q-22 0 -28 2q-154 14 -275.5 75t-191.5 170zM481 1110q-19 -74 34.5 -121.5t203.5 -95.5l24 -8l-4 22l99 396l14 22q-6 -2 -29 -2q-146 -14 -234 -74t-108 -139zM709 168q4 0 15.5 1t14.5 1q148 18 233.5 76.5t108.5 146.5q19 76 -30 139.5 t-177 102.5l-20 6l-25 6l5 -18l-109 -441z" />
<glyph unicode="%" horiz-adv-x="1814" d="M217 1212q52 205 178 337t293 132q86 0 146 -36.5t87 -100t30.5 -149t-23.5 -183.5q-49 -206 -172 -332t-297 -126q-172 0 -231.5 125.5t-10.5 332.5zM383 -20l1008 1699h172l-1008 -1699h-172zM387 1212q-72 -292 113 -292q187 0 260 292q38 136 12.5 218.5t-125.5 82.5 q-187 0 -260 -301zM989.5 201q-10.5 102 18.5 235q52 205 178 337t293 132q86 0 146 -36.5t86.5 -100t30 -149t-23.5 -183.5q-52 -206 -174 -332.5t-295 -126.5q-116 0 -182.5 61t-77 163zM1169 222q27 -79 121 -79q186 0 260 293q75 303 -112 303t-260 -303 q-36 -135 -9 -214z" />
<glyph unicode="&#x26;" horiz-adv-x="1519" d="M76 426q19 80 69 154t123 134.5t154.5 109.5t177.5 91l-18 9q-29 47 -40.5 67.5t-29.5 60.5t-22.5 69t-3.5 71.5t12 89.5q40 164 182.5 278.5t304.5 114.5q165 0 252.5 -114.5t46.5 -278.5q-19 -77 -58.5 -141t-101 -115t-128 -89.5t-156.5 -78.5l18 -10q3 -6 71.5 -116 t135 -217t70.5 -116l2 -20q27 30 52 82t28 88h194l-6 -21q-17 -68 -70 -150.5t-114 -137.5l14 -7l143 -233h-233l-64 106l2 19q-96 -73 -230 -111.5t-284 -38.5q-176 0 -299 52t-176 155.5t-18 243.5zM274 426q-22 -89 16 -149.5t120.5 -88.5t203.5 -28q238 0 381 106l-16 8 l-303 492v20q-161 -80 -225 -125q-143 -101 -177 -235zM668 1222.5q3 -29.5 7.5 -49.5t17 -46t23 -43t24.5 -40.5t22 -39.5l2 -23q62 27 99 45.5t83 46.5t73.5 55.5t51.5 66.5t35 85q22 88 -25.5 150.5t-136.5 62.5q-91 0 -169 -62.5t-101 -154.5q-9 -24 -6 -53.5z" />
<glyph unicode="'" horiz-adv-x="432" d="M293 1108l100 612h209l-201 -612h-108z" />
<glyph unicode="(" horiz-adv-x="557" d="M53 172.5q-5 272.5 68 560.5q72 293 213.5 569t363.5 556h156q-389 -529 -530 -1098q-157 -634 -25 -1151h-156q-85 291 -90 563.5z" />
<glyph unicode=")" horiz-adv-x="557" d="M-219 -391q387 515 545 1151q138 568 12 1098h154q166 -547 24 -1125q-73 -293 -211.5 -563.5t-367.5 -560.5h-156z" />
<glyph unicode="*" horiz-adv-x="1165" d="M268 1085l2 136l377 63l-246 215l115 109l211 -246l72 369h139l-113 -371l334 248l60 -111l-351 -213l344 -63l-63 -138l-326 103l95 -324l-140 -61l-57 342l-225 -342l-109 61l256 322z" />
<glyph unicode="+" horiz-adv-x="1368" d="M223 737l45 185h420l-4 20l107 436h182l-107 -436l-14 -20h420l-45 -185h-422l6 -20l-109 -434h-182l109 434l14 20h-420z" />
<glyph unicode="," horiz-adv-x="573" d="M-94 -301l176 262l31 21q-62 0 -88.5 47.5t-8.5 120.5q19 76 70.5 121.5t124.5 45.5q74 0 104.5 -45.5t10.5 -121.5q-11 -46 -50 -107l-264 -393z" />
<glyph unicode="-" horiz-adv-x="800" d="M61 573l45 185h678l-45 -185h-678z" />
<glyph unicode="." horiz-adv-x="569" d="M16 150q19 76 70.5 121.5t124.5 45.5q74 0 103 -45.5t8 -121.5q-19 -77 -70.5 -123.5t-124.5 -46.5t-101.5 46.5t-9.5 123.5z" />
<glyph unicode="/" horiz-adv-x="475" d="M-309 -102l1048 1863h170l-1048 -1863h-170z" />
<glyph unicode="0" horiz-adv-x="1531" d="M129 475.5q-6 154.5 43 343.5q63 253 185.5 446t298.5 303.5t380 110.5q125 0 220.5 -41t155.5 -116.5t88.5 -181.5t23 -237.5t-42.5 -283.5q-63 -254 -182.5 -441t-294.5 -292.5t-386 -105.5q-158 0 -268 60t-162.5 170.5t-58.5 265zM334 610.5q-9 -95.5 4 -179.5 t50 -142t106.5 -91.5t167.5 -33.5q99 0 184.5 32t152 89t121.5 140t94 180t68 214q28 113 38 209t-1.5 184t-47 149.5t-106 97.5t-172.5 36q-121 0 -224 -52.5t-178.5 -147t-129.5 -213t-90 -263.5q-28 -113 -37 -208.5z" />
<glyph unicode="1" horiz-adv-x="813" d="M209 1255l502 404h168l-410 -1659h-193l312 1262l55 168h-4l-133 -127l-207 -168z" />
<glyph unicode="2" horiz-adv-x="1380" d="M-27 0l64 272q44 187 186 340t367 226l239 77q191 62 284 135t118 175q8 42 8.5 81t-19.5 73.5t-54 60t-93.5 40.5t-138.5 15q-274 0 -479 -211l-107 143q270 252 633 252q98 0 176.5 -18t130.5 -49.5t88.5 -75t50.5 -94t16.5 -106t-13.5 -111.5q-40 -164 -168 -282.5 t-371 -197.5l-283 -92q-151 -50 -248.5 -151.5t-132.5 -247.5q-2 -7 -5 -23.5t-5 -23.5l-24 -23h978l-47 -184h-1151z" />
<glyph unicode="3" horiz-adv-x="1429" d="M27 231l178 144q122 -211 393 -211q110 0 201 27t149 71.5t94 94.5t50 104q32 131 -44.5 213t-261.5 100q-30 3 -92.5 5t-109.5 3h-47l43 179q190 2 245 8q81 9 149 30t114.5 48.5t81 62.5t53.5 69.5t28 71.5q7 38 6 73t-23 66t-58.5 54t-100.5 36t-149 13 q-268 0 -477 -199l-109 146q269 239 631 239q104 0 187.5 -16.5t138.5 -46t94 -70t54.5 -88t19 -100.5t-12.5 -107q-31 -122 -130.5 -215t-246.5 -153l-2 -4q139 -55 195.5 -164t21.5 -254q-22 -90 -77.5 -172.5t-143.5 -153t-222 -113t-294 -42.5q-366 0 -526 251z" />
<glyph unicode="4" horiz-adv-x="1460" d="M35 389l37 148l1204 1122h158l-263 -1065l-16 -21h223l-45 -184h-223l4 -20l-90 -369h-193l91 369l16 20h-903zM326 573h657l-6 21l145 582l58 186h-4l-134 -133l-614 -570l-100 -81z" />
<glyph unicode="5" horiz-adv-x="1458" d="M37 276l170 138q60 -130 158 -191t245 -61q112 0 206.5 32.5t158.5 87.5t105 120.5t59 138.5q12 47 12.5 91.5t-9.5 88t-35.5 79.5t-63 63.5t-95 43t-129.5 15.5q-280 0 -497 -205l-99 129l295 813h979l-47 -184h-834l17 -21l-107 -287l-77 -172l4 -2q107 61 204 87 t207 26q102 0 184.5 -21t139.5 -59.5t96 -90.5t56 -115.5t16.5 -133.5t-19.5 -145q-22 -89 -64.5 -170t-110 -153.5t-153 -125.5t-199.5 -84t-243 -31q-204 0 -326.5 68.5t-203.5 230.5z" />
<glyph unicode="6" horiz-adv-x="1517" d="M125 475q-5 155 47 344q53 202 147 365.5t212.5 271t256 165.5t281.5 58q185 0 300.5 -59.5t189.5 -185.5l-179 -146q-92 207 -360 207q-225 0 -396 -173.5t-245 -457.5h4q101 110 246.5 176t294.5 66q102 0 185 -21t140.5 -59.5t97 -90.5t56.5 -115.5t16.5 -133.5 t-20.5 -145q-29 -109 -92 -207.5t-158 -179.5t-231 -129t-293 -48q-162 0 -275 60.5t-166.5 171.5t-58.5 266zM330 450.5q0 -44.5 12 -86.5t39 -78.5t66 -64t97 -43.5t128 -16q100 0 192 33.5t159.5 88t114.5 121.5t66 136q11 44 11 88t-11 87t-38 80t-66 65.5t-97.5 44.5 t-130.5 16q-101 0 -194 -35t-160 -91t-113 -123t-63 -134q-12 -44 -12 -88.5z" />
<glyph unicode="7" horiz-adv-x="1337" d="M283 1475l45 184h1216l-39 -162l-592 -590q-131 -131 -207 -274t-126 -346l-72 -287h-193l74 299q58 231 145 390.5t246 318.5l324 323l162 139v5h-983z" />
<glyph unicode="8" horiz-adv-x="1525" d="M74 370q2 50 12 99q35 143 143.5 248.5t274.5 161.5v4q-227 122 -170 356q22 87 73.5 163.5t134.5 139.5t208.5 100t279.5 37q89 0 164 -12.5t129.5 -35.5t95.5 -55t65.5 -70t36.5 -82t11.5 -90t-12.5 -95q-29 -121 -117.5 -207t-231.5 -149v-4q138 -60 194.5 -164 t20.5 -246q-17 -70 -58 -139t-109.5 -132.5t-155 -111.5t-202.5 -77t-245 -29q-93 0 -172.5 15t-137.5 42t-104 63.5t-72 80t-42 91.5t-14 98zM280 403q6 -36 19.5 -70t45 -65t73.5 -54t104.5 -36.5t136.5 -13.5q110 0 207 29t162 75t107 99.5t55 105.5q32 133 -69.5 227.5 t-305.5 94.5q-203 0 -349.5 -94.5t-180.5 -227.5q-11 -34 -5 -70zM524.5 1166.5q4.5 -31.5 16 -62t39 -58t63.5 -48t91 -32.5t120 -12q97 0 182 26t141.5 67t92.5 87.5t47 92.5q7 38 6 75.5t-23.5 72t-59 61t-101 42t-148.5 15.5q-105 0 -190.5 -23.5t-139.5 -63 t-86.5 -84.5t-44.5 -95q-10 -29 -5.5 -60.5z" />
<glyph unicode="9" horiz-adv-x="1517" d="M74 227l178 146q96 -211 377 -211q150 0 279 81.5t218.5 222.5t139.5 327h-4q-103 -110 -247.5 -176t-293.5 -66q-102 0 -185 21t-140.5 59.5t-97 90.5t-56.5 115.5t-16.5 133.5t20.5 145q23 86 66.5 166.5t112 153t154 126.5t199 85.5t240.5 31.5q130 0 228.5 -39 t160 -112t90.5 -176t22.5 -233t-46.5 -281q-71 -268 -209 -465t-312.5 -296.5t-367.5 -99.5q-190 0 -312 60.5t-198 189.5zM429 1028q0 -44 11 -87t37.5 -80t65.5 -65.5t97.5 -44.5t129.5 -16q101 0 194.5 35t160.5 91t113.5 122.5t64.5 134.5q11 53 10.5 106t-25 102 t-63 86.5t-104.5 60t-150 22.5q-99 0 -191.5 -33.5t-160 -88t-114.5 -121.5t-65 -136q-11 -44 -11 -88z" />
<glyph unicode=":" horiz-adv-x="589" d="M37 150q19 76 70 121.5t124 45.5t101.5 -45t9.5 -122t-70.5 -123.5t-124.5 -46.5t-101 46.5t-9 123.5zM266 1079q19 76 70.5 122t124.5 46q74 0 102.5 -46t7.5 -122q-19 -77 -70 -123.5t-124 -46.5t-101.5 46.5t-9.5 123.5z" />
<glyph unicode=";" horiz-adv-x="593" d="M-74 -301l176 262l31 21q-62 0 -88.5 47.5t-7.5 120.5q19 76 70 121.5t124 45.5q74 0 104.5 -45.5t10.5 -121.5q-11 -49 -49 -107l-264 -393zM266 1079q19 76 70.5 122t124.5 46q74 0 102.5 -46t7.5 -122q-19 -77 -70 -123.5t-124 -46.5t-101.5 46.5t-9.5 123.5z" />
<glyph unicode="&#x3c;" horiz-adv-x="1026" d="M174 829l750 605l100 -134l-469 -378l-137 -93l90 -94l283 -377l-166 -133z" />
<glyph unicode="=" horiz-adv-x="1368" d="M168 512l45 184h1004l-46 -184h-1003zM279 963l45 184h1003l-45 -184h-1003z" />
<glyph unicode="&#x3e;" horiz-adv-x="1026" d="M129 358l471 379l133 92l-90 95l-281 376l164 134l451 -605l-750 -604z" />
<glyph unicode="?" horiz-adv-x="1296" d="M285 150q19 76 70 121.5t124 45.5t101.5 -45t9.5 -122t-71 -123.5t-124 -46.5q-73 0 -101 46.5t-9 123.5zM322 1425q273 254 618 254q80 0 148 -18t115.5 -49t83.5 -72.5t52 -89.5t21 -99.5t-10 -101.5q-31 -132 -133 -234t-238 -151l-84 -30q-132 -48 -184 -113 t-90 -217l-17 -68h-192l20 86q20 79 41 135.5t54.5 112t79.5 96.5t113 79.5t157 70.5l51 18q101 36 152.5 87t70.5 128q23 91 -50 168.5t-208 77.5q-254 0 -459 -211z" />
<glyph unicode="@" horiz-adv-x="2007" d="M182 559.5q-8 138.5 29 298.5q36 142 115.5 275.5t189.5 240.5t240 188t274.5 125t284.5 44q167 0 305.5 -63.5t223.5 -174t117 -260.5t-13 -324q-19 -79 -60 -160.5t-101.5 -156t-131 -133t-155 -93t-167.5 -34.5q-157 0 -194 129h-4q-76 -63 -163 -97t-169 -34 t-139.5 34t-82 90t-29.5 128.5t17 150.5q25 102 88.5 205t147.5 186t191.5 135t211.5 52q60 0 111.5 -30t75.5 -77h4l45 84h176l-264 -526q-44 -86 -64 -162q-12 -50 17 -84.5t77 -34.5q75 0 144.5 41t120.5 106t86.5 137t52.5 142q25 113 18.5 215t-49.5 189t-109 150.5 t-161 99.5t-205 36q-198 0 -392.5 -101t-336 -273t-190.5 -373q-51 -211 1 -387.5t196.5 -279.5t352.5 -103q205 0 422 127l78 -101q-119 -74 -258 -116.5t-264 -42.5q-153 0 -281.5 44t-219 124t-146.5 193t-64 251.5zM754 760q-65 -275 123 -275q70 0 136.5 41t116 106.5 t86 139t54.5 146.5q62 245 -119 245q-66 0 -133.5 -40t-119.5 -101t-90 -130.5t-54 -131.5z" />
<glyph unicode="A" horiz-adv-x="1710" d="M-111 0l1131 1659h205l311 -1659h-211l-74 399l15 21h-899l4 -21l-271 -399h-211zM500 604h725l-17 21l-125 665l-10 166h-4l-90 -166l-455 -665z" />
<glyph unicode="B" horiz-adv-x="1595" d="M41 0l410 1659h751q99 0 176.5 -24t124 -65.5t74 -98t27.5 -122t-15 -137.5q-28 -117 -90.5 -196t-175.5 -139l-2 -5q174 -86 175 -275q0 -58 -17 -126q-55 -220 -228.5 -345.5t-439.5 -125.5h-770zM258 184h598q184 0 286.5 72.5t137.5 214.5q12 47 12 86q0 78 -46 129 q-70 76 -249 76h-596l15 -21l-131 -536zM446 946h560q167 0 261 73t124 193q11 44 11 81q0 182 -265 182h-559l14 -21l-121 -487z" />
<glyph unicode="C" horiz-adv-x="1591" d="M136 538q2 129 36 281q47 189 139.5 347t221 272t297.5 177.5t360 63.5q399 0 551 -254l-182 -141q-103 211 -414 211q-156 0 -288 -53t-226.5 -146.5t-159.5 -213.5t-100 -263q-28 -113 -31 -209q0 -10 -1 -19q0 -85 24 -160q26 -83 80.5 -141.5t148.5 -92t221 -33.5 q314 0 520 209l109 -140q-278 -253 -674 -253q-157 0 -277.5 39t-196.5 111q-76 73 -118 176q-40 99 -41 223q1 5 1 9z" />
<glyph unicode="D" horiz-adv-x="1669" d="M41 0l410 1659h620q134 0 237 -25.5t169.5 -69t109 -108t60.5 -134.5q19 -70 19 -156v-7q0 -82 -12 -159q-12 -80 -34 -171q-23 -92 -50 -171.5t-70 -166t-94.5 -156t-125 -133.5t-160 -107.5t-201 -69t-247.5 -25.5h-631zM258 184h438q103 0 190 18t153 49.5t121 79.5 t94 100.5t72 120.5t54.5 133t40.5 144t29 143q11 68 12 138q0 66 -14 116q-14 52 -45.5 100.5t-83 80t-130.5 50t-183 18.5h-428l14 -21l-307 -1249z" />
<glyph unicode="E" horiz-adv-x="1529" d="M41 0l410 1659h1206l-45 -184h-1034l14 -21l-127 -512l-25 -20h936l-45 -185h-936l15 -20l-125 -512l-27 -21h1034l-45 -184h-1206z" />
<glyph unicode="F" horiz-adv-x="1409" d="M41 0l410 1659h1165l-45 -184h-993l14 -21l-137 -553l-25 -20h897l-47 -185h-895l14 -20l-166 -676h-192z" />
<glyph unicode="G" horiz-adv-x="1794" d="M137 466q-4 39 -4 81q0 122 37 266q65 263 208.5 457.5t353.5 301.5t464 107q191 0 342 -59t229 -190l-180 -142q-54 109 -169.5 158t-266.5 49q-306 0 -504 -179.5t-278 -502.5q-32 -123 -32 -226q0 -23 1 -45q9 -120 60.5 -204t156 -129t256.5 -45q234 0 420.5 157 t245.5 398l26 20h-559l47 185h707l-228 -924h-165l59 244h-4q-121 -126 -275.5 -195t-320.5 -69q-190 0 -326.5 58t-210 166t-90.5 262z" />
<glyph unicode="H" horiz-adv-x="1714" d="M41 0l410 1659h192l-178 -717l-25 -20h1004l-14 20l176 717h192l-409 -1659h-193l176 717l27 20h-1004l15 -20l-177 -717h-192zM395 737h1004h-1004z" />
<glyph unicode="I" horiz-adv-x="577" d="M51 0l410 1659h192l-409 -1659h-193z" />
<glyph unicode="J" horiz-adv-x="1245" d="M-84 233l170 138q40 -91 123 -149t178 -58q76 0 148 22.5t141.5 70t125.5 135t85 206.5l262 1061h192l-260 -1051q-34 -137 -92.5 -245.5t-129.5 -179.5t-158 -117.5t-175.5 -66t-185.5 -19.5q-145 0 -256.5 67.5t-167.5 185.5z" />
<glyph unicode="K" horiz-adv-x="1484" d="M41 0l410 1659h192l-410 -1659h-192zM461 838l991 819h272l-1007 -813v-4l624 -840h-280z" />
<glyph unicode="L" horiz-adv-x="1323" d="M41 0l410 1659h192l-358 -1452l-27 -23h940l-47 -184h-1110z" />
<glyph unicode="M" horiz-adv-x="1976" d="M41 0l410 1659h172l278 -1106l33 -195h4l129 195l823 1106h172l-409 -1659h-193l301 1221h-4l-174 -265l-741 -979h-4l-260 992l-39 252h-4l-302 -1221h-192z" />
<glyph unicode="N" horiz-adv-x="1714" d="M41 0l410 1659h176l571 -1147l74 -186h4l330 1333h192l-409 -1659h-177l-569 1139l-76 194h-4l-330 -1333h-192z" />
<glyph unicode="O" horiz-adv-x="1761" d="M172 819q47 190 136 347t212.5 271.5t285.5 178t347 63.5q149 0 263.5 -41t187.5 -116q72 -76 109 -182q36 -104 36 -231v-7q-1 -132 -39 -283q-94 -385 -352 -612t-625 -227q-149 0 -263.5 39t-188 111.5t-111.5 175.5q-37 102 -37 229q0 131 39 284zM339 610 q-1 -14 -1 -27q0 -81 20 -152q24 -83 75.5 -141.5t139 -92t207.5 -33.5q149 0 273.5 50.5t213 141t149 206.5t95.5 257q28 111 33 209q1 18 1 36q0 78 -18 148q-22 86 -72 148.5t-138 98.5t-209 36q-148 0 -273 -52.5t-215 -147t-151.5 -214t-97.5 -262.5q-28 -113 -32 -209 z" />
<glyph unicode="P" horiz-adv-x="1564" d="M41 0l410 1659h749q128 0 222 -38t144 -106t65 -162q5 -31 5 -65q0 -67 -20 -141q-56 -223 -236 -367.5t-434 -144.5h-577l16 -21l-152 -614h-192zM416 819h575q170 0 279.5 90t146.5 238q13 56 13 103q0 82 -40 138q-64 88 -235 87h-577l14 -21l-152 -614z" />
<glyph unicode="Q" horiz-adv-x="1761" d="M174 829q47 190 135.5 345.5t212 268t285 174.5t346.5 62q150 0 264.5 -40t188 -113.5t110.5 -178.5q37 -104 37 -232q0 -2 -1 -3q0 -131 -38 -283q-86 -354 -313 -577l188 -254l-162 -131l-188 254q-224 -141 -506 -141q-149 0 -263.5 40t-187.5 114t-110 178t-37 232 q0 132 39 285zM341 620q-1 -15 -1 -29q0 -82 20 -153q23 -85 74 -145t139 -94.5t207 -34.5q187 0 334 80l33 2l-197 264l162 131l193 -260l10 31q139 167 201 417q27 111 32 208v32q0 79 -18 150q-23 85 -73.5 145.5t-139 95.5t-209.5 35q-120 0 -224 -34t-184.5 -93.5 t-145.5 -144t-109 -182.5t-72 -212q-28 -112 -32 -209z" />
<glyph unicode="R" horiz-adv-x="1595" d="M41 0l410 1659h718q115 0 206 -30.5t153 -91.5q60 -61 80 -153q8 -37 8 -79q0 -62 -17 -136q-39 -158 -160.5 -273.5t-271.5 -152.5l-2 -4q56 -26 99.5 -82.5t62.5 -138.5l117 -518h-217l-97 436q-30 129 -114 188.5t-244 59.5h-391l16 -20l-164 -664h-192zM428 868h524 q175 0 295.5 83t153.5 218q13 53 13 96q0 86 -52 136q-78 74 -238 74h-546l14 -21l-139 -565z" />
<glyph unicode="S" horiz-adv-x="1562" d="M20 250l189 143q99 -121 215 -175t274 -54q221 0 361 76t170 198q6 24 6 48q0 62 -44 114q-61 72 -212 115q-16 5 -140.5 41t-140.5 41q-63 19 -113.5 38t-98 42.5t-80 49.5t-60 58t-38.5 69q-10 36 -14 81q-1 9 -1 17q0 37 12 79q22 88 80 167t150 142.5t227.5 101 t296.5 37.5q196 0 342 -66.5t225 -187.5l-182 -141q-57 98 -165 154.5t-263 56.5q-218 0 -350 -73.5t-160 -182.5q-5 -20 -5 -39q1 -64 61 -110q78 -58 276 -119q221 -67 247 -74q218 -62 301 -178q57 -80 57 -178q0 -43 -11 -90q-18 -72 -56 -138t-103 -127.5t-150 -106.5 t-204.5 -72t-259.5 -27q-208 0 -380 68.5t-259 201.5z" />
<glyph unicode="T" horiz-adv-x="1449" d="M262 1475l45 184h1370l-47 -184h-598l6 -21l-358 -1454h-193l359 1454l14 21h-598z" />
<glyph unicode="U" horiz-adv-x="1736" d="M217 760l223 899h193l-221 -897q-36 -140 -35 -247q1 -109 39 -189t126.5 -121t225.5 -41q265 0 422 154t229 444l221 897h193l-221 -899q-195 -780 -889 -780q-353 0 -477 196q-70 111 -70 284q0 132 41 300z" />
<glyph unicode="V" horiz-adv-x="1665" d="M297 1659h217l217 -1290l10 -166h4l91 166l854 1290h213l-1110 -1659h-205z" />
<glyph unicode="W" horiz-adv-x="2123" d="M317 1659h207l15 -1290l-15 -166h4l70 166l655 1290h154l20 -1290l-16 -166h4l70 166l651 1290h203l-846 -1659h-252l-14 1106l18 197h-4l-80 -197l-561 -1106h-254z" />
<glyph unicode="X" horiz-adv-x="1550" d="M-102 0l821 834l-406 825h246l246 -512l67 -172h5l151 172l502 512h239l-811 -828l408 -831h-244l-248 512l-67 180h-4l-160 -180l-502 -512h-243z" />
<glyph unicode="Y" horiz-adv-x="1624" d="M297 1659h244l276 -608l64 -191h4l157 191l578 608h242l-922 -963l-172 -696h-195l172 696z" />
<glyph unicode="Z" horiz-adv-x="1591" d="M-20 0l40 164l1246 1167l172 139v5h-1073l45 184h1316l-38 -162l-1237 -1167l-179 -142v-4h1102l-47 -184h-1347z" />
<glyph unicode="[" horiz-adv-x="565" d="M-117 -389l555 2247h424l-37 -150h-266l-479 -1946h266l-39 -151h-424z" />
<glyph unicode="\" horiz-adv-x="636" d="M231 1761h170l129 -1863h-170z" />
<glyph unicode="]" horiz-adv-x="565" d="M-217 -389l37 151h266l479 1946h-266l39 150h424l-555 -2247h-424z" />
<glyph unicode="^" horiz-adv-x="1325" d="M219 850l639 809h146l237 -809h-192l-138 461l-28 143h-4l-103 -143l-364 -461h-193z" />
<glyph unicode="_" horiz-adv-x="1333" d="M-254 -369l43 174h1376l-43 -174h-1376z" />
<glyph unicode="`" horiz-adv-x="1409" d="M756 1772l172 139l243 -406l-100 -82z" />
<glyph unicode="a" d="M97 422q2 100 30 215q36 147 104 269.5t162.5 213t220.5 141t271 50.5q121 0 214 -48t142 -130h4l39 157h186l-317 -1290h-188l39 150h-5q-179 -170 -442 -170q-118 0 -207.5 31.5t-144.5 89.5q-55 57 -83 139q-26 76 -25 168v14zM288 484q-1 -13 0 -25q0 -56 13 -106 q16 -61 53 -103t101.5 -66t152.5 -24q213 0 345.5 130.5t185.5 348.5q22 85 26 157q1 15 1 29q0 56 -12 105q-16 62 -52.5 106t-100.5 69t-153 25q-107 0 -197.5 -38t-155.5 -106t-110.5 -155t-71.5 -192q-21 -85 -25 -155z" />
<glyph unicode="b" d="M41 0l424 1720h186l-145 -587h4q197 178 444 178q119 0 208 -32.5t144 -92.5q56 -58 82 -142q24 -76 24 -168v-18q-2 -102 -32 -219q-36 -145 -102 -264.5t-159.5 -208t-219.5 -137.5t-272 -49q-266 0 -359 170h-4l-37 -150h-186zM344 485q-1 -12 0 -25q0 -57 14 -107 q16 -61 53 -103t101 -66t152 -24q109 0 198.5 36t153.5 102t108 151t70 190q21 84 25 156q1 14 1 28q0 57 -13 107q-16 62 -52.5 106t-100 69t-151.5 25q-110 0 -201 -37.5t-155 -106t-108 -154.5t-70 -193q-21 -83 -25 -154z" />
<glyph unicode="c" horiz-adv-x="1251" d="M98 422q2 98 29 213q35 144 106.5 267.5t170.5 214.5t227.5 142.5t271.5 51.5q298 0 414 -168l-164 -133q-39 58 -115 90q-74 31 -172 30h-6q-105 -1 -197 -40.5t-160 -107.5t-116.5 -156.5t-73.5 -190.5q-19 -79 -21 -149q0 -9 -1 -17q0 -61 15 -113q17 -60 54.5 -103 t102.5 -68t153 -25q211 0 375 139l101 -131q-225 -188 -521 -188q-121 0 -213 32t-148 90q-58 58 -86 140q-27 77 -27 171q1 4 1 9z" />
<glyph unicode="d" d="M97 422q2 100 30 215q36 147 104 269.5t162.5 213t220.5 141t271 50.5q121 0 214 -48t142 -130h4l146 585h186l-424 -1718h-188l39 150h-5q-179 -170 -442 -170q-118 0 -207.5 31.5t-144.5 89.5q-55 57 -83 139q-26 76 -25 168v14zM288 484q-1 -13 0 -25q0 -56 13 -106 q16 -61 53 -103t101.5 -66t152.5 -24q213 0 345.5 130.5t185.5 348.5q22 85 26 157q1 15 1 29q0 56 -12 105q-16 62 -52.5 106t-100.5 69t-153 25q-107 0 -197.5 -38t-155.5 -106t-110.5 -155t-71.5 -192q-21 -85 -25 -155z" />
<glyph unicode="e" horiz-adv-x="1429" d="M98 422q2 98 29 213q48 198 156.5 350t268.5 239t349 87q148 0 251 -51t152 -141q48 -90 58 -214q2 -24 2 -49q0 -103 -31 -221q-3 -14 -22 -76h-1032l16 -20q-4 -34 -4 -66q0 -134 66 -214q81 -99 270 -99q210 0 385 139l100 -131q-235 -188 -530 -188q-124 0 -218 32 t-152 90t-87 140q-28 77 -28 171q1 4 1 9zM322 731h864l-17 21q4 36 4 69q0 126 -60 207q-76 102 -255 102q-183 0 -311 -103t-197 -275z" />
<glyph unicode="f" horiz-adv-x="835" d="M-428 -403l43 178q67 -37 166 -37q116 0 186.5 64.5t104.5 197.5l270 1098l14 20h-161l43 172h161l-4 21l4 16q45 186 179.5 295t326.5 109q95 0 166 -33l-43 -176q-27 13 -77 22.5t-85 9.5q-112 0 -183.5 -60.5t-98.5 -170.5l-2 -12l-17 -21h406l-41 -172h-406l4 -20 l-270 -1098q-54 -215 -181.5 -327.5t-314.5 -112.5q-109 0 -190 37z" />
<glyph unicode="g" d="M-12 -266l166 135q58 -61 154 -96t200 -35q192 0 316 98t169 279l39 157h-4q-190 -170 -450 -170q-286 0 -395 161q-67 99 -67 241q0 90 27 198q31 127 95.5 236.5t156.5 193t215.5 131.5t263.5 48q129 0 226.5 -47.5t140.5 -130.5h4l39 157h186l-290 -1177 q-66 -267 -246 -410t-469 -143q-303 0 -477 174zM330 702q-19 -76 -19 -140q0 -99 46 -167q75 -112 272 -112q213 0 346.5 113.5t179.5 305.5q17 71 17 132q0 105 -52 179q-81 117 -282 117q-198 0 -330 -118t-178 -310z" />
<glyph unicode="h" d="M41 0l424 1720h186l-145 -592h4q91 87 211.5 135t243.5 48q261 1 359 -131q63 -84 63 -206q0 -69 -21 -151l-205 -823h-186l196 793q19 63 19 119v14q-2 62 -27 107t-91.5 71t-172.5 26q-171 0 -305 -94t-178 -270l-189 -766h-186z" />
<glyph unicode="i" horiz-adv-x="550" d="M41 0l317 1290h187l-318 -1290h-186zM406 1597q15 62 56 99t99 37q60 0 82 -37q13 -23 14 -55q0 -20 -6 -44q-15 -61 -56.5 -98t-98.5 -37q-60 0 -82 36q-13 22 -13 55q0 20 5 44z" />
<glyph unicode="j" horiz-adv-x="550" d="M-373 -406l45 179q60 -35 154 -35q70 0 121.5 46.5t72.5 135.5l338 1370h187l-340 -1382q-42 -172 -149.5 -260t-270.5 -88q-97 0 -158 34zM406 1597q15 62 56 99t99 37q60 0 82 -37q13 -23 13 -55q0 -20 -5 -44q-15 -61 -56.5 -98t-98.5 -37q-60 0 -82 36q-13 23 -13 55 q0 20 5 44z" />
<glyph unicode="k" horiz-adv-x="1288" d="M41 0l424 1720h186l-424 -1720h-186zM412 664l759 626h265l-783 -628v-5l492 -657h-258z" />
<glyph unicode="l" horiz-adv-x="550" d="M41 0l424 1720h186l-424 -1720h-186z" />
<glyph unicode="m" horiz-adv-x="2037" d="M41 0l317 1290h189l-41 -162h4q70 83 171 133t204 50q120 0 198.5 -63t102.5 -163h4q89 102 205.5 164t232.5 62q316 0 316 -311q0 -101 -33 -234l-189 -766h-188l178 717q16 66 24 113t12 98q1 13 1 25q0 33 -7 59q-10 34 -31.5 62.5t-62 42t-98.5 13.5 q-144 0 -245.5 -102t-139.5 -252l-188 -776h-191l191 766q17 69 23 120q4 29 4 57q0 23 -2 43q-5 48 -26 79t-63.5 49.5t-107.5 18.5q-129 0 -238 -102t-147 -257l-193 -774h-186z" />
<glyph unicode="n" d="M41 0l317 1290h187l-39 -162h4q87 84 209 133.5t244 49.5q253 -1 357 -127q67 -81 67 -207q0 -70 -21 -154l-205 -823h-186l192 782q16 66 20 116q1 12 1 24q0 36 -9 70q-12 46 -44 75t-91 46t-145 17q-171 0 -305 -94t-178 -270l-189 -766h-186z" />
<glyph unicode="o" horiz-adv-x="1429" d="M98 427q2 101 31 218q36 146 104 267t163.5 210.5t223.5 139t275 49.5q148 0 252 -49.5t155 -137.5q52 -89 62 -211q2 -26 2 -53q0 -100 -31 -215q-36 -145 -104.5 -266t-164.5 -210t-224.5 -139t-274.5 -50q-119 0 -209.5 32t-147.5 90q-56 60 -84 142q-27 78 -28 173 v10zM292 454q4 -88 36 -153.5t104.5 -103t179.5 -37.5q108 0 198.5 37t156 104t111 153t71.5 191q24 88 24 166q-1 13 -1 25q-4 88 -36 153.5t-104.5 103t-179.5 37.5q-108 0 -199 -37t-156 -103.5t-110.5 -152.5t-71.5 -192q-24 -88 -25 -166q1 -13 2 -25z" />
<glyph unicode="p" d="M-66 -430l424 1720h187l-39 -157h4q86 84 202 131t242 47q117 0 206 -32.5t144 -91.5t82 -142q26 -77 26 -170v-13q-2 -101 -30 -217q-37 -148 -102.5 -268.5t-159 -209.5t-220 -138t-275.5 -49q-129 0 -215.5 41t-141.5 129h-4l-143 -580h-187zM346 490q-1 -15 -1 -29 q0 -56 13 -105q15 -61 51.5 -104t100.5 -67.5t152 -24.5q110 0 200.5 36.5t154.5 103.5t108.5 153t70.5 192q21 84 24 155q1 13 1 26q0 57 -13 108q-16 61 -53 104t-100.5 67.5t-151.5 24.5q-109 0 -199.5 -37.5t-154.5 -104.5t-108 -152.5t-70 -190.5q-21 -84 -25 -155z " />
<glyph unicode="q" d="M98 426q2 101 31 219q36 145 102.5 265.5t160.5 210.5t220.5 140t272.5 50q128 0 220.5 -47t135.5 -131h4l39 157h186l-423 -1720h-187l144 580h-5q-99 -88 -206 -129t-236 -41q-119 0 -208.5 32t-144.5 90t-82 141q-25 76 -25 167q0 8 1 16zM290 490v-26q0 -57 13 -108 q16 -61 53 -104t100.5 -67.5t151.5 -24.5q110 0 200 36.5t154.5 103.5t108.5 153t70 192q21 83 25 155v25q0 57 -13 107q-16 62 -53 105.5t-100.5 68t-151.5 24.5q-110 0 -200 -37t-154.5 -104t-108.5 -152.5t-70 -191.5q-21 -84 -25 -155z" />
<glyph unicode="r" horiz-adv-x="862" d="M41 0l317 1290h187l-56 -223h5q81 114 209.5 176t257.5 62h40l-49 -201h-61q-57 0 -115 -15.5t-118.5 -51t-111.5 -88t-94 -133t-67 -179.5l-158 -637h-186z" />
<glyph unicode="s" horiz-adv-x="1288" d="M18 199l172 139q81 -97 166 -138.5t199 -41.5q162 0 259.5 53t117.5 135q5 20 5 37q0 42 -27 72q-38 43 -156 77q-12 4 -58 18.5t-96 31t-57 18.5q-47 14 -85 28.5t-75 33.5t-62.5 39.5t-47.5 47t-31 56t-12 66.5q-1 7 -1 14q0 31 11 65q18 72 65 136t119.5 115 t177.5 80.5t229 29.5q310 0 447 -209l-172 -139q-96 167 -318 167q-155 0 -248 -52t-110 -122q-3 -12 -3 -24q0 -44 42 -78q53 -42 197 -84q7 -2 90.5 -30t99.5 -33q174 -51 236 -138q41 -58 41 -133q0 -39 -11 -82q-18 -74 -63 -139t-117 -119.5t-181.5 -86.5t-242.5 -32 q-162 0 -294 54.5t-206 167.5z" />
<glyph unicode="t" horiz-adv-x="952" d="M164 377l178 721l14 20h-161l43 172h161l-4 21l49 205l213 102l-75 -307l-17 -21h406l-41 -172h-406l4 -20l-176 -713q-12 -52 -12 -92q0 -47 16 -77q32 -58 115 -58q129 0 250 96l100 -131q-207 -143 -405 -143q-161 0 -230 104q-41 62 -41 154q0 63 19 139z" />
<glyph unicode="u" horiz-adv-x="1460" d="M152 487l198 803h187l-197 -792q-15 -62 -19 -109q-1 -12 -1 -24q0 -33 8 -67q12 -44 42.5 -73.5t89 -47t144.5 -17.5q170 0 300.5 94t174.5 270l189 766h186l-317 -1290h-187l39 162h-4q-201 -182 -444 -182q-261 0 -355 132q-57 80 -57 202q0 78 23 173z" />
<glyph unicode="v" horiz-adv-x="1331" d="M197 1290h209l153 -923l12 -164h4l97 164l608 923h209l-862 -1290h-205z" />
<glyph unicode="w" horiz-adv-x="1810" d="M207 1290h199l36 -942l-14 -145h4l57 145l515 942h155l51 -942l-14 -145h4l57 145l504 942h195l-694 -1290h-218l-51 817l17 164h-4l-68 -164l-457 -817h-219z" />
<glyph unicode="x" horiz-adv-x="1261" d="M-102 0l637 649l-314 641h234l186 -395l39 -113h4l96 113l383 395h230l-629 -643l315 -647h-231l-189 395l-41 121h-4l-100 -121l-385 -395h-231z" />
<glyph unicode="y" horiz-adv-x="1341" d="M-113 -389l45 178q76 -51 201 -51q83 0 162 65.5t164 198.5l-252 1288h209l170 -923l12 -164h4l94 164l584 923h209l-932 -1429q-92 -141 -207.5 -221t-234.5 -80q-145 0 -228 51z" />
<glyph unicode="z" horiz-adv-x="1333" d="M-20 0l36 150l926 845l141 111v4h-815l45 178h1067l-37 -143l-935 -846l-144 -117l-2 -4h852l-45 -178h-1089z" />
<glyph unicode="{" horiz-adv-x="669" d="M56.5 -234.5q-4.5 44.5 1 89t18.5 98.5l114 465q12 57 13.5 102t-25 76t-82.5 41l49 197q82 14 129 64.5t68 135.5l119 484q18 69 41 123t60 104t92 81t126 40q20 3 68 4.5t86 1.5h37l-37 -146q-84 0 -137.5 -9.5t-87 -34.5t-50.5 -57t-30 -87l-125 -502 q-29 -118 -76.5 -183.5t-151.5 -117.5q38 -25 60.5 -49t34 -46t10.5 -57t-7 -65.5t-20 -87.5l-123 -498q-18 -67 -9.5 -109t60 -60.5t162.5 -18.5l-36 -145q-146 0 -185 6q-54 7 -90.5 30t-54 54.5t-22 76z" />
<glyph unicode="|" horiz-adv-x="636" d="M66 -102l460 1863h170l-460 -1863h-170z" />
<glyph unicode="}" horiz-adv-x="669" d="M-221 -401l37 145q84 0 137.5 9.5t87 34.5t50.5 57t30 87l123 498q15 59 24 88t25 64.5t38 57t56.5 46t85.5 49.5q-79 52 -95 120.5t15 180.5l125 502q18 67 9.5 109t-60 60.5t-162.5 18.5l35 146q145 0 186 -6q66 -9 106 -40.5t52.5 -81t9.5 -104t-20 -122.5l-121 -484 q-43 -173 100 -200l-49 -197q-89 -14 -134.5 -70t-68.5 -149l-114 -465q-17 -69 -40 -123t-60 -103.5t-92.5 -81t-127.5 -40.5q-19 -3 -66 -4.5t-85 -1.5h-37z" />
<glyph unicode="~" horiz-adv-x="1171" d="M68 600q48 92 156.5 167t217.5 75q52 0 108 -26.5t97.5 -58.5t92.5 -58.5t94 -26.5q69 0 131.5 48t101.5 122l82 -107q-58 -103 -165 -172t-214 -69q-51 0 -106 26.5t-95 58.5t-92 58.5t-98 26.5q-65 0 -128.5 -47t-103.5 -123z" />
<glyph horiz-adv-x="2027" />
<glyph unicode="&#xa1;" horiz-adv-x="589" d="M37 0l352 1223h131l-250 -1223h-233zM373 1509q19 77 70.5 123.5t123.5 46.5q74 0 103 -46.5t8 -123.5q-19 -76 -70.5 -122t-124.5 -46t-101 45.5t-9 122.5z" />
<glyph unicode="&#xa2;" horiz-adv-x="1251" d="M146 535q-10 127 26 284q35 144 106.5 267.5t170.5 214.5t227.5 142.5t271.5 51.5q42 0 56 -4l-3 18l74 170h158l-84 -192l-16 -12q154 -40 229 -148l-164 -133q-42 63 -143 102l2 -20l-402 -914l-18 -18h25q213 0 374 139l101 -131q-222 -188 -521 -188h-57l4 -14 l-76 -170h-157l84 192l18 14q-130 37 -203 129.5t-83 219.5zM336 627q2 -88 46 -157.5t128 -102.5v22l399 909l17 17h-21q-104 0 -196.5 -39.5t-160.5 -108.5t-116.5 -157.5t-73.5 -190.5q-24 -104 -22 -192z" />
<glyph unicode="&#xa3;" horiz-adv-x="1441" d="M-31 0l43 174q68 31 115.5 60t93 73.5t73.5 98.5t47 131.5t24 177.5l14 22h-193l45 183h146l-12 20q0 181 24 277q30 121 94.5 212t152.5 144.5t188.5 79.5t213.5 26q164 0 286.5 -72.5t184.5 -181.5l-174 -139q-108 209 -348 209q-331 0 -397 -270q-29 -120 -29 -283 l-16 -22h483l-45 -183h-434l10 -22q-17 -397 -287 -527l-2 -4h910l-47 -184h-1164z" />
<glyph unicode="&#xa4;" horiz-adv-x="1226" d="M82 444l174 144q-43 109 -12 237q30 125 129 236l-105 149l154 121l106 -141q123 72 256 72q128 0 215 -72l179 141l94 -121l-176 -147q41 -119 12 -238q-35 -133 -131 -241l102 -142l-151 -123l-109 142q-122 -70 -250 -70q-137 0 -221 72l-176 -141zM414 825 q-27 -110 28 -186q60 -78 168 -78q114 0 207 78q97 78 123 186q27 112 -31 191q-57 78 -166 78q-111 0 -206 -80q-96 -77 -123 -189z" />
<glyph unicode="&#xa5;" horiz-adv-x="1624" d="M158 348l43 180h514l-6 21l39 151l14 21h-512l43 180h387l-18 21l-345 737h244l277 -608l51 -158h4l129 158l577 608h242l-706 -737l-33 -29l393 8l-43 -180h-518l4 -21l-37 -151l-14 -21h516l-43 -180h-518l6 -18l-82 -330h-193l82 328l15 20h-512z" />
<glyph unicode="&#xa6;" horiz-adv-x="636" d="M66 -102l206 839h172l-208 -839h-170zM319 922l207 839h170l-207 -839h-170z" />
<glyph unicode="&#xa7;" horiz-adv-x="1280" d="M-31 -207l160 129q49 -73 142 -113t196 -40q216 0 260 178q14 57 -20 112q-27 47 -80 94.5t-110 84t-122 81t-117 84.5t-94.5 95t-55 113t2.5 137q15 61 49 116t84.5 102.5t97.5 83t111 76.5q-78 107 -51 226q26 102 105.5 177t185.5 111.5t225 36.5q132 0 246.5 -59.5 t185.5 -157.5l-160 -129q-50 76 -134 124t-181 48q-100 0 -174.5 -40t-93.5 -115q-13 -54 16 -105t85 -94t126 -87t139 -93t122.5 -102.5t77.5 -124.5t5 -150q-29 -117 -112 -209.5t-209 -173.5q24 -34 37.5 -60t23 -58t8.5 -67.5t-12 -78.5q-22 -89 -74 -159t-121.5 -112.5 t-149.5 -64t-165 -21.5q-137 0 -260.5 54.5t-194.5 150.5zM322.5 713q-0.5 -23 10 -47t22 -41.5t30.5 -36.5t35.5 -32t36.5 -28l317 -221q56 42 92.5 72.5t77.5 82t53 97.5q5 21 5.5 41.5t-5 39t-12.5 34.5t-20 31.5t-24.5 28t-28.5 26.5t-28.5 23t-29.5 22l-295 213 q-42 -31 -70 -53t-66 -57t-62 -71t-33 -71q-5 -30 -5.5 -53z" />
<glyph unicode="&#xa8;" horiz-adv-x="1409" d="M575 1585q15 62 56 98.5t100 36.5q60 0 82.5 -36.5t7.5 -98.5t-56 -98.5t-99 -36.5q-59 0 -82 36t-9 99zM1053 1585q15 62 55.5 98.5t99.5 36.5q58 0 81 -36.5t9 -98.5q-15 -62 -56.5 -98.5t-100.5 -36.5t-81 36t-7 99z" />
<glyph unicode="&#xa9;" horiz-adv-x="1925" d="M158 552q-8 127 24 269q57 230 217.5 425t382.5 309t451 114q114 0 215.5 -30.5t179.5 -85.5t137.5 -132.5t89 -172t35 -202.5t-25.5 -225q-58 -231 -219 -427t-382.5 -310.5t-449.5 -114.5q-137 0 -255.5 43.5t-201.5 121t-136.5 184.5t-61.5 234zM319.5 637 q4.5 -89 27.5 -168t71 -144.5t110.5 -112.5t144.5 -73t175 -26q185 0 366.5 97.5t313 260.5t176.5 350q25 94 21 183t-27.5 167.5t-71.5 144t-110.5 113t-144 73.5t-173.5 26q-138 0 -279 -58t-256 -154t-201.5 -226t-121.5 -269q-25 -95 -20.5 -184zM483.5 633.5 q0.5 82.5 24.5 177.5q30 121 90 224.5t143 179.5t191.5 119.5t228.5 43.5q248 0 348 -143l-143 -117q-72 106 -244 103q-169 -1 -287.5 -117t-162.5 -293q-23 -80 -18.5 -151.5t30.5 -125t87 -85t151 -31.5q174 0 313 119l86 -115q-192 -162 -440 -162q-101 0 -178 27.5 t-124.5 76.5t-71.5 118t-23.5 151.5z" />
<glyph unicode="&#xaa;" horiz-adv-x="952" d="M209 1003.5q-16 96.5 12 223.5q49 199 180.5 321.5t321.5 122.5q74 0 132 -27t91 -75l23 88h139l-209 -850h-141l20 82q-116 -96 -272 -96q-128 0 -204.5 57t-92.5 153.5zM362 1229q-34 -139 7.5 -219t173.5 -80t214 81t115 218q18 65 16.5 121t-19.5 97.5t-62.5 65 t-112.5 23.5q-130 0 -214 -84t-118 -223z" />
<glyph unicode="&#xab;" horiz-adv-x="1245" d="M98 522l512 414l95 -127l-232 -188l-141 -97l-2 -4l94 -98l139 -186l-157 -127zM586 522l510 414l96 -127l-231 -188l-144 -97v-4l94 -98l138 -186l-156 -127z" />
<glyph unicode="&#xac;" horiz-adv-x="1181" d="M59 571l47 187h1061l-161 -656h-189l111 449l26 20h-895z" />
<glyph unicode="&#xad;" horiz-adv-x="800" d="M61 573l45 185h678l-45 -185h-678z" />
<glyph unicode="&#xae;" horiz-adv-x="1925" d="M182 819q57 231 217.5 426.5t382.5 309.5t451 114q114 0 215.5 -30.5t179.5 -86t137.5 -133t89 -172t35 -203t-25.5 -225.5q-58 -230 -219 -425.5t-382.5 -310t-449.5 -114.5q-229 0 -394.5 114.5t-230 310t-6.5 425.5zM321 601q6 -104 49.5 -193.5t109.5 -155 t161.5 -102.5t206.5 -37q184 0 366 97.5t313.5 260t176.5 348.5q25 95 21 184t-27.5 168t-71.5 144.5t-110.5 113t-144 73.5t-173.5 26q-138 0 -279 -58t-256 -154t-201.5 -226.5t-121.5 -270.5q-25 -114 -19 -218zM520 332l242 975h422q67 0 120.5 -18t91 -55t49.5 -93.5 t-5 -132.5q-21 -82 -78.5 -146t-132.5 -98q38 -38 53 -107l72 -325h-174l-58 258q-14 65 -52.5 94t-119.5 29h-196l12 -19l-88 -362h-158zM791 866h272q87 0 144 39.5t73 102.5q38 145 -133 145h-285l12 -18l-61 -250z" />
<glyph unicode="&#xaf;" horiz-adv-x="1437" d="M578 1520l34 137h801l-35 -137h-800z" />
<glyph unicode="&#xb0;" horiz-adv-x="868" d="M240 1294q41 171 157 278t283 107q169 0 233 -106.5t21 -278.5q-41 -170 -158 -276.5t-284 -106.5q-169 0 -232 106t-20 277zM383 1294q-28 -109 6.5 -174t136.5 -65q103 0 170 64.5t95 174.5q28 111 -7.5 176.5t-138.5 65.5q-102 0 -168 -65.5t-94 -176.5z" />
<glyph unicode="&#xb1;" horiz-adv-x="1368" d="M76 143l45 185h1003l-45 -185h-1003zM258 881l45 184h422l-6 20l108 437h183l-109 -437l-14 -20h420l-45 -184h-420l4 -21l-107 -434h-184l109 434l14 21h-420z" />
<glyph unicode="&#xb2;" horiz-adv-x="851" d="M152 739l41 168q27 107 105 197.5t200 130.5l118 39q91 30 130 61.5t49 71.5q11 48 -16.5 80.5t-112.5 32.5q-63 0 -119 -28.5t-121 -94.5l-82 112q168 160 361 160q150 0 209 -76.5t32 -185.5q-48 -192 -295 -272l-141 -48q-65 -23 -108.5 -70t-57.5 -108l-2 -4l-16 -16 h491l-37 -150h-628z" />
<glyph unicode="&#xb3;" horiz-adv-x="921" d="M188 887l138 110q35 -64 81.5 -93.5t122.5 -29.5q103 0 164 42.5t72 91.5q14 57 -20 94.5t-125 46.5l-150 4l35 143q118 3 147 7q93 9 141.5 45.5t57.5 78.5q11 42 -23.5 73.5t-134.5 31.5q-74 0 -134 -28t-124 -89l-82 113q170 151 377 151q164 0 232 -73.5t41 -182.5 q-31 -119 -177 -190l-2 -4q62 -26 88.5 -82t6.5 -135q-14 -53 -47.5 -102.5t-85.5 -91t-127.5 -66.5t-163.5 -25q-108 0 -182.5 39t-125.5 121z" />
<glyph unicode="&#xb4;" horiz-adv-x="1409" d="M731 1505l445 406l102 -139l-487 -349z" />
<glyph unicode="&#xb5;" horiz-adv-x="1456" d="M-84 -430l426 1720h186l-190 -772q-40 -167 33.5 -262.5t224.5 -95.5q173 0 302.5 95.5t172.5 268.5l189 766h186l-318 -1290h-186l37 152h-4q-95 -87 -206 -129.5t-218 -42.5q-105 0 -177.5 41t-121.5 131h-4l-144 -582h-188z" />
<glyph unicode="&#xb6;" horiz-adv-x="1257" d="M141 1147q53 211 238.5 361.5t394.5 150.5h608l-41 -170h-129l9 -14l-457 -1846h-172l455 1846l14 14h-164l6 -14l-454 -1846h-175l244 992l17 14h-19q-138 0 -236.5 68.5t-136 186t-2.5 257.5z" />
<glyph unicode="&#xb7;" horiz-adv-x="518" d="M133 831q21 76 72 122t123 46q75 0 103 -45.5t9 -122.5t-70.5 -123t-123.5 -46q-74 0 -103 46t-10 123z" />
<glyph unicode="&#xb8;" horiz-adv-x="1251" d="M309 -303l156 127q58 46 70 72t-9 49l-47 63h127l43 -51q32 -37 20.5 -86t-67.5 -94l-221 -178z" />
<glyph unicode="&#xb9;" horiz-adv-x="571" d="M270 1421l293 238h123l-229 -932h-150l158 637l33 84h-2l-66 -68l-80 -65z" />
<glyph unicode="&#xba;" horiz-adv-x="976" d="M223 1237q49 198 183 320t329 122t268.5 -121.5t24.5 -320.5q-49 -198 -184 -321t-328 -123q-194 0 -267.5 122t-25.5 322zM365 1237q-34 -138 10.5 -222.5t175.5 -84.5t216.5 84t119.5 223q34 138 -10.5 221.5t-176.5 83.5t-216.5 -83t-118.5 -222z" />
<glyph unicode="&#xbb;" horiz-adv-x="1245" d="M29 236l229 186l143 98v4l-94 97l-137 188l156 127l307 -414l-510 -413zM514 236l231 186l142 98l2 4l-94 97l-140 188l158 127l307 -414l-512 -413z" />
<glyph unicode="&#xbc;" horiz-adv-x="1542" d="M139 -20l1008 1699h162l-1010 -1699h-160zM270 1421l293 238h123l-229 -932h-150l158 637l33 84h-2l-66 -68l-80 -65zM618 205l29 119l637 606h135l-139 -561l-10 -15h106l-37 -149h-108l6 -10l-47 -197h-154l49 197l11 10h-478zM844 352l289 2l-5 15l66 268l27 80h-4 l-64 -78l-242 -229l-67 -54v-4z" />
<glyph unicode="&#xbd;" horiz-adv-x="1589" d="M139 -20l1008 1699h162l-1010 -1699h-160zM270 1421l293 238h123l-229 -932h-150l158 637l33 84h-2l-66 -68l-80 -65zM705 -2l40 168q27 108 105.5 198t200.5 130l118 41q91 29 130 60.5t49 72.5q11 46 -16.5 78t-112.5 32q-63 0 -119 -28.5t-121 -94.5l-82 115 q172 160 360 160q150 0 209.5 -76.5t32.5 -185.5q-24 -96 -95 -163.5t-200 -109.5l-141 -49q-66 -21 -109 -68.5t-57 -107.5l-2 -6l-16 -14h491l-37 -152h-628z" />
<glyph unicode="&#xbe;" horiz-adv-x="1865" d="M188 887l138 110q35 -64 81.5 -93.5t122.5 -29.5q103 0 164 42.5t72 91.5q14 57 -20 94.5t-125 46.5l-150 4l35 143q118 3 147 7q93 9 141.5 45.5t57.5 78.5q11 42 -23.5 73.5t-134.5 31.5q-74 0 -134 -28t-124 -89l-82 113q170 151 377 151q164 0 232 -73.5t41 -182.5 q-31 -119 -177 -190l-2 -4q62 -26 88.5 -82t6.5 -135q-14 -53 -47.5 -102.5t-85.5 -91t-127.5 -66.5t-163.5 -25q-108 0 -182.5 39t-125.5 121zM461 -20l1009 1699h160l-1007 -1699h-162zM942 205l29 119l635 606h137l-139 -561l-13 -15h109l-37 -149h-109l7 -10l-50 -197 h-151l49 197l10 10h-477zM1165 352l291 2l-6 15l68 268l26 80h-4l-65 -78l-242 -229l-66 -54z" />
<glyph unicode="&#xbf;" horiz-adv-x="1296" d="M62 308.5q-5 51.5 10 101.5q31 132 132.5 234t237.5 151l84 30q133 48 185 113.5t90 216.5l16 68h193l-21 -86q-25 -99 -53 -166t-77.5 -130t-125.5 -110.5t-188 -87.5l-51 -18q-101 -36 -153 -87t-71 -128q-23 -91 50 -168.5t208 -77.5q254 0 459 211l113 -142 q-272 -253 -619 -253q-80 0 -148 18t-115.5 49t-83.5 72.5t-51.5 89.5t-20.5 99.5zM831 1509q19 77 71 123.5t124 46.5q73 0 101.5 -46.5t9.5 -123.5q-19 -76 -70.5 -122t-124.5 -46t-101.5 45.5t-9.5 122.5z" />
<glyph unicode="&#xc0;" horiz-adv-x="1710" d="M-111 0l1131 1659h205l311 -1659h-211l-74 399l15 21h-899l4 -21l-271 -399h-211zM500 604h725l-17 21l-125 665l-10 166h-4l-90 -166l-455 -665zM983 2140l172 139l244 -405l-101 -82z" />
<glyph unicode="&#xc1;" horiz-adv-x="1710" d="M-111 0l1131 1659h205l311 -1659h-211l-74 399l15 21h-899l4 -21l-271 -399h-211zM500 604h725l-17 21l-125 665l-10 166h-4l-90 -166l-455 -665zM954 1872l443 405l104 -139l-487 -348z" />
<glyph unicode="&#xc2;" horiz-adv-x="1710" d="M-111 0l1131 1659h205l311 -1659h-211l-74 399l15 21h-899l4 -21l-271 -399h-211zM500 604h725l-17 21l-125 665l-10 166h-4l-90 -166l-455 -665zM809 1866l453 364h4l272 -364l-98 -78l-228 231h-4l-340 -231z" />
<glyph unicode="&#xc3;" horiz-adv-x="1710" d="M-111 0l1131 1659h205l311 -1659h-211l-74 399l15 21h-899l4 -21l-271 -399h-211zM500 604h725l-17 21l-125 665l-10 166h-4l-90 -166l-455 -665zM707 1888q43 83 141.5 151t198.5 68q47 0 97.5 -24t87.5 -52.5t83.5 -52.5t85.5 -24q63 0 120.5 43t92.5 110l74 -96 q-53 -94 -150.5 -156.5t-194.5 -62.5q-46 0 -96 24t-86.5 53t-84 53t-89.5 24q-58 0 -115 -42.5t-94 -111.5z" />
<glyph unicode="&#xc4;" horiz-adv-x="1710" d="M-111 0l1131 1659h205l311 -1659h-211l-74 399l15 21h-899l4 -21l-271 -399h-211zM500 604h725l-17 21l-125 665l-10 166h-4l-90 -166l-455 -665zM844 1978q15 62 56 99t99 37q60 0 83 -37t8 -99q-15 -61 -56.5 -98t-99.5 -37t-81 36.5t-9 98.5zM1321 1978q15 62 56 99 t100 37q58 0 81 -37t9 -99q-15 -61 -57 -98t-101 -37t-81 36.5t-7 98.5z" />
<glyph unicode="&#xc5;" horiz-adv-x="1710" d="M-111 0l1131 1659h205l311 -1659h-211l-74 399l15 21h-899l4 -21l-271 -399h-211zM500 604h725l-17 21l-125 665l-10 166h-4l-90 -166l-455 -665zM993 2019q24 101 96.5 164.5t178.5 63.5q105 0 146.5 -63t15.5 -165q-24 -101 -97 -164t-178 -63q-106 0 -147 63t-15 164z M1100 2019q-14 -56 6.5 -89.5t75.5 -33.5t91 33.5t50 89.5t-6.5 89.5t-75.5 33.5t-91 -33.5t-50 -89.5z" />
<glyph unicode="&#xc6;" horiz-adv-x="2076" d="M-111 0l1131 1659h1182l-45 -184h-738l6 -21l-127 -512l-24 -20h668l-48 -185h-665l14 -20l-127 -512l-24 -21h745l-45 -184h-915l98 399l14 21h-622l4 -21l-271 -399h-211zM500 604h549l-17 21l203 829l18 21h-153l-4 -21l-572 -829z" />
<glyph unicode="&#xc7;" horiz-adv-x="1591" d="M137.5 488q-12.5 150 34.5 331q47 189 139.5 347t221 272t297.5 177.5t360 63.5q399 0 551 -254l-182 -141q-103 211 -414 211q-156 0 -288 -53t-226.5 -146.5t-159.5 -213.5t-100 -263q-28 -112 -31 -208.5t23 -179.5t80.5 -141.5t148.5 -92t221 -33.5q314 0 520 209 l109 -140q-251 -230 -604 -251l20 -25q32 -37 20.5 -86t-67.5 -94l-221 -178l-72 98l156 127q58 46 70 72t-9 49l-28 37q-178 9 -304 73.5t-189.5 173.5t-76 259z" />
<glyph unicode="&#xc8;" horiz-adv-x="1529" d="M41 0l410 1659h1206l-45 -184h-1034l14 -21l-127 -512l-25 -20h936l-45 -185h-936l15 -20l-125 -512l-27 -21h1034l-45 -184h-1206zM938 2140l172 139l244 -405l-101 -82z" />
<glyph unicode="&#xc9;" horiz-adv-x="1529" d="M41 0l410 1659h1206l-45 -184h-1034l14 -21l-127 -512l-25 -20h936l-45 -185h-936l15 -20l-125 -512l-27 -21h1034l-45 -184h-1206zM944 1872l445 405l102 -139l-487 -348z" />
<glyph unicode="&#xca;" horiz-adv-x="1529" d="M41 0l410 1659h1206l-45 -184h-1034l14 -21l-127 -512l-25 -20h936l-45 -185h-936l15 -20l-125 -512l-27 -21h1034l-45 -184h-1206zM743 1866l451 364h6l273 -364l-99 -78l-227 231h-4l-342 -231z" />
<glyph unicode="&#xcb;" horiz-adv-x="1529" d="M41 0l410 1659h1206l-45 -184h-1034l14 -21l-127 -512l-25 -20h936l-45 -185h-936l15 -20l-125 -512l-27 -21h1034l-45 -184h-1206zM784 1978q14 61 55.5 98.5t100.5 37.5t81 -37t7 -99q-14 -61 -55.5 -98t-100.5 -37t-81 36.5t-7 98.5zM1260 1978q15 62 56 99t99 37 q60 0 82.5 -37t7.5 -99q-15 -61 -56.5 -98t-98.5 -37q-58 0 -81 36.5t-9 98.5z" />
<glyph unicode="&#xcc;" horiz-adv-x="577" d="M51 0l410 1659h192l-409 -1659h-193zM414 2140l172 139l245 -405l-100 -82z" />
<glyph unicode="&#xcd;" horiz-adv-x="577" d="M51 0l410 1659h192l-409 -1659h-193zM385 1872l444 405l105 -139l-488 -348z" />
<glyph unicode="&#xce;" horiz-adv-x="577" d="M51 0l410 1659h192l-409 -1659h-193zM248 1866l452 364h5l272 -364l-98 -78l-228 231h-4l-340 -231z" />
<glyph unicode="&#xcf;" horiz-adv-x="577" d="M51 0l410 1659h192l-409 -1659h-193zM274 1978q15 62 56 99t100 37q60 0 82 -37t8 -99q-15 -61 -56.5 -98t-98.5 -37q-60 0 -82.5 36.5t-8.5 98.5zM752 1978q14 61 55 98.5t100 37.5t81 -37t7 -99q-14 -61 -55 -98t-100 -37t-81 36.5t-7 98.5z" />
<glyph unicode="&#xd0;" horiz-adv-x="1669" d="M41 0l176 717l16 20h-143l47 185h142l-7 20l179 717h192h428q134 0 237 -25.5t169.5 -69t109 -108t60.5 -134.5t18.5 -156t-11 -166t-34.5 -171q-23 -92 -50 -171.5t-70 -166t-94.5 -156t-125 -133.5t-160 -107.5t-201 -69t-247.5 -25.5h-631zM258 184h438q103 0 190 18 t153 49.5t121 79.5t94 100.5t72 120.5t54.5 133t40.5 144t29.5 143.5t11 133t-13 121t-45.5 100.5t-83.5 79.5t-130.5 50t-183 18.5h-428l14 -21l-127 -512l-14 -20h405l-45 -185h-405l4 -20l-125 -512z" />
<glyph unicode="&#xd1;" horiz-adv-x="1714" d="M41 0l410 1659h176l571 -1147l74 -186h4l330 1333h192l-409 -1659h-177l-569 1139l-76 194h-4l-330 -1333h-192zM711 1888q45 83 143.5 151t198.5 68q47 0 97.5 -24t87.5 -52.5t83.5 -52.5t85.5 -24q63 0 120.5 43t92.5 110l74 -96q-53 -94 -150 -156.5t-194 -62.5 q-38 0 -77.5 16t-72.5 38.5t-65.5 45t-69.5 38.5t-72 16q-58 0 -115 -42.5t-94 -111.5z" />
<glyph unicode="&#xd2;" horiz-adv-x="1761" d="M133.5 538.5q0.5 129.5 38.5 280.5q47 190 136 347t212.5 271.5t285.5 178t347 63.5q149 0 263.5 -41t187 -116t109.5 -181.5t36 -238t-39 -283.5q-94 -385 -352 -612t-625 -227q-149 0 -263.5 39t-188 111.5t-111 175.5t-37 232.5zM339 610.5q-4 -96.5 19.5 -179.5 t75 -141.5t139 -92t207.5 -33.5q149 0 273.5 50.5t213 141t149 206.5t95.5 257q28 111 33 209t-17 184.5t-72 148.5t-138 98t-209 36q-148 0 -273 -52.5t-215 -147t-151.5 -214t-97.5 -262.5q-28 -112 -32 -208.5zM1006 2140l170 139l245 -405l-100 -82z" />
<glyph unicode="&#xd3;" horiz-adv-x="1761" d="M133.5 538.5q0.5 129.5 38.5 280.5q47 190 136 347t212.5 271.5t285.5 178t347 63.5q149 0 263.5 -41t187 -116t109.5 -181.5t36 -238t-39 -283.5q-94 -385 -352 -612t-625 -227q-149 0 -263.5 39t-188 111.5t-111 175.5t-37 232.5zM339 610.5q-4 -96.5 19.5 -179.5 t75 -141.5t139 -92t207.5 -33.5q149 0 273.5 50.5t213 141t149 206.5t95.5 257q28 111 33 209t-17 184.5t-72 148.5t-138 98t-209 36q-148 0 -273 -52.5t-215 -147t-151.5 -214t-97.5 -262.5q-28 -112 -32 -208.5zM977 1872l444 405l105 -139l-488 -348z" />
<glyph unicode="&#xd4;" horiz-adv-x="1761" d="M133.5 538.5q0.5 129.5 38.5 280.5q47 190 136 347t212.5 271.5t285.5 178t347 63.5q149 0 263.5 -41t187 -116t109.5 -181.5t36 -238t-39 -283.5q-94 -385 -352 -612t-625 -227q-149 0 -263.5 39t-188 111.5t-111 175.5t-37 232.5zM339 610.5q-4 -96.5 19.5 -179.5 t75 -141.5t139 -92t207.5 -33.5q149 0 273.5 50.5t213 141t149 206.5t95.5 257q28 111 33 209t-17 184.5t-72 148.5t-138 98t-209 36q-148 0 -273 -52.5t-215 -147t-151.5 -214t-97.5 -262.5q-28 -112 -32 -208.5zM842 1866l452 364h4l273 -364l-98 -78l-228 231h-4 l-340 -231z" />
<glyph unicode="&#xd5;" horiz-adv-x="1761" d="M133.5 538.5q0.5 129.5 38.5 280.5q47 190 136 347t212.5 271.5t285.5 178t347 63.5q149 0 263.5 -41t187 -116t109.5 -181.5t36 -238t-39 -283.5q-94 -385 -352 -612t-625 -227q-149 0 -263.5 39t-188 111.5t-111 175.5t-37 232.5zM339 610.5q-4 -96.5 19.5 -179.5 t75 -141.5t139 -92t207.5 -33.5q149 0 273.5 50.5t213 141t149 206.5t95.5 257q28 111 33 209t-17 184.5t-72 148.5t-138 98t-209 36q-148 0 -273 -52.5t-215 -147t-151.5 -214t-97.5 -262.5q-28 -112 -32 -208.5zM727 1888q45 83 143.5 151t198.5 68q47 0 97.5 -24 t87.5 -52.5t83.5 -52.5t85.5 -24q63 0 120.5 43t92.5 110l74 -96q-53 -94 -150.5 -156.5t-195.5 -62.5q-46 0 -96 24t-85.5 53t-83 53t-89.5 24q-59 0 -115.5 -42t-93.5 -112z" />
<glyph unicode="&#xd6;" horiz-adv-x="1761" d="M133.5 538.5q0.5 129.5 38.5 280.5q47 190 136 347t212.5 271.5t285.5 178t347 63.5q149 0 263.5 -41t187 -116t109.5 -181.5t36 -238t-39 -283.5q-94 -385 -352 -612t-625 -227q-149 0 -263.5 39t-188 111.5t-111 175.5t-37 232.5zM339 610.5q-4 -96.5 19.5 -179.5 t75 -141.5t139 -92t207.5 -33.5q149 0 273.5 50.5t213 141t149 206.5t95.5 257q28 111 33 209t-17 184.5t-72 148.5t-138 98t-209 36q-148 0 -273 -52.5t-215 -147t-151.5 -214t-97.5 -262.5q-28 -112 -32 -208.5zM864 1978q15 62 56 99t100 37q60 0 82.5 -37t7.5 -99 q-15 -61 -56.5 -98t-99.5 -37t-81 36.5t-9 98.5zM1341 1978q15 62 56 99t100 37t81 -37t7 -99q-14 -61 -55 -98t-100 -37t-81.5 37t-7.5 98z" />
<glyph unicode="&#xd7;" horiz-adv-x="1228" d="M131 494l432 342l-16 6l-250 323l162 131l237 -329l4 -21l426 350l97 -131l-432 -342l16 -6l250 -323l-162 -132l-238 332l-2 19l-426 -351z" />
<glyph unicode="&#xd8;" horiz-adv-x="1761" d="M147 392q-36 186 25 427q47 190 137 347.5t214.5 271.5t287.5 177.5t348 63.5q219 0 369 -96l4 12l115 142l73 -49l-121 -148l-10 -4q120 -113 150.5 -299t-29.5 -418q-94 -385 -352 -612t-625 -227q-209 0 -354 77v-10l-150 -182l-73 51l147 180l12 4q-132 106 -168 292 zM371 819q-94 -378 82 -551l4 15l923 1130l15 4q-111 78 -287 78q-148 0 -273 -52.5t-215 -147t-151.5 -214t-97.5 -262.5zM516 223q106 -59 264 -59q149 0 273.5 50.5t213 141t149 206.5t95.5 257q44 159 31 308t-92 239l-2 -12l-920 -1125z" />
<glyph unicode="&#xd9;" horiz-adv-x="1736" d="M217 760l223 899h193l-221 -897q-36 -142 -35.5 -249.5t39 -187t127 -120.5t225.5 -41q265 0 422 154t229 444l221 897h193l-221 -899q-195 -780 -889 -780q-353 0 -477 196t-29 584zM991 2140l172 139l244 -405l-100 -82z" />
<glyph unicode="&#xda;" horiz-adv-x="1736" d="M217 760l223 899h193l-221 -897q-36 -142 -35.5 -249.5t39 -187t127 -120.5t225.5 -41q265 0 422 154t229 444l221 897h193l-221 -899q-195 -780 -889 -780q-353 0 -477 196t-29 584zM965 1872l442 405l104 -139l-487 -348z" />
<glyph unicode="&#xdb;" horiz-adv-x="1736" d="M217 760l223 899h193l-221 -897q-36 -142 -35.5 -249.5t39 -187t127 -120.5t225.5 -41q265 0 422 154t229 444l221 897h193l-221 -899q-195 -780 -889 -780q-353 0 -477 196t-29 584zM825 1866l453 364h4l272 -364l-98 -78l-227 231h-4l-340 -231z" />
<glyph unicode="&#xdc;" horiz-adv-x="1736" d="M217 760l223 899h193l-221 -897q-36 -142 -35.5 -249.5t39 -187t127 -120.5t225.5 -41q265 0 422 154t229 444l221 897h193l-221 -899q-195 -780 -889 -780q-353 0 -477 196t-29 584zM854 1978q15 62 56 99t100 37q60 0 82.5 -37t7.5 -99q-15 -61 -56.5 -98t-99.5 -37 t-81 36.5t-9 98.5zM1331 1978q15 62 56 99t100 37q58 0 81 -37t9 -99q-15 -61 -57 -98t-101 -37t-81 36.5t-7 98.5z" />
<glyph unicode="&#xdd;" horiz-adv-x="1624" d="M297 1659h244l276 -608l64 -191h4l157 191l578 608h242l-922 -963l-172 -696h-195l172 696zM913 1872l445 405l102 -139l-487 -348z" />
<glyph unicode="&#xde;" horiz-adv-x="1564" d="M41 0l410 1659h190l-74 -299l-26 -21h581q255 0 363 -141t51 -371q-26 -108 -85.5 -201t-144 -162.5t-198.5 -109t-242 -39.5h-575l14 -20l-72 -295h-192zM336 500h575q170 0 279.5 89.5t146.5 237.5q38 153 -27 240.5t-235 87.5h-577l16 -20l-152 -615z" />
<glyph unicode="&#xdf;" horiz-adv-x="1380" d="M41 0l328 1327q28 112 80.5 192t125.5 125.5t157.5 66t187.5 20.5q101 0 186.5 -32.5t141 -91.5t78 -141t-2.5 -182q-56 -223 -262 -328v-4q126 -50 177.5 -172.5t10.5 -287.5q-36 -146 -130 -264t-224 -184.5t-270 -66.5q-172 0 -287 43l45 185q70 -28 125.5 -38.5 t140.5 -10.5q148 0 262 90t152 243q37 154 -34 249.5t-222 95.5h-262l43 174l184 -2q137 0 233 69.5t128 198.5q32 131 -44 205.5t-215 74.5q-145 0 -220 -63.5t-111 -208.5l-316 -1282h-186z" />
<glyph unicode="&#xe0;" d="M97 421.5q2 99.5 30 215.5q36 147 104 269.5t162.5 213t220.5 141t271 50.5q121 0 214 -48t142 -130h4l39 157h186l-317 -1290h-188l39 150h-5q-179 -170 -442 -170q-118 0 -207.5 31.5t-144.5 89.5t-82.5 139.5t-25.5 181zM288.5 484.5q-3.5 -70.5 12.5 -131.5t53 -103 t101.5 -66t152.5 -24q213 0 345.5 130.5t185.5 348.5q22 84 26 156.5t-11.5 134.5t-52 106t-100.5 69t-153 25q-107 0 -197.5 -38t-155.5 -106t-110.5 -155t-71.5 -192q-21 -84 -24.5 -154.5zM784 1772l172 139l244 -406l-100 -82z" />
<glyph unicode="&#xe1;" d="M97 421.5q2 99.5 30 215.5q36 147 104 269.5t162.5 213t220.5 141t271 50.5q121 0 214 -48t142 -130h4l39 157h186l-317 -1290h-188l39 150h-5q-179 -170 -442 -170q-118 0 -207.5 31.5t-144.5 89.5t-82.5 139.5t-25.5 181zM288.5 484.5q-3.5 -70.5 12.5 -131.5t53 -103 t101.5 -66t152.5 -24q213 0 345.5 130.5t185.5 348.5q22 84 26 156.5t-11.5 134.5t-52 106t-100.5 69t-153 25q-107 0 -197.5 -38t-155.5 -106t-110.5 -155t-71.5 -192q-21 -84 -24.5 -154.5zM760 1505l444 406l103 -139l-488 -349z" />
<glyph unicode="&#xe2;" d="M97 421.5q2 99.5 30 215.5q36 147 104 269.5t162.5 213t220.5 141t271 50.5q121 0 214 -48t142 -130h4l39 157h186l-317 -1290h-188l39 150h-5q-179 -170 -442 -170q-118 0 -207.5 31.5t-144.5 89.5t-82.5 139.5t-25.5 181zM288.5 484.5q-3.5 -70.5 12.5 -131.5t53 -103 t101.5 -66t152.5 -24q213 0 345.5 130.5t185.5 348.5q22 84 26 156.5t-11.5 134.5t-52 106t-100.5 69t-153 25q-107 0 -197.5 -38t-155.5 -106t-110.5 -155t-71.5 -192q-21 -84 -24.5 -154.5zM575 1505l453 365h4l273 -365l-99 -80l-227 234h-4l-340 -234z" />
<glyph unicode="&#xe3;" d="M97 421.5q2 99.5 30 215.5q36 147 104 269.5t162.5 213t220.5 141t271 50.5q121 0 214 -48t142 -130h4l39 157h186l-317 -1290h-188l39 150h-5q-179 -170 -442 -170q-118 0 -207.5 31.5t-144.5 89.5t-82.5 139.5t-25.5 181zM288.5 484.5q-3.5 -70.5 12.5 -131.5t53 -103 t101.5 -66t152.5 -24q213 0 345.5 130.5t185.5 348.5q22 84 26 156.5t-11.5 134.5t-52 106t-100.5 69t-153 25q-107 0 -197.5 -38t-155.5 -106t-110.5 -155t-71.5 -192q-21 -84 -24.5 -154.5zM475 1556q43 83 141.5 151.5t198.5 68.5q47 0 97.5 -24t87.5 -53t83.5 -53 t85.5 -24q64 0 121 43t92 111l74 -97q-53 -94 -150 -156.5t-194 -62.5q-38 0 -77.5 16t-72 38.5l-65 45t-69 38.5t-70.5 16q-60 0 -117 -42.5t-94 -113.5z" />
<glyph unicode="&#xe4;" d="M97 421.5q2 99.5 30 215.5q36 147 104 269.5t162.5 213t220.5 141t271 50.5q121 0 214 -48t142 -130h4l39 157h186l-317 -1290h-188l39 150h-5q-179 -170 -442 -170q-118 0 -207.5 31.5t-144.5 89.5t-82.5 139.5t-25.5 181zM288.5 484.5q-3.5 -70.5 12.5 -131.5t53 -103 t101.5 -66t152.5 -24q213 0 345.5 130.5t185.5 348.5q22 84 26 156.5t-11.5 134.5t-52 106t-100.5 69t-153 25q-107 0 -197.5 -38t-155.5 -106t-110.5 -155t-71.5 -192q-21 -84 -24.5 -154.5zM602 1585q15 62 56 98.5t100 36.5q60 0 82.5 -36.5t7.5 -98.5t-56.5 -98.5 t-99.5 -36.5q-60 0 -82 35.5t-8 99.5zM1079 1585q15 62 56 98.5t100 36.5t81 -36.5t7 -98.5q-14 -62 -55.5 -98.5t-100.5 -36.5t-81 36t-7 99z" />
<glyph unicode="&#xe5;" d="M97 421.5q2 99.5 30 215.5q36 147 104 269.5t162.5 213t220.5 141t271 50.5q121 0 214 -48t142 -130h4l39 157h186l-317 -1290h-188l39 150h-5q-179 -170 -442 -170q-118 0 -207.5 31.5t-144.5 89.5t-82.5 139.5t-25.5 181zM288.5 484.5q-3.5 -70.5 12.5 -131.5t53 -103 t101.5 -66t152.5 -24q213 0 345.5 130.5t185.5 348.5q22 84 26 156.5t-11.5 134.5t-52 106t-100.5 69t-153 25q-107 0 -197.5 -38t-155.5 -106t-110.5 -155t-71.5 -192q-21 -84 -24.5 -154.5zM772 1653q26 101 98 164t177 63q107 0 148 -62.5t15 -164.5 q-26 -101 -98.5 -164.5t-177.5 -63.5t-145.5 63.5t-16.5 164.5zM881 1653q-14 -56 5.5 -89.5t74.5 -33.5q56 0 92.5 33t50.5 90q13 57 -7 90t-75 33q-56 0 -92 -33.5t-49 -89.5z" />
<glyph unicode="&#xe6;" horiz-adv-x="2398" d="M97 421.5q2 99.5 30 215.5q36 147 104 269.5t162.5 213t220.5 141t271 50.5q121 0 214 -48t142 -130h4l39 157h186l-30 -125h4q198 146 426 146q120 0 210 -33t145.5 -93t82.5 -144t25 -186t-31 -220q-5 -18 -13 -43.5t-10 -32.5h-1028l15 -20q-21 -181 59.5 -280 t269.5 -99q210 0 385 139l101 -131q-235 -188 -531 -188q-242 0 -368 126h-4l-25 -106h-188l39 150h-5q-179 -170 -442 -170q-118 0 -207.5 31.5t-144.5 89.5t-82.5 139.5t-25.5 181zM288.5 484.5q-3.5 -70.5 12.5 -131.5t53 -103t101.5 -66t152.5 -24q213 0 345.5 130.5 t185.5 348.5q22 84 26 156.5t-11.5 134.5t-52 106t-100.5 69t-153 25q-107 0 -197.5 -38t-155.5 -106t-110.5 -155t-71.5 -192q-21 -84 -24.5 -154.5zM1296 731h867l-25 21q20 174 -56 276t-255 102q-183 0 -311 -103t-197 -275z" />
<glyph unicode="&#xe7;" horiz-adv-x="1251" d="M98 389q-7 114 29 246q35 144 106.5 267.5t170.5 214.5t227.5 142.5t271.5 51.5q298 0 414 -168l-164 -133q-39 58 -115.5 89.5t-177.5 30.5q-105 -1 -197 -40.5t-160 -107.5t-116.5 -156.5t-73.5 -190.5q-19 -79 -21.5 -148.5t14.5 -130t54.5 -103.5t102.5 -68t153 -25 q211 0 375 139l101 -131q-200 -168 -459 -186v-5l16 -20q31 -37 20.5 -86t-65.5 -92l-223 -180l-72 98l160 129q52 42 64 66t-7 53l-28 37q-130 12 -219.5 66.5t-131.5 140.5t-49 200z" />
<glyph unicode="&#xe8;" horiz-adv-x="1429" d="M97.5 422.5q1.5 98.5 29.5 212.5q48 198 156.5 350t268.5 239t349 87q148 0 251 -51t152 -141t58.5 -214t-29.5 -270q-3 -14 -22 -76h-1032l16 -20q-19 -181 62 -280t270 -99q210 0 385 139l100 -131q-235 -188 -530 -188q-124 0 -218 32t-152 90.5t-87 140t-27.5 180z M322 731h864l-17 21q20 174 -56 276t-255 102q-183 0 -311 -103t-197 -275zM745 1772l173 139l245 -406l-100 -82z" />
<glyph unicode="&#xe9;" horiz-adv-x="1429" d="M97.5 422.5q1.5 98.5 29.5 212.5q48 198 156.5 350t268.5 239t349 87q148 0 251 -51t152 -141t58.5 -214t-29.5 -270q-3 -14 -22 -76h-1032l16 -20q-19 -181 62 -280t270 -99q210 0 385 139l100 -131q-235 -188 -530 -188q-124 0 -218 32t-152 90.5t-87 140t-27.5 180z M322 731h864l-17 21q20 174 -56 276t-255 102q-183 0 -311 -103t-197 -275zM741 1505l445 406l102 -139l-487 -349z" />
<glyph unicode="&#xea;" horiz-adv-x="1429" d="M97.5 422.5q1.5 98.5 29.5 212.5q48 198 156.5 350t268.5 239t349 87q148 0 251 -51t152 -141t58.5 -214t-29.5 -270q-3 -14 -22 -76h-1032l16 -20q-19 -181 62 -280t270 -99q210 0 385 139l100 -131q-235 -188 -530 -188q-124 0 -218 32t-152 90.5t-87 140t-27.5 180z M322 731h864l-17 21q20 174 -56 276t-255 102q-183 0 -311 -103t-197 -275zM592 1505l452 365h5l272 -365l-98 -80l-228 234h-4l-342 -234z" />
<glyph unicode="&#xeb;" horiz-adv-x="1429" d="M97.5 422.5q1.5 98.5 29.5 212.5q48 198 156.5 350t268.5 239t349 87q148 0 251 -51t152 -141t58.5 -214t-29.5 -270q-3 -14 -22 -76h-1032l16 -20q-19 -181 62 -280t270 -99q210 0 385 139l100 -131q-235 -188 -530 -188q-124 0 -218 32t-152 90.5t-87 140t-27.5 180z M322 731h864l-17 21q20 174 -56 276t-255 102q-183 0 -311 -103t-197 -275zM610 1585q15 62 56 98.5t100 36.5q60 0 82 -36.5t8 -98.5q-15 -62 -56.5 -98.5t-99.5 -36.5q-60 0 -82 35.5t-8 99.5zM1087 1585q15 62 56 98.5t100 36.5t81 -36.5t7 -98.5q-14 -62 -55 -98.5 t-100 -36.5t-81.5 36t-7.5 99z" />
<glyph unicode="&#xec;" horiz-adv-x="550" d="M41 0l317 1290h187l-318 -1290h-186zM315 1772l172 139l244 -406l-100 -82z" />
<glyph unicode="&#xed;" horiz-adv-x="550" d="M41 0l317 1290h187l-318 -1290h-186zM283 1505l444 406l104 -139l-487 -349z" />
<glyph unicode="&#xee;" horiz-adv-x="550" d="M41 0l317 1290h187l-318 -1290h-186zM143 1505l453 365h4l272 -365l-98 -80l-227 234h-4l-340 -234z" />
<glyph unicode="&#xef;" horiz-adv-x="550" d="M41 0l317 1290h187l-318 -1290h-186zM166 1585q15 62 56 98.5t100 36.5q60 0 82.5 -36.5t7.5 -98.5q-15 -63 -56 -99t-100 -36t-81.5 36t-8.5 99zM643 1585q15 62 56 98.5t100 36.5q58 0 81 -36.5t9 -98.5q-15 -62 -57 -98.5t-101 -36.5t-81 36t-7 99z" />
<glyph unicode="&#xf0;" horiz-adv-x="1370" d="M93 405.5q1 95.5 28 206.5q34 138 98.5 253t155.5 200t212 132.5t261 47.5q57 0 115 -10l-70 172l6 25l-203 -109l-53 131l201 107l-17 8l-65 164h211l28 -70l-4 -21l174 93l54 -131l-174 -93l16 -10l199 -495q60 -148 2 -394q-34 -138 -99 -253t-156.5 -200t-213.5 -132 t-262 -47q-113 0 -199 30.5t-139.5 86t-80 134.5t-25.5 174.5zM279.5 466q-2.5 -68 14 -126t52 -99t95.5 -64t141 -23q101 0 186 35t147 97.5t105 144.5t67 181q26 97 21.5 180.5t-34.5 145t-98 96.5t-169 35q-199 0 -327.5 -125.5t-178.5 -331.5q-19 -78 -21.5 -146z" />
<glyph unicode="&#xf1;" d="M41 0l317 1290h187l-39 -162h4q87 84 209 133.5t244 49.5q252 0 356.5 -126.5t46.5 -361.5l-205 -823h-186l192 782q16 66 20 115.5t-8 95t-44 74.5t-91 46t-145 17q-171 0 -305 -94t-178 -270l-189 -766h-186zM530 1556q45 83 143.5 151.5t198.5 68.5q47 0 98 -24 t88 -53t83.5 -53t85.5 -24q62 0 120 43.5t93 110.5l73 -97q-53 -94 -150.5 -156.5t-195.5 -62.5q-46 0 -96 24t-85.5 53t-83 53t-89.5 24q-59 0 -115.5 -42.5t-93.5 -113.5z" />
<glyph unicode="&#xf2;" horiz-adv-x="1429" d="M98.5 427q1.5 101 30.5 218q36 146 104 267t163.5 210.5t223.5 139t275 49.5q148 0 252 -49.5t155 -138t61.5 -210.5t-28.5 -268q-36 -145 -104.5 -266t-164.5 -210t-224.5 -139t-274.5 -50q-119 0 -209.5 32t-147 90.5t-85 141t-27 183.5zM291.5 454.5 q4.5 -88.5 36.5 -154t104.5 -103t179.5 -37.5q108 0 198.5 37t156 104t111 153t71.5 191q28 102 23.5 190.5t-36.5 154t-104.5 103t-179.5 37.5q-108 0 -199 -37t-156 -103.5t-110.5 -152.5t-71.5 -192q-28 -102 -23.5 -190.5zM731 1772l172 139l246 -406l-100 -82z" />
<glyph unicode="&#xf3;" horiz-adv-x="1429" d="M98.5 427q1.5 101 30.5 218q36 146 104 267t163.5 210.5t223.5 139t275 49.5q148 0 252 -49.5t155 -138t61.5 -210.5t-28.5 -268q-36 -145 -104.5 -266t-164.5 -210t-224.5 -139t-274.5 -50q-119 0 -209.5 32t-147 90.5t-85 141t-27 183.5zM291.5 454.5 q4.5 -88.5 36.5 -154t104.5 -103t179.5 -37.5q108 0 198.5 37t156 104t111 153t71.5 191q28 102 23.5 190.5t-36.5 154t-104.5 103t-179.5 37.5q-108 0 -199 -37t-156 -103.5t-110.5 -152.5t-71.5 -192q-28 -102 -23.5 -190.5zM741 1505l445 406l102 -139l-487 -349z" />
<glyph unicode="&#xf4;" horiz-adv-x="1429" d="M98.5 427q1.5 101 30.5 218q36 146 104 267t163.5 210.5t223.5 139t275 49.5q148 0 252 -49.5t155 -138t61.5 -210.5t-28.5 -268q-36 -145 -104.5 -266t-164.5 -210t-224.5 -139t-274.5 -50q-119 0 -209.5 32t-147 90.5t-85 141t-27 183.5zM291.5 454.5 q4.5 -88.5 36.5 -154t104.5 -103t179.5 -37.5q108 0 198.5 37t156 104t111 153t71.5 191q28 102 23.5 190.5t-36.5 154t-104.5 103t-179.5 37.5q-108 0 -199 -37t-156 -103.5t-110.5 -152.5t-71.5 -192q-28 -102 -23.5 -190.5zM584 1505l452 365h4l273 -365l-99 -80 l-227 234h-4l-342 -234z" />
<glyph unicode="&#xf5;" horiz-adv-x="1429" d="M98.5 427q1.5 101 30.5 218q36 146 104 267t163.5 210.5t223.5 139t275 49.5q148 0 252 -49.5t155 -138t61.5 -210.5t-28.5 -268q-36 -145 -104.5 -266t-164.5 -210t-224.5 -139t-274.5 -50q-119 0 -209.5 32t-147 90.5t-85 141t-27 183.5zM291.5 454.5 q4.5 -88.5 36.5 -154t104.5 -103t179.5 -37.5q108 0 198.5 37t156 104t111 153t71.5 191q28 102 23.5 190.5t-36.5 154t-104.5 103t-179.5 37.5q-108 0 -199 -37t-156 -103.5t-110.5 -152.5t-71.5 -192q-28 -102 -23.5 -190.5zM485 1556q43 83 141.5 151.5t198.5 68.5 q47 0 98 -24t88 -53t83.5 -53t85.5 -24q64 0 121 43t92 111l73 -97q-53 -94 -150 -156.5t-194 -62.5q-46 0 -96 24t-86.5 53t-84 53t-89.5 24q-58 0 -115 -42.5t-94 -113.5z" />
<glyph unicode="&#xf6;" horiz-adv-x="1429" d="M98.5 427q1.5 101 30.5 218q36 146 104 267t163.5 210.5t223.5 139t275 49.5q148 0 252 -49.5t155 -138t61.5 -210.5t-28.5 -268q-36 -145 -104.5 -266t-164.5 -210t-224.5 -139t-274.5 -50q-119 0 -209.5 32t-147 90.5t-85 141t-27 183.5zM291.5 454.5 q4.5 -88.5 36.5 -154t104.5 -103t179.5 -37.5q108 0 198.5 37t156 104t111 153t71.5 191q28 102 23.5 190.5t-36.5 154t-104.5 103t-179.5 37.5q-108 0 -199 -37t-156 -103.5t-110.5 -152.5t-71.5 -192q-28 -102 -23.5 -190.5zM604 1585q15 62 56 98.5t100 36.5 q60 0 82.5 -36.5t7.5 -98.5t-56.5 -98.5t-99.5 -36.5q-60 0 -82 35.5t-8 99.5zM1081 1585q15 62 56 98.5t100 36.5t81 -36.5t7 -98.5q-14 -62 -55.5 -98.5t-100.5 -36.5t-81 36t-7 99z" />
<glyph unicode="&#xf7;" horiz-adv-x="1368" d="M223 737l45 185h1004l-45 -185h-1004zM485 385q19 75 71 121.5t124 46.5q75 0 103.5 -45.5t9.5 -122.5t-71 -123.5t-124 -46.5q-73 0 -102.5 46.5t-10.5 123.5zM707 1276q19 76 70 122t124 46t101.5 -45.5t9.5 -122.5t-71 -123.5t-124 -46.5q-73 0 -101 46.5t-9 123.5z " />
<glyph unicode="&#xf8;" horiz-adv-x="1429" d="M96 -70l121 150l12 4q-194 177 -100 561q36 146 104 267t163.5 210.5t223.5 139t275 49.5q169 0 281 -64l4 10l118 148l74 -51l-123 -150l-8 -4q92 -87 116 -232.5t-22 -322.5q-36 -145 -104.5 -266t-164.5 -210t-224.5 -139t-274.5 -50q-169 0 -274 61l-2 -12l-121 -148 zM315 645q-67 -264 50 -395l4 14l665 815l13 6q-82 45 -195 45q-108 0 -199 -37t-156 -103.5t-110.5 -152.5t-71.5 -192zM424 201q74 -41 188 -41q108 0 198.5 37t156 104t111 153t71.5 191q63 258 -43 391l-2 -12l-668 -815z" />
<glyph unicode="&#xf9;" horiz-adv-x="1460" d="M152 487l198 803h187l-197 -792q-15 -62 -19 -109t7.5 -91.5t42 -73.5t89 -46.5t144.5 -17.5q170 0 300.5 94t174.5 270l189 766h186l-317 -1290h-187l39 162h-4q-201 -182 -444 -182q-262 0 -355.5 132t-33.5 375zM745 1772l173 139l245 -406l-100 -82z" />
<glyph unicode="&#xfa;" horiz-adv-x="1460" d="M152 487l198 803h187l-197 -792q-15 -62 -19 -109t7.5 -91.5t42 -73.5t89 -46.5t144.5 -17.5q170 0 300.5 94t174.5 270l189 766h186l-317 -1290h-187l39 162h-4q-201 -182 -444 -182q-262 0 -355.5 132t-33.5 375zM758 1505l444 406l103 -139l-488 -349z" />
<glyph unicode="&#xfb;" horiz-adv-x="1460" d="M152 487l198 803h187l-197 -792q-15 -62 -19 -109t7.5 -91.5t42 -73.5t89 -46.5t144.5 -17.5q170 0 300.5 94t174.5 270l189 766h186l-317 -1290h-187l39 162h-4q-201 -182 -444 -182q-262 0 -355.5 132t-33.5 375zM586 1505l452 365h4l273 -365l-98 -80l-228 234h-4 l-342 -234z" />
<glyph unicode="&#xfc;" horiz-adv-x="1460" d="M152 487l198 803h187l-197 -792q-15 -62 -19 -109t7.5 -91.5t42 -73.5t89 -46.5t144.5 -17.5q170 0 300.5 94t174.5 270l189 766h186l-317 -1290h-187l39 162h-4q-201 -182 -444 -182q-262 0 -355.5 132t-33.5 375zM614 1585q15 62 56 98.5t100 36.5q60 0 82 -36.5 t8 -98.5q-15 -62 -56 -98.5t-99 -36.5q-60 0 -82.5 36t-8.5 99zM1092 1585q15 62 55.5 98.5t99.5 36.5t81 -36.5t7 -98.5q-14 -62 -55 -98.5t-100 -36.5t-81 36t-7 99z" />
<glyph unicode="&#xfd;" horiz-adv-x="1341" d="M-113 -389l45 178q76 -51 201 -51q83 0 162 65.5t164 198.5l-252 1288h209l170 -923l12 -164h4l94 164l584 923h209l-932 -1429q-92 -141 -207.5 -221t-234.5 -80q-145 0 -228 51zM690 1505l445 406l104 -139l-487 -349z" />
<glyph unicode="&#xfe;" d="M-66 -430l531 2150h186l-145 -587h4q86 84 202 131t242 47q117 0 206 -32.5t144 -91.5t82.5 -142t25.5 -183.5t-30 -216.5q-37 -148 -102.5 -268.5t-159 -209.5t-220 -138t-275.5 -49q-129 0 -215.5 41t-141.5 129h-4l-143 -580h-187zM346 489.5q-4 -71.5 11.5 -133 t52 -104.5t100.5 -67.5t152 -24.5q110 0 200.5 36.5t154.5 103.5t108.5 153t70.5 192q21 84 24.5 155.5t-12.5 133t-53 104.5t-100.5 67.5t-151.5 24.5q-109 0 -199.5 -37.5t-154.5 -104.5t-108 -152.5t-70 -190.5q-21 -84 -25 -155.5z" />
<glyph unicode="&#xff;" horiz-adv-x="1341" d="M-113 -389l45 178q76 -51 201 -51q83 0 162 65.5t164 198.5l-252 1288h209l170 -923l12 -164h4l94 164l584 923h209l-932 -1429q-92 -141 -207.5 -221t-234.5 -80q-145 0 -228 51zM553 1585q14 62 55 98.5t101 36.5q59 0 81 -36.5t7 -98.5q-15 -63 -56 -99t-100 -36 t-81 36t-7 99zM1028 1585q15 62 56 98.5t100 36.5q60 0 82 -36.5t8 -98.5q-15 -62 -56.5 -98.5t-99.5 -36.5q-60 0 -82 35.5t-8 99.5z" />
<glyph unicode="&#x152;" horiz-adv-x="2213" d="M127.5 538.5q6.5 129.5 44.5 280.5q47 190 126.5 347t185 271.5t240 178t284.5 63.5q121 0 213.5 -42.5t146.5 -123.5h4l35 146h934l-45 -184h-758l12 -21l-127 -512l-20 -20h676l-45 -185h-678l12 -20l-127 -512l-20 -21h755l-45 -184h-932l35 141h-4 q-185 -161 -442 -161q-121 0 -212.5 39t-147.5 111.5t-81.5 175.5t-19 232.5zM332.5 562q-3.5 -117 24.5 -207t98 -140.5t178 -50.5q109 0 204.5 50.5t167.5 141t125.5 207t88.5 256.5q35 139 40 258t-21 214t-96 149.5t-179 54.5t-205 -53t-169 -146.5t-128 -213.5 t-90 -263q-35 -140 -38.5 -257z" />
<glyph unicode="&#x153;" horiz-adv-x="2437" d="M98.5 427q1.5 101 30.5 218q36 146 104 267t163.5 210.5t223.5 139t275 49.5q356 0 442 -267h4q230 267 568 267q148 0 251 -51t152 -141t58.5 -214t-29.5 -270q-5 -18 -13 -43.5t-10 -32.5h-1032l19 -20q-21 -181 59.5 -280t269.5 -99q210 0 385 139l101 -131 q-235 -188 -531 -188q-365 0 -452 258h-4q-105 -124 -248.5 -191t-317.5 -67q-119 0 -209.5 32t-147 90.5t-85 141t-27 183.5zM291.5 454.5q4.5 -88.5 36.5 -154t104.5 -103t179.5 -37.5q108 0 198.5 37t156 104t111 153t71.5 191q28 102 23.5 190.5t-36.5 154t-104.5 103 t-179.5 37.5q-108 0 -199 -37t-156 -103.5t-110.5 -152.5t-71.5 -192q-28 -102 -23.5 -190.5zM1329 731h864l-16 21q20 174 -56 276t-255 102q-183 0 -311 -103t-197 -275z" />
<glyph unicode="&#x178;" horiz-adv-x="1624" d="M297 1659h244l276 -608l64 -191h4l157 191l578 608h242l-922 -963l-172 -696h-195l172 696zM797 1978q14 61 55 98.5t100 37.5t81 -37t7 -99q-14 -61 -55 -98t-100 -37t-81 36.5t-7 98.5zM1272 1978q15 62 56 99t99 37q60 0 83 -37t8 -99q-15 -61 -56.5 -98t-99.5 -37 q-60 0 -82 36.5t-8 98.5z" />
<glyph unicode="&#x2c6;" horiz-adv-x="1409" d="M547 1505l452 365h5l272 -365l-98 -80l-228 234h-4l-340 -234z" />
<glyph unicode="&#x2dc;" horiz-adv-x="1409" d="M446 1556q43 83 142 151.5t198 68.5q47 0 98 -24t88 -53t83.5 -53t85.5 -24q64 0 121 43t92 111l73 -97q-53 -94 -149.5 -156.5t-194.5 -62.5q-38 0 -77.5 16t-72 38.5l-65 45t-69 38.5t-70.5 16q-60 0 -117 -42.5t-94 -113.5z" />
<glyph unicode="&#x2000;" horiz-adv-x="1139" />
<glyph unicode="&#x2001;" horiz-adv-x="2279" />
<glyph unicode="&#x2002;" horiz-adv-x="1139" />
<glyph unicode="&#x2003;" horiz-adv-x="2279" />
<glyph unicode="&#x2004;" horiz-adv-x="759" />
<glyph unicode="&#x2005;" horiz-adv-x="569" />
<glyph unicode="&#x2006;" horiz-adv-x="379" />
<glyph unicode="&#x2007;" horiz-adv-x="379" />
<glyph unicode="&#x2008;" horiz-adv-x="284" />
<glyph unicode="&#x2009;" horiz-adv-x="455" />
<glyph unicode="&#x200a;" horiz-adv-x="126" />
<glyph unicode="&#x2010;" horiz-adv-x="800" d="M61 573l45 185h678l-45 -185h-678z" />
<glyph unicode="&#x2011;" horiz-adv-x="800" d="M61 573l45 185h678l-45 -185h-678z" />
<glyph unicode="&#x2012;" horiz-adv-x="800" d="M61 573l45 185h678l-45 -185h-678z" />
<glyph unicode="&#x2013;" horiz-adv-x="1245" d="M61 573l45 185h1123l-45 -185h-1123z" />
<glyph unicode="&#x2014;" horiz-adv-x="1802" d="M61 573l45 185h1680l-45 -185h-1680z" />
<glyph unicode="&#x2018;" horiz-adv-x="477" d="M250 1217q12 45 47 100l250 373l102 -48l-166 -247l-30 -21q59 0 84 -44.5t8 -112.5q-19 -74 -68 -118t-119 -44t-98.5 44.5t-9.5 117.5z" />
<glyph unicode="&#x2019;" horiz-adv-x="477" d="M219 1092l166 249l31 19q-59 0 -84 45t-8 115q19 73 67.5 116t118.5 43t98.5 -44t9.5 -115q-12 -48 -47 -103l-249 -373z" />
<glyph unicode="&#x201a;" horiz-adv-x="477" d="M-121 -283l168 250l31 19q-60 0 -85 44.5t-7 114.5q18 72 66.5 116t117.5 44q71 0 100 -44t11 -116q-8 -33 -48 -102l-251 -373z" />
<glyph unicode="&#x201c;" horiz-adv-x="851" d="M250 1217q12 45 47 100l250 373l102 -48l-166 -247l-30 -21q59 0 84 -44.5t8 -112.5q-19 -74 -68 -118t-119 -44t-98.5 44.5t-9.5 117.5zM625 1217q12 45 47 100l250 373l102 -48l-166 -247l-31 -21q59 0 84.5 -44.5t8.5 -112.5q-19 -74 -67.5 -118t-117.5 -44 q-71 0 -100 44.5t-10 117.5z" />
<glyph unicode="&#x201d;" horiz-adv-x="851" d="M219 1092l166 249l31 19q-59 0 -84 45t-8 115q19 73 67.5 116t118.5 43t98.5 -44t9.5 -115q-12 -48 -47 -103l-249 -373zM594 1092l168 249l29 19q-59 0 -83.5 45t-9.5 115q19 73 68 116t119 43t98.5 -44t9.5 -115q-8 -43 -47 -103l-250 -373z" />
<glyph unicode="&#x201e;" horiz-adv-x="851" d="M-121 -283l168 250l31 19q-60 0 -85 44.5t-7 114.5q18 72 66.5 116t117.5 44q71 0 100 -44t11 -116q-8 -33 -48 -102l-251 -373zM254 -283l168 250l31 19q-61 0 -86 44.5t-7 114.5q18 72 67 116t118 44q71 0 99.5 -44t10.5 -116q-9 -36 -47 -102l-252 -373z" />
<glyph unicode="&#x2022;" horiz-adv-x="731" d="M63 829q28 114 128.5 195.5t214.5 81.5t173.5 -81.5t30.5 -195.5q-28 -115 -128 -196.5t-214 -81.5t-174 81.5t-31 196.5z" />
<glyph unicode="&#x2026;" horiz-adv-x="1710" d="M14 141q18 72 67 116t118 44q70 0 97 -43.5t9 -116.5t-66.5 -117t-117.5 -44q-70 0 -97.5 43.5t-9.5 117.5zM592 141q19 73 67 116.5t117 43.5q71 0 98.5 -44t8.5 -116q-18 -73 -67 -117t-118 -44q-70 0 -97 43.5t-9 117.5zM1169 141q19 73 68 116.5t119 43.5 q69 0 96 -44t8 -116q-18 -73 -66.5 -117t-117.5 -44q-70 0 -97.5 43.5t-9.5 117.5z" />
<glyph unicode="&#x202f;" horiz-adv-x="455" />
<glyph unicode="&#x2039;" horiz-adv-x="757" d="M98 522l512 414l95 -127l-232 -188l-141 -97l-2 -4l94 -98l139 -186l-157 -127z" />
<glyph unicode="&#x203a;" horiz-adv-x="757" d="M29 236l229 186l143 98v4l-94 97l-137 188l156 127l307 -414l-510 -413z" />
<glyph unicode="&#x205f;" horiz-adv-x="569" />
<glyph unicode="&#x20ac;" horiz-adv-x="1519" d="M76 553l45 184h143l-4 21q2 10 6 30.5t6 30.5q18 63 23 82l16 21h-145l47 184h172l-4 20q122 256 322.5 404.5t439.5 148.5q165 0 278 -66t166 -188l-174 -141q-70 211 -313 211q-160 0 -293.5 -100.5t-220.5 -268.5l-19 -20h613l-45 -184h-648l9 -21q-19 -65 -23 -82 q-5 -18 -14 -61l-19 -21h647l-45 -184h-616l8 -21q0 -169 83.5 -268.5t250.5 -99.5q243 0 420 209l102 -140q-114 -121 -260 -187t-307 -66q-250 0 -376.5 146.5t-117.5 405.5l15 21h-168z" />
<glyph unicode="&#x2122;" horiz-adv-x="1687" d="M305 1565l23 92h684l-23 -92h-299l2 -11l-178 -727h-96l178 727l8 11h-299zM883 827l204 830h87l141 -553l14 -96h2l66 96l411 553h86l-204 -830h-97l150 611h-2l-86 -131l-371 -490h-2l-129 496l-20 125h-3l-151 -611h-96z" />
<glyph unicode="&#x25fc;" horiz-adv-x="1290" d="M0 0v1290h1290v-1290h-1290z" />
<glyph unicode="&#xfb01;" horiz-adv-x="1386" d="M-428 -403l43 178q67 -37 166 -37q116 0 186.5 64.5t104.5 197.5l270 1098l14 20h-161l43 172h161l-4 21l4 16q45 189 181.5 296.5t324.5 107.5q92 0 166 -33l-43 -176q-73 32 -162 32q-226 0 -284 -243l-17 -21h815l-317 -1290h-186l274 1118h-627l4 -20l-270 -1098 q-54 -215 -181.5 -327.5t-314.5 -112.5q-109 0 -190 37zM1241 1597q14 61 55 98.5t101 37.5q59 0 81.5 -37.5t8.5 -98.5q-16 -61 -57 -98t-101 -37q-58 0 -80 37t-8 98z" />
<glyph unicode="&#xfb02;" horiz-adv-x="1386" d="M-428 -403l43 178q67 -37 166 -37q116 0 186.5 64.5t104.5 197.5l270 1098l14 20h-161l43 172h161l-4 21l4 16q44 184 177 287.5t327 103.5h584l-424 -1718h-186l380 1542h-395q-224 0 -278 -219l-2 -12l-17 -21h406l-41 -172h-406l4 -20l-270 -1098 q-54 -215 -181.5 -327.5t-314.5 -112.5q-109 0 -190 37z" />
</font>
</defs>
</svg>
